%TF.GenerationSoftware,KiCad,Pcbnew,7.0.1*%
%TF.CreationDate,2023-08-11T20:05:16-05:00*%
%TF.ProjectId,IN12_carrier,494e3132-5f63-4617-9272-6965722e6b69,PRELIM*%
%TF.SameCoordinates,Original*%
%TF.FileFunction,Copper,L1,Top*%
%TF.FilePolarity,Positive*%
%FSLAX46Y46*%
G04 Gerber Fmt 4.6, Leading zero omitted, Abs format (unit mm)*
G04 Created by KiCad (PCBNEW 7.0.1) date 2023-08-11 20:05:16*
%MOMM*%
%LPD*%
G01*
G04 APERTURE LIST*
%ADD10C,0.150000*%
%TA.AperFunction,NonConductor*%
%ADD11C,0.150000*%
%TD*%
%TA.AperFunction,SMDPad,CuDef*%
%ADD12R,0.750000X0.800000*%
%TD*%
%TA.AperFunction,SMDPad,CuDef*%
%ADD13R,0.800000X0.800000*%
%TD*%
%TA.AperFunction,ComponentPad*%
%ADD14R,2.000000X2.000000*%
%TD*%
%TA.AperFunction,ComponentPad*%
%ADD15C,2.000000*%
%TD*%
%TA.AperFunction,SMDPad,CuDef*%
%ADD16R,0.800000X0.750000*%
%TD*%
%TA.AperFunction,SMDPad,CuDef*%
%ADD17R,1.500000X1.100000*%
%TD*%
%TA.AperFunction,ComponentPad*%
%ADD18R,1.800000X1.800000*%
%TD*%
%TA.AperFunction,ComponentPad*%
%ADD19C,1.800000*%
%TD*%
%TA.AperFunction,ComponentPad*%
%ADD20R,1.700000X1.700000*%
%TD*%
%TA.AperFunction,ComponentPad*%
%ADD21O,1.700000X1.700000*%
%TD*%
%TA.AperFunction,ViaPad*%
%ADD22C,0.400000*%
%TD*%
%TA.AperFunction,Conductor*%
%ADD23C,0.254000*%
%TD*%
%TA.AperFunction,Conductor*%
%ADD24C,0.635000*%
%TD*%
%TA.AperFunction,Conductor*%
%ADD25C,0.250000*%
%TD*%
G04 APERTURE END LIST*
D10*
D11*
X91719304Y-84027819D02*
X91147876Y-84027819D01*
X91433590Y-84027819D02*
X91433590Y-83027819D01*
X91433590Y-83027819D02*
X91338352Y-83170676D01*
X91338352Y-83170676D02*
X91243114Y-83265914D01*
X91243114Y-83265914D02*
X91147876Y-83313533D01*
D12*
%TO.P,C1011,1*%
%TO.N,+3.3V*%
X39677500Y-101124950D03*
%TO.P,C1011,2*%
%TO.N,GND*%
X39677500Y-99624950D03*
%TD*%
%TO.P,C1012,1*%
%TO.N,+3.3V*%
X39677500Y-107015800D03*
%TO.P,C1012,2*%
%TO.N,GND*%
X39677500Y-105515800D03*
%TD*%
%TO.P,C1017,1*%
%TO.N,+3.3V*%
X39682600Y-95242900D03*
%TO.P,C1017,2*%
%TO.N,GND*%
X39682600Y-93742900D03*
%TD*%
D13*
%TO.P,D1009,1,K*%
%TO.N,GND*%
X141706800Y-84008600D03*
%TO.P,D1009,2,A*%
%TO.N,Net-(D1009-A)*%
X141706800Y-85608600D03*
%TD*%
D14*
%TO.P,V601,1,Anode*%
%TO.N,Anode_5*%
X61485754Y-115344000D03*
D15*
%TO.P,V601,2,Digit0*%
%TO.N,Cathode_0*%
X63235754Y-111844000D03*
%TO.P,V601,3,Digit9*%
%TO.N,Cathode_9*%
X63235754Y-107344000D03*
%TO.P,V601,4,Digit8*%
%TO.N,Cathode_8*%
X63235754Y-102844000D03*
%TO.P,V601,5,Digit7*%
%TO.N,Cathode_7*%
X61485754Y-99344000D03*
X61485754Y-99344000D03*
X61485754Y-99344000D03*
X61485754Y-99344000D03*
%TO.P,V601,6,Digit6*%
%TO.N,Cathode_6*%
X57485754Y-98344000D03*
%TO.P,V601,7,Digit5*%
%TO.N,Cathode_5*%
X53485754Y-99344000D03*
%TO.P,V601,8,Digit4*%
%TO.N,Cathode_4*%
X51735754Y-102844000D03*
%TO.P,V601,9,Digit3*%
%TO.N,Cathode_3*%
X51735754Y-107344000D03*
%TO.P,V601,10,Digit2*%
%TO.N,Cathode_2*%
X51735754Y-111844000D03*
%TO.P,V601,11,Digit1*%
%TO.N,Cathode_1*%
X53485754Y-115344000D03*
%TO.P,V601,12,DP*%
%TO.N,Cathode_DP*%
X57485754Y-116344000D03*
%TD*%
D16*
%TO.P,C1006,1*%
%TO.N,Pushbutton_Power*%
X38450000Y-91749700D03*
%TO.P,C1006,2*%
%TO.N,GND*%
X39950000Y-91749700D03*
%TD*%
D12*
%TO.P,C1013,1*%
%TO.N,+3.3V*%
X39682600Y-112889050D03*
%TO.P,C1013,2*%
%TO.N,GND*%
X39682600Y-111389050D03*
%TD*%
D17*
%TO.P,D702,1,A*%
%TO.N,+3.3V*%
X122621464Y-112432400D03*
%TO.P,D702,2,BK*%
%TO.N,TUBE3_LED_B*%
X125621464Y-112432400D03*
%TO.P,D702,3,GK*%
%TO.N,TUBE3_LED_G*%
X125621464Y-113932400D03*
%TO.P,D702,4,RK*%
%TO.N,TUBE3_LED_R*%
X122621464Y-113932400D03*
%TD*%
D16*
%TO.P,C1005,1*%
%TO.N,Pushbutton_Down*%
X38424600Y-115277900D03*
%TO.P,C1005,2*%
%TO.N,GND*%
X39924600Y-115277900D03*
%TD*%
%TO.P,C1004,1*%
%TO.N,Pushbutton_Up*%
X38424600Y-109395850D03*
%TO.P,C1004,2*%
%TO.N,GND*%
X39924600Y-109395850D03*
%TD*%
D13*
%TO.P,D1005,1,K*%
%TO.N,GND*%
X133223200Y-84008600D03*
%TO.P,D1005,2,A*%
%TO.N,Net-(D1005-A)*%
X133223200Y-85608600D03*
%TD*%
%TO.P,D1003,1,K*%
%TO.N,GND*%
X128956000Y-84008600D03*
%TO.P,D1003,2,A*%
%TO.N,Net-(D1003-A)*%
X128956000Y-85608600D03*
%TD*%
D16*
%TO.P,C1015,1*%
%TO.N,Pushbutton_Left*%
X38444900Y-97631750D03*
%TO.P,C1015,2*%
%TO.N,GND*%
X39944900Y-97631750D03*
%TD*%
D17*
%TO.P,D703,1,A*%
%TO.N,+3.3V*%
X100430198Y-106594000D03*
%TO.P,D703,2,BK*%
%TO.N,COLON0_LED_B*%
X103430198Y-106594000D03*
%TO.P,D703,3,GK*%
%TO.N,COLON0_LED_G*%
X103430198Y-108094000D03*
%TO.P,D703,4,RK*%
%TO.N,COLON0_LED_R*%
X100430198Y-108094000D03*
%TD*%
%TO.P,D706,1,A*%
%TO.N,+3.3V*%
X167096864Y-106594000D03*
%TO.P,D706,2,BK*%
%TO.N,COLON1_LED_B*%
X170096864Y-106594000D03*
%TO.P,D706,3,GK*%
%TO.N,COLON1_LED_G*%
X170096864Y-108094000D03*
%TO.P,D706,4,RK*%
%TO.N,COLON1_LED_R*%
X167096864Y-108094000D03*
%TD*%
%TO.P,D705,1,A*%
%TO.N,+3.3V*%
X78177020Y-112432400D03*
%TO.P,D705,2,BK*%
%TO.N,TUBE4_LED_B*%
X81177020Y-112432400D03*
%TO.P,D705,3,GK*%
%TO.N,TUBE4_LED_G*%
X81177020Y-113932400D03*
%TO.P,D705,4,RK*%
%TO.N,TUBE4_LED_R*%
X78177020Y-113932400D03*
%TD*%
D13*
%TO.P,D1001,1,K*%
%TO.N,GND*%
X124663400Y-84008600D03*
%TO.P,D1001,2,A*%
%TO.N,Net-(D1001-A)*%
X124663400Y-85608600D03*
%TD*%
D17*
%TO.P,D701,1,A*%
%TO.N,+3.3V*%
X211510350Y-112432400D03*
%TO.P,D701,2,BK*%
%TO.N,TUBE0_LED_B*%
X214510350Y-112432400D03*
%TO.P,D701,3,GK*%
%TO.N,TUBE0_LED_G*%
X214510350Y-113932400D03*
%TO.P,D701,4,RK*%
%TO.N,TUBE0_LED_R*%
X211510350Y-113932400D03*
%TD*%
D18*
%TO.P,V609,1,Anode*%
%TO.N,Net-(V609-Anode)*%
X167321862Y-103177335D03*
D19*
%TO.P,V609,2,Kathode*%
%TO.N,Colon_2_Cathode*%
X169861862Y-103177335D03*
%TD*%
D16*
%TO.P,C1003,1*%
%TO.N,Pushbutton_Right*%
X38429700Y-103505000D03*
%TO.P,C1003,2*%
%TO.N,GND*%
X39929700Y-103505000D03*
%TD*%
D17*
%TO.P,D707,1,A*%
%TO.N,+3.3V*%
X144843686Y-112432400D03*
%TO.P,D707,2,BK*%
%TO.N,TUBE2_LED_B*%
X147843686Y-112432400D03*
%TO.P,D707,3,GK*%
%TO.N,TUBE2_LED_G*%
X147843686Y-113932400D03*
%TO.P,D707,4,RK*%
%TO.N,TUBE2_LED_R*%
X144843686Y-113932400D03*
%TD*%
D14*
%TO.P,V602,1,Anode*%
%TO.N,Anode_1*%
X194819084Y-115344000D03*
D15*
%TO.P,V602,2,Digit0*%
%TO.N,Cathode_0*%
X196569084Y-111844000D03*
%TO.P,V602,3,Digit9*%
%TO.N,Cathode_9*%
X196569084Y-107344000D03*
%TO.P,V602,4,Digit8*%
%TO.N,Cathode_8*%
X196569084Y-102844000D03*
%TO.P,V602,5,Digit7*%
%TO.N,Cathode_7*%
X194819084Y-99344000D03*
X194819084Y-99344000D03*
X194819084Y-99344000D03*
X194819084Y-99344000D03*
%TO.P,V602,6,Digit6*%
%TO.N,Cathode_6*%
X190819084Y-98344000D03*
%TO.P,V602,7,Digit5*%
%TO.N,Cathode_5*%
X186819084Y-99344000D03*
%TO.P,V602,8,Digit4*%
%TO.N,Cathode_4*%
X185069084Y-102844000D03*
%TO.P,V602,9,Digit3*%
%TO.N,Cathode_3*%
X185069084Y-107344000D03*
%TO.P,V602,10,Digit2*%
%TO.N,Cathode_2*%
X185069084Y-111844000D03*
%TO.P,V602,11,Digit1*%
%TO.N,Cathode_1*%
X186819084Y-115344000D03*
%TO.P,V602,12,DP*%
%TO.N,Cathode_DP*%
X190819084Y-116344000D03*
%TD*%
D13*
%TO.P,D1011,1,K*%
%TO.N,GND*%
X145872400Y-84008600D03*
%TO.P,D1011,2,A*%
%TO.N,Net-(D1011-A)*%
X145872400Y-85608600D03*
%TD*%
%TO.P,D1007,1,K*%
%TO.N,GND*%
X137490400Y-84008600D03*
%TO.P,D1007,2,A*%
%TO.N,Net-(D1007-A)*%
X137490400Y-85608600D03*
%TD*%
%TO.P,D901,1,K*%
%TO.N,GND*%
X148006000Y-84008600D03*
%TO.P,D901,2,A*%
%TO.N,Net-(D901-A)*%
X148006000Y-85608600D03*
%TD*%
D14*
%TO.P,V605,1,Anode*%
%TO.N,Anode_3*%
X128152418Y-115344000D03*
D15*
%TO.P,V605,2,Digit0*%
%TO.N,Cathode_0*%
X129902418Y-111844000D03*
%TO.P,V605,3,Digit9*%
%TO.N,Cathode_9*%
X129902418Y-107344000D03*
%TO.P,V605,4,Digit8*%
%TO.N,Cathode_8*%
X129902418Y-102844000D03*
%TO.P,V605,5,Digit7*%
%TO.N,Cathode_7*%
X128152418Y-99344000D03*
X128152418Y-99344000D03*
X128152418Y-99344000D03*
X128152418Y-99344000D03*
%TO.P,V605,6,Digit6*%
%TO.N,Cathode_6*%
X124152418Y-98344000D03*
%TO.P,V605,7,Digit5*%
%TO.N,Cathode_5*%
X120152418Y-99344000D03*
%TO.P,V605,8,Digit4*%
%TO.N,Cathode_4*%
X118402418Y-102844000D03*
%TO.P,V605,9,Digit3*%
%TO.N,Cathode_3*%
X118402418Y-107344000D03*
%TO.P,V605,10,Digit2*%
%TO.N,Cathode_2*%
X118402418Y-111844000D03*
%TO.P,V605,11,Digit1*%
%TO.N,Cathode_1*%
X120152418Y-115344000D03*
%TO.P,V605,12,DP*%
%TO.N,Cathode_DP*%
X124152418Y-116344000D03*
%TD*%
D14*
%TO.P,V604,1,Anode*%
%TO.N,Anode_0*%
X217041304Y-115344000D03*
D15*
%TO.P,V604,2,Digit0*%
%TO.N,Cathode_0*%
X218791304Y-111844000D03*
%TO.P,V604,3,Digit9*%
%TO.N,Cathode_9*%
X218791304Y-107344000D03*
%TO.P,V604,4,Digit8*%
%TO.N,Cathode_8*%
X218791304Y-102844000D03*
%TO.P,V604,5,Digit7*%
%TO.N,Cathode_7*%
X217041304Y-99344000D03*
X217041304Y-99344000D03*
X217041304Y-99344000D03*
X217041304Y-99344000D03*
%TO.P,V604,6,Digit6*%
%TO.N,Cathode_6*%
X213041304Y-98344000D03*
%TO.P,V604,7,Digit5*%
%TO.N,Cathode_5*%
X209041304Y-99344000D03*
%TO.P,V604,8,Digit4*%
%TO.N,Cathode_4*%
X207291304Y-102844000D03*
%TO.P,V604,9,Digit3*%
%TO.N,Cathode_3*%
X207291304Y-107344000D03*
%TO.P,V604,10,Digit2*%
%TO.N,Cathode_2*%
X207291304Y-111844000D03*
%TO.P,V604,11,Digit1*%
%TO.N,Cathode_1*%
X209041304Y-115344000D03*
%TO.P,V604,12,DP*%
%TO.N,Cathode_DP*%
X213041304Y-116344000D03*
%TD*%
D14*
%TO.P,V608,1,Anode*%
%TO.N,Anode_2*%
X150374640Y-115344000D03*
D15*
%TO.P,V608,2,Digit0*%
%TO.N,Cathode_0*%
X152124640Y-111844000D03*
%TO.P,V608,3,Digit9*%
%TO.N,Cathode_9*%
X152124640Y-107344000D03*
%TO.P,V608,4,Digit8*%
%TO.N,Cathode_8*%
X152124640Y-102844000D03*
%TO.P,V608,5,Digit7*%
%TO.N,Cathode_7*%
X150374640Y-99344000D03*
X150374640Y-99344000D03*
X150374640Y-99344000D03*
X150374640Y-99344000D03*
%TO.P,V608,6,Digit6*%
%TO.N,Cathode_6*%
X146374640Y-98344000D03*
%TO.P,V608,7,Digit5*%
%TO.N,Cathode_5*%
X142374640Y-99344000D03*
%TO.P,V608,8,Digit4*%
%TO.N,Cathode_4*%
X140624640Y-102844000D03*
%TO.P,V608,9,Digit3*%
%TO.N,Cathode_3*%
X140624640Y-107344000D03*
%TO.P,V608,10,Digit2*%
%TO.N,Cathode_2*%
X140624640Y-111844000D03*
%TO.P,V608,11,Digit1*%
%TO.N,Cathode_1*%
X142374640Y-115344000D03*
%TO.P,V608,12,DP*%
%TO.N,Cathode_DP*%
X146374640Y-116344000D03*
%TD*%
D18*
%TO.P,V610,1,Anode*%
%TO.N,Net-(V610-Anode)*%
X167321862Y-111510665D03*
D19*
%TO.P,V610,2,Kathode*%
%TO.N,Colon_3_Cathode*%
X169861862Y-111510665D03*
%TD*%
D13*
%TO.P,D1002,1,K*%
%TO.N,GND*%
X126873200Y-84008600D03*
%TO.P,D1002,2,A*%
%TO.N,Net-(D1002-A)*%
X126873200Y-85608600D03*
%TD*%
%TO.P,D1010,1,K*%
%TO.N,GND*%
X143738800Y-84008600D03*
%TO.P,D1010,2,A*%
%TO.N,Net-(D1010-A)*%
X143738800Y-85608600D03*
%TD*%
%TO.P,D1004,1,K*%
%TO.N,GND*%
X130988000Y-84008600D03*
%TO.P,D1004,2,A*%
%TO.N,Net-(D1004-A)*%
X130988000Y-85608600D03*
%TD*%
%TO.P,D1008,1,K*%
%TO.N,GND*%
X139573200Y-84008600D03*
%TO.P,D1008,2,A*%
%TO.N,Net-(D1008-A)*%
X139573200Y-85608600D03*
%TD*%
D18*
%TO.P,V606,1,Anode*%
%TO.N,Net-(V606-Anode)*%
X100655196Y-103177335D03*
D19*
%TO.P,V606,2,Kathode*%
%TO.N,Colon_0_Cathode*%
X103195196Y-103177335D03*
%TD*%
D17*
%TO.P,D708,1,A*%
%TO.N,+3.3V*%
X55954800Y-112432400D03*
%TO.P,D708,2,BK*%
%TO.N,TUBE5_LED_B*%
X58954800Y-112432400D03*
%TO.P,D708,3,GK*%
%TO.N,TUBE5_LED_G*%
X58954800Y-113932400D03*
%TO.P,D708,4,RK*%
%TO.N,TUBE5_LED_R*%
X55954800Y-113932400D03*
%TD*%
D13*
%TO.P,D1006,1,K*%
%TO.N,GND*%
X135255200Y-84008600D03*
%TO.P,D1006,2,A*%
%TO.N,Net-(D1006-A)*%
X135255200Y-85608600D03*
%TD*%
D12*
%TO.P,C1014,1*%
%TO.N,+3.3V*%
X39682600Y-118771100D03*
%TO.P,C1014,2*%
%TO.N,GND*%
X39682600Y-117271100D03*
%TD*%
D18*
%TO.P,V607,1,Anode*%
%TO.N,Net-(V607-Anode)*%
X100655196Y-111510665D03*
D19*
%TO.P,V607,2,Kathode*%
%TO.N,Colon_1_Cathode*%
X103195196Y-111510665D03*
%TD*%
D14*
%TO.P,V603,1,Anode*%
%TO.N,Anode_4*%
X83707974Y-115344000D03*
D15*
%TO.P,V603,2,Digit0*%
%TO.N,Cathode_0*%
X85457974Y-111844000D03*
%TO.P,V603,3,Digit9*%
%TO.N,Cathode_9*%
X85457974Y-107344000D03*
%TO.P,V603,4,Digit8*%
%TO.N,Cathode_8*%
X85457974Y-102844000D03*
%TO.P,V603,5,Digit7*%
%TO.N,Cathode_7*%
X83707974Y-99344000D03*
X83707974Y-99344000D03*
X83707974Y-99344000D03*
X83707974Y-99344000D03*
%TO.P,V603,6,Digit6*%
%TO.N,Cathode_6*%
X79707974Y-98344000D03*
%TO.P,V603,7,Digit5*%
%TO.N,Cathode_5*%
X75707974Y-99344000D03*
%TO.P,V603,8,Digit4*%
%TO.N,Cathode_4*%
X73957974Y-102844000D03*
%TO.P,V603,9,Digit3*%
%TO.N,Cathode_3*%
X73957974Y-107344000D03*
%TO.P,V603,10,Digit2*%
%TO.N,Cathode_2*%
X73957974Y-111844000D03*
%TO.P,V603,11,Digit1*%
%TO.N,Cathode_1*%
X75707974Y-115344000D03*
%TO.P,V603,12,DP*%
%TO.N,Cathode_DP*%
X79707974Y-116344000D03*
%TD*%
D17*
%TO.P,D704,1,A*%
%TO.N,+3.3V*%
X189288130Y-112432400D03*
%TO.P,D704,2,BK*%
%TO.N,TUBE1_LED_B*%
X192288130Y-112432400D03*
%TO.P,D704,3,GK*%
%TO.N,TUBE1_LED_G*%
X192288130Y-113932400D03*
%TO.P,D704,4,RK*%
%TO.N,TUBE1_LED_R*%
X189288130Y-113932400D03*
%TD*%
D20*
%TO.P,J1001,1,Pin_1*%
%TO.N,Pushbutton_Power_SNS*%
X74625200Y-84328000D03*
D21*
%TO.P,J1001,2,Pin_2*%
%TO.N,Pushbutton_Left_SNS*%
X77165200Y-84328000D03*
%TO.P,J1001,3,Pin_3*%
%TO.N,Pushbutton_Right_SNS*%
X79705200Y-84328000D03*
%TO.P,J1001,4,Pin_4*%
%TO.N,Pushbutton_Up_SNS*%
X82245200Y-84328000D03*
%TO.P,J1001,5,Pin_5*%
%TO.N,Pushbutton_Down_SNS*%
X84785200Y-84328000D03*
%TD*%
D22*
%TO.N,GND*%
X39674800Y-112141000D03*
X107848400Y-107365800D03*
X39192200Y-115290600D03*
X106959400Y-103784400D03*
X228159867Y-110846400D03*
X222497014Y-84950400D03*
X109296200Y-100965000D03*
X208475164Y-84950400D03*
X216878114Y-84950400D03*
X204978000Y-128905000D03*
X217881200Y-129362200D03*
X108534200Y-100965000D03*
X174523400Y-112166400D03*
X39217600Y-97637600D03*
X39167002Y-109397800D03*
X39674800Y-100380800D03*
X179400200Y-103225600D03*
X156057600Y-110312200D03*
X231800400Y-96846400D03*
X90525600Y-111861600D03*
X86664800Y-116713000D03*
X231800400Y-100846400D03*
X225475800Y-131165600D03*
X231800400Y-93846400D03*
X217881200Y-128651000D03*
X205536800Y-121259600D03*
X149174200Y-84023200D03*
X200863200Y-129565400D03*
X155397200Y-114503200D03*
X39243000Y-91744800D03*
X194030600Y-130302000D03*
X156972000Y-110337600D03*
X231800400Y-92846400D03*
X228159867Y-107846400D03*
X116611400Y-121285000D03*
X107823000Y-112166400D03*
X180263800Y-97739200D03*
X138887200Y-121285000D03*
X200048922Y-84963200D03*
X231800400Y-106846400D03*
X39674800Y-106222800D03*
X109296200Y-100203000D03*
X217119200Y-129362200D03*
X160858200Y-110820200D03*
X231800400Y-121846400D03*
X110058200Y-101727000D03*
X179400200Y-102362000D03*
X156057600Y-111201200D03*
X105892600Y-99085400D03*
X72186800Y-121259600D03*
X39674800Y-117983000D03*
X156972000Y-111201200D03*
X231800400Y-95846400D03*
X174507400Y-107657200D03*
X89611200Y-112725200D03*
X214068664Y-84950400D03*
X112119600Y-100715000D03*
X94386400Y-112318800D03*
X90525600Y-112725200D03*
X110058200Y-100965000D03*
X211259214Y-84950400D03*
X183311800Y-121259600D03*
X178485800Y-102336600D03*
X231800400Y-110846400D03*
X109296200Y-101727000D03*
X217119200Y-128651000D03*
X205665714Y-84950400D03*
X39192200Y-103505000D03*
X231800400Y-114846400D03*
X202856264Y-84950400D03*
X174599600Y-102768400D03*
X39674800Y-94488000D03*
X231800400Y-122846400D03*
X49987200Y-121259600D03*
X219687564Y-84950400D03*
X210642200Y-128879600D03*
X231800400Y-115846400D03*
X228115914Y-84950400D03*
X89611200Y-111836200D03*
X231800400Y-91846400D03*
X108534200Y-101727000D03*
X223545400Y-126415800D03*
X178485800Y-103225600D03*
X108534200Y-100203000D03*
X231800400Y-94846400D03*
X110058200Y-100203000D03*
X228159867Y-100846400D03*
X231800400Y-119846400D03*
X231800400Y-120846400D03*
X231800400Y-107846400D03*
X225306464Y-84950400D03*
%TO.N,+3.3V*%
X228159867Y-122846400D03*
X105892600Y-100736400D03*
X39674800Y-114122200D03*
X120904000Y-111683800D03*
X211251800Y-114935000D03*
X39700200Y-96443800D03*
X228549200Y-131165600D03*
X113538000Y-104800400D03*
X143256000Y-112064800D03*
X54686200Y-112445800D03*
X99060000Y-106578400D03*
X161645600Y-113030000D03*
X228159867Y-121846400D03*
X165303200Y-105867200D03*
X72159414Y-108663186D03*
X228159867Y-120846400D03*
X188163200Y-110744000D03*
X158115000Y-112191800D03*
X107823000Y-103759000D03*
X228159867Y-119846400D03*
X174599600Y-99644200D03*
X76581000Y-112166400D03*
X92964000Y-110337600D03*
X39674800Y-108229400D03*
X94386400Y-115443000D03*
X210413600Y-112496600D03*
X39674800Y-102387400D03*
X222783400Y-130048000D03*
X39674800Y-119938800D03*
X213385400Y-131140200D03*
X92964000Y-112166400D03*
%TO.N,TUBE0_LED_B*%
X213055200Y-112420400D03*
%TO.N,TUBE0_LED_G*%
X213385400Y-113893600D03*
%TO.N,TUBE0_LED_R*%
X190728600Y-101295200D03*
X212598000Y-113944400D03*
%TO.N,TUBE3_LED_B*%
X87401400Y-111633000D03*
X124358400Y-112445800D03*
%TO.N,TUBE3_LED_G*%
X124231400Y-113944400D03*
X87401400Y-112318800D03*
%TO.N,TUBE3_LED_R*%
X124155200Y-113157000D03*
X87426800Y-112979200D03*
%TO.N,COLON0_LED_B*%
X153111200Y-109169200D03*
X101879400Y-106730800D03*
%TO.N,COLON0_LED_G*%
X152501600Y-109677200D03*
X104749600Y-108102400D03*
%TO.N,COLON0_LED_R*%
X153924000Y-111175800D03*
X101828600Y-108127800D03*
%TO.N,TUBE1_LED_B*%
X190703200Y-112191800D03*
X179146200Y-105765600D03*
%TO.N,TUBE1_LED_G*%
X179908200Y-105410000D03*
X190634373Y-113062773D03*
%TO.N,TUBE1_LED_R*%
X180441600Y-104597200D03*
X187985400Y-113538000D03*
%TO.N,TUBE4_LED_B*%
X89230200Y-109372400D03*
%TO.N,TUBE4_LED_G*%
X79654400Y-113334800D03*
%TO.N,TUBE4_LED_R*%
X79298800Y-113919000D03*
%TO.N,COLON1_LED_B*%
X168630600Y-106603800D03*
X156108400Y-107365800D03*
%TO.N,COLON1_LED_G*%
X168630600Y-108102400D03*
X155625800Y-108000800D03*
%TO.N,COLON1_LED_R*%
X165887400Y-108102400D03*
X155016200Y-108483400D03*
%TO.N,TUBE2_LED_B*%
X146685000Y-112496600D03*
%TO.N,TUBE2_LED_G*%
X149352000Y-102616000D03*
X155092400Y-97917000D03*
%TO.N,TUBE2_LED_R*%
X148412200Y-100812600D03*
X155829000Y-98171000D03*
%TO.N,TUBE5_LED_B*%
X91414600Y-109905800D03*
X57734200Y-112471200D03*
%TO.N,TUBE5_LED_G*%
X57632600Y-113614200D03*
X90728800Y-109220000D03*
%TO.N,TUBE5_LED_R*%
X57099200Y-113995200D03*
X89966800Y-109423200D03*
%TO.N,Net-(D1001-A)*%
X124663400Y-84834000D03*
%TO.N,Net-(D1002-A)*%
X126873200Y-84808600D03*
%TO.N,Net-(D1003-A)*%
X128956000Y-84808600D03*
%TO.N,Net-(D1004-A)*%
X130988000Y-84808600D03*
%TO.N,Net-(D1005-A)*%
X133223200Y-84808600D03*
%TO.N,Net-(D1006-A)*%
X135255200Y-84834000D03*
%TO.N,Net-(D1007-A)*%
X137490400Y-84834000D03*
%TO.N,Net-(D1008-A)*%
X139573200Y-84808600D03*
%TO.N,Net-(D1009-A)*%
X141706800Y-84808600D03*
%TO.N,Net-(D1010-A)*%
X143738800Y-84783200D03*
%TO.N,Net-(D1011-A)*%
X145872400Y-84808600D03*
%TO.N,+180V*%
X228159867Y-94846400D03*
X125330756Y-121169041D03*
X228159867Y-95846400D03*
X191967462Y-121221728D03*
X214192462Y-121221728D03*
X96205000Y-115036600D03*
X58655645Y-121203181D03*
X80855133Y-121241308D03*
X162890200Y-112496600D03*
X147555645Y-121203181D03*
%TO.N,Cathode_0*%
X215392000Y-97485200D03*
X196570600Y-118935500D03*
X218605100Y-118935500D03*
X85445600Y-118935500D03*
X173202600Y-118936000D03*
X129895600Y-118935500D03*
X152120600Y-118935500D03*
X63246000Y-118935000D03*
X173202600Y-85953600D03*
%TO.N,Cathode_2*%
X177063400Y-85953600D03*
X204419200Y-92024200D03*
X70764400Y-92024200D03*
X115671600Y-92024200D03*
X137972800Y-92024200D03*
X177063400Y-92024200D03*
X221411800Y-92036900D03*
X182499000Y-92024200D03*
X48945800Y-92024200D03*
X221716600Y-89814400D03*
%TO.N,Cathode_4*%
X180162200Y-94969600D03*
X140614400Y-94969600D03*
X185064400Y-94969600D03*
X180898800Y-85953600D03*
X51739800Y-94970600D03*
X216217714Y-86957000D03*
X118389400Y-94969600D03*
X214147400Y-94970600D03*
X207289400Y-94969600D03*
X73964800Y-94969600D03*
%TO.N,Cathode_6*%
X184785000Y-85953600D03*
X57480200Y-93014800D03*
X184785000Y-93014800D03*
X210624214Y-86931600D03*
X124155200Y-93014800D03*
X213029800Y-93014800D03*
X79705200Y-93014800D03*
X210616800Y-93014800D03*
X190804800Y-93014800D03*
X146380200Y-93014800D03*
%TO.N,Cathode_8*%
X85445600Y-88874600D03*
X152120600Y-88874600D03*
X218846400Y-88874600D03*
X188620400Y-85953600D03*
X129895600Y-88874600D03*
X196570600Y-88874600D03*
X218846400Y-88874600D03*
X205005314Y-86957000D03*
X63220600Y-89092000D03*
X188620400Y-88874600D03*
X205003400Y-88874600D03*
%TO.N,Cathode_1*%
X137007600Y-91046800D03*
X203428600Y-91046800D03*
X114681000Y-91046800D03*
X47904400Y-91059000D03*
X181508400Y-91046800D03*
X69773800Y-91046800D03*
X175133000Y-91046800D03*
X175133000Y-85953600D03*
%TO.N,Cathode_3*%
X50211754Y-96295446D03*
X178993800Y-85953600D03*
X71856600Y-95948500D03*
X215620600Y-95961200D03*
X217487500Y-86919800D03*
X138963400Y-95948500D03*
X178968400Y-95948500D03*
X183489600Y-95948500D03*
X116662200Y-95948500D03*
X205511400Y-95947000D03*
%TO.N,Cathode_5*%
X213433664Y-86957000D03*
X142367000Y-93992200D03*
X53492400Y-93980000D03*
X209042000Y-93992200D03*
X75717400Y-93992200D03*
X120142000Y-93992200D03*
X183794400Y-93992200D03*
X186817000Y-93992200D03*
X182854600Y-85953600D03*
%TO.N,Cathode_7*%
X83718400Y-90069400D03*
X61493400Y-90069400D03*
X217017600Y-90068400D03*
X186690000Y-85953600D03*
X128168400Y-90069400D03*
X207822800Y-90069400D03*
X150368000Y-90069400D03*
X194818000Y-90069400D03*
X207814764Y-86957000D03*
X186690000Y-90069400D03*
%TO.N,Cathode_9*%
X86969600Y-87897200D03*
X131419600Y-87897200D03*
X190550800Y-87897200D03*
X190550800Y-85953600D03*
X198094600Y-87897200D03*
X64846200Y-87897200D03*
X153644600Y-87897200D03*
X220370400Y-88900000D03*
%TO.N,Anode_1_DSP*%
X181762400Y-121666000D03*
X231800400Y-97846400D03*
%TO.N,Anode_3_DSP*%
X231800400Y-98846400D03*
X115087400Y-121640600D03*
%TO.N,Anode_5_DSP*%
X231800400Y-99846400D03*
X48437800Y-121920000D03*
%TO.N,Anode_0*%
X217043000Y-120954800D03*
%TO.N,Anode_2*%
X150393400Y-120954800D03*
%TO.N,Anode_4*%
X83718400Y-120954800D03*
%TO.N,Cathode_1_DSP*%
X231800400Y-101846400D03*
X225408064Y-83426400D03*
%TO.N,Cathode_3_DSP*%
X219789164Y-83426400D03*
X231800400Y-102846400D03*
%TO.N,Cathode_5_DSP*%
X214170264Y-83426400D03*
X231800400Y-103846400D03*
%TO.N,Anode_1*%
X194818000Y-120954800D03*
%TO.N,Anode_3*%
X128168400Y-120954800D03*
%TO.N,Anode_5*%
X61493400Y-120980200D03*
%TO.N,Cathode_7_DSP*%
X208576764Y-83426400D03*
X231800400Y-104846400D03*
%TO.N,Cathode_9_DSP*%
X231800400Y-105846400D03*
X202957864Y-83426400D03*
%TO.N,Colon_3_DSP*%
X231800400Y-109846400D03*
X175260000Y-122250200D03*
X175920400Y-113766600D03*
%TO.N,Anode_0_DSP*%
X228159867Y-97846400D03*
X203987400Y-121716800D03*
%TO.N,Colon_1_DSP*%
X231800400Y-108846400D03*
X110388400Y-112256000D03*
%TO.N,Colon_0_DSP*%
X109423200Y-108915200D03*
X228159867Y-108846400D03*
%TO.N,Cathode_DP*%
X57480200Y-117957600D03*
X146380200Y-117957600D03*
X124155200Y-117957600D03*
X194538600Y-113030000D03*
X79705200Y-117957600D03*
X213055200Y-117957600D03*
X192481200Y-85953600D03*
X190830200Y-117957600D03*
%TO.N,Tube_LED_Enable*%
X179120800Y-106553000D03*
X179451000Y-100177600D03*
X174574200Y-116128800D03*
X174548800Y-127482600D03*
X90220800Y-116980200D03*
X90220800Y-126148600D03*
%TO.N,+90V*%
X194437000Y-84023200D03*
X228159867Y-92846400D03*
X228159867Y-91846400D03*
X201117200Y-120954800D03*
X200622584Y-86575216D03*
%TO.N,Anode_2_DSP*%
X137363200Y-121677541D03*
X228159867Y-98846400D03*
%TO.N,Anode_4_DSP*%
X70662800Y-121945400D03*
X228159867Y-99846400D03*
%TO.N,Cathode_0_DSP*%
X228217514Y-83426400D03*
X228159867Y-101846400D03*
%TO.N,Cathode_2_DSP*%
X222598614Y-83426400D03*
X228159867Y-102846400D03*
%TO.N,Cathode_4_DSP*%
X228159867Y-103846400D03*
X216979714Y-83426400D03*
%TO.N,Display_Time_LED*%
X108000800Y-97282000D03*
X124663200Y-83058000D03*
%TO.N,Set_Time_LED*%
X108495400Y-97815400D03*
X126873000Y-83058000D03*
%TO.N,Display_Date_LED*%
X128955800Y-83058000D03*
X108991400Y-97256600D03*
%TO.N,Set_Date_LED*%
X130987800Y-83058000D03*
X109495400Y-97815400D03*
%TO.N,Display_Weekday_LED*%
X133223000Y-83058000D03*
X109982000Y-97256600D03*
%TO.N,Set_Weekday_LED*%
X135255000Y-83058000D03*
X110495400Y-97815400D03*
%TO.N,Display_Alarm_LED*%
X113030000Y-99466400D03*
X137490200Y-83058000D03*
%TO.N,Set_Alarm_LED*%
X112637000Y-100215000D03*
X139573000Y-83058000D03*
%TO.N,Alarm_Enable_LED*%
X112598200Y-101219000D03*
X141706600Y-83058000D03*
%TO.N,24HR_Mode_LED*%
X113385600Y-101701600D03*
X143738600Y-83058000D03*
%TO.N,Set_Brightness_LED*%
X112598200Y-102209600D03*
X145872200Y-83058000D03*
%TO.N,I2C_DSP_SDA*%
X177342800Y-99771200D03*
X179781200Y-128828800D03*
X224231200Y-128803400D03*
X177571400Y-113538000D03*
X227939600Y-128143000D03*
X231800400Y-116846400D03*
X110058200Y-115417600D03*
X111353600Y-105359200D03*
X105841800Y-101701600D03*
X109677200Y-126720600D03*
X177723800Y-106984800D03*
%TO.N,I2C_DSP_SCL*%
X177749200Y-115697000D03*
X111887000Y-104876600D03*
X178790600Y-99695000D03*
X228159867Y-116846400D03*
X178181000Y-106400600D03*
X110515400Y-126212600D03*
X179222400Y-127939800D03*
X111493300Y-116573300D03*
X226034600Y-125577600D03*
X106400600Y-102209600D03*
%TO.N,Net-(D901-A)*%
X148005800Y-84810600D03*
%TO.N,Cathode_6_DSP*%
X228159867Y-104846400D03*
X211360814Y-83426400D03*
%TO.N,Cathode_8_DSP*%
X228159867Y-105846400D03*
X222832182Y-88990936D03*
X205767314Y-83426400D03*
%TO.N,Cathode_DP_DSP*%
X200150522Y-83439200D03*
X222477150Y-92081957D03*
X228159867Y-106846400D03*
%TO.N,Colon_2_DSP*%
X228159867Y-109846400D03*
X176580800Y-122250200D03*
X176822600Y-113309400D03*
%TO.N,Pushbutton_Down*%
X228159867Y-113846400D03*
X37693600Y-115290600D03*
%TO.N,Pushbutton_Up*%
X37719000Y-109397800D03*
X231800400Y-112846400D03*
%TO.N,Pushbutton_Right*%
X37744400Y-103505000D03*
X228159867Y-112846400D03*
%TO.N,Pushbutton_Left*%
X37668200Y-97612200D03*
X231800400Y-111846400D03*
%TO.N,Pushbutton_Power*%
X228159867Y-111846400D03*
X37668200Y-91744800D03*
%TO.N,Pushbutton_Up_SNS*%
X43713400Y-110363000D03*
%TO.N,Pushbutton_Down_SNS*%
X43713400Y-116408200D03*
%TO.N,Set_Color_LED*%
X112826800Y-102895400D03*
X148005800Y-83058000D03*
%TO.N,Tube_ETC_Enable*%
X109194600Y-127812800D03*
X109270800Y-115265200D03*
X109575600Y-104013000D03*
X195630800Y-130302000D03*
X110693200Y-107035600D03*
%TD*%
D23*
%TO.N,GND*%
X39945100Y-91744800D02*
X39950000Y-91749700D01*
X39674800Y-105518500D02*
X39677500Y-105515800D01*
X39204900Y-115277900D02*
X39192200Y-115290600D01*
X39674800Y-111396850D02*
X39682600Y-111389050D01*
X39924600Y-115277900D02*
X39204900Y-115277900D01*
X39674800Y-106222800D02*
X39674800Y-105518500D01*
X39674800Y-99627650D02*
X39677500Y-99624950D01*
X39674800Y-100380800D02*
X39674800Y-99627650D01*
D24*
X145872400Y-84008600D02*
X148006000Y-84008600D01*
D23*
X39217600Y-97637600D02*
X39939050Y-97637600D01*
X39674800Y-112141000D02*
X39674800Y-111396850D01*
X39939050Y-97637600D02*
X39944900Y-97631750D01*
X39243000Y-91744800D02*
X39945100Y-91744800D01*
D24*
X124663400Y-84008600D02*
X145872400Y-84008600D01*
D23*
X39192200Y-103505000D02*
X39929700Y-103505000D01*
X39167002Y-109397800D02*
X39922650Y-109397800D01*
X39922650Y-109397800D02*
X39924600Y-109395850D01*
X39674800Y-94488000D02*
X39674800Y-93750700D01*
X39682600Y-117975200D02*
X39674800Y-117983000D01*
X39674800Y-93750700D02*
X39682600Y-93742900D01*
X39682600Y-117271100D02*
X39682600Y-117975200D01*
D24*
X149159600Y-84008600D02*
X149174200Y-84023200D01*
X148006000Y-84008600D02*
X149159600Y-84008600D01*
D23*
%TO.N,+3.3V*%
X54699600Y-112432400D02*
X54686200Y-112445800D01*
X99075600Y-106594000D02*
X99060000Y-106578400D01*
X100430198Y-106594000D02*
X99075600Y-106594000D01*
X165623600Y-106594000D02*
X165328600Y-106299000D01*
X39674800Y-108229400D02*
X39674800Y-107018500D01*
X39674800Y-112896850D02*
X39682600Y-112889050D01*
X143623600Y-112432400D02*
X143256000Y-112064800D01*
D24*
X92964000Y-113182400D02*
X92964000Y-112166400D01*
D23*
X78177020Y-112432400D02*
X76847000Y-112432400D01*
X167096864Y-106594000D02*
X165623600Y-106594000D01*
X121132600Y-112293400D02*
X120904000Y-112064800D01*
X144843686Y-112432400D02*
X143623600Y-112432400D01*
X122621464Y-112432400D02*
X121271600Y-112432400D01*
X211510350Y-112432400D02*
X210477800Y-112432400D01*
X210477800Y-112432400D02*
X210413600Y-112496600D01*
X120904000Y-112064800D02*
X120904000Y-111683800D01*
D24*
X94386400Y-114604800D02*
X92964000Y-113182400D01*
D23*
X55954800Y-112432400D02*
X54699600Y-112432400D01*
X165328600Y-106299000D02*
X165328600Y-105892600D01*
X39674800Y-102387400D02*
X39674800Y-101127650D01*
X39682600Y-118771100D02*
X39682600Y-119931000D01*
X39674800Y-114122200D02*
X39674800Y-112896850D01*
X39700200Y-95260500D02*
X39682600Y-95242900D01*
X76847000Y-112432400D02*
X76581000Y-112166400D01*
X165328600Y-105892600D02*
X165303200Y-105867200D01*
X39674800Y-107018500D02*
X39677500Y-107015800D01*
X189288130Y-111868930D02*
X188163200Y-110744000D01*
X39674800Y-101127650D02*
X39677500Y-101124950D01*
X39700200Y-96443800D02*
X39700200Y-95260500D01*
D24*
X94386400Y-115443000D02*
X94386400Y-114604800D01*
D23*
X189288130Y-112432400D02*
X189288130Y-111868930D01*
X121271600Y-112432400D02*
X121132600Y-112293400D01*
X39682600Y-119931000D02*
X39674800Y-119938800D01*
%TO.N,TUBE0_LED_B*%
X214498350Y-112420400D02*
X214510350Y-112432400D01*
X213055200Y-112420400D02*
X214498350Y-112420400D01*
%TO.N,TUBE0_LED_G*%
X213385400Y-113893600D02*
X214471550Y-113893600D01*
X214471550Y-113893600D02*
X214510350Y-113932400D01*
%TO.N,TUBE0_LED_R*%
X211522350Y-113944400D02*
X211510350Y-113932400D01*
X212598000Y-113944400D02*
X211522350Y-113944400D01*
%TO.N,TUBE3_LED_B*%
X124358400Y-112445800D02*
X125608064Y-112445800D01*
X125608064Y-112445800D02*
X125621464Y-112432400D01*
%TO.N,TUBE3_LED_G*%
X124231400Y-113944400D02*
X125609464Y-113944400D01*
X125609464Y-113944400D02*
X125621464Y-113932400D01*
%TO.N,TUBE3_LED_R*%
X124155200Y-113157000D02*
X124155200Y-113309400D01*
X124155200Y-113309400D02*
X123532200Y-113932400D01*
X123532200Y-113932400D02*
X122621464Y-113932400D01*
%TO.N,COLON0_LED_B*%
X101879400Y-106730800D02*
X103293398Y-106730800D01*
X103293398Y-106730800D02*
X103430198Y-106594000D01*
%TO.N,COLON0_LED_G*%
X104749600Y-108102400D02*
X103438598Y-108102400D01*
X103438598Y-108102400D02*
X103430198Y-108094000D01*
%TO.N,COLON0_LED_R*%
X101828600Y-108127800D02*
X100463998Y-108127800D01*
X100463998Y-108127800D02*
X100430198Y-108094000D01*
%TO.N,TUBE1_LED_B*%
X192288130Y-112432400D02*
X190943800Y-112432400D01*
X190943800Y-112432400D02*
X190703200Y-112191800D01*
%TO.N,TUBE1_LED_G*%
X190634373Y-113062773D02*
X191504000Y-113932400D01*
X191504000Y-113932400D02*
X192288130Y-113932400D01*
%TO.N,TUBE1_LED_R*%
X189288130Y-113932400D02*
X188379800Y-113932400D01*
X188379800Y-113932400D02*
X187985400Y-113538000D01*
%TO.N,TUBE4_LED_B*%
X84023200Y-109524800D02*
X83185000Y-110363000D01*
X82766600Y-112432400D02*
X81177020Y-112432400D01*
X83185000Y-110363000D02*
X83185000Y-112014000D01*
X89230200Y-109372400D02*
X89077800Y-109524800D01*
X83185000Y-112014000D02*
X82766600Y-112432400D01*
X89077800Y-109524800D02*
X84023200Y-109524800D01*
%TO.N,TUBE4_LED_G*%
X79654400Y-113334800D02*
X80252000Y-113932400D01*
X80252000Y-113932400D02*
X81177020Y-113932400D01*
%TO.N,TUBE4_LED_R*%
X79285400Y-113932400D02*
X79298800Y-113919000D01*
X78177020Y-113932400D02*
X79285400Y-113932400D01*
%TO.N,COLON1_LED_B*%
X168640400Y-106594000D02*
X168630600Y-106603800D01*
X170096864Y-106594000D02*
X168640400Y-106594000D01*
%TO.N,COLON1_LED_G*%
X168630600Y-108102400D02*
X170088464Y-108102400D01*
X170088464Y-108102400D02*
X170096864Y-108094000D01*
%TO.N,COLON1_LED_R*%
X165895800Y-108094000D02*
X165887400Y-108102400D01*
X167096864Y-108094000D02*
X165895800Y-108094000D01*
%TO.N,TUBE2_LED_B*%
X147779486Y-112496600D02*
X147843686Y-112432400D01*
X146685000Y-112496600D02*
X147779486Y-112496600D01*
%TO.N,TUBE2_LED_G*%
X150255640Y-112329560D02*
X150255640Y-105018240D01*
X148652800Y-113932400D02*
X150255640Y-112329560D01*
X149352000Y-104114600D02*
X149352000Y-102616000D01*
X150255640Y-105018240D02*
X149352000Y-104114600D01*
X147843686Y-113932400D02*
X148652800Y-113932400D01*
%TO.N,TUBE2_LED_R*%
X143980600Y-113932400D02*
X142493640Y-112445440D01*
X142493640Y-102184560D02*
X143865600Y-100812600D01*
X143865600Y-100812600D02*
X148412200Y-100812600D01*
X144843686Y-113932400D02*
X143980600Y-113932400D01*
X142493640Y-112445440D02*
X142493640Y-102184560D01*
X144857086Y-113919000D02*
X144843686Y-113932400D01*
%TO.N,TUBE5_LED_B*%
X58916000Y-112471200D02*
X58954800Y-112432400D01*
X57734200Y-112471200D02*
X58916000Y-112471200D01*
%TO.N,TUBE5_LED_G*%
X57632600Y-113614200D02*
X57950800Y-113932400D01*
X57950800Y-113932400D02*
X58954800Y-113932400D01*
%TO.N,TUBE5_LED_R*%
X57099200Y-113995200D02*
X56017600Y-113995200D01*
X56017600Y-113995200D02*
X55954800Y-113932400D01*
%TO.N,Net-(D1001-A)*%
X124663400Y-85608600D02*
X124663400Y-84834000D01*
%TO.N,Net-(D1002-A)*%
X126873200Y-85608600D02*
X126873200Y-84808600D01*
%TO.N,Net-(D1003-A)*%
X128956000Y-85608600D02*
X128956000Y-84808600D01*
%TO.N,Net-(D1004-A)*%
X130988000Y-85608600D02*
X130988000Y-84808600D01*
%TO.N,Net-(D1005-A)*%
X133223200Y-85608600D02*
X133223200Y-84808600D01*
%TO.N,Net-(D1006-A)*%
X135255200Y-85608600D02*
X135255200Y-84834000D01*
%TO.N,Net-(D1007-A)*%
X137490400Y-85608600D02*
X137490400Y-84834000D01*
%TO.N,Net-(D1008-A)*%
X139573200Y-85608600D02*
X139573200Y-84808600D01*
%TO.N,Net-(D1009-A)*%
X141706800Y-85608600D02*
X141706800Y-84808600D01*
%TO.N,Net-(D1010-A)*%
X143738800Y-85608600D02*
X143738800Y-84783200D01*
%TO.N,Net-(D1011-A)*%
X145872400Y-85608600D02*
X145872400Y-84808600D01*
%TO.N,Cathode_0*%
X129971800Y-118859300D02*
X129895600Y-118935500D01*
X196723000Y-111997916D02*
X196723000Y-118783100D01*
X196569084Y-111844000D02*
X196723000Y-111997916D01*
X218871800Y-111924496D02*
X218791304Y-111844000D01*
X218871800Y-118668800D02*
X218871800Y-111924496D01*
X152124640Y-111844000D02*
X152222200Y-111941560D01*
X215214200Y-97663000D02*
X215214200Y-100283670D01*
X63246000Y-118935000D02*
X63347600Y-118833400D01*
X173202600Y-118936000D02*
X173202600Y-85953600D01*
X152222200Y-118833900D02*
X152120600Y-118935500D01*
X215214200Y-100283670D02*
X216922304Y-101991774D01*
X63347600Y-111955846D02*
X63235754Y-111844000D01*
X216922304Y-109975000D02*
X218791304Y-111844000D01*
X216922304Y-101991774D02*
X216922304Y-109975000D01*
X129971800Y-111913382D02*
X129971800Y-118859300D01*
X196723000Y-118783100D02*
X196570600Y-118935500D01*
X63347600Y-118833400D02*
X63347600Y-111955846D01*
X215392000Y-97485200D02*
X215214200Y-97663000D01*
X85457974Y-111844000D02*
X85547200Y-111933226D01*
X152222200Y-111941560D02*
X152222200Y-118833900D01*
X85547200Y-111933226D02*
X85547200Y-118833900D01*
X218605100Y-118935500D02*
X218871800Y-118668800D01*
X129902418Y-111844000D02*
X129971800Y-111913382D01*
X85547200Y-118833900D02*
X85445600Y-118935500D01*
%TO.N,Cathode_2*%
X185069084Y-111844000D02*
X182397400Y-109172316D01*
X70764400Y-108650426D02*
X70764400Y-92024200D01*
X221437200Y-90093800D02*
X221716600Y-89814400D01*
X204444600Y-92049600D02*
X204419200Y-92024200D01*
X207291304Y-111844000D02*
X204444600Y-108997296D01*
X140624640Y-111844000D02*
X137883900Y-109103260D01*
X137883900Y-92113100D02*
X137972800Y-92024200D01*
X115684300Y-92036900D02*
X115671600Y-92024200D01*
X221437200Y-92011500D02*
X221437200Y-90093800D01*
X118402418Y-111844000D02*
X115684300Y-109125882D01*
X182397400Y-92125800D02*
X182499000Y-92024200D01*
X177063400Y-85953600D02*
X177063400Y-92024200D01*
X137883900Y-109103260D02*
X137883900Y-92113100D01*
X204444600Y-104038400D02*
X204444600Y-92049600D01*
X115684300Y-109125882D02*
X115684300Y-92036900D01*
X204444600Y-108997296D02*
X204444600Y-104038400D01*
X48945800Y-92024200D02*
X48945800Y-109054046D01*
X73957974Y-111844000D02*
X70764400Y-108650426D01*
X48945800Y-109054046D02*
X51735754Y-111844000D01*
X182397400Y-109172316D02*
X182397400Y-92125800D01*
X221411800Y-92036900D02*
X221437200Y-92011500D01*
%TO.N,Cathode_4*%
X51739800Y-94970600D02*
X51689000Y-95021400D01*
X180162200Y-87706200D02*
X180162200Y-94969600D01*
X207238600Y-102791296D02*
X207238600Y-95020400D01*
X51689000Y-95021400D02*
X51689000Y-102797246D01*
X180898800Y-85953600D02*
X180898800Y-86969600D01*
X118313200Y-95045800D02*
X118389400Y-94969600D01*
X51689000Y-102797246D02*
X51735754Y-102844000D01*
X214147400Y-89458800D02*
X214147400Y-94970600D01*
X216217714Y-86957000D02*
X216217714Y-87388486D01*
X185057084Y-102832000D02*
X185057084Y-94976916D01*
X118402418Y-102844000D02*
X118313200Y-102754782D01*
X73957974Y-102844000D02*
X73914000Y-102800026D01*
X185069084Y-102844000D02*
X185057084Y-102832000D01*
X207238600Y-95020400D02*
X207289400Y-94969600D01*
X118313200Y-102754782D02*
X118313200Y-95045800D01*
X185057084Y-94976916D02*
X185064400Y-94969600D01*
X73914000Y-95020400D02*
X73964800Y-94969600D01*
X73914000Y-102800026D02*
X73914000Y-95020400D01*
X180898800Y-86969600D02*
X180162200Y-87706200D01*
X207291304Y-102844000D02*
X207238600Y-102791296D01*
X140624640Y-102844000D02*
X140563600Y-102782960D01*
X140563600Y-102782960D02*
X140563600Y-95020400D01*
X140563600Y-95020400D02*
X140614400Y-94969600D01*
X216217714Y-87388486D02*
X215188800Y-88417400D01*
X215188800Y-88417400D02*
X214147400Y-89458800D01*
%TO.N,Cathode_6*%
X57485754Y-93020354D02*
X57485754Y-98344000D01*
X190819084Y-98344000D02*
X190819084Y-93029084D01*
X146374640Y-98344000D02*
X146374640Y-93020360D01*
X79707974Y-98344000D02*
X79707974Y-93017574D01*
X146374640Y-93020360D02*
X146380200Y-93014800D01*
X213041304Y-98344000D02*
X213041304Y-93026304D01*
X124152418Y-98344000D02*
X124152418Y-93017582D01*
X210624214Y-86931600D02*
X210624214Y-93007386D01*
X210624214Y-93007386D02*
X210616800Y-93014800D01*
X79707974Y-93017574D02*
X79705200Y-93014800D01*
X57480200Y-93014800D02*
X57485754Y-93020354D01*
X184785000Y-85953600D02*
X184785000Y-93014800D01*
X190819084Y-93029084D02*
X190804800Y-93014800D01*
X124152418Y-93017582D02*
X124155200Y-93014800D01*
X213041304Y-93026304D02*
X213029800Y-93014800D01*
%TO.N,Cathode_8*%
X129902418Y-102844000D02*
X129997200Y-102749218D01*
X218897200Y-88925400D02*
X218897200Y-102738104D01*
X85457974Y-102844000D02*
X85572600Y-102729374D01*
X63322200Y-89193600D02*
X63220600Y-89092000D01*
X205005314Y-88872686D02*
X205003400Y-88874600D01*
X188620400Y-85953600D02*
X188620400Y-88874600D01*
X218846400Y-88874600D02*
X218897200Y-88925400D01*
X129997200Y-88976200D02*
X129895600Y-88874600D01*
X63322200Y-102757554D02*
X63322200Y-89193600D01*
X152146000Y-88900000D02*
X152120600Y-88874600D01*
X196621400Y-88925400D02*
X196570600Y-88874600D01*
X85572600Y-102729374D02*
X85572600Y-89001600D01*
X85572600Y-89001600D02*
X85445600Y-88874600D01*
X129997200Y-102749218D02*
X129997200Y-88976200D01*
X63235754Y-102844000D02*
X63322200Y-102757554D01*
X152146000Y-102822640D02*
X152146000Y-88900000D01*
X205005314Y-86957000D02*
X205005314Y-88872686D01*
X218897200Y-102738104D02*
X218791304Y-102844000D01*
X196621400Y-102791684D02*
X196621400Y-88925400D01*
X152124640Y-102844000D02*
X152146000Y-102822640D01*
X196569084Y-102844000D02*
X196621400Y-102791684D01*
%TO.N,Cathode_1*%
X186819084Y-115344000D02*
X185741454Y-115344000D01*
X136994900Y-91059500D02*
X137007600Y-91046800D01*
X47904400Y-112725200D02*
X50523200Y-115344000D01*
X203428600Y-110808926D02*
X203428600Y-91046800D01*
X119074788Y-115344000D02*
X114681000Y-110950212D01*
X69773800Y-110487456D02*
X69773800Y-91046800D01*
X207963674Y-115344000D02*
X203428600Y-110808926D01*
X175133000Y-85953600D02*
X175133000Y-91046800D01*
X209041304Y-115344000D02*
X207963674Y-115344000D01*
X136994900Y-111041890D02*
X136994900Y-91059500D01*
X114681000Y-110950212D02*
X114681000Y-91046800D01*
X185741454Y-115344000D02*
X181508400Y-111110946D01*
X50523200Y-115344000D02*
X53485754Y-115344000D01*
X74630344Y-115344000D02*
X69773800Y-110487456D01*
X181508400Y-111110946D02*
X181508400Y-91046800D01*
X47904400Y-91059000D02*
X47904400Y-112725200D01*
X142374640Y-115344000D02*
X141297010Y-115344000D01*
X75707974Y-115344000D02*
X74630344Y-115344000D01*
X141297010Y-115344000D02*
X136994900Y-111041890D01*
X120152418Y-115344000D02*
X119074788Y-115344000D01*
%TO.N,Cathode_3*%
X185069084Y-107344000D02*
X183286400Y-105561316D01*
X207291304Y-107344000D02*
X205460600Y-105513296D01*
X183286400Y-96151700D02*
X183489600Y-95948500D01*
X183286400Y-105561316D02*
X183286400Y-96151700D01*
X71856600Y-105242626D02*
X71856600Y-95948500D01*
X116573300Y-96037400D02*
X116662200Y-95948500D01*
X178993800Y-85953600D02*
X178993800Y-95923100D01*
X138811000Y-105530360D02*
X138811000Y-96100900D01*
X73957974Y-107344000D02*
X71856600Y-105242626D01*
X49961800Y-105570046D02*
X51735754Y-107344000D01*
X178993800Y-95923100D02*
X178968400Y-95948500D01*
X116573300Y-105514882D02*
X116573300Y-96037400D01*
X50211754Y-96295446D02*
X49961800Y-96545400D01*
X217487500Y-87414100D02*
X215620600Y-89281000D01*
X217487500Y-86919800D02*
X217487500Y-87414100D01*
X138811000Y-96100900D02*
X138963400Y-95948500D01*
X215620600Y-89281000D02*
X215620600Y-95961200D01*
X205460600Y-95997800D02*
X205511400Y-95947000D01*
X49961800Y-96545400D02*
X49961800Y-105570046D01*
X205460600Y-105513296D02*
X205460600Y-95997800D01*
X140624640Y-107344000D02*
X138811000Y-105530360D01*
X118402418Y-107344000D02*
X116573300Y-105514882D01*
%TO.N,Cathode_5*%
X120152418Y-99344000D02*
X120152418Y-94002618D01*
X186819084Y-99344000D02*
X186819084Y-93994284D01*
X53485754Y-93986646D02*
X53485754Y-99344000D01*
X53492400Y-93980000D02*
X53485754Y-93986646D01*
X209041304Y-93992896D02*
X209042000Y-93992200D01*
X182854600Y-85953600D02*
X183794400Y-86893400D01*
X211594700Y-89573100D02*
X211594700Y-93560900D01*
X142374640Y-99344000D02*
X142374640Y-93999840D01*
X186819084Y-93994284D02*
X186817000Y-93992200D01*
X183794400Y-86893400D02*
X183794400Y-93992200D01*
X213433664Y-87734136D02*
X211594700Y-89573100D01*
X75707974Y-94001626D02*
X75717400Y-93992200D01*
X120152418Y-94002618D02*
X120142000Y-93992200D01*
X75707974Y-99344000D02*
X75707974Y-94001626D01*
X211163400Y-93992200D02*
X209042000Y-93992200D01*
X213433664Y-86957000D02*
X213433664Y-87734136D01*
X211594700Y-93560900D02*
X211163400Y-93992200D01*
X142374640Y-93999840D02*
X142367000Y-93992200D01*
X209041304Y-99344000D02*
X209041304Y-93992896D01*
%TO.N,Cathode_7*%
X194819084Y-90070484D02*
X194818000Y-90069400D01*
X128152418Y-99344000D02*
X128152418Y-90085382D01*
X128152418Y-90085382D02*
X128168400Y-90069400D01*
X150374640Y-99344000D02*
X150374640Y-90076040D01*
X83707974Y-99344000D02*
X83707974Y-90079826D01*
X83707974Y-90079826D02*
X83718400Y-90069400D01*
X217017600Y-90068400D02*
X217041304Y-90092104D01*
X217041304Y-90092104D02*
X217041304Y-99344000D01*
X61485754Y-90077046D02*
X61493400Y-90069400D01*
X150374640Y-90076040D02*
X150368000Y-90069400D01*
X207814764Y-90061364D02*
X207822800Y-90069400D01*
X186690000Y-85953600D02*
X186690000Y-90069400D01*
X207814764Y-86957000D02*
X207814764Y-90061364D01*
X194819084Y-99344000D02*
X194819084Y-90070484D01*
X61485754Y-99344000D02*
X61485754Y-90077046D01*
%TO.N,Cathode_9*%
X63235754Y-107344000D02*
X65074800Y-105504954D01*
X220700600Y-92686174D02*
X220700600Y-105434704D01*
X131724400Y-88202000D02*
X131419600Y-87897200D01*
X65074800Y-88125800D02*
X64846200Y-87897200D01*
X87299800Y-88227400D02*
X86969600Y-87897200D01*
X129902418Y-107344000D02*
X131724400Y-105522018D01*
X153924000Y-88176600D02*
X153644600Y-87897200D01*
X198399400Y-88202000D02*
X198094600Y-87897200D01*
X87299800Y-105502174D02*
X87299800Y-88227400D01*
X198399400Y-105513684D02*
X198399400Y-88202000D01*
X153924000Y-105544640D02*
X153924000Y-88176600D01*
X220370400Y-92355974D02*
X220700600Y-92686174D01*
X220700600Y-105434704D02*
X218791304Y-107344000D01*
X196569084Y-107344000D02*
X198399400Y-105513684D01*
X131724400Y-105522018D02*
X131724400Y-88202000D01*
X65074800Y-105504954D02*
X65074800Y-88125800D01*
X190550800Y-85953600D02*
X190550800Y-87897200D01*
X152124640Y-107344000D02*
X153924000Y-105544640D01*
X220370400Y-88900000D02*
X220370400Y-92355974D01*
X85457974Y-107344000D02*
X87299800Y-105502174D01*
%TO.N,Anode_0*%
X217043000Y-120954800D02*
X217041304Y-120953104D01*
X217041304Y-120953104D02*
X217041304Y-115344000D01*
%TO.N,Anode_2*%
X150393400Y-120954800D02*
X150374640Y-120936040D01*
X150374640Y-120936040D02*
X150374640Y-115344000D01*
%TO.N,Anode_4*%
X83718400Y-120954800D02*
X83707974Y-120944374D01*
X83707974Y-120944374D02*
X83707974Y-115344000D01*
%TO.N,Cathode_1_DSP*%
X229137767Y-101172567D02*
X229137767Y-91441340D01*
X225903464Y-82931000D02*
X225408064Y-83426400D01*
X228676200Y-82931000D02*
X225903464Y-82931000D01*
X229811600Y-101846400D02*
X229137767Y-101172567D01*
X229133400Y-83388200D02*
X228676200Y-82931000D01*
X231800400Y-101846400D02*
X229811600Y-101846400D01*
X229137767Y-91441340D02*
X229133400Y-91436973D01*
X229133400Y-91436973D02*
X229133400Y-83388200D01*
%TO.N,Cathode_3_DSP*%
X220335364Y-82880200D02*
X219789164Y-83426400D01*
X226060000Y-83997800D02*
X224612200Y-83997800D01*
X223494600Y-82880200D02*
X220335364Y-82880200D01*
X224612200Y-83997800D02*
X223494600Y-82880200D01*
X231167200Y-102846400D02*
X230657400Y-102336600D01*
X231800400Y-102846400D02*
X231167200Y-102846400D01*
X227253800Y-102336600D02*
X226644200Y-101727000D01*
X226644200Y-84582000D02*
X226060000Y-83997800D01*
X226644200Y-101727000D02*
X226644200Y-84582000D01*
X230657400Y-102336600D02*
X227253800Y-102336600D01*
%TO.N,Cathode_5_DSP*%
X231800400Y-103846400D02*
X230871800Y-103846400D01*
X223951800Y-85496400D02*
X222377000Y-83921600D01*
X226669600Y-103352600D02*
X225526600Y-102209600D01*
X214792664Y-82804000D02*
X214170264Y-83426400D01*
X217703400Y-82804000D02*
X214792664Y-82804000D01*
X230871800Y-103846400D02*
X230378000Y-103352600D01*
X225044000Y-85496400D02*
X223951800Y-85496400D01*
X222377000Y-83921600D02*
X218821000Y-83921600D01*
X230378000Y-103352600D02*
X226669600Y-103352600D01*
X225526600Y-85979000D02*
X225044000Y-85496400D01*
X225526600Y-102209600D02*
X225526600Y-85979000D01*
X218821000Y-83921600D02*
X217703400Y-82804000D01*
%TO.N,Anode_1*%
X194818000Y-120954800D02*
X194819084Y-120953716D01*
X194819084Y-120953716D02*
X194819084Y-115344000D01*
%TO.N,Anode_3*%
X128152418Y-120938818D02*
X128152418Y-115344000D01*
X128168400Y-120954800D02*
X128152418Y-120938818D01*
%TO.N,Anode_5*%
X61493400Y-120980200D02*
X61485754Y-120972554D01*
X61485754Y-120972554D02*
X61485754Y-115344000D01*
%TO.N,Cathode_7_DSP*%
X224485200Y-102692200D02*
X224485200Y-87198200D01*
X230601800Y-104846400D02*
X230131900Y-104376500D01*
X221157900Y-85420300D02*
X219492925Y-85420300D01*
X217682453Y-84810600D02*
X217123653Y-84251800D01*
X222453200Y-86715600D02*
X221157900Y-85420300D01*
X219492925Y-85420300D02*
X218883225Y-84810600D01*
X217123653Y-84251800D02*
X213893400Y-84251800D01*
X231800400Y-104846400D02*
X230601800Y-104846400D01*
X230131900Y-104376500D02*
X226169500Y-104376500D01*
X224485200Y-87198200D02*
X224002600Y-86715600D01*
X224002600Y-86715600D02*
X222453200Y-86715600D01*
X212496400Y-82854800D02*
X209148364Y-82854800D01*
X213893400Y-84251800D02*
X212496400Y-82854800D01*
X209148364Y-82854800D02*
X208576764Y-83426400D01*
X226169500Y-104376500D02*
X224485200Y-102692200D01*
X218883225Y-84810600D02*
X217682453Y-84810600D01*
%TO.N,Cathode_9_DSP*%
X231800400Y-105846400D02*
X230306400Y-105846400D01*
X222072200Y-87960200D02*
X220395800Y-86283800D01*
X207035400Y-82880200D02*
X203504064Y-82880200D01*
X229819200Y-105359200D02*
X225628200Y-105359200D01*
X219024200Y-86283800D02*
X218682300Y-85941900D01*
X203504064Y-82880200D02*
X202957864Y-83426400D01*
X230306400Y-105846400D02*
X229819200Y-105359200D01*
X218682300Y-85941900D02*
X213551500Y-85941900D01*
X208330800Y-84175600D02*
X207035400Y-82880200D01*
X220395800Y-86283800D02*
X219024200Y-86283800D01*
X222681800Y-87960200D02*
X222072200Y-87960200D01*
X223443800Y-88722200D02*
X222681800Y-87960200D01*
X225628200Y-105359200D02*
X223443800Y-103174800D01*
X213551500Y-85941900D02*
X211785200Y-84175600D01*
X223443800Y-103174800D02*
X223443800Y-88722200D01*
X211785200Y-84175600D02*
X208330800Y-84175600D01*
%TO.N,Colon_3_DSP*%
X223697800Y-121742200D02*
X221843600Y-123596400D01*
X223697800Y-111455200D02*
X223697800Y-121742200D01*
X229535700Y-110316300D02*
X224328700Y-110316300D01*
X223697800Y-110947200D02*
X223697800Y-111455200D01*
X224328700Y-110316300D02*
X223799400Y-110845600D01*
X179476400Y-123698000D02*
X178917600Y-123139200D01*
X180340000Y-124561600D02*
X179476400Y-123698000D01*
X220878400Y-124561600D02*
X220116400Y-124561600D01*
X231800400Y-109846400D02*
X230005600Y-109846400D01*
X221843600Y-123596400D02*
X220878400Y-124561600D01*
X229539800Y-110312200D02*
X229535700Y-110316300D01*
X177546000Y-123139200D02*
X176149000Y-123139200D01*
X176149000Y-123139200D02*
X175260000Y-122250200D01*
X220116400Y-124561600D02*
X180340000Y-124561600D01*
X230005600Y-109846400D02*
X229539800Y-110312200D01*
X223799400Y-110845600D02*
X223697800Y-110947200D01*
X178917600Y-123139200D02*
X177546000Y-123139200D01*
%TO.N,Colon_1_DSP*%
X110388400Y-112256000D02*
X111824200Y-112256000D01*
X112268000Y-112699800D02*
X112268000Y-121767600D01*
X113385600Y-122885200D02*
X152603200Y-122885200D01*
X152603200Y-122885200D02*
X154813000Y-120675400D01*
X223804700Y-109316300D02*
X228986300Y-109316300D01*
X229456200Y-108846400D02*
X231800400Y-108846400D01*
X222732600Y-110388400D02*
X223804700Y-109316300D01*
X111824200Y-112256000D02*
X112268000Y-112699800D01*
X181051200Y-123545600D02*
X220446600Y-123545600D01*
X154813000Y-120675400D02*
X178181000Y-120675400D01*
X222732600Y-121259600D02*
X222732600Y-110388400D01*
X178181000Y-120675400D02*
X181051200Y-123545600D01*
X228986300Y-109316300D02*
X229456200Y-108846400D01*
X220446600Y-123545600D02*
X222732600Y-121259600D01*
X112268000Y-121767600D02*
X113385600Y-122885200D01*
%TO.N,Colon_0_DSP*%
X222250000Y-110261400D02*
X222250000Y-121081800D01*
X220243400Y-123088400D02*
X181406800Y-123088400D01*
X112064800Y-111506000D02*
X109778800Y-111506000D01*
X181406800Y-123088400D02*
X178409600Y-120091200D01*
X222250000Y-121081800D02*
X220243400Y-123088400D01*
X154635200Y-120091200D02*
X152545319Y-122181081D01*
X109778800Y-111506000D02*
X109423200Y-111150400D01*
X113004600Y-121666000D02*
X113004600Y-112445800D01*
X178409600Y-120091200D02*
X154635200Y-120091200D01*
X223665000Y-108846400D02*
X222250000Y-110261400D01*
X113004600Y-112445800D02*
X112064800Y-111506000D01*
X228159867Y-108846400D02*
X223665000Y-108846400D01*
X109423200Y-111150400D02*
X109423200Y-108915200D01*
X113519681Y-122181081D02*
X113004600Y-121666000D01*
X152545319Y-122181081D02*
X113519681Y-122181081D01*
%TO.N,Cathode_DP*%
X57480200Y-116349554D02*
X57485754Y-116344000D01*
X190819084Y-117946484D02*
X190830200Y-117957600D01*
X192786000Y-86258400D02*
X192786000Y-100025200D01*
X213041304Y-116344000D02*
X213041304Y-117943704D01*
X57480200Y-117957600D02*
X57480200Y-116349554D01*
X194700084Y-101939284D02*
X194700084Y-112868516D01*
X192786000Y-100025200D02*
X194700084Y-101939284D01*
X194700084Y-112868516D02*
X194538600Y-113030000D01*
X146374640Y-117952040D02*
X146380200Y-117957600D01*
X124152418Y-117954818D02*
X124155200Y-117957600D01*
X124152418Y-116344000D02*
X124152418Y-117954818D01*
X213041304Y-117943704D02*
X213055200Y-117957600D01*
X146374640Y-116344000D02*
X146374640Y-117952040D01*
X192481200Y-85953600D02*
X192786000Y-86258400D01*
X190819084Y-116344000D02*
X190819084Y-117946484D01*
X79707974Y-116344000D02*
X79707974Y-117954826D01*
X79707974Y-117954826D02*
X79705200Y-117957600D01*
%TO.N,Tube_LED_Enable*%
X97307400Y-126238000D02*
X98501200Y-125044200D01*
X177952400Y-105384600D02*
X177952400Y-102082600D01*
X171729400Y-124891800D02*
X174320200Y-127482600D01*
X177952400Y-102082600D02*
X177952400Y-100736400D01*
X178282600Y-100406200D02*
X178511200Y-100177600D01*
X90220800Y-126148600D02*
X90310200Y-126238000D01*
X98501200Y-125044200D02*
X104775000Y-125044200D01*
X107010200Y-127279400D02*
X155448000Y-127279400D01*
X179120800Y-106553000D02*
X177952400Y-105384600D01*
X174320200Y-127482600D02*
X174548800Y-127482600D01*
X177952400Y-100736400D02*
X178282600Y-100406200D01*
X155448000Y-127279400D02*
X157835600Y-124891800D01*
X178511200Y-100177600D02*
X179451000Y-100177600D01*
X90310200Y-126238000D02*
X97307400Y-126238000D01*
X157835600Y-124891800D02*
X171729400Y-124891800D01*
X104775000Y-125044200D02*
X107010200Y-127279400D01*
D24*
%TO.N,+90V*%
X201117200Y-120954800D02*
X201117200Y-87069832D01*
X201117200Y-87069832D02*
X200622584Y-86575216D01*
D23*
%TO.N,Cathode_0_DSP*%
X227855800Y-101846400D02*
X227181967Y-101172567D01*
X227181967Y-101172567D02*
X227181967Y-84461947D01*
X227181967Y-84461947D02*
X228217514Y-83426400D01*
X228159867Y-101846400D02*
X227855800Y-101846400D01*
%TO.N,Cathode_2_DSP*%
X223652714Y-84480500D02*
X222598614Y-83426400D01*
X226060000Y-102031800D02*
X226060000Y-84734400D01*
X226874600Y-102846400D02*
X226060000Y-102031800D01*
X225806100Y-84480500D02*
X223652714Y-84480500D01*
X226060000Y-84734400D02*
X225806100Y-84480500D01*
X228159867Y-102846400D02*
X226874600Y-102846400D01*
%TO.N,Cathode_4_DSP*%
X224967800Y-102438200D02*
X224967800Y-86512400D01*
X226376000Y-103846400D02*
X224967800Y-102438200D01*
X222732700Y-85979100D02*
X221081600Y-84328000D01*
X224967800Y-86512400D02*
X224434500Y-85979100D01*
X217881314Y-84328000D02*
X216979714Y-83426400D01*
X221081600Y-84328000D02*
X217881314Y-84328000D01*
X228159867Y-103846400D02*
X226376000Y-103846400D01*
X224434500Y-85979100D02*
X222732700Y-85979100D01*
%TO.N,I2C_DSP_SDA*%
X178765200Y-128828800D02*
X178130200Y-128193800D01*
X179781200Y-128828800D02*
X178765200Y-128828800D01*
X218897200Y-130251200D02*
X217754200Y-130251200D01*
X220345000Y-128803400D02*
X219481400Y-129667000D01*
X111353600Y-105359200D02*
X106781600Y-105359200D01*
X224231200Y-128803400D02*
X220345000Y-128803400D01*
X157581600Y-124358400D02*
X156260800Y-125679200D01*
X154355800Y-126720600D02*
X109677200Y-126720600D01*
X227888800Y-128473200D02*
X227939600Y-128422400D01*
X177342800Y-99771200D02*
X176860200Y-100253800D01*
X176860200Y-100253800D02*
X176860200Y-106121200D01*
X203479400Y-130251200D02*
X202717400Y-129489200D01*
X176784000Y-126847600D02*
X176022000Y-126847600D01*
X106578400Y-105156000D02*
X105841800Y-104419400D01*
X170865800Y-124358400D02*
X157581600Y-124358400D01*
X224231200Y-128803400D02*
X227558600Y-128803400D01*
X105841800Y-104419400D02*
X105841800Y-101701600D01*
X217754200Y-130251200D02*
X203479400Y-130251200D01*
X179806600Y-128803400D02*
X179781200Y-128828800D01*
X230117600Y-116846400D02*
X231800400Y-116846400D01*
X106781600Y-105359200D02*
X106578400Y-105156000D01*
X229082600Y-117881400D02*
X230117600Y-116846400D01*
X156260800Y-125679200D02*
X155219400Y-126720600D01*
X176860200Y-106121200D02*
X177723800Y-106984800D01*
X176022000Y-126847600D02*
X174320200Y-126847600D01*
X202717400Y-129489200D02*
X202031600Y-128803400D01*
X155219400Y-126720600D02*
X154355800Y-126720600D01*
X198145400Y-128803400D02*
X179806600Y-128803400D01*
X178130200Y-128193800D02*
X176784000Y-126847600D01*
X229082600Y-127000000D02*
X229082600Y-117881400D01*
X171831000Y-124358400D02*
X170865800Y-124358400D01*
X227939600Y-128143000D02*
X229082600Y-127000000D01*
X174066200Y-126593600D02*
X171831000Y-124358400D01*
X174320200Y-126847600D02*
X174066200Y-126593600D01*
X227558600Y-128803400D02*
X227888800Y-128473200D01*
X202031600Y-128803400D02*
X198145400Y-128803400D01*
X219481400Y-129667000D02*
X218897200Y-130251200D01*
X227939600Y-128422400D02*
X227939600Y-128143000D01*
%TO.N,I2C_DSP_SCL*%
X176199800Y-126314200D02*
X174523400Y-126314200D01*
X106426000Y-102235000D02*
X106400600Y-102209600D01*
X227933200Y-116846400D02*
X228159867Y-116846400D01*
X177495200Y-105714800D02*
X178181000Y-106400600D01*
X170484800Y-123875800D02*
X157200600Y-123875800D01*
X107010200Y-104876600D02*
X106553000Y-104419400D01*
X177114200Y-126314200D02*
X176199800Y-126314200D01*
X174523400Y-126314200D02*
X174269400Y-126060200D01*
X157200600Y-123875800D02*
X156210000Y-124866400D01*
X226110800Y-125577600D02*
X227609400Y-124079000D01*
X154889200Y-126187200D02*
X153974800Y-126187200D01*
X221970600Y-127965200D02*
X179247800Y-127965200D01*
X178206400Y-99695000D02*
X177495200Y-100406200D01*
X177495200Y-100406200D02*
X177495200Y-105714800D01*
X227609400Y-117170200D02*
X227933200Y-116846400D01*
X111887000Y-104876600D02*
X107010200Y-104876600D01*
X174269400Y-126060200D02*
X172085000Y-123875800D01*
X153974800Y-126187200D02*
X110540800Y-126187200D01*
X227609400Y-124079000D02*
X227609400Y-117170200D01*
X110540800Y-126187200D02*
X110515400Y-126212600D01*
X178790600Y-99695000D02*
X178206400Y-99695000D01*
X178104800Y-127304800D02*
X177114200Y-126314200D01*
X179247800Y-127965200D02*
X179222400Y-127939800D01*
X172085000Y-123875800D02*
X170484800Y-123875800D01*
X106426000Y-103606600D02*
X106426000Y-102235000D01*
X179222400Y-127939800D02*
X178739800Y-127939800D01*
X226034600Y-125577600D02*
X226110800Y-125577600D01*
X178739800Y-127939800D02*
X178104800Y-127304800D01*
X223647000Y-127965200D02*
X221970600Y-127965200D01*
X156210000Y-124866400D02*
X154889200Y-126187200D01*
X106553000Y-104419400D02*
X106426000Y-104292400D01*
X106426000Y-104292400D02*
X106426000Y-103606600D01*
X226034600Y-125577600D02*
X223647000Y-127965200D01*
%TO.N,Net-(D901-A)*%
X148006000Y-85608600D02*
X148006000Y-84810800D01*
X148006000Y-84810800D02*
X148005800Y-84810600D01*
%TO.N,Cathode_6_DSP*%
X213188125Y-84734400D02*
X213182200Y-84734400D01*
X225902800Y-104846400D02*
X223926400Y-102870000D01*
X213873925Y-85420200D02*
X213188125Y-84734400D01*
X223494600Y-87325200D02*
X222377000Y-87325200D01*
X211874200Y-83426400D02*
X211360814Y-83426400D01*
X220853100Y-85801300D02*
X219151300Y-85801300D01*
X223926400Y-102870000D02*
X223926400Y-87757000D01*
X228159867Y-104846400D02*
X225902800Y-104846400D01*
X223926400Y-87757000D02*
X223494600Y-87325200D01*
X218770200Y-85420200D02*
X213873925Y-85420200D01*
X222377000Y-87325200D02*
X220853100Y-85801300D01*
X213182200Y-84734400D02*
X211874200Y-83426400D01*
X219151300Y-85801300D02*
X218770200Y-85420200D01*
%TO.N,Cathode_8_DSP*%
X225429600Y-105846400D02*
X223799400Y-104216200D01*
X222961200Y-103378000D02*
X222961200Y-102743000D01*
X228159867Y-105846400D02*
X225429600Y-105846400D01*
X223799400Y-104216200D02*
X222961200Y-103378000D01*
X222961200Y-102743000D02*
X222961200Y-89119954D01*
X222961200Y-89119954D02*
X222832182Y-88990936D01*
%TO.N,Cathode_DP_DSP*%
X225094800Y-106426000D02*
X222529400Y-103860600D01*
X222453200Y-92105907D02*
X222477150Y-92081957D01*
X222453200Y-101600000D02*
X222453200Y-92105907D01*
X225515200Y-106846400D02*
X225094800Y-106426000D01*
X228159867Y-106846400D02*
X225515200Y-106846400D01*
X222529400Y-103860600D02*
X222453200Y-103784400D01*
X222453200Y-103784400D02*
X222453200Y-101600000D01*
%TO.N,Colon_2_DSP*%
X228159867Y-109846400D02*
X224036600Y-109846400D01*
X223189800Y-121513600D02*
X222453200Y-122250200D01*
X224036600Y-109846400D02*
X223596200Y-110286800D01*
X223596200Y-110286800D02*
X223189800Y-110693200D01*
X180771800Y-124028200D02*
X179832000Y-123088400D01*
X179832000Y-123088400D02*
X178993800Y-122250200D01*
X223189800Y-110972600D02*
X223189800Y-121513600D01*
X223189800Y-110693200D02*
X223189800Y-110972600D01*
X222453200Y-122250200D02*
X220675200Y-124028200D01*
X220675200Y-124028200D02*
X220192600Y-124028200D01*
X220192600Y-124028200D02*
X180771800Y-124028200D01*
X178993800Y-122250200D02*
X176580800Y-122250200D01*
%TO.N,Pushbutton_Down*%
X38411900Y-115290600D02*
X38424600Y-115277900D01*
X225958400Y-123012200D02*
X221894400Y-127076200D01*
X221894400Y-127076200D02*
X178790600Y-127076200D01*
X226716800Y-113846400D02*
X225958400Y-114604800D01*
X98221800Y-124561600D02*
X97104200Y-125679200D01*
X44094400Y-125679200D02*
X41097200Y-122682000D01*
X156845000Y-123342400D02*
X154533600Y-125653800D01*
X172339000Y-123342400D02*
X156845000Y-123342400D01*
X41097200Y-122682000D02*
X41097200Y-116865400D01*
X177469800Y-125755400D02*
X174752000Y-125755400D01*
X225958400Y-114604800D02*
X225958400Y-123012200D01*
X97104200Y-125679200D02*
X44094400Y-125679200D01*
X178790600Y-127076200D02*
X177469800Y-125755400D01*
X38862000Y-116255800D02*
X38424600Y-115818400D01*
X37693600Y-115290600D02*
X38411900Y-115290600D01*
X228159867Y-113846400D02*
X226716800Y-113846400D01*
X106197400Y-125653800D02*
X105105200Y-124561600D01*
X40487600Y-116255800D02*
X38862000Y-116255800D01*
X38424600Y-115818400D02*
X38424600Y-115277900D01*
X154533600Y-125653800D02*
X106197400Y-125653800D01*
X174752000Y-125755400D02*
X172339000Y-123342400D01*
X105105200Y-124561600D02*
X98221800Y-124561600D01*
X41097200Y-116865400D02*
X40487600Y-116255800D01*
%TO.N,Pushbutton_Up*%
X97917000Y-124104400D02*
X96850200Y-125171200D01*
X38424600Y-109976400D02*
X38424600Y-109395850D01*
X96850200Y-125171200D02*
X44221400Y-125171200D01*
X106603800Y-125145800D02*
X105562400Y-124104400D01*
X105562400Y-124104400D02*
X97917000Y-124104400D01*
X221729300Y-126580900D02*
X179031900Y-126580900D01*
X44221400Y-125171200D02*
X41579800Y-122529600D01*
X38422650Y-109397800D02*
X38424600Y-109395850D01*
X154101800Y-125145800D02*
X106603800Y-125145800D01*
X156464000Y-122783600D02*
X154101800Y-125145800D01*
X175006000Y-125272800D02*
X172516800Y-122783600D01*
X38887400Y-110439200D02*
X38424600Y-109976400D01*
X41071800Y-110439200D02*
X38887400Y-110439200D01*
X177723800Y-125272800D02*
X175006000Y-125272800D01*
X231800400Y-112846400D02*
X229621800Y-112846400D01*
X37719000Y-109397800D02*
X38422650Y-109397800D01*
X179031900Y-126580900D02*
X177723800Y-125272800D01*
X229621800Y-112846400D02*
X229133400Y-113334800D01*
X226593400Y-113334800D02*
X225450400Y-114477800D01*
X172516800Y-122783600D02*
X156464000Y-122783600D01*
X225450400Y-114477800D02*
X225450400Y-122859800D01*
X225450400Y-122859800D02*
X221729300Y-126580900D01*
X229133400Y-113334800D02*
X226593400Y-113334800D01*
X41579800Y-110947200D02*
X41071800Y-110439200D01*
X41579800Y-122529600D02*
X41579800Y-110947200D01*
%TO.N,Pushbutton_Right*%
X38811200Y-104571800D02*
X38429700Y-104190300D01*
X156032200Y-122301000D02*
X153720800Y-124612400D01*
X179209700Y-126022100D02*
X177952400Y-124764800D01*
X106959400Y-124612400D02*
X105892600Y-123545600D01*
X41427400Y-104571800D02*
X38811200Y-104571800D01*
X38429700Y-104190300D02*
X38429700Y-103505000D01*
X105892600Y-123545600D02*
X97739200Y-123545600D01*
X153720800Y-124612400D02*
X106959400Y-124612400D01*
X221602300Y-126022100D02*
X179209700Y-126022100D01*
X97739200Y-123545600D02*
X96596200Y-124688600D01*
X44450000Y-124688600D02*
X42037000Y-122275600D01*
X226446800Y-112846400D02*
X225044000Y-114249200D01*
X177952400Y-124764800D02*
X175183800Y-124764800D01*
X175183800Y-124764800D02*
X172720000Y-122301000D01*
X225044000Y-114249200D02*
X225044000Y-122580400D01*
X228159867Y-112846400D02*
X226446800Y-112846400D01*
X42037000Y-122275600D02*
X42037000Y-105181400D01*
X225044000Y-122580400D02*
X221602300Y-126022100D01*
X172720000Y-122301000D02*
X156032200Y-122301000D01*
X96596200Y-124688600D02*
X44450000Y-124688600D01*
X42037000Y-105181400D02*
X41427400Y-104571800D01*
X37744400Y-103505000D02*
X38429700Y-103505000D01*
%TO.N,Pushbutton_Left*%
X97485200Y-123063000D02*
X96342200Y-124206000D01*
X179552600Y-125577600D02*
X178257200Y-124282200D01*
X41859200Y-98729800D02*
X38785800Y-98729800D01*
X38785800Y-98729800D02*
X38444900Y-98388900D01*
X178257200Y-124282200D02*
X175437800Y-124282200D01*
X37668200Y-97612200D02*
X38425350Y-97612200D01*
X231800400Y-111846400D02*
X229682000Y-111846400D01*
X42494200Y-99364800D02*
X41859200Y-98729800D01*
X175437800Y-124282200D02*
X172974000Y-121818400D01*
X224612200Y-114046000D02*
X224612200Y-122351800D01*
X221386400Y-125577600D02*
X179552600Y-125577600D01*
X96342200Y-124206000D02*
X44704000Y-124206000D01*
X153289000Y-124104400D02*
X107264200Y-124104400D01*
X38444900Y-98388900D02*
X38444900Y-97631750D01*
X224612200Y-122351800D02*
X221386400Y-125577600D01*
X226314000Y-112344200D02*
X224612200Y-114046000D01*
X229682000Y-111846400D02*
X229184200Y-112344200D01*
X44704000Y-124206000D02*
X42494200Y-121996200D01*
X107264200Y-124104400D02*
X106222800Y-123063000D01*
X106222800Y-123063000D02*
X97485200Y-123063000D01*
X42494200Y-121996200D02*
X42494200Y-99364800D01*
X229184200Y-112344200D02*
X226314000Y-112344200D01*
X155575000Y-121818400D02*
X153289000Y-124104400D01*
X38425350Y-97612200D02*
X38444900Y-97631750D01*
X172974000Y-121818400D02*
X155575000Y-121818400D01*
%TO.N,Pushbutton_Power*%
X226126000Y-111846400D02*
X224180400Y-113792000D01*
X155117800Y-121361200D02*
X152908000Y-123571000D01*
X38445100Y-91744800D02*
X38450000Y-91749700D01*
X107645200Y-123571000D02*
X106603800Y-122529600D01*
X42976800Y-121793000D02*
X42976800Y-93116400D01*
X106603800Y-122529600D02*
X97231200Y-122529600D01*
X97231200Y-122529600D02*
X96113600Y-123647200D01*
X152908000Y-123571000D02*
X107645200Y-123571000D01*
X37668200Y-91744800D02*
X38445100Y-91744800D01*
X42976800Y-93116400D02*
X42570400Y-92710000D01*
X224180400Y-113792000D02*
X224180400Y-122072400D01*
X42570400Y-92710000D02*
X38811200Y-92710000D01*
X221208600Y-125044200D02*
X179806600Y-125044200D01*
X178536600Y-123774200D02*
X175590200Y-123774200D01*
X175590200Y-123774200D02*
X173177200Y-121361200D01*
X38811200Y-92710000D02*
X38450000Y-92348800D01*
X173177200Y-121361200D02*
X155117800Y-121361200D01*
X38450000Y-92348800D02*
X38450000Y-91749700D01*
X96113600Y-123647200D02*
X44831000Y-123647200D01*
X179806600Y-125044200D02*
X178536600Y-123774200D01*
X224180400Y-122072400D02*
X221208600Y-125044200D01*
X44831000Y-123647200D02*
X42976800Y-121793000D01*
X228159867Y-111846400D02*
X226126000Y-111846400D01*
D25*
%TO.N,Pushbutton_Up_SNS*%
X44653200Y-86918800D02*
X44272200Y-87299800D01*
X44272200Y-89001600D02*
X44272200Y-109804200D01*
X81940400Y-85928200D02*
X81864200Y-86004400D01*
X44272200Y-109804200D02*
X43713400Y-110363000D01*
X45567600Y-86004400D02*
X44653200Y-86918800D01*
X82245200Y-85623400D02*
X81940400Y-85928200D01*
X81864200Y-86004400D02*
X79578200Y-86004400D01*
X79578200Y-86004400D02*
X45567600Y-86004400D01*
X82245200Y-84328000D02*
X82245200Y-85623400D01*
X44272200Y-87299800D02*
X44272200Y-89001600D01*
%TO.N,Pushbutton_Down_SNS*%
X43713400Y-116408200D02*
X43713400Y-112395000D01*
X83540600Y-86715600D02*
X84785200Y-85471000D01*
X46024800Y-86715600D02*
X83540600Y-86715600D01*
X84785200Y-85471000D02*
X84785200Y-84328000D01*
X44881800Y-111226600D02*
X44881800Y-87858600D01*
X44881800Y-87858600D02*
X46024800Y-86715600D01*
X43713400Y-112395000D02*
X44881800Y-111226600D01*
D23*
%TO.N,Tube_ETC_Enable*%
X112344200Y-106502200D02*
X112547400Y-106299000D01*
X155625800Y-127787400D02*
X155219400Y-127787400D01*
X195224400Y-129336800D02*
X194614800Y-129336800D01*
X109220000Y-127787400D02*
X109194600Y-127812800D01*
X157988000Y-125425200D02*
X156870400Y-126542800D01*
X178536600Y-129336800D02*
X178206400Y-129006600D01*
X111810800Y-107035600D02*
X112344200Y-106502200D01*
X174218600Y-128066800D02*
X173863000Y-127711200D01*
X171577000Y-125425200D02*
X158115000Y-125425200D01*
X112369600Y-104216200D02*
X112166400Y-104013000D01*
X194614800Y-129336800D02*
X178536600Y-129336800D01*
X178206400Y-129006600D02*
X177266600Y-128066800D01*
X174675800Y-128066800D02*
X174218600Y-128066800D01*
X173863000Y-127711200D02*
X171577000Y-125425200D01*
X177266600Y-128066800D02*
X174675800Y-128066800D01*
X195630800Y-129743200D02*
X195376800Y-129489200D01*
X112547400Y-105003600D02*
X112547400Y-104394000D01*
X156870400Y-126542800D02*
X155625800Y-127787400D01*
X155219400Y-127787400D02*
X109220000Y-127787400D01*
X158115000Y-125425200D02*
X157988000Y-125425200D01*
X110693200Y-107035600D02*
X111810800Y-107035600D01*
X195630800Y-130302000D02*
X195630800Y-129743200D01*
X112166400Y-104013000D02*
X109575600Y-104013000D01*
X195376800Y-129489200D02*
X195224400Y-129336800D01*
X112547400Y-106299000D02*
X112547400Y-105003600D01*
X112547400Y-104394000D02*
X112369600Y-104216200D01*
%TD*%
M02*
