%TF.GenerationSoftware,KiCad,Pcbnew,7.0.1*%
%TF.CreationDate,2023-08-11T20:05:16-05:00*%
%TF.ProjectId,IN12_carrier,494e3132-5f63-4617-9272-6965722e6b69,PRELIM*%
%TF.SameCoordinates,Original*%
%TF.FileFunction,Copper,L4,Bot*%
%TF.FilePolarity,Positive*%
%FSLAX46Y46*%
G04 Gerber Fmt 4.6, Leading zero omitted, Abs format (unit mm)*
G04 Created by KiCad (PCBNEW 7.0.1) date 2023-08-11 20:05:16*
%MOMM*%
%LPD*%
G01*
G04 APERTURE LIST*
G04 Aperture macros list*
%AMRoundRect*
0 Rectangle with rounded corners*
0 $1 Rounding radius*
0 $2 $3 $4 $5 $6 $7 $8 $9 X,Y pos of 4 corners*
0 Add a 4 corners polygon primitive as box body*
4,1,4,$2,$3,$4,$5,$6,$7,$8,$9,$2,$3,0*
0 Add four circle primitives for the rounded corners*
1,1,$1+$1,$2,$3*
1,1,$1+$1,$4,$5*
1,1,$1+$1,$6,$7*
1,1,$1+$1,$8,$9*
0 Add four rect primitives between the rounded corners*
20,1,$1+$1,$2,$3,$4,$5,0*
20,1,$1+$1,$4,$5,$6,$7,0*
20,1,$1+$1,$6,$7,$8,$9,0*
20,1,$1+$1,$8,$9,$2,$3,0*%
G04 Aperture macros list end*
%ADD10C,0.150000*%
%TA.AperFunction,NonConductor*%
%ADD11C,0.150000*%
%TD*%
%TA.AperFunction,ComponentPad*%
%ADD12R,2.000000X2.000000*%
%TD*%
%TA.AperFunction,ComponentPad*%
%ADD13C,2.000000*%
%TD*%
%TA.AperFunction,ComponentPad*%
%ADD14R,1.800000X1.800000*%
%TD*%
%TA.AperFunction,ComponentPad*%
%ADD15C,1.800000*%
%TD*%
%TA.AperFunction,SMDPad,CuDef*%
%ADD16R,0.700000X0.450000*%
%TD*%
%TA.AperFunction,SMDPad,CuDef*%
%ADD17R,0.900000X0.500000*%
%TD*%
%TA.AperFunction,SMDPad,CuDef*%
%ADD18R,1.300000X0.700000*%
%TD*%
%TA.AperFunction,SMDPad,CuDef*%
%ADD19R,0.500000X0.900000*%
%TD*%
%TA.AperFunction,SMDPad,CuDef*%
%ADD20R,0.750000X0.800000*%
%TD*%
%TA.AperFunction,SMDPad,CuDef*%
%ADD21RoundRect,0.112500X-0.187500X-0.112500X0.187500X-0.112500X0.187500X0.112500X-0.187500X0.112500X0*%
%TD*%
%TA.AperFunction,SMDPad,CuDef*%
%ADD22R,0.800000X0.750000*%
%TD*%
%TA.AperFunction,SMDPad,CuDef*%
%ADD23R,2.438400X0.660400*%
%TD*%
%TA.AperFunction,SMDPad,CuDef*%
%ADD24R,0.450000X0.700000*%
%TD*%
%TA.AperFunction,SMDPad,CuDef*%
%ADD25O,0.750000X0.200000*%
%TD*%
%TA.AperFunction,SMDPad,CuDef*%
%ADD26O,0.200000X0.750000*%
%TD*%
%TA.AperFunction,SMDPad,CuDef*%
%ADD27R,0.925000X0.925000*%
%TD*%
%TA.AperFunction,SMDPad,CuDef*%
%ADD28R,0.700000X1.300000*%
%TD*%
%TA.AperFunction,SMDPad,CuDef*%
%ADD29R,0.650000X1.060000*%
%TD*%
%TA.AperFunction,SMDPad,CuDef*%
%ADD30RoundRect,0.150000X-0.150000X0.512500X-0.150000X-0.512500X0.150000X-0.512500X0.150000X0.512500X0*%
%TD*%
%TA.AperFunction,ComponentPad*%
%ADD31R,1.700000X1.700000*%
%TD*%
%TA.AperFunction,ComponentPad*%
%ADD32O,1.700000X1.700000*%
%TD*%
%TA.AperFunction,SMDPad,CuDef*%
%ADD33RoundRect,0.062500X-0.062500X0.350000X-0.062500X-0.350000X0.062500X-0.350000X0.062500X0.350000X0*%
%TD*%
%TA.AperFunction,SMDPad,CuDef*%
%ADD34RoundRect,0.062500X-0.350000X0.062500X-0.350000X-0.062500X0.350000X-0.062500X0.350000X0.062500X0*%
%TD*%
%TA.AperFunction,SMDPad,CuDef*%
%ADD35R,2.600000X2.600000*%
%TD*%
%TA.AperFunction,SMDPad,CuDef*%
%ADD36R,0.650000X0.300000*%
%TD*%
%TA.AperFunction,SMDPad,CuDef*%
%ADD37R,0.775000X1.240000*%
%TD*%
%TA.AperFunction,SMDPad,CuDef*%
%ADD38R,1.550000X0.600000*%
%TD*%
%TA.AperFunction,ViaPad*%
%ADD39C,0.400000*%
%TD*%
%TA.AperFunction,Conductor*%
%ADD40C,0.254000*%
%TD*%
%TA.AperFunction,Conductor*%
%ADD41C,0.635000*%
%TD*%
%TA.AperFunction,Conductor*%
%ADD42C,0.200000*%
%TD*%
%TA.AperFunction,Conductor*%
%ADD43C,0.250000*%
%TD*%
G04 APERTURE END LIST*
D10*
D11*
X94672066Y-83361152D02*
X94672066Y-84027819D01*
X94433971Y-82980200D02*
X94195876Y-83694485D01*
X94195876Y-83694485D02*
X94814923Y-83694485D01*
D12*
%TO.P,V601,1,Anode*%
%TO.N,Anode_5*%
X61485754Y-115344000D03*
D13*
%TO.P,V601,2,Digit0*%
%TO.N,Cathode_0*%
X63235754Y-111844000D03*
%TO.P,V601,3,Digit9*%
%TO.N,Cathode_9*%
X63235754Y-107344000D03*
%TO.P,V601,4,Digit8*%
%TO.N,Cathode_8*%
X63235754Y-102844000D03*
%TO.P,V601,5,Digit7*%
%TO.N,Cathode_7*%
X61485754Y-99344000D03*
X61485754Y-99344000D03*
X61485754Y-99344000D03*
X61485754Y-99344000D03*
%TO.P,V601,6,Digit6*%
%TO.N,Cathode_6*%
X57485754Y-98344000D03*
%TO.P,V601,7,Digit5*%
%TO.N,Cathode_5*%
X53485754Y-99344000D03*
%TO.P,V601,8,Digit4*%
%TO.N,Cathode_4*%
X51735754Y-102844000D03*
%TO.P,V601,9,Digit3*%
%TO.N,Cathode_3*%
X51735754Y-107344000D03*
%TO.P,V601,10,Digit2*%
%TO.N,Cathode_2*%
X51735754Y-111844000D03*
%TO.P,V601,11,Digit1*%
%TO.N,Cathode_1*%
X53485754Y-115344000D03*
%TO.P,V601,12,DP*%
%TO.N,Cathode_DP*%
X57485754Y-116344000D03*
%TD*%
D14*
%TO.P,V609,1,Anode*%
%TO.N,Net-(V609-Anode)*%
X167321862Y-103177335D03*
D15*
%TO.P,V609,2,Kathode*%
%TO.N,Colon_2_Cathode*%
X169861862Y-103177335D03*
%TD*%
D12*
%TO.P,V602,1,Anode*%
%TO.N,Anode_1*%
X194819084Y-115344000D03*
D13*
%TO.P,V602,2,Digit0*%
%TO.N,Cathode_0*%
X196569084Y-111844000D03*
%TO.P,V602,3,Digit9*%
%TO.N,Cathode_9*%
X196569084Y-107344000D03*
%TO.P,V602,4,Digit8*%
%TO.N,Cathode_8*%
X196569084Y-102844000D03*
%TO.P,V602,5,Digit7*%
%TO.N,Cathode_7*%
X194819084Y-99344000D03*
X194819084Y-99344000D03*
X194819084Y-99344000D03*
X194819084Y-99344000D03*
%TO.P,V602,6,Digit6*%
%TO.N,Cathode_6*%
X190819084Y-98344000D03*
%TO.P,V602,7,Digit5*%
%TO.N,Cathode_5*%
X186819084Y-99344000D03*
%TO.P,V602,8,Digit4*%
%TO.N,Cathode_4*%
X185069084Y-102844000D03*
%TO.P,V602,9,Digit3*%
%TO.N,Cathode_3*%
X185069084Y-107344000D03*
%TO.P,V602,10,Digit2*%
%TO.N,Cathode_2*%
X185069084Y-111844000D03*
%TO.P,V602,11,Digit1*%
%TO.N,Cathode_1*%
X186819084Y-115344000D03*
%TO.P,V602,12,DP*%
%TO.N,Cathode_DP*%
X190819084Y-116344000D03*
%TD*%
D12*
%TO.P,V605,1,Anode*%
%TO.N,Anode_3*%
X128152418Y-115344000D03*
D13*
%TO.P,V605,2,Digit0*%
%TO.N,Cathode_0*%
X129902418Y-111844000D03*
%TO.P,V605,3,Digit9*%
%TO.N,Cathode_9*%
X129902418Y-107344000D03*
%TO.P,V605,4,Digit8*%
%TO.N,Cathode_8*%
X129902418Y-102844000D03*
%TO.P,V605,5,Digit7*%
%TO.N,Cathode_7*%
X128152418Y-99344000D03*
X128152418Y-99344000D03*
X128152418Y-99344000D03*
X128152418Y-99344000D03*
%TO.P,V605,6,Digit6*%
%TO.N,Cathode_6*%
X124152418Y-98344000D03*
%TO.P,V605,7,Digit5*%
%TO.N,Cathode_5*%
X120152418Y-99344000D03*
%TO.P,V605,8,Digit4*%
%TO.N,Cathode_4*%
X118402418Y-102844000D03*
%TO.P,V605,9,Digit3*%
%TO.N,Cathode_3*%
X118402418Y-107344000D03*
%TO.P,V605,10,Digit2*%
%TO.N,Cathode_2*%
X118402418Y-111844000D03*
%TO.P,V605,11,Digit1*%
%TO.N,Cathode_1*%
X120152418Y-115344000D03*
%TO.P,V605,12,DP*%
%TO.N,Cathode_DP*%
X124152418Y-116344000D03*
%TD*%
D12*
%TO.P,V604,1,Anode*%
%TO.N,Anode_0*%
X217041304Y-115344000D03*
D13*
%TO.P,V604,2,Digit0*%
%TO.N,Cathode_0*%
X218791304Y-111844000D03*
%TO.P,V604,3,Digit9*%
%TO.N,Cathode_9*%
X218791304Y-107344000D03*
%TO.P,V604,4,Digit8*%
%TO.N,Cathode_8*%
X218791304Y-102844000D03*
%TO.P,V604,5,Digit7*%
%TO.N,Cathode_7*%
X217041304Y-99344000D03*
X217041304Y-99344000D03*
X217041304Y-99344000D03*
X217041304Y-99344000D03*
%TO.P,V604,6,Digit6*%
%TO.N,Cathode_6*%
X213041304Y-98344000D03*
%TO.P,V604,7,Digit5*%
%TO.N,Cathode_5*%
X209041304Y-99344000D03*
%TO.P,V604,8,Digit4*%
%TO.N,Cathode_4*%
X207291304Y-102844000D03*
%TO.P,V604,9,Digit3*%
%TO.N,Cathode_3*%
X207291304Y-107344000D03*
%TO.P,V604,10,Digit2*%
%TO.N,Cathode_2*%
X207291304Y-111844000D03*
%TO.P,V604,11,Digit1*%
%TO.N,Cathode_1*%
X209041304Y-115344000D03*
%TO.P,V604,12,DP*%
%TO.N,Cathode_DP*%
X213041304Y-116344000D03*
%TD*%
D12*
%TO.P,V608,1,Anode*%
%TO.N,Anode_2*%
X150374640Y-115344000D03*
D13*
%TO.P,V608,2,Digit0*%
%TO.N,Cathode_0*%
X152124640Y-111844000D03*
%TO.P,V608,3,Digit9*%
%TO.N,Cathode_9*%
X152124640Y-107344000D03*
%TO.P,V608,4,Digit8*%
%TO.N,Cathode_8*%
X152124640Y-102844000D03*
%TO.P,V608,5,Digit7*%
%TO.N,Cathode_7*%
X150374640Y-99344000D03*
X150374640Y-99344000D03*
X150374640Y-99344000D03*
X150374640Y-99344000D03*
%TO.P,V608,6,Digit6*%
%TO.N,Cathode_6*%
X146374640Y-98344000D03*
%TO.P,V608,7,Digit5*%
%TO.N,Cathode_5*%
X142374640Y-99344000D03*
%TO.P,V608,8,Digit4*%
%TO.N,Cathode_4*%
X140624640Y-102844000D03*
%TO.P,V608,9,Digit3*%
%TO.N,Cathode_3*%
X140624640Y-107344000D03*
%TO.P,V608,10,Digit2*%
%TO.N,Cathode_2*%
X140624640Y-111844000D03*
%TO.P,V608,11,Digit1*%
%TO.N,Cathode_1*%
X142374640Y-115344000D03*
%TO.P,V608,12,DP*%
%TO.N,Cathode_DP*%
X146374640Y-116344000D03*
%TD*%
D14*
%TO.P,V610,1,Anode*%
%TO.N,Net-(V610-Anode)*%
X167321862Y-111510665D03*
D15*
%TO.P,V610,2,Kathode*%
%TO.N,Colon_3_Cathode*%
X169861862Y-111510665D03*
%TD*%
D14*
%TO.P,V606,1,Anode*%
%TO.N,Net-(V606-Anode)*%
X100655196Y-103177335D03*
D15*
%TO.P,V606,2,Kathode*%
%TO.N,Colon_0_Cathode*%
X103195196Y-103177335D03*
%TD*%
D14*
%TO.P,V607,1,Anode*%
%TO.N,Net-(V607-Anode)*%
X100655196Y-111510665D03*
D15*
%TO.P,V607,2,Kathode*%
%TO.N,Colon_1_Cathode*%
X103195196Y-111510665D03*
%TD*%
D12*
%TO.P,V603,1,Anode*%
%TO.N,Anode_4*%
X83707974Y-115344000D03*
D13*
%TO.P,V603,2,Digit0*%
%TO.N,Cathode_0*%
X85457974Y-111844000D03*
%TO.P,V603,3,Digit9*%
%TO.N,Cathode_9*%
X85457974Y-107344000D03*
%TO.P,V603,4,Digit8*%
%TO.N,Cathode_8*%
X85457974Y-102844000D03*
%TO.P,V603,5,Digit7*%
%TO.N,Cathode_7*%
X83707974Y-99344000D03*
X83707974Y-99344000D03*
X83707974Y-99344000D03*
X83707974Y-99344000D03*
%TO.P,V603,6,Digit6*%
%TO.N,Cathode_6*%
X79707974Y-98344000D03*
%TO.P,V603,7,Digit5*%
%TO.N,Cathode_5*%
X75707974Y-99344000D03*
%TO.P,V603,8,Digit4*%
%TO.N,Cathode_4*%
X73957974Y-102844000D03*
%TO.P,V603,9,Digit3*%
%TO.N,Cathode_3*%
X73957974Y-107344000D03*
%TO.P,V603,10,Digit2*%
%TO.N,Cathode_2*%
X73957974Y-111844000D03*
%TO.P,V603,11,Digit1*%
%TO.N,Cathode_1*%
X75707974Y-115344000D03*
%TO.P,V603,12,DP*%
%TO.N,Cathode_DP*%
X79707974Y-116344000D03*
%TD*%
D16*
%TO.P,Q403,1,B*%
%TO.N,Net-(Q403-B)*%
X72202800Y-122570000D03*
%TO.P,Q403,2,E*%
%TO.N,GND*%
X72202800Y-121270000D03*
%TO.P,Q403,3,C*%
%TO.N,Net-(Q403-C)*%
X74202800Y-121920000D03*
%TD*%
D17*
%TO.P,R1018,1,1*%
%TO.N,Pushbutton_Up_SNS*%
X43721200Y-111389050D03*
%TO.P,R1018,2,2*%
%TO.N,Net-(U1005-SNSK)*%
X43721200Y-112889050D03*
%TD*%
D18*
%TO.P,R408,1,1*%
%TO.N,Net-(Q405-B)*%
X144856200Y-122870000D03*
%TO.P,R408,2,2*%
%TO.N,+180V*%
X144856200Y-120970000D03*
%TD*%
D17*
%TO.P,R1006,1,1*%
%TO.N,Set_Weekday_LED*%
X135255200Y-84058600D03*
%TO.P,R1006,2,2*%
%TO.N,Net-(D1006-A)*%
X135255200Y-85558600D03*
%TD*%
D19*
%TO.P,R510,1,1*%
%TO.N,Cathode_9_DSP*%
X202957152Y-83439000D03*
%TO.P,R510,2,2*%
%TO.N,Net-(Q510-B)*%
X201457152Y-83439000D03*
%TD*%
D16*
%TO.P,Q515,1,B*%
%TO.N,Net-(Q515-B)*%
X174516800Y-106372200D03*
%TO.P,Q515,2,E*%
%TO.N,GND*%
X174516800Y-107672200D03*
%TO.P,Q515,3,C*%
%TO.N,Colon_2_Cathode*%
X172516800Y-107022200D03*
%TD*%
D20*
%TO.P,C702,1*%
%TO.N,Net-(U702-VCAP)*%
X87452200Y-115201000D03*
%TO.P,C702,2*%
%TO.N,GND*%
X87452200Y-116701000D03*
%TD*%
D17*
%TO.P,R1004,1,1*%
%TO.N,Set_Date_LED*%
X130988000Y-84058600D03*
%TO.P,R1004,2,2*%
%TO.N,Net-(D1004-A)*%
X130988000Y-85558600D03*
%TD*%
D20*
%TO.P,C304,1*%
%TO.N,Net-(D301-K)*%
X205594800Y-130391600D03*
%TO.P,C304,2*%
%TO.N,GND*%
X205594800Y-128891600D03*
%TD*%
D16*
%TO.P,Q402,1,B*%
%TO.N,Net-(Q402-B)*%
X138877800Y-122570000D03*
%TO.P,Q402,2,E*%
%TO.N,GND*%
X138877800Y-121270000D03*
%TO.P,Q402,3,C*%
%TO.N,Net-(Q402-C)*%
X140877800Y-121920000D03*
%TD*%
D21*
%TO.P,D301,1,K*%
%TO.N,Net-(D301-K)*%
X212335400Y-131140200D03*
%TO.P,D301,2,A*%
%TO.N,+3.3V*%
X214435400Y-131140200D03*
%TD*%
D18*
%TO.P,R404,1,1*%
%TO.N,Net-(Q401-C)*%
X209321400Y-120970000D03*
%TO.P,R404,2,2*%
%TO.N,Net-(Q404-B)*%
X209321400Y-122870000D03*
%TD*%
%TO.P,R418,1,1*%
%TO.N,Net-(Q409-C)*%
X53771800Y-120970000D03*
%TO.P,R418,2,2*%
%TO.N,Net-(Q412-B)*%
X53771800Y-122870000D03*
%TD*%
D19*
%TO.P,R1012,1,1*%
%TO.N,Pushbutton_Right*%
X38429700Y-103505000D03*
%TO.P,R1012,2,2*%
%TO.N,GND*%
X39929700Y-103505000D03*
%TD*%
D17*
%TO.P,R1010,1,1*%
%TO.N,24HR_Mode_LED*%
X143738800Y-84058600D03*
%TO.P,R1010,2,2*%
%TO.N,Net-(D1010-A)*%
X143738800Y-85558600D03*
%TD*%
%TO.P,R1019,1,1*%
%TO.N,Pushbutton_Down_SNS*%
X43721200Y-117271100D03*
%TO.P,R1019,2,2*%
%TO.N,Net-(U1006-SNSK)*%
X43721200Y-118771100D03*
%TD*%
%TO.P,R512,1,1*%
%TO.N,Colon_1_DSP*%
X109413800Y-112256000D03*
%TO.P,R512,2,2*%
%TO.N,Net-(Q512-B)*%
X109413800Y-110756000D03*
%TD*%
D19*
%TO.P,R505,1,1*%
%TO.N,Cathode_8_DSP*%
X205760958Y-83439000D03*
%TO.P,R505,2,2*%
%TO.N,Net-(Q505-B)*%
X204260958Y-83439000D03*
%TD*%
D20*
%TO.P,C706,1*%
%TO.N,+3.3V*%
X160858200Y-113043400D03*
%TO.P,C706,2*%
%TO.N,GND*%
X160858200Y-111543400D03*
%TD*%
D18*
%TO.P,R808,1,1*%
%TO.N,Cathode_1*%
X175130460Y-85938400D03*
%TO.P,R808,2,2*%
%TO.N,+90V*%
X175130460Y-84038400D03*
%TD*%
D20*
%TO.P,C704,1*%
%TO.N,+3.3V*%
X174599600Y-100443600D03*
%TO.P,C704,2*%
%TO.N,GND*%
X174599600Y-101943600D03*
%TD*%
D17*
%TO.P,R1009,1,1*%
%TO.N,Alarm_Enable_LED*%
X141706800Y-84058600D03*
%TO.P,R1009,2,2*%
%TO.N,Net-(D1009-A)*%
X141706800Y-85558600D03*
%TD*%
D22*
%TO.P,C1001,1*%
%TO.N,+3.3V*%
X227749800Y-131171100D03*
%TO.P,C1001,2*%
%TO.N,GND*%
X226249800Y-131171100D03*
%TD*%
D23*
%TO.P,J201,1,Pin_1*%
%TO.N,GND*%
X233231133Y-91850000D03*
%TO.P,J201,2,Pin_2*%
X233231133Y-92850001D03*
%TO.P,J201,3,Pin_3*%
X233231133Y-93850001D03*
%TO.P,J201,4,Pin_4*%
X233231133Y-94850002D03*
%TO.P,J201,5,Pin_5*%
X233231133Y-95850000D03*
%TO.P,J201,6,Pin_6*%
X233231133Y-96850000D03*
%TO.P,J201,7,Pin_7*%
%TO.N,Anode_1_DSP*%
X233231133Y-97850001D03*
%TO.P,J201,8,Pin_8*%
%TO.N,Anode_3_DSP*%
X233231133Y-98850001D03*
%TO.P,J201,9,Pin_9*%
%TO.N,Anode_5_DSP*%
X233231133Y-99850002D03*
%TO.P,J201,10,Pin_10*%
%TO.N,GND*%
X233231133Y-100850000D03*
%TO.P,J201,11,Pin_11*%
%TO.N,Cathode_1_DSP*%
X233231133Y-101850000D03*
%TO.P,J201,12,Pin_12*%
%TO.N,Cathode_3_DSP*%
X233231133Y-102850001D03*
%TO.P,J201,13,Pin_13*%
%TO.N,Cathode_5_DSP*%
X233231133Y-103850002D03*
%TO.P,J201,14,Pin_14*%
%TO.N,Cathode_7_DSP*%
X233231133Y-104850002D03*
%TO.P,J201,15,Pin_15*%
%TO.N,Cathode_9_DSP*%
X233231133Y-105850000D03*
%TO.P,J201,16,Pin_16*%
%TO.N,GND*%
X233231133Y-106850001D03*
%TO.P,J201,17,Pin_17*%
X233231133Y-107850001D03*
%TO.P,J201,18,Pin_18*%
%TO.N,Colon_1_DSP*%
X233231133Y-108850002D03*
%TO.P,J201,19,Pin_19*%
%TO.N,Colon_3_DSP*%
X233231133Y-109850002D03*
%TO.P,J201,20,Pin_20*%
%TO.N,GND*%
X233231133Y-110850000D03*
%TO.P,J201,21,Pin_21*%
%TO.N,Pushbutton_Left*%
X233231133Y-111850001D03*
%TO.P,J201,22,Pin_22*%
%TO.N,Pushbutton_Up*%
X233231133Y-112850001D03*
%TO.P,J201,23,Pin_23*%
%TO.N,unconnected-(J201-Pin_23-Pad23)*%
X233231133Y-113850002D03*
%TO.P,J201,24,Pin_24*%
%TO.N,GND*%
X233231133Y-114850002D03*
%TO.P,J201,25,Pin_25*%
X233231133Y-115850000D03*
%TO.P,J201,26,Pin_26*%
%TO.N,I2C_DSP_SDA*%
X233231133Y-116850001D03*
%TO.P,J201,27,Pin_27*%
%TO.N,unconnected-(J201-Pin_27-Pad27)*%
X233231133Y-117850002D03*
%TO.P,J201,28,Pin_28*%
%TO.N,unconnected-(J201-Pin_28-Pad28)*%
X233231133Y-118850002D03*
%TO.P,J201,29,Pin_29*%
%TO.N,GND*%
X233231133Y-119850000D03*
%TO.P,J201,30,Pin_30*%
X233231133Y-120850001D03*
%TO.P,J201,31,Pin_31*%
X233231133Y-121850001D03*
%TO.P,J201,32,Pin_32*%
X233231133Y-122850002D03*
%TO.P,J201,33,Pin_33*%
%TO.N,+90V*%
X229631135Y-91850000D03*
%TO.P,J201,34,Pin_34*%
X229631135Y-92850001D03*
%TO.P,J201,35,Pin_35*%
%TO.N,unconnected-(J201-Pin_35-Pad35)*%
X229631135Y-93850001D03*
%TO.P,J201,36,Pin_36*%
%TO.N,+180V*%
X229631135Y-94850002D03*
%TO.P,J201,37,Pin_37*%
X229631135Y-95850000D03*
%TO.P,J201,38,Pin_38*%
%TO.N,unconnected-(J201-Pin_38-Pad38)*%
X229631135Y-96850000D03*
%TO.P,J201,39,Pin_39*%
%TO.N,Anode_0_DSP*%
X229631135Y-97850001D03*
%TO.P,J201,40,Pin_40*%
%TO.N,Anode_2_DSP*%
X229631135Y-98850001D03*
%TO.P,J201,41,Pin_41*%
%TO.N,Anode_4_DSP*%
X229631135Y-99850002D03*
%TO.P,J201,42,Pin_42*%
%TO.N,GND*%
X229631135Y-100850000D03*
%TO.P,J201,43,Pin_43*%
%TO.N,Cathode_0_DSP*%
X229631135Y-101850000D03*
%TO.P,J201,44,Pin_44*%
%TO.N,Cathode_2_DSP*%
X229631135Y-102850001D03*
%TO.P,J201,45,Pin_45*%
%TO.N,Cathode_4_DSP*%
X229631135Y-103850002D03*
%TO.P,J201,46,Pin_46*%
%TO.N,Cathode_6_DSP*%
X229631135Y-104850002D03*
%TO.P,J201,47,Pin_47*%
%TO.N,Cathode_8_DSP*%
X229631135Y-105850000D03*
%TO.P,J201,48,Pin_48*%
%TO.N,Cathode_DP_DSP*%
X229631135Y-106850001D03*
%TO.P,J201,49,Pin_49*%
%TO.N,GND*%
X229631135Y-107850001D03*
%TO.P,J201,50,Pin_50*%
%TO.N,Colon_0_DSP*%
X229631135Y-108850002D03*
%TO.P,J201,51,Pin_51*%
%TO.N,Colon_2_DSP*%
X229631135Y-109850002D03*
%TO.P,J201,52,Pin_52*%
%TO.N,GND*%
X229631135Y-110850000D03*
%TO.P,J201,53,Pin_53*%
%TO.N,Pushbutton_Power*%
X229631135Y-111850001D03*
%TO.P,J201,54,Pin_54*%
%TO.N,Pushbutton_Right*%
X229631135Y-112850001D03*
%TO.P,J201,55,Pin_55*%
%TO.N,Pushbutton_Down*%
X229631135Y-113850002D03*
%TO.P,J201,56,Pin_56*%
%TO.N,unconnected-(J201-Pin_56-Pad56)*%
X229631135Y-114850002D03*
%TO.P,J201,57,Pin_57*%
%TO.N,GND*%
X229631135Y-115850000D03*
%TO.P,J201,58,Pin_58*%
%TO.N,I2C_DSP_SCL*%
X229631135Y-116850001D03*
%TO.P,J201,59,Pin_59*%
%TO.N,unconnected-(J201-Pin_59-Pad59)*%
X229631135Y-117850002D03*
%TO.P,J201,60,Pin_60*%
%TO.N,unconnected-(J201-Pin_60-Pad60)*%
X229631135Y-118850002D03*
%TO.P,J201,61,Pin_61*%
%TO.N,+3.3V*%
X229631135Y-119850000D03*
%TO.P,J201,62,Pin_62*%
X229631135Y-120850001D03*
%TO.P,J201,63,Pin_63*%
X229631135Y-121850001D03*
%TO.P,J201,64,Pin_64*%
X229631135Y-122850002D03*
%TD*%
D24*
%TO.P,Q506,1,B*%
%TO.N,Net-(Q506-B)*%
X223987600Y-84953600D03*
%TO.P,Q506,2,E*%
%TO.N,GND*%
X225287600Y-84953600D03*
%TO.P,Q506,3,C*%
%TO.N,Cathode_1*%
X224637600Y-86953600D03*
%TD*%
D20*
%TO.P,C301,1*%
%TO.N,Net-(D301-K)*%
X209709600Y-130391600D03*
%TO.P,C301,2*%
%TO.N,GND*%
X209709600Y-128891600D03*
%TD*%
D18*
%TO.P,R405,1,1*%
%TO.N,Net-(Q402-C)*%
X142671800Y-120970000D03*
%TO.P,R405,2,2*%
%TO.N,Net-(Q405-B)*%
X142671800Y-122870000D03*
%TD*%
D19*
%TO.P,R504,1,1*%
%TO.N,Cathode_6_DSP*%
X211368570Y-83439000D03*
%TO.P,R504,2,2*%
%TO.N,Net-(Q504-B)*%
X209868570Y-83439000D03*
%TD*%
D18*
%TO.P,R416,1,1*%
%TO.N,Net-(Q407-C)*%
X187096400Y-120970000D03*
%TO.P,R416,2,2*%
%TO.N,Net-(Q410-B)*%
X187096400Y-122870000D03*
%TD*%
D17*
%TO.P,R401,1,1*%
%TO.N,Anode_0_DSP*%
X203987400Y-121170000D03*
%TO.P,R401,2,2*%
%TO.N,Net-(Q401-B)*%
X203987400Y-122670000D03*
%TD*%
D16*
%TO.P,Q409,1,B*%
%TO.N,Net-(Q409-B)*%
X49977800Y-122544600D03*
%TO.P,Q409,2,E*%
%TO.N,GND*%
X49977800Y-121244600D03*
%TO.P,Q409,3,C*%
%TO.N,Net-(Q409-C)*%
X51977800Y-121894600D03*
%TD*%
D25*
%TO.P,U703,1,VCAP*%
%TO.N,Net-(U703-VCAP)*%
X155014800Y-111569400D03*
%TO.P,U703,2,OUT0*%
%TO.N,COLON0_LED_R*%
X155014800Y-111169400D03*
%TO.P,U703,3,OUT1*%
%TO.N,COLON0_LED_G*%
X155014800Y-110769400D03*
%TO.P,U703,4,OUT2*%
%TO.N,COLON0_LED_B*%
X155014800Y-110369400D03*
%TO.P,U703,5,OUT3*%
%TO.N,COLON1_LED_R*%
X155014800Y-109969400D03*
D26*
%TO.P,U703,6,OUT4*%
%TO.N,COLON1_LED_G*%
X155714800Y-109269400D03*
%TO.P,U703,7,OUT5*%
%TO.N,COLON1_LED_B*%
X156114800Y-109269400D03*
%TO.P,U703,8,OUT6*%
%TO.N,unconnected-(U703-OUT6-Pad8)*%
X156514800Y-109269400D03*
%TO.P,U703,9,OUT7*%
%TO.N,unconnected-(U703-OUT7-Pad9)*%
X156914800Y-109269400D03*
%TO.P,U703,10,OUT8*%
%TO.N,unconnected-(U703-OUT8-Pad10)*%
X157314800Y-109269400D03*
D25*
%TO.P,U703,11,NC*%
%TO.N,unconnected-(U703-NC-Pad11)*%
X158014800Y-109969400D03*
%TO.P,U703,12,NC*%
%TO.N,unconnected-(U703-NC-Pad12)*%
X158014800Y-110369400D03*
%TO.P,U703,13,NC*%
%TO.N,unconnected-(U703-NC-Pad13)*%
X158014800Y-110769400D03*
%TO.P,U703,14,ADDR0*%
%TO.N,GND*%
X158014800Y-111169400D03*
%TO.P,U703,15,ADDR1*%
%TO.N,+3.3V*%
X158014800Y-111569400D03*
D26*
%TO.P,U703,16,VCC*%
X157314800Y-112269400D03*
%TO.P,U703,17,SDA*%
%TO.N,I2C_DSP_SDA*%
X156914800Y-112269400D03*
%TO.P,U703,18,SCL*%
%TO.N,I2C_DSP_SCL*%
X156514800Y-112269400D03*
%TO.P,U703,19,EN*%
%TO.N,Tube_LED_Enable*%
X156114800Y-112269400D03*
%TO.P,U703,20,IREF*%
%TO.N,Net-(U703-IREF)*%
X155714800Y-112269400D03*
D27*
%TO.P,U703,21,GND*%
%TO.N,GND*%
X156052300Y-110306900D03*
X156052300Y-111231900D03*
X156977300Y-110306900D03*
X156977300Y-111231900D03*
%TD*%
D17*
%TO.P,R516,1,1*%
%TO.N,Colon_2_DSP*%
X176072800Y-107772200D03*
%TO.P,R516,2,2*%
%TO.N,Net-(Q515-B)*%
X176072800Y-106272200D03*
%TD*%
D18*
%TO.P,R815,1,1*%
%TO.N,Cathode_8*%
X188625480Y-85938400D03*
%TO.P,R815,2,2*%
%TO.N,+90V*%
X188625480Y-84038400D03*
%TD*%
D17*
%TO.P,R1017,1,1*%
%TO.N,Pushbutton_Right_SNS*%
X43726300Y-105523600D03*
%TO.P,R1017,2,2*%
%TO.N,Net-(U1004-SNSK)*%
X43726300Y-107023600D03*
%TD*%
D19*
%TO.P,R1013,1,1*%
%TO.N,Pushbutton_Up*%
X38424600Y-109395850D03*
%TO.P,R1013,2,2*%
%TO.N,GND*%
X39924600Y-109395850D03*
%TD*%
D28*
%TO.P,R514,1,1*%
%TO.N,Net-(Q511-C)*%
X196794200Y-86360000D03*
%TO.P,R514,2,2*%
%TO.N,Cathode_DP*%
X194894200Y-86360000D03*
%TD*%
%TO.P,R601,1*%
%TO.N,+180V*%
X96205000Y-103174800D03*
%TO.P,R601,2*%
%TO.N,Net-(V606-Anode)*%
X98105000Y-103174800D03*
%TD*%
D29*
%TO.P,U1005,1,OUT*%
%TO.N,Pushbutton_Up*%
X38732600Y-111039050D03*
%TO.P,U1005,2,VSS*%
%TO.N,GND*%
X39682600Y-111039050D03*
%TO.P,U1005,3,SNSK*%
%TO.N,Net-(U1005-SNSK)*%
X40632600Y-111039050D03*
%TO.P,U1005,4,SNS*%
%TO.N,Net-(U1005-SNS)*%
X40632600Y-113239050D03*
%TO.P,U1005,5,VDD*%
%TO.N,+3.3V*%
X39682600Y-113239050D03*
%TO.P,U1005,6,SYNC*%
X38732600Y-113239050D03*
%TD*%
D16*
%TO.P,Q412,1,B*%
%TO.N,Net-(Q412-B)*%
X57699400Y-122570000D03*
%TO.P,Q412,2,E*%
%TO.N,+180V*%
X57699400Y-121270000D03*
%TO.P,Q412,3,C*%
%TO.N,Net-(Q412-C)*%
X59699400Y-121920000D03*
%TD*%
D17*
%TO.P,R1002,1,1*%
%TO.N,Set_Time_LED*%
X126873200Y-84058600D03*
%TO.P,R1002,2,2*%
%TO.N,Net-(D1002-A)*%
X126873200Y-85558600D03*
%TD*%
%TO.P,R1007,1,1*%
%TO.N,Display_Alarm_LED*%
X137490400Y-84058600D03*
%TO.P,R1007,2,2*%
%TO.N,Net-(D1007-A)*%
X137490400Y-85558600D03*
%TD*%
D19*
%TO.P,R501,1,1*%
%TO.N,Cathode_0_DSP*%
X228191406Y-83439000D03*
%TO.P,R501,2,2*%
%TO.N,Net-(Q501-B)*%
X226691406Y-83439000D03*
%TD*%
D17*
%TO.P,R706,1,1*%
%TO.N,Net-(U703-IREF)*%
X155397200Y-113677000D03*
%TO.P,R706,2,2*%
%TO.N,GND*%
X155397200Y-115177000D03*
%TD*%
D18*
%TO.P,R411,1,1*%
%TO.N,Anode_2*%
X150393400Y-120970000D03*
%TO.P,R411,2,2*%
%TO.N,Net-(Q405-C)*%
X150393400Y-122870000D03*
%TD*%
D20*
%TO.P,C1007,1*%
%TO.N,Net-(U1003-SNS)*%
X42227700Y-101124950D03*
%TO.P,C1007,2*%
%TO.N,Net-(U1003-SNSK)*%
X42227700Y-99624950D03*
%TD*%
D18*
%TO.P,R804,1,1*%
%TO.N,Anode_3*%
X130327400Y-120970000D03*
%TO.P,R804,2,2*%
%TO.N,+90V*%
X130327400Y-122870000D03*
%TD*%
D20*
%TO.P,C701,1*%
%TO.N,Net-(U701-VCAP)*%
X181711600Y-99886200D03*
%TO.P,C701,2*%
%TO.N,GND*%
X181711600Y-98386200D03*
%TD*%
%TO.P,C1010,1*%
%TO.N,Net-(U1006-SNS)*%
X42222600Y-118771100D03*
%TO.P,C1010,2*%
%TO.N,Net-(U1006-SNSK)*%
X42222600Y-117271100D03*
%TD*%
D17*
%TO.P,R1005,1,1*%
%TO.N,Display_Weekday_LED*%
X133223200Y-84058600D03*
%TO.P,R1005,2,2*%
%TO.N,Net-(D1005-A)*%
X133223200Y-85558600D03*
%TD*%
D16*
%TO.P,Q410,1,B*%
%TO.N,Net-(Q410-B)*%
X191024000Y-122570000D03*
%TO.P,Q410,2,E*%
%TO.N,+180V*%
X191024000Y-121270000D03*
%TO.P,Q410,3,C*%
%TO.N,Net-(Q410-C)*%
X193024000Y-121920000D03*
%TD*%
%TO.P,Q405,1,B*%
%TO.N,Net-(Q405-B)*%
X146599400Y-122570000D03*
%TO.P,Q405,2,E*%
%TO.N,+180V*%
X146599400Y-121270000D03*
%TO.P,Q405,3,C*%
%TO.N,Net-(Q405-C)*%
X148599400Y-121920000D03*
%TD*%
D24*
%TO.P,Q509,1,B*%
%TO.N,Net-(Q509-B)*%
X207164764Y-84953600D03*
%TO.P,Q509,2,E*%
%TO.N,GND*%
X208464764Y-84953600D03*
%TO.P,Q509,3,C*%
%TO.N,Cathode_7*%
X207814764Y-86953600D03*
%TD*%
D30*
%TO.P,U1002,1,SCL*%
%TO.N,I2C_DSP_SCL*%
X226049800Y-127163400D03*
%TO.P,U1002,2,V_{SS}*%
%TO.N,GND*%
X226999800Y-127163400D03*
%TO.P,U1002,3,SDA*%
%TO.N,I2C_DSP_SDA*%
X227949800Y-127163400D03*
%TO.P,U1002,4,V_{CC}*%
%TO.N,+3.3V*%
X227949800Y-129438400D03*
%TO.P,U1002,5,WP*%
%TO.N,GND*%
X226049800Y-129438400D03*
%TD*%
D28*
%TO.P,R603,1*%
%TO.N,+180V*%
X162880000Y-103174800D03*
%TO.P,R603,2*%
%TO.N,Net-(V609-Anode)*%
X164780000Y-103174800D03*
%TD*%
D17*
%TO.P,R301,1,1*%
%TO.N,Net-(D301-K)*%
X214477600Y-129604200D03*
%TO.P,R301,2,2*%
%TO.N,Net-(U301-SCL)*%
X214477600Y-128104200D03*
%TD*%
D18*
%TO.P,R420,1,1*%
%TO.N,Net-(Q411-B)*%
X122605800Y-122870000D03*
%TO.P,R420,2,2*%
%TO.N,+180V*%
X122605800Y-120970000D03*
%TD*%
D20*
%TO.P,C707,1*%
%TO.N,+3.3V*%
X176022000Y-100443600D03*
%TO.P,C707,2*%
%TO.N,GND*%
X176022000Y-101943600D03*
%TD*%
D24*
%TO.P,Q501,1,B*%
%TO.N,Net-(Q501-B)*%
X226791406Y-84953600D03*
%TO.P,Q501,2,E*%
%TO.N,GND*%
X228091406Y-84953600D03*
%TO.P,Q501,3,C*%
%TO.N,Cathode_0*%
X227441406Y-86953600D03*
%TD*%
D17*
%TO.P,R415,1,1*%
%TO.N,Anode_5_DSP*%
X48437800Y-121144600D03*
%TO.P,R415,2,2*%
%TO.N,Net-(Q409-B)*%
X48437800Y-122644600D03*
%TD*%
D18*
%TO.P,R410,1,1*%
%TO.N,Anode_0*%
X217043000Y-120970000D03*
%TO.P,R410,2,2*%
%TO.N,Net-(Q404-C)*%
X217043000Y-122870000D03*
%TD*%
%TO.P,R811,1,1*%
%TO.N,Cathode_4*%
X180914040Y-85938400D03*
%TO.P,R811,2,2*%
%TO.N,+90V*%
X180914040Y-84038400D03*
%TD*%
D17*
%TO.P,R705,1,1*%
%TO.N,Net-(U702-IREF)*%
X88900000Y-115201000D03*
%TO.P,R705,2,2*%
%TO.N,GND*%
X88900000Y-116701000D03*
%TD*%
D19*
%TO.P,R508,1,1*%
%TO.N,Cathode_5_DSP*%
X214172376Y-83439000D03*
%TO.P,R508,2,2*%
%TO.N,Net-(Q508-B)*%
X212672376Y-83439000D03*
%TD*%
%TO.P,R507,1,1*%
%TO.N,Cathode_3_DSP*%
X219779988Y-83439000D03*
%TO.P,R507,2,2*%
%TO.N,Net-(Q507-B)*%
X218279988Y-83439000D03*
%TD*%
D17*
%TO.P,R901,1,1*%
%TO.N,Set_Color_LED*%
X148006000Y-84058600D03*
%TO.P,R901,2,2*%
%TO.N,Net-(D901-A)*%
X148006000Y-85558600D03*
%TD*%
D29*
%TO.P,U1006,1,OUT*%
%TO.N,Pushbutton_Down*%
X38732600Y-116921100D03*
%TO.P,U1006,2,VSS*%
%TO.N,GND*%
X39682600Y-116921100D03*
%TO.P,U1006,3,SNSK*%
%TO.N,Net-(U1006-SNSK)*%
X40632600Y-116921100D03*
%TO.P,U1006,4,SNS*%
%TO.N,Net-(U1006-SNS)*%
X40632600Y-119121100D03*
%TO.P,U1006,5,VDD*%
%TO.N,+3.3V*%
X39682600Y-119121100D03*
%TO.P,U1006,6,SYNC*%
X38732600Y-119121100D03*
%TD*%
D17*
%TO.P,R1008,1,1*%
%TO.N,Set_Alarm_LED*%
X139573200Y-84058600D03*
%TO.P,R1008,2,2*%
%TO.N,Net-(D1008-A)*%
X139573200Y-85558600D03*
%TD*%
D24*
%TO.P,Q510,1,B*%
%TO.N,Net-(Q510-B)*%
X201557152Y-84953600D03*
%TO.P,Q510,2,E*%
%TO.N,GND*%
X202857152Y-84953600D03*
%TO.P,Q510,3,C*%
%TO.N,Cathode_9*%
X202207152Y-86953600D03*
%TD*%
D20*
%TO.P,C1009,1*%
%TO.N,Net-(U1005-SNS)*%
X42222600Y-112889050D03*
%TO.P,C1009,2*%
%TO.N,Net-(U1005-SNSK)*%
X42222600Y-111389050D03*
%TD*%
D19*
%TO.P,R701,1,1*%
%TO.N,Tube_LED_Enable*%
X108471400Y-104521000D03*
%TO.P,R701,2,2*%
%TO.N,GND*%
X106971400Y-104521000D03*
%TD*%
D17*
%TO.P,R513,1,1*%
%TO.N,Colon_0_DSP*%
X109413800Y-107455400D03*
%TO.P,R513,2,2*%
%TO.N,Net-(Q513-B)*%
X109413800Y-105955400D03*
%TD*%
%TO.P,R1001,1,1*%
%TO.N,Display_Time_LED*%
X124663400Y-84058600D03*
%TO.P,R1001,2,2*%
%TO.N,Net-(D1001-A)*%
X124663400Y-85558600D03*
%TD*%
%TO.P,R413,1,1*%
%TO.N,Anode_1_DSP*%
X181762400Y-121170000D03*
%TO.P,R413,2,2*%
%TO.N,Net-(Q407-B)*%
X181762400Y-122670000D03*
%TD*%
D18*
%TO.P,R412,1,1*%
%TO.N,Anode_4*%
X83718400Y-120970000D03*
%TO.P,R412,2,2*%
%TO.N,Net-(Q406-C)*%
X83718400Y-122870000D03*
%TD*%
%TO.P,R424,1,1*%
%TO.N,Anode_5*%
X61493400Y-120970000D03*
%TO.P,R424,2,2*%
%TO.N,Net-(Q412-C)*%
X61493400Y-122870000D03*
%TD*%
D16*
%TO.P,Q512,1,B*%
%TO.N,Net-(Q512-B)*%
X107857800Y-110856000D03*
%TO.P,Q512,2,E*%
%TO.N,GND*%
X107857800Y-112156000D03*
%TO.P,Q512,3,C*%
%TO.N,Colon_1_Cathode*%
X105857800Y-111506000D03*
%TD*%
D18*
%TO.P,R417,1,1*%
%TO.N,Net-(Q408-C)*%
X120421400Y-120995400D03*
%TO.P,R417,2,2*%
%TO.N,Net-(Q411-B)*%
X120421400Y-122895400D03*
%TD*%
D20*
%TO.P,C1002,1*%
%TO.N,+3.3V*%
X105892600Y-99911600D03*
%TO.P,C1002,2*%
%TO.N,GND*%
X105892600Y-98411600D03*
%TD*%
D17*
%TO.P,R302,1,1*%
%TO.N,Net-(D301-K)*%
X212928200Y-129604200D03*
%TO.P,R302,2,2*%
%TO.N,Net-(U301-SDA)*%
X212928200Y-128104200D03*
%TD*%
D20*
%TO.P,C705,1*%
%TO.N,+3.3V*%
X94386400Y-114567400D03*
%TO.P,C705,2*%
%TO.N,GND*%
X94386400Y-113067400D03*
%TD*%
D17*
%TO.P,R704,1,1*%
%TO.N,Net-(U701-IREF)*%
X180263800Y-99886200D03*
%TO.P,R704,2,2*%
%TO.N,GND*%
X180263800Y-98386200D03*
%TD*%
D18*
%TO.P,R813,1,1*%
%TO.N,Cathode_6*%
X184769760Y-85938400D03*
%TO.P,R813,2,2*%
%TO.N,+90V*%
X184769760Y-84038400D03*
%TD*%
D20*
%TO.P,C303,1*%
%TO.N,Net-(D301-K)*%
X206966400Y-130391600D03*
%TO.P,C303,2*%
%TO.N,GND*%
X206966400Y-128891600D03*
%TD*%
D18*
%TO.P,R809,1,1*%
%TO.N,Cathode_2*%
X177058320Y-85938400D03*
%TO.P,R809,2,2*%
%TO.N,+90V*%
X177058320Y-84038400D03*
%TD*%
%TO.P,R409,1,1*%
%TO.N,Net-(Q406-B)*%
X78181200Y-122870000D03*
%TO.P,R409,2,2*%
%TO.N,+180V*%
X78181200Y-120970000D03*
%TD*%
D29*
%TO.P,U1007,1,OUT*%
%TO.N,Pushbutton_Power*%
X38732600Y-93392900D03*
%TO.P,U1007,2,VSS*%
%TO.N,GND*%
X39682600Y-93392900D03*
%TO.P,U1007,3,SNSK*%
%TO.N,Net-(U1007-SNSK)*%
X40632600Y-93392900D03*
%TO.P,U1007,4,SNS*%
%TO.N,Net-(U1007-SNS)*%
X40632600Y-95592900D03*
%TO.P,U1007,5,VDD*%
%TO.N,+3.3V*%
X39682600Y-95592900D03*
%TO.P,U1007,6,SYNC*%
X38732600Y-95592900D03*
%TD*%
D24*
%TO.P,Q507,1,B*%
%TO.N,Net-(Q507-B)*%
X218379988Y-84953600D03*
%TO.P,Q507,2,E*%
%TO.N,GND*%
X219679988Y-84953600D03*
%TO.P,Q507,3,C*%
%TO.N,Cathode_3*%
X219029988Y-86953600D03*
%TD*%
D20*
%TO.P,C1008,1*%
%TO.N,Net-(U1004-SNS)*%
X42227700Y-107023600D03*
%TO.P,C1008,2*%
%TO.N,Net-(U1004-SNSK)*%
X42227700Y-105523600D03*
%TD*%
D18*
%TO.P,R406,1,1*%
%TO.N,Net-(Q403-C)*%
X75996800Y-120970000D03*
%TO.P,R406,2,2*%
%TO.N,Net-(Q406-B)*%
X75996800Y-122870000D03*
%TD*%
D16*
%TO.P,Q408,1,B*%
%TO.N,Net-(Q408-B)*%
X116627400Y-122595400D03*
%TO.P,Q408,2,E*%
%TO.N,GND*%
X116627400Y-121295400D03*
%TO.P,Q408,3,C*%
%TO.N,Net-(Q408-C)*%
X118627400Y-121945400D03*
%TD*%
D18*
%TO.P,R421,1,1*%
%TO.N,Net-(Q412-B)*%
X55956200Y-122870000D03*
%TO.P,R421,2,2*%
%TO.N,+180V*%
X55956200Y-120970000D03*
%TD*%
%TO.P,R817,1,1*%
%TO.N,Cathode_DP*%
X192481200Y-85938400D03*
%TO.P,R817,2,2*%
%TO.N,+90V*%
X192481200Y-84038400D03*
%TD*%
%TO.P,R807,1,1*%
%TO.N,Cathode_0*%
X173202600Y-85938400D03*
%TO.P,R807,2,2*%
%TO.N,+90V*%
X173202600Y-84038400D03*
%TD*%
D17*
%TO.P,R304,1,1*%
%TO.N,+3.3V*%
X221875500Y-130046400D03*
%TO.P,R304,2,2*%
%TO.N,Net-(U302-XORL)*%
X221875500Y-128546400D03*
%TD*%
D19*
%TO.P,R503,1,1*%
%TO.N,Cathode_4_DSP*%
X216976182Y-83439000D03*
%TO.P,R503,2,2*%
%TO.N,Net-(Q503-B)*%
X215476182Y-83439000D03*
%TD*%
D25*
%TO.P,U702,1,VCAP*%
%TO.N,Net-(U702-VCAP)*%
X88543000Y-113118800D03*
%TO.P,U702,2,OUT0*%
%TO.N,TUBE3_LED_R*%
X88543000Y-112718800D03*
%TO.P,U702,3,OUT1*%
%TO.N,TUBE3_LED_G*%
X88543000Y-112318800D03*
%TO.P,U702,4,OUT2*%
%TO.N,TUBE3_LED_B*%
X88543000Y-111918800D03*
%TO.P,U702,5,OUT3*%
%TO.N,TUBE4_LED_R*%
X88543000Y-111518800D03*
D26*
%TO.P,U702,6,OUT4*%
%TO.N,TUBE4_LED_G*%
X89243000Y-110818800D03*
%TO.P,U702,7,OUT5*%
%TO.N,TUBE4_LED_B*%
X89643000Y-110818800D03*
%TO.P,U702,8,OUT6*%
%TO.N,TUBE5_LED_R*%
X90043000Y-110818800D03*
%TO.P,U702,9,OUT7*%
%TO.N,TUBE5_LED_G*%
X90443000Y-110818800D03*
%TO.P,U702,10,OUT8*%
%TO.N,TUBE5_LED_B*%
X90843000Y-110818800D03*
D25*
%TO.P,U702,11,NC*%
%TO.N,unconnected-(U702-NC-Pad11)*%
X91543000Y-111518800D03*
%TO.P,U702,12,NC*%
%TO.N,unconnected-(U702-NC-Pad12)*%
X91543000Y-111918800D03*
%TO.P,U702,13,NC*%
%TO.N,unconnected-(U702-NC-Pad13)*%
X91543000Y-112318800D03*
%TO.P,U702,14,ADDR0*%
%TO.N,+3.3V*%
X91543000Y-112718800D03*
%TO.P,U702,15,ADDR1*%
%TO.N,GND*%
X91543000Y-113118800D03*
D26*
%TO.P,U702,16,VCC*%
%TO.N,+3.3V*%
X90843000Y-113818800D03*
%TO.P,U702,17,SDA*%
%TO.N,I2C_DSP_SDA*%
X90443000Y-113818800D03*
%TO.P,U702,18,SCL*%
%TO.N,I2C_DSP_SCL*%
X90043000Y-113818800D03*
%TO.P,U702,19,EN*%
%TO.N,Tube_LED_Enable*%
X89643000Y-113818800D03*
%TO.P,U702,20,IREF*%
%TO.N,Net-(U702-IREF)*%
X89243000Y-113818800D03*
D27*
%TO.P,U702,21,GND*%
%TO.N,GND*%
X89580500Y-111856300D03*
X89580500Y-112781300D03*
X90505500Y-111856300D03*
X90505500Y-112781300D03*
%TD*%
D25*
%TO.P,U701,1,VCAP*%
%TO.N,Net-(U701-VCAP)*%
X180443000Y-102019200D03*
%TO.P,U701,2,OUT0*%
%TO.N,TUBE0_LED_R*%
X180443000Y-102419200D03*
%TO.P,U701,3,OUT1*%
%TO.N,TUBE0_LED_G*%
X180443000Y-102819200D03*
%TO.P,U701,4,OUT2*%
%TO.N,TUBE0_LED_B*%
X180443000Y-103219200D03*
%TO.P,U701,5,OUT3*%
%TO.N,TUBE1_LED_R*%
X180443000Y-103619200D03*
D26*
%TO.P,U701,6,OUT4*%
%TO.N,TUBE1_LED_G*%
X179743000Y-104319200D03*
%TO.P,U701,7,OUT5*%
%TO.N,TUBE1_LED_B*%
X179343000Y-104319200D03*
%TO.P,U701,8,OUT6*%
%TO.N,TUBE2_LED_R*%
X178943000Y-104319200D03*
%TO.P,U701,9,OUT7*%
%TO.N,TUBE2_LED_G*%
X178543000Y-104319200D03*
%TO.P,U701,10,OUT8*%
%TO.N,TUBE2_LED_B*%
X178143000Y-104319200D03*
D25*
%TO.P,U701,11,NC*%
%TO.N,unconnected-(U701-NC-Pad11)*%
X177443000Y-103619200D03*
%TO.P,U701,12,NC*%
%TO.N,unconnected-(U701-NC-Pad12)*%
X177443000Y-103219200D03*
%TO.P,U701,13,NC*%
%TO.N,unconnected-(U701-NC-Pad13)*%
X177443000Y-102819200D03*
%TO.P,U701,14,ADDR0*%
%TO.N,GND*%
X177443000Y-102419200D03*
%TO.P,U701,15,ADDR1*%
X177443000Y-102019200D03*
D26*
%TO.P,U701,16,VCC*%
%TO.N,+3.3V*%
X178143000Y-101319200D03*
%TO.P,U701,17,SDA*%
%TO.N,I2C_DSP_SDA*%
X178543000Y-101319200D03*
%TO.P,U701,18,SCL*%
%TO.N,I2C_DSP_SCL*%
X178943000Y-101319200D03*
%TO.P,U701,19,EN*%
%TO.N,Tube_LED_Enable*%
X179343000Y-101319200D03*
%TO.P,U701,20,IREF*%
%TO.N,Net-(U701-IREF)*%
X179743000Y-101319200D03*
D27*
%TO.P,U701,21,GND*%
%TO.N,GND*%
X179405500Y-103281700D03*
X179405500Y-102356700D03*
X178480500Y-103281700D03*
X178480500Y-102356700D03*
%TD*%
D24*
%TO.P,Q503,1,B*%
%TO.N,Net-(Q503-B)*%
X215576182Y-84953600D03*
%TO.P,Q503,2,E*%
%TO.N,GND*%
X216876182Y-84953600D03*
%TO.P,Q503,3,C*%
%TO.N,Cathode_4*%
X216226182Y-86953600D03*
%TD*%
D18*
%TO.P,R419,1,1*%
%TO.N,Net-(Q410-B)*%
X189280800Y-122870000D03*
%TO.P,R419,2,2*%
%TO.N,+180V*%
X189280800Y-120970000D03*
%TD*%
%TO.P,R806,1,1*%
%TO.N,Anode_5*%
X63677800Y-120970000D03*
%TO.P,R806,2,2*%
%TO.N,+90V*%
X63677800Y-122870000D03*
%TD*%
D31*
%TO.P,J1001,1,Pin_1*%
%TO.N,Pushbutton_Power_SNS*%
X74625200Y-84328000D03*
D32*
%TO.P,J1001,2,Pin_2*%
%TO.N,Pushbutton_Left_SNS*%
X77165200Y-84328000D03*
%TO.P,J1001,3,Pin_3*%
%TO.N,Pushbutton_Right_SNS*%
X79705200Y-84328000D03*
%TO.P,J1001,4,Pin_4*%
%TO.N,Pushbutton_Up_SNS*%
X82245200Y-84328000D03*
%TO.P,J1001,5,Pin_5*%
%TO.N,Pushbutton_Down_SNS*%
X84785200Y-84328000D03*
%TD*%
D24*
%TO.P,Q508,1,B*%
%TO.N,Net-(Q508-B)*%
X212772376Y-84953600D03*
%TO.P,Q508,2,E*%
%TO.N,GND*%
X214072376Y-84953600D03*
%TO.P,Q508,3,C*%
%TO.N,Cathode_5*%
X213422376Y-86953600D03*
%TD*%
%TO.P,Q504,1,B*%
%TO.N,Net-(Q504-B)*%
X209968570Y-84953600D03*
%TO.P,Q504,2,E*%
%TO.N,GND*%
X211268570Y-84953600D03*
%TO.P,Q504,3,C*%
%TO.N,Cathode_6*%
X210618570Y-86953600D03*
%TD*%
D16*
%TO.P,Q514,1,B*%
%TO.N,Net-(Q514-B)*%
X174532800Y-110856000D03*
%TO.P,Q514,2,E*%
%TO.N,GND*%
X174532800Y-112156000D03*
%TO.P,Q514,3,C*%
%TO.N,Colon_3_Cathode*%
X172532800Y-111506000D03*
%TD*%
D19*
%TO.P,R509,1,1*%
%TO.N,Cathode_7_DSP*%
X208564764Y-83439000D03*
%TO.P,R509,2,2*%
%TO.N,Net-(Q509-B)*%
X207064764Y-83439000D03*
%TD*%
D20*
%TO.P,C1016,1*%
%TO.N,Net-(U1007-SNS)*%
X42222600Y-95242900D03*
%TO.P,C1016,2*%
%TO.N,Net-(U1007-SNSK)*%
X42222600Y-93742900D03*
%TD*%
D19*
%TO.P,R511,1,1*%
%TO.N,Cathode_DP_DSP*%
X200153346Y-83451800D03*
%TO.P,R511,2,2*%
%TO.N,Net-(Q511-B)*%
X198653346Y-83451800D03*
%TD*%
%TO.P,R1020,1,1*%
%TO.N,Pushbutton_Left*%
X38444900Y-97631750D03*
%TO.P,R1020,2,2*%
%TO.N,GND*%
X39944900Y-97631750D03*
%TD*%
D20*
%TO.P,C703,1*%
%TO.N,Net-(U703-VCAP)*%
X153949400Y-113677000D03*
%TO.P,C703,2*%
%TO.N,GND*%
X153949400Y-115177000D03*
%TD*%
D28*
%TO.P,R604,1*%
%TO.N,+180V*%
X162880000Y-111506000D03*
%TO.P,R604,2*%
%TO.N,Net-(V610-Anode)*%
X164780000Y-111506000D03*
%TD*%
D17*
%TO.P,R515,1,1*%
%TO.N,Colon_3_DSP*%
X176088800Y-112256000D03*
%TO.P,R515,2,2*%
%TO.N,Net-(Q514-B)*%
X176088800Y-110756000D03*
%TD*%
D29*
%TO.P,U1004,1,OUT*%
%TO.N,Pushbutton_Right*%
X38727500Y-105165800D03*
%TO.P,U1004,2,VSS*%
%TO.N,GND*%
X39677500Y-105165800D03*
%TO.P,U1004,3,SNSK*%
%TO.N,Net-(U1004-SNSK)*%
X40627500Y-105165800D03*
%TO.P,U1004,4,SNS*%
%TO.N,Net-(U1004-SNS)*%
X40627500Y-107365800D03*
%TO.P,U1004,5,VDD*%
%TO.N,+3.3V*%
X39677500Y-107365800D03*
%TO.P,U1004,6,SYNC*%
X38727500Y-107365800D03*
%TD*%
D18*
%TO.P,R805,1,1*%
%TO.N,Anode_4*%
X85902800Y-120970000D03*
%TO.P,R805,2,2*%
%TO.N,+90V*%
X85902800Y-122870000D03*
%TD*%
%TO.P,R422,1,1*%
%TO.N,Anode_1*%
X194818000Y-120970000D03*
%TO.P,R422,2,2*%
%TO.N,Net-(Q410-C)*%
X194818000Y-122870000D03*
%TD*%
D19*
%TO.P,R1015,1,1*%
%TO.N,Pushbutton_Power*%
X38450000Y-91749700D03*
%TO.P,R1015,2,2*%
%TO.N,GND*%
X39950000Y-91749700D03*
%TD*%
D20*
%TO.P,C305,1*%
%TO.N,+3.3V*%
X220402300Y-129959800D03*
%TO.P,C305,2*%
%TO.N,GND*%
X220402300Y-128459800D03*
%TD*%
D18*
%TO.P,R803,1,1*%
%TO.N,Anode_2*%
X152603200Y-120970000D03*
%TO.P,R803,2,2*%
%TO.N,+90V*%
X152603200Y-122870000D03*
%TD*%
D28*
%TO.P,R602,1*%
%TO.N,+180V*%
X96205000Y-111506000D03*
%TO.P,R602,2*%
%TO.N,Net-(V607-Anode)*%
X98105000Y-111506000D03*
%TD*%
D16*
%TO.P,Q513,1,B*%
%TO.N,Net-(Q513-B)*%
X107857800Y-106055400D03*
%TO.P,Q513,2,E*%
%TO.N,GND*%
X107857800Y-107355400D03*
%TO.P,Q513,3,C*%
%TO.N,Colon_0_Cathode*%
X105857800Y-106705400D03*
%TD*%
D17*
%TO.P,R1021,1,1*%
%TO.N,Pushbutton_Power_SNS*%
X43721200Y-93742900D03*
%TO.P,R1021,2,2*%
%TO.N,Net-(U1007-SNSK)*%
X43721200Y-95242900D03*
%TD*%
D20*
%TO.P,C708,1*%
%TO.N,+3.3V*%
X92964000Y-114567400D03*
%TO.P,C708,2*%
%TO.N,GND*%
X92964000Y-113067400D03*
%TD*%
D17*
%TO.P,R1003,1,1*%
%TO.N,Display_Date_LED*%
X128956000Y-84058600D03*
%TO.P,R1003,2,2*%
%TO.N,Net-(D1003-A)*%
X128956000Y-85558600D03*
%TD*%
%TO.P,R1016,1,1*%
%TO.N,Pushbutton_Left_SNS*%
X43726300Y-99624950D03*
%TO.P,R1016,2,2*%
%TO.N,Net-(U1003-SNSK)*%
X43726300Y-101124950D03*
%TD*%
D24*
%TO.P,Q505,1,B*%
%TO.N,Net-(Q505-B)*%
X204360958Y-84953600D03*
%TO.P,Q505,2,E*%
%TO.N,GND*%
X205660958Y-84953600D03*
%TO.P,Q505,3,C*%
%TO.N,Cathode_8*%
X205010958Y-86953600D03*
%TD*%
D16*
%TO.P,Q407,1,B*%
%TO.N,Net-(Q407-B)*%
X183302400Y-122570000D03*
%TO.P,Q407,2,E*%
%TO.N,GND*%
X183302400Y-121270000D03*
%TO.P,Q407,3,C*%
%TO.N,Net-(Q407-C)*%
X185302400Y-121920000D03*
%TD*%
D18*
%TO.P,R810,1,1*%
%TO.N,Cathode_3*%
X178986180Y-85938400D03*
%TO.P,R810,2,2*%
%TO.N,+90V*%
X178986180Y-84038400D03*
%TD*%
D29*
%TO.P,U1003,1,OUT*%
%TO.N,Pushbutton_Left*%
X38727500Y-99274950D03*
%TO.P,U1003,2,VSS*%
%TO.N,GND*%
X39677500Y-99274950D03*
%TO.P,U1003,3,SNSK*%
%TO.N,Net-(U1003-SNSK)*%
X40627500Y-99274950D03*
%TO.P,U1003,4,SNS*%
%TO.N,Net-(U1003-SNS)*%
X40627500Y-101474950D03*
%TO.P,U1003,5,VDD*%
%TO.N,+3.3V*%
X39677500Y-101474950D03*
%TO.P,U1003,6,SYNC*%
X38727500Y-101474950D03*
%TD*%
D18*
%TO.P,R802,1,1*%
%TO.N,Anode_1*%
X197002400Y-120970000D03*
%TO.P,R802,2,2*%
%TO.N,+90V*%
X197002400Y-122870000D03*
%TD*%
D17*
%TO.P,R403,1,1*%
%TO.N,Anode_4_DSP*%
X70662800Y-121170000D03*
%TO.P,R403,2,2*%
%TO.N,Net-(Q403-B)*%
X70662800Y-122670000D03*
%TD*%
D16*
%TO.P,Q401,1,B*%
%TO.N,Net-(Q401-B)*%
X205527400Y-122570000D03*
%TO.P,Q401,2,E*%
%TO.N,GND*%
X205527400Y-121270000D03*
%TO.P,Q401,3,C*%
%TO.N,Net-(Q401-C)*%
X207527400Y-121920000D03*
%TD*%
D17*
%TO.P,R402,1,1*%
%TO.N,Anode_2_DSP*%
X137337800Y-121170000D03*
%TO.P,R402,2,2*%
%TO.N,Net-(Q402-B)*%
X137337800Y-122670000D03*
%TD*%
D16*
%TO.P,Q411,1,B*%
%TO.N,Net-(Q411-B)*%
X124349000Y-122570000D03*
%TO.P,Q411,2,E*%
%TO.N,+180V*%
X124349000Y-121270000D03*
%TO.P,Q411,3,C*%
%TO.N,Net-(Q411-C)*%
X126349000Y-121920000D03*
%TD*%
D24*
%TO.P,Q511,1,B*%
%TO.N,Net-(Q511-B)*%
X198753346Y-84966400D03*
%TO.P,Q511,2,E*%
%TO.N,GND*%
X200053346Y-84966400D03*
%TO.P,Q511,3,C*%
%TO.N,Net-(Q511-C)*%
X199403346Y-86966400D03*
%TD*%
D17*
%TO.P,R414,1,1*%
%TO.N,Anode_3_DSP*%
X115087400Y-121195400D03*
%TO.P,R414,2,2*%
%TO.N,Net-(Q408-B)*%
X115087400Y-122695400D03*
%TD*%
D20*
%TO.P,C709,1*%
%TO.N,+3.3V*%
X159435800Y-113018000D03*
%TO.P,C709,2*%
%TO.N,GND*%
X159435800Y-111518000D03*
%TD*%
D19*
%TO.P,R305,1,1*%
%TO.N,Tube_ETC_Enable*%
X196380800Y-130302000D03*
%TO.P,R305,2,2*%
%TO.N,GND*%
X194880800Y-130302000D03*
%TD*%
D33*
%TO.P,U1001,1,P00*%
%TO.N,Display_Time_LED*%
X107995400Y-99027500D03*
%TO.P,U1001,2,P01*%
%TO.N,Set_Time_LED*%
X108495400Y-99027500D03*
%TO.P,U1001,3,P02*%
%TO.N,Display_Date_LED*%
X108995400Y-99027500D03*
%TO.P,U1001,4,P03*%
%TO.N,Set_Date_LED*%
X109495400Y-99027500D03*
%TO.P,U1001,5,P04*%
%TO.N,Display_Weekday_LED*%
X109995400Y-99027500D03*
%TO.P,U1001,6,P05*%
%TO.N,Set_Weekday_LED*%
X110495400Y-99027500D03*
D34*
%TO.P,U1001,7,P06*%
%TO.N,Display_Alarm_LED*%
X111182900Y-99715000D03*
%TO.P,U1001,8,P07*%
%TO.N,Set_Alarm_LED*%
X111182900Y-100215000D03*
%TO.P,U1001,9,GND*%
%TO.N,GND*%
X111182900Y-100715000D03*
%TO.P,U1001,10,P10*%
%TO.N,Alarm_Enable_LED*%
X111182900Y-101215000D03*
%TO.P,U1001,11,P11*%
%TO.N,24HR_Mode_LED*%
X111182900Y-101715000D03*
%TO.P,U1001,12,P12*%
%TO.N,Set_Brightness_LED*%
X111182900Y-102215000D03*
D33*
%TO.P,U1001,13,P13*%
%TO.N,Set_Color_LED*%
X110495400Y-102902500D03*
%TO.P,U1001,14,P14*%
%TO.N,unconnected-(U1001-P14-Pad14)*%
X109995400Y-102902500D03*
%TO.P,U1001,15,P15*%
%TO.N,unconnected-(U1001-P15-Pad15)*%
X109495400Y-102902500D03*
%TO.P,U1001,16,P16*%
%TO.N,Tube_ETC_Enable*%
X108995400Y-102902500D03*
%TO.P,U1001,17,P17*%
%TO.N,Tube_LED_Enable*%
X108495400Y-102902500D03*
%TO.P,U1001,18,A0*%
%TO.N,+3.3V*%
X107995400Y-102902500D03*
D34*
%TO.P,U1001,19,SCL*%
%TO.N,I2C_DSP_SCL*%
X107307900Y-102215000D03*
%TO.P,U1001,20,SDA*%
%TO.N,I2C_DSP_SDA*%
X107307900Y-101715000D03*
%TO.P,U1001,21,VCC*%
%TO.N,+3.3V*%
X107307900Y-101215000D03*
%TO.P,U1001,22,~{INT}*%
%TO.N,unconnected-(U1001-~{INT}-Pad22)*%
X107307900Y-100715000D03*
%TO.P,U1001,23,A1*%
%TO.N,+3.3V*%
X107307900Y-100215000D03*
%TO.P,U1001,24,A2*%
X107307900Y-99715000D03*
D35*
%TO.P,U1001,25,EPAD*%
%TO.N,GND*%
X109245400Y-100965000D03*
%TD*%
D16*
%TO.P,Q406,1,B*%
%TO.N,Net-(Q406-B)*%
X79924400Y-122570000D03*
%TO.P,Q406,2,E*%
%TO.N,+180V*%
X79924400Y-121270000D03*
%TO.P,Q406,3,C*%
%TO.N,Net-(Q406-C)*%
X81924400Y-121920000D03*
%TD*%
D36*
%TO.P,U302,1,GND*%
%TO.N,GND*%
X219050200Y-127752600D03*
%TO.P,U302,2,XORH*%
X219050200Y-128252600D03*
%TO.P,U302,3,XORL*%
%TO.N,Net-(U302-XORL)*%
X219050200Y-128752600D03*
%TO.P,U302,4,VCC*%
%TO.N,+3.3V*%
X219050200Y-129252600D03*
%TO.P,U302,5,Enable*%
X219050200Y-129752600D03*
%TO.P,U302,6,READY*%
%TO.N,unconnected-(U302-READY-Pad6)*%
X215950200Y-129752600D03*
%TO.P,U302,7,SDAIN*%
%TO.N,I2C_DSP_SDA*%
X215950200Y-129252600D03*
%TO.P,U302,8,SDAOUT*%
%TO.N,Net-(U301-SDA)*%
X215950200Y-128752600D03*
%TO.P,U302,9,SCLOUT*%
%TO.N,Net-(U301-SCL)*%
X215950200Y-128252600D03*
%TO.P,U302,10,SCLIN*%
%TO.N,I2C_DSP_SCL*%
X215950200Y-127752600D03*
D37*
%TO.P,U302,11,GND*%
%TO.N,GND*%
X217887700Y-129372600D03*
X217887700Y-128132600D03*
X217112700Y-129372600D03*
X217112700Y-128132600D03*
%TD*%
D18*
%TO.P,R407,1,1*%
%TO.N,Net-(Q404-B)*%
X211505800Y-122870000D03*
%TO.P,R407,2,2*%
%TO.N,+180V*%
X211505800Y-120970000D03*
%TD*%
D19*
%TO.P,R502,1,1*%
%TO.N,Cathode_2_DSP*%
X222583794Y-83439000D03*
%TO.P,R502,2,2*%
%TO.N,Net-(Q502-B)*%
X221083794Y-83439000D03*
%TD*%
D38*
%TO.P,U301,1,EVENT*%
%TO.N,Tube_ETC_Enable*%
X198315600Y-130302000D03*
%TO.P,U301,2,NC*%
%TO.N,unconnected-(U301-NC-Pad2)*%
X198315600Y-129032000D03*
%TO.P,U301,3,ALARM*%
%TO.N,unconnected-(U301-ALARM-Pad3)*%
X198315600Y-127762000D03*
%TO.P,U301,4,GND*%
%TO.N,GND*%
X198315600Y-126492000D03*
%TO.P,U301,5,SCL*%
%TO.N,Net-(U301-SCL)*%
X203715600Y-126492000D03*
%TO.P,U301,6,SDA*%
%TO.N,Net-(U301-SDA)*%
X203715600Y-127762000D03*
%TO.P,U301,7,NC*%
%TO.N,unconnected-(U301-NC-Pad7)*%
X203715600Y-129032000D03*
%TO.P,U301,8,VCC*%
%TO.N,Net-(D301-K)*%
X203715600Y-130302000D03*
%TD*%
D18*
%TO.P,R812,1,1*%
%TO.N,Cathode_5*%
X182841900Y-85938400D03*
%TO.P,R812,2,2*%
%TO.N,+90V*%
X182841900Y-84038400D03*
%TD*%
D19*
%TO.P,R506,1,1*%
%TO.N,Cathode_1_DSP*%
X225387600Y-83439000D03*
%TO.P,R506,2,2*%
%TO.N,Net-(Q506-B)*%
X223887600Y-83439000D03*
%TD*%
%TO.P,R1014,1,1*%
%TO.N,Pushbutton_Down*%
X38424600Y-115277900D03*
%TO.P,R1014,2,2*%
%TO.N,GND*%
X39924600Y-115277900D03*
%TD*%
D18*
%TO.P,R816,1,1*%
%TO.N,Cathode_9*%
X190553340Y-85938400D03*
%TO.P,R816,2,2*%
%TO.N,+90V*%
X190553340Y-84038400D03*
%TD*%
D17*
%TO.P,R1011,1,1*%
%TO.N,Set_Brightness_LED*%
X145872400Y-84058600D03*
%TO.P,R1011,2,2*%
%TO.N,Net-(D1011-A)*%
X145872400Y-85558600D03*
%TD*%
D18*
%TO.P,R801,1,1*%
%TO.N,Anode_0*%
X219202000Y-120970000D03*
%TO.P,R801,2,2*%
%TO.N,+90V*%
X219202000Y-122870000D03*
%TD*%
D24*
%TO.P,Q502,1,B*%
%TO.N,Net-(Q502-B)*%
X221183794Y-84953600D03*
%TO.P,Q502,2,E*%
%TO.N,GND*%
X222483794Y-84953600D03*
%TO.P,Q502,3,C*%
%TO.N,Cathode_2*%
X221833794Y-86953600D03*
%TD*%
D18*
%TO.P,R423,1,1*%
%TO.N,Anode_3*%
X128143000Y-120970000D03*
%TO.P,R423,2,2*%
%TO.N,Net-(Q411-C)*%
X128143000Y-122870000D03*
%TD*%
D16*
%TO.P,Q404,1,B*%
%TO.N,Net-(Q404-B)*%
X213249000Y-122570000D03*
%TO.P,Q404,2,E*%
%TO.N,+180V*%
X213249000Y-121270000D03*
%TO.P,Q404,3,C*%
%TO.N,Net-(Q404-C)*%
X215249000Y-121920000D03*
%TD*%
D18*
%TO.P,R814,1,1*%
%TO.N,Cathode_7*%
X186697620Y-85938400D03*
%TO.P,R814,2,2*%
%TO.N,+90V*%
X186697620Y-84038400D03*
%TD*%
D20*
%TO.P,C302,1*%
%TO.N,Net-(D301-K)*%
X208338000Y-130391600D03*
%TO.P,C302,2*%
%TO.N,GND*%
X208338000Y-128891600D03*
%TD*%
D19*
%TO.P,R303,1,1*%
%TO.N,Net-(U302-XORL)*%
X221863500Y-127061200D03*
%TO.P,R303,2,2*%
%TO.N,GND*%
X220363500Y-127061200D03*
%TD*%
D39*
%TO.N,GND*%
X39674800Y-112141000D03*
X107848400Y-107365800D03*
X39192200Y-115290600D03*
X106959400Y-103784400D03*
X228159867Y-110846400D03*
X222497014Y-84950400D03*
X109296200Y-100965000D03*
X208475164Y-84950400D03*
X216878114Y-84950400D03*
X204978000Y-128905000D03*
X217881200Y-129362200D03*
X108534200Y-100965000D03*
X174523400Y-112166400D03*
X39217600Y-97637600D03*
X39167002Y-109397800D03*
X39674800Y-100380800D03*
X179400200Y-103225600D03*
X156057600Y-110312200D03*
X231800400Y-96846400D03*
X90525600Y-111861600D03*
X86664800Y-116713000D03*
X231800400Y-100846400D03*
X225475800Y-131165600D03*
X231800400Y-93846400D03*
X217881200Y-128651000D03*
X205536800Y-121259600D03*
X149174200Y-84023200D03*
X200863200Y-129565400D03*
X155397200Y-114503200D03*
X39243000Y-91744800D03*
X194030600Y-130302000D03*
X156972000Y-110337600D03*
X231800400Y-92846400D03*
X228159867Y-107846400D03*
X116611400Y-121285000D03*
X107823000Y-112166400D03*
X180263800Y-97739200D03*
X138887200Y-121285000D03*
X200048922Y-84963200D03*
X231800400Y-106846400D03*
X39674800Y-106222800D03*
X109296200Y-100203000D03*
X217119200Y-129362200D03*
X160858200Y-110820200D03*
X231800400Y-121846400D03*
X110058200Y-101727000D03*
X179400200Y-102362000D03*
X156057600Y-111201200D03*
X105892600Y-99085400D03*
X72186800Y-121259600D03*
X39674800Y-117983000D03*
X156972000Y-111201200D03*
X231800400Y-95846400D03*
X174507400Y-107657200D03*
X89611200Y-112725200D03*
X214068664Y-84950400D03*
X112119600Y-100715000D03*
X94386400Y-112318800D03*
X90525600Y-112725200D03*
X110058200Y-100965000D03*
X211259214Y-84950400D03*
X183311800Y-121259600D03*
X178485800Y-102336600D03*
X231800400Y-110846400D03*
X109296200Y-101727000D03*
X217119200Y-128651000D03*
X205665714Y-84950400D03*
X39192200Y-103505000D03*
X231800400Y-114846400D03*
X202856264Y-84950400D03*
X174599600Y-102768400D03*
X39674800Y-94488000D03*
X231800400Y-122846400D03*
X49987200Y-121259600D03*
X219687564Y-84950400D03*
X210642200Y-128879600D03*
X231800400Y-115846400D03*
X228115914Y-84950400D03*
X89611200Y-111836200D03*
X231800400Y-91846400D03*
X108534200Y-101727000D03*
X223545400Y-126415800D03*
X178485800Y-103225600D03*
X108534200Y-100203000D03*
X231800400Y-94846400D03*
X110058200Y-100203000D03*
X228159867Y-100846400D03*
X231800400Y-119846400D03*
X231800400Y-120846400D03*
X231800400Y-107846400D03*
X225306464Y-84950400D03*
%TO.N,+3.3V*%
X228159867Y-122846400D03*
X105892600Y-100736400D03*
X39674800Y-114122200D03*
X120904000Y-111683800D03*
X211251800Y-114935000D03*
X39700200Y-96443800D03*
X228549200Y-131165600D03*
X113538000Y-104800400D03*
X143256000Y-112064800D03*
X54686200Y-112445800D03*
X99060000Y-106578400D03*
X161645600Y-113030000D03*
X228159867Y-121846400D03*
X165303200Y-105867200D03*
X72159414Y-108663186D03*
X228159867Y-120846400D03*
X188163200Y-110744000D03*
X158115000Y-112191800D03*
X107823000Y-103759000D03*
X228159867Y-119846400D03*
X174599600Y-99644200D03*
X76581000Y-112166400D03*
X92964000Y-110337600D03*
X39674800Y-108229400D03*
X94386400Y-115443000D03*
X210413600Y-112496600D03*
X39674800Y-102387400D03*
X222783400Y-130048000D03*
X39674800Y-119938800D03*
X213385400Y-131140200D03*
X92964000Y-112166400D03*
%TO.N,TUBE0_LED_B*%
X213055200Y-112420400D03*
%TO.N,TUBE0_LED_G*%
X213385400Y-113893600D03*
%TO.N,TUBE0_LED_R*%
X190728600Y-101295200D03*
X212598000Y-113944400D03*
%TO.N,TUBE3_LED_B*%
X87401400Y-111633000D03*
X124358400Y-112445800D03*
%TO.N,TUBE3_LED_G*%
X124231400Y-113944400D03*
X87401400Y-112318800D03*
%TO.N,TUBE3_LED_R*%
X124155200Y-113157000D03*
X87426800Y-112979200D03*
%TO.N,COLON0_LED_B*%
X153111200Y-109169200D03*
X101879400Y-106730800D03*
%TO.N,COLON0_LED_G*%
X152501600Y-109677200D03*
X104749600Y-108102400D03*
%TO.N,COLON0_LED_R*%
X153924000Y-111175800D03*
X101828600Y-108127800D03*
%TO.N,TUBE1_LED_B*%
X190703200Y-112191800D03*
X179146200Y-105765600D03*
%TO.N,TUBE1_LED_G*%
X179908200Y-105410000D03*
X190634373Y-113062773D03*
%TO.N,TUBE1_LED_R*%
X180441600Y-104597200D03*
X187985400Y-113538000D03*
%TO.N,TUBE4_LED_B*%
X89230200Y-109372400D03*
%TO.N,TUBE4_LED_G*%
X79654400Y-113334800D03*
%TO.N,TUBE4_LED_R*%
X79298800Y-113919000D03*
%TO.N,COLON1_LED_B*%
X168630600Y-106603800D03*
X156108400Y-107365800D03*
%TO.N,COLON1_LED_G*%
X168630600Y-108102400D03*
X155625800Y-108000800D03*
%TO.N,COLON1_LED_R*%
X165887400Y-108102400D03*
X155016200Y-108483400D03*
%TO.N,TUBE2_LED_B*%
X146685000Y-112496600D03*
%TO.N,TUBE2_LED_G*%
X149352000Y-102616000D03*
X155092400Y-97917000D03*
%TO.N,TUBE2_LED_R*%
X148412200Y-100812600D03*
X155829000Y-98171000D03*
%TO.N,TUBE5_LED_B*%
X91414600Y-109905800D03*
X57734200Y-112471200D03*
%TO.N,TUBE5_LED_G*%
X57632600Y-113614200D03*
X90728800Y-109220000D03*
%TO.N,TUBE5_LED_R*%
X57099200Y-113995200D03*
X89966800Y-109423200D03*
%TO.N,Net-(D1001-A)*%
X124663400Y-84834000D03*
%TO.N,Net-(D1002-A)*%
X126873200Y-84808600D03*
%TO.N,Net-(D1003-A)*%
X128956000Y-84808600D03*
%TO.N,Net-(D1004-A)*%
X130988000Y-84808600D03*
%TO.N,Net-(D1005-A)*%
X133223200Y-84808600D03*
%TO.N,Net-(D1006-A)*%
X135255200Y-84834000D03*
%TO.N,Net-(D1007-A)*%
X137490400Y-84834000D03*
%TO.N,Net-(D1008-A)*%
X139573200Y-84808600D03*
%TO.N,Net-(D1009-A)*%
X141706800Y-84808600D03*
%TO.N,Net-(D1010-A)*%
X143738800Y-84783200D03*
%TO.N,Net-(D1011-A)*%
X145872400Y-84808600D03*
%TO.N,+180V*%
X228159867Y-94846400D03*
X125330756Y-121169041D03*
X228159867Y-95846400D03*
X191967462Y-121221728D03*
X214192462Y-121221728D03*
X96205000Y-115036600D03*
X58655645Y-121203181D03*
X80855133Y-121241308D03*
X162890200Y-112496600D03*
X147555645Y-121203181D03*
%TO.N,Cathode_0*%
X215392000Y-97485200D03*
X196570600Y-118935500D03*
X218605100Y-118935500D03*
X85445600Y-118935500D03*
X173202600Y-118936000D03*
X129895600Y-118935500D03*
X152120600Y-118935500D03*
X63246000Y-118935000D03*
X173202600Y-85953600D03*
%TO.N,Cathode_2*%
X177063400Y-85953600D03*
X204419200Y-92024200D03*
X70764400Y-92024200D03*
X115671600Y-92024200D03*
X137972800Y-92024200D03*
X177063400Y-92024200D03*
X221411800Y-92036900D03*
X182499000Y-92024200D03*
X48945800Y-92024200D03*
X221716600Y-89814400D03*
%TO.N,Cathode_4*%
X180162200Y-94969600D03*
X140614400Y-94969600D03*
X185064400Y-94969600D03*
X180898800Y-85953600D03*
X51739800Y-94970600D03*
X216217714Y-86957000D03*
X118389400Y-94969600D03*
X214147400Y-94970600D03*
X207289400Y-94969600D03*
X73964800Y-94969600D03*
%TO.N,Cathode_6*%
X184785000Y-85953600D03*
X57480200Y-93014800D03*
X184785000Y-93014800D03*
X210624214Y-86931600D03*
X124155200Y-93014800D03*
X213029800Y-93014800D03*
X79705200Y-93014800D03*
X210616800Y-93014800D03*
X190804800Y-93014800D03*
X146380200Y-93014800D03*
%TO.N,Cathode_8*%
X85445600Y-88874600D03*
X152120600Y-88874600D03*
X218846400Y-88874600D03*
X188620400Y-85953600D03*
X129895600Y-88874600D03*
X196570600Y-88874600D03*
X218846400Y-88874600D03*
X205005314Y-86957000D03*
X63220600Y-89092000D03*
X188620400Y-88874600D03*
X205003400Y-88874600D03*
%TO.N,Cathode_1*%
X137007600Y-91046800D03*
X203428600Y-91046800D03*
X114681000Y-91046800D03*
X47904400Y-91059000D03*
X181508400Y-91046800D03*
X69773800Y-91046800D03*
X175133000Y-91046800D03*
X175133000Y-85953600D03*
%TO.N,Cathode_3*%
X50211754Y-96295446D03*
X178993800Y-85953600D03*
X71856600Y-95948500D03*
X215620600Y-95961200D03*
X217487500Y-86919800D03*
X138963400Y-95948500D03*
X178968400Y-95948500D03*
X183489600Y-95948500D03*
X116662200Y-95948500D03*
X205511400Y-95947000D03*
%TO.N,Cathode_5*%
X213433664Y-86957000D03*
X142367000Y-93992200D03*
X53492400Y-93980000D03*
X209042000Y-93992200D03*
X75717400Y-93992200D03*
X120142000Y-93992200D03*
X183794400Y-93992200D03*
X186817000Y-93992200D03*
X182854600Y-85953600D03*
%TO.N,Cathode_7*%
X83718400Y-90069400D03*
X61493400Y-90069400D03*
X217017600Y-90068400D03*
X186690000Y-85953600D03*
X128168400Y-90069400D03*
X207822800Y-90069400D03*
X150368000Y-90069400D03*
X194818000Y-90069400D03*
X207814764Y-86957000D03*
X186690000Y-90069400D03*
%TO.N,Cathode_9*%
X86969600Y-87897200D03*
X131419600Y-87897200D03*
X190550800Y-87897200D03*
X190550800Y-85953600D03*
X198094600Y-87897200D03*
X64846200Y-87897200D03*
X153644600Y-87897200D03*
X220370400Y-88900000D03*
%TO.N,Anode_1_DSP*%
X181762400Y-121666000D03*
X231800400Y-97846400D03*
%TO.N,Anode_3_DSP*%
X231800400Y-98846400D03*
X115087400Y-121640600D03*
%TO.N,Anode_5_DSP*%
X231800400Y-99846400D03*
X48437800Y-121920000D03*
%TO.N,Anode_0*%
X217043000Y-120954800D03*
%TO.N,Anode_2*%
X150393400Y-120954800D03*
%TO.N,Anode_4*%
X83718400Y-120954800D03*
%TO.N,Cathode_1_DSP*%
X231800400Y-101846400D03*
X225408064Y-83426400D03*
%TO.N,Cathode_3_DSP*%
X219789164Y-83426400D03*
X231800400Y-102846400D03*
%TO.N,Cathode_5_DSP*%
X214170264Y-83426400D03*
X231800400Y-103846400D03*
%TO.N,Anode_1*%
X194818000Y-120954800D03*
%TO.N,Anode_3*%
X128168400Y-120954800D03*
%TO.N,Anode_5*%
X61493400Y-120980200D03*
%TO.N,Cathode_7_DSP*%
X208576764Y-83426400D03*
X231800400Y-104846400D03*
%TO.N,Cathode_9_DSP*%
X231800400Y-105846400D03*
X202957864Y-83426400D03*
%TO.N,Colon_3_DSP*%
X231800400Y-109846400D03*
X175260000Y-122250200D03*
X175920400Y-113766600D03*
%TO.N,Anode_0_DSP*%
X228159867Y-97846400D03*
X203987400Y-121716800D03*
%TO.N,Colon_1_DSP*%
X231800400Y-108846400D03*
X110388400Y-112256000D03*
%TO.N,Colon_0_DSP*%
X109423200Y-108915200D03*
X228159867Y-108846400D03*
%TO.N,Cathode_DP*%
X57480200Y-117957600D03*
X146380200Y-117957600D03*
X124155200Y-117957600D03*
X194538600Y-113030000D03*
X79705200Y-117957600D03*
X213055200Y-117957600D03*
X192481200Y-85953600D03*
X190830200Y-117957600D03*
%TO.N,Tube_LED_Enable*%
X179120800Y-106553000D03*
X179451000Y-100177600D03*
X174574200Y-116128800D03*
X174548800Y-127482600D03*
X90220800Y-116980200D03*
X90220800Y-126148600D03*
%TO.N,+90V*%
X194437000Y-84023200D03*
X228159867Y-92846400D03*
X228159867Y-91846400D03*
X201117200Y-120954800D03*
X200622584Y-86575216D03*
%TO.N,Anode_2_DSP*%
X137363200Y-121677541D03*
X228159867Y-98846400D03*
%TO.N,Anode_4_DSP*%
X70662800Y-121945400D03*
X228159867Y-99846400D03*
%TO.N,Cathode_0_DSP*%
X228217514Y-83426400D03*
X228159867Y-101846400D03*
%TO.N,Cathode_2_DSP*%
X222598614Y-83426400D03*
X228159867Y-102846400D03*
%TO.N,Cathode_4_DSP*%
X228159867Y-103846400D03*
X216979714Y-83426400D03*
%TO.N,Display_Time_LED*%
X108000800Y-97282000D03*
X124663200Y-83058000D03*
%TO.N,Set_Time_LED*%
X108495400Y-97815400D03*
X126873000Y-83058000D03*
%TO.N,Display_Date_LED*%
X128955800Y-83058000D03*
X108991400Y-97256600D03*
%TO.N,Set_Date_LED*%
X130987800Y-83058000D03*
X109495400Y-97815400D03*
%TO.N,Display_Weekday_LED*%
X133223000Y-83058000D03*
X109982000Y-97256600D03*
%TO.N,Set_Weekday_LED*%
X135255000Y-83058000D03*
X110495400Y-97815400D03*
%TO.N,Display_Alarm_LED*%
X113030000Y-99466400D03*
X137490200Y-83058000D03*
%TO.N,Set_Alarm_LED*%
X112637000Y-100215000D03*
X139573000Y-83058000D03*
%TO.N,Alarm_Enable_LED*%
X112598200Y-101219000D03*
X141706600Y-83058000D03*
%TO.N,24HR_Mode_LED*%
X113385600Y-101701600D03*
X143738600Y-83058000D03*
%TO.N,Set_Brightness_LED*%
X112598200Y-102209600D03*
X145872200Y-83058000D03*
%TO.N,I2C_DSP_SDA*%
X177342800Y-99771200D03*
X179781200Y-128828800D03*
X224231200Y-128803400D03*
X177571400Y-113538000D03*
X227939600Y-128143000D03*
X231800400Y-116846400D03*
X110058200Y-115417600D03*
X111353600Y-105359200D03*
X105841800Y-101701600D03*
X109677200Y-126720600D03*
X177723800Y-106984800D03*
%TO.N,I2C_DSP_SCL*%
X177749200Y-115697000D03*
X111887000Y-104876600D03*
X178790600Y-99695000D03*
X228159867Y-116846400D03*
X178181000Y-106400600D03*
X110515400Y-126212600D03*
X179222400Y-127939800D03*
X111493300Y-116573300D03*
X226034600Y-125577600D03*
X106400600Y-102209600D03*
%TO.N,Net-(D901-A)*%
X148005800Y-84810600D03*
%TO.N,Cathode_6_DSP*%
X228159867Y-104846400D03*
X211360814Y-83426400D03*
%TO.N,Cathode_8_DSP*%
X228159867Y-105846400D03*
X222832182Y-88990936D03*
X205767314Y-83426400D03*
%TO.N,Cathode_DP_DSP*%
X200150522Y-83439200D03*
X222477150Y-92081957D03*
X228159867Y-106846400D03*
%TO.N,Colon_2_DSP*%
X228159867Y-109846400D03*
X176580800Y-122250200D03*
X176822600Y-113309400D03*
%TO.N,Pushbutton_Down*%
X228159867Y-113846400D03*
X37693600Y-115290600D03*
%TO.N,Pushbutton_Up*%
X37719000Y-109397800D03*
X231800400Y-112846400D03*
%TO.N,Pushbutton_Right*%
X37744400Y-103505000D03*
X228159867Y-112846400D03*
%TO.N,Pushbutton_Left*%
X37668200Y-97612200D03*
X231800400Y-111846400D03*
%TO.N,Pushbutton_Power*%
X228159867Y-111846400D03*
X37668200Y-91744800D03*
%TO.N,Pushbutton_Up_SNS*%
X43713400Y-110363000D03*
%TO.N,Pushbutton_Down_SNS*%
X43713400Y-116408200D03*
%TO.N,Set_Color_LED*%
X112826800Y-102895400D03*
X148005800Y-83058000D03*
%TO.N,Tube_ETC_Enable*%
X109194600Y-127812800D03*
X109270800Y-115265200D03*
X109575600Y-104013000D03*
X195630800Y-130302000D03*
X110693200Y-107035600D03*
%TD*%
D40*
%TO.N,GND*%
X39950000Y-91749700D02*
X39247900Y-91749700D01*
X181711600Y-98386200D02*
X180263800Y-98386200D01*
D41*
X200253600Y-126492000D02*
X200837800Y-127076200D01*
D40*
X231804000Y-114850000D02*
X231800400Y-114846400D01*
D42*
X226049800Y-128737400D02*
X226288600Y-128498600D01*
D40*
X194880800Y-130302000D02*
X194030600Y-130302000D01*
X220363500Y-127061200D02*
X220363500Y-126295700D01*
X231804000Y-120850000D02*
X231800400Y-120846400D01*
X177443000Y-102419200D02*
X176917400Y-102419200D01*
X39682600Y-112133200D02*
X39674800Y-112141000D01*
X176746600Y-101943600D02*
X176022000Y-101943600D01*
X39929700Y-103505000D02*
X39192200Y-103505000D01*
X217112700Y-129372600D02*
X217112700Y-129368700D01*
X39677500Y-99274950D02*
X39677500Y-100378100D01*
X39674800Y-117983000D02*
X39674800Y-116928900D01*
X217112700Y-129368700D02*
X217119200Y-129362200D01*
D41*
X198315600Y-126492000D02*
X200253600Y-126492000D01*
D40*
X39674800Y-116928900D02*
X39682600Y-116921100D01*
X233231133Y-91850000D02*
X231804000Y-91850000D01*
X233231133Y-100850000D02*
X231804000Y-100850000D01*
X39223450Y-97631750D02*
X39217600Y-97637600D01*
D42*
X225481300Y-131171100D02*
X225475800Y-131165600D01*
D40*
X106971400Y-103796400D02*
X106959400Y-103784400D01*
X219050200Y-127752600D02*
X219760800Y-127752600D01*
X233231133Y-114850000D02*
X231804000Y-114850000D01*
D41*
X205581400Y-128905000D02*
X205594800Y-128891600D01*
D40*
X92303600Y-113080800D02*
X92950600Y-113080800D01*
X176822200Y-102019200D02*
X176746600Y-101943600D01*
X233231133Y-95850000D02*
X231804000Y-95850000D01*
X153949400Y-115177000D02*
X155397200Y-115177000D01*
X231804000Y-106850000D02*
X231800400Y-106846400D01*
X233231133Y-115850000D02*
X231804000Y-115850000D01*
X217887700Y-128136500D02*
X217881200Y-128143000D01*
X231804000Y-107850000D02*
X231800400Y-107846400D01*
X233231133Y-107850000D02*
X231804000Y-107850000D01*
X39911900Y-115290600D02*
X39924600Y-115277900D01*
X233231133Y-120850000D02*
X231804000Y-120850000D01*
X220335600Y-127752600D02*
X220345000Y-127762000D01*
X217887700Y-129372600D02*
X217887700Y-129368700D01*
X105892600Y-98411600D02*
X105892600Y-99085400D01*
X220345000Y-128402500D02*
X220402300Y-128459800D01*
D42*
X226049800Y-130418800D02*
X226049800Y-129438400D01*
D41*
X209709600Y-128891600D02*
X205594800Y-128891600D01*
D40*
X91543000Y-113118800D02*
X92265600Y-113118800D01*
X180263800Y-97739200D02*
X180263800Y-98386200D01*
X233231133Y-122850000D02*
X231804000Y-122850000D01*
X112119600Y-100715000D02*
X111182900Y-100715000D01*
X39168952Y-109395850D02*
X39167002Y-109397800D01*
X158489600Y-111169400D02*
X158838200Y-111518000D01*
X87452200Y-116701000D02*
X86676800Y-116701000D01*
D42*
X226249800Y-131171100D02*
X225481300Y-131171100D01*
D40*
X233231133Y-110850000D02*
X231804000Y-110850000D01*
X177443000Y-102019200D02*
X176822200Y-102019200D01*
X39192200Y-115290600D02*
X39911900Y-115290600D01*
X231804000Y-95850000D02*
X231800400Y-95846400D01*
X176917400Y-102419200D02*
X176822200Y-102324000D01*
X228163467Y-110850000D02*
X228159867Y-110846400D01*
X88900000Y-116701000D02*
X87452200Y-116701000D01*
D42*
X226288600Y-128498600D02*
X226745800Y-128498600D01*
D40*
X159461200Y-111543400D02*
X159435800Y-111518000D01*
X219676600Y-128252600D02*
X219760800Y-128168400D01*
X39247900Y-91749700D02*
X39243000Y-91744800D01*
X217112700Y-128136500D02*
X217119200Y-128143000D01*
X231804000Y-115850000D02*
X231800400Y-115846400D01*
D42*
X226049800Y-129438400D02*
X226049800Y-128737400D01*
D40*
X158838200Y-111518000D02*
X159435800Y-111518000D01*
X231804000Y-119850000D02*
X231800400Y-119846400D01*
X155397200Y-115177000D02*
X155397200Y-114503200D01*
X231804000Y-96850000D02*
X231800400Y-96846400D01*
X219050200Y-128252600D02*
X219676600Y-128252600D01*
X39677500Y-106220100D02*
X39674800Y-106222800D01*
X231804000Y-122850000D02*
X231800400Y-122846400D01*
X94386400Y-113067400D02*
X94386400Y-112318800D01*
X231804000Y-100850000D02*
X231800400Y-100846400D01*
D41*
X200837800Y-127076200D02*
X200837800Y-129540000D01*
D40*
X233231133Y-106850000D02*
X231804000Y-106850000D01*
X228163467Y-100850000D02*
X228159867Y-100846400D01*
X231804000Y-91850000D02*
X231800400Y-91846400D01*
X217887700Y-129368700D02*
X217881200Y-129362200D01*
X223139000Y-126009400D02*
X223545400Y-126415800D01*
X94386400Y-113067400D02*
X92964000Y-113067400D01*
X160858200Y-111543400D02*
X159461200Y-111543400D01*
X231804000Y-92850000D02*
X231800400Y-92846400D01*
X39944900Y-97631750D02*
X39223450Y-97631750D01*
X176822200Y-102324000D02*
X176822200Y-102019200D01*
X39677500Y-105165800D02*
X39677500Y-106220100D01*
X220363500Y-126295700D02*
X220649800Y-126009400D01*
X231804000Y-121850000D02*
X231800400Y-121846400D01*
X158014800Y-111169400D02*
X158489600Y-111169400D01*
X220345000Y-127762000D02*
X220363500Y-127743500D01*
X220363500Y-127743500D02*
X220363500Y-127061200D01*
X233231133Y-96850000D02*
X231804000Y-96850000D01*
X174599600Y-101943600D02*
X176022000Y-101943600D01*
X229631135Y-115850000D02*
X231796800Y-115850000D01*
X92265600Y-113118800D02*
X92303600Y-113080800D01*
X233231133Y-92850000D02*
X231804000Y-92850000D01*
X92950600Y-113080800D02*
X92964000Y-113067400D01*
X39682600Y-94480200D02*
X39674800Y-94488000D01*
X39924600Y-109395850D02*
X39168952Y-109395850D01*
X86676800Y-116701000D02*
X86664800Y-116713000D01*
X106971400Y-104521000D02*
X106971400Y-103796400D01*
X39682600Y-111039050D02*
X39682600Y-112133200D01*
X219760800Y-127752600D02*
X220335600Y-127752600D01*
X229590600Y-100850000D02*
X228163467Y-100850000D01*
X233231133Y-121850000D02*
X231804000Y-121850000D01*
D41*
X210642200Y-128879600D02*
X209721600Y-128879600D01*
D40*
X233231133Y-94850000D02*
X231804000Y-94850000D01*
X228163467Y-107850000D02*
X228159867Y-107846400D01*
X219760800Y-128168400D02*
X219760800Y-127752600D01*
X233231133Y-119850000D02*
X231804000Y-119850000D01*
D41*
X209721600Y-128879600D02*
X209709600Y-128891600D01*
X204978000Y-128905000D02*
X205581400Y-128905000D01*
D40*
X39682600Y-93392900D02*
X39682600Y-94480200D01*
X233231133Y-93850000D02*
X231804000Y-93850000D01*
X229590600Y-107850000D02*
X228163467Y-107850000D01*
X160858200Y-111543400D02*
X160858200Y-110820200D01*
X217887700Y-128132600D02*
X217887700Y-128136500D01*
X229590600Y-110850000D02*
X228163467Y-110850000D01*
D42*
X226249800Y-130618800D02*
X226049800Y-130418800D01*
D41*
X200837800Y-129540000D02*
X200863200Y-129565400D01*
D40*
X39677500Y-100378100D02*
X39674800Y-100380800D01*
X220649800Y-126009400D02*
X223139000Y-126009400D01*
D42*
X226999800Y-128244600D02*
X226999800Y-127163400D01*
D40*
X231796800Y-115850000D02*
X231800400Y-115846400D01*
D42*
X226249800Y-131171100D02*
X226249800Y-130618800D01*
X226745800Y-128498600D02*
X226999800Y-128244600D01*
D40*
X231804000Y-93850000D02*
X231800400Y-93846400D01*
X174599600Y-101943600D02*
X174599600Y-102768400D01*
X217112700Y-128132600D02*
X217112700Y-128136500D01*
X220345000Y-127762000D02*
X220345000Y-128402500D01*
X231804000Y-94850000D02*
X231800400Y-94846400D01*
X231804000Y-110850000D02*
X231800400Y-110846400D01*
%TO.N,+3.3V*%
X219748800Y-129959800D02*
X220402300Y-129959800D01*
X106641400Y-100164400D02*
X106388600Y-99911600D01*
X229590600Y-119850000D02*
X228163467Y-119850000D01*
X38727500Y-108044100D02*
X38912800Y-108229400D01*
D41*
X126542800Y-111683800D02*
X120904000Y-111683800D01*
D40*
X219498800Y-129252600D02*
X219659200Y-129413000D01*
D41*
X120904000Y-110693200D02*
X119811800Y-109601000D01*
D40*
X159461200Y-113043400D02*
X159435800Y-113018000D01*
X106641400Y-101053400D02*
X106641400Y-100265600D01*
X94386400Y-114567400D02*
X92964000Y-114567400D01*
X229590600Y-122850000D02*
X228163467Y-122850000D01*
X222781800Y-130046400D02*
X222783400Y-130048000D01*
X39677500Y-107365800D02*
X39677500Y-108226700D01*
X38912800Y-114122200D02*
X39674800Y-114122200D01*
X39682600Y-95592900D02*
X39682600Y-96426200D01*
X157314800Y-112763200D02*
X157314800Y-112269400D01*
D41*
X142062200Y-109626400D02*
X128600200Y-109626400D01*
D40*
X178143000Y-100749200D02*
X178143000Y-101319200D01*
D41*
X75590400Y-109575600D02*
X73071828Y-109575600D01*
D40*
X38732600Y-113942000D02*
X38912800Y-114122200D01*
D41*
X143256000Y-112064800D02*
X143256000Y-110820200D01*
D40*
X39674800Y-119128900D02*
X39682600Y-119121100D01*
X228163467Y-122850000D02*
X228159867Y-122846400D01*
D41*
X73071828Y-109575600D02*
X72159414Y-108663186D01*
D40*
X107995400Y-103586600D02*
X107823000Y-103759000D01*
X106388600Y-99911600D02*
X105892600Y-99911600D01*
X174599600Y-100443600D02*
X174599600Y-99644200D01*
X92964000Y-114567400D02*
X91047000Y-114567400D01*
X159435800Y-113018000D02*
X157569600Y-113018000D01*
X91047000Y-114567400D02*
X90843000Y-114363400D01*
D41*
X119811800Y-109601000D02*
X114731800Y-109601000D01*
D40*
X38727500Y-102176700D02*
X38938200Y-102387400D01*
D42*
X227749800Y-131171100D02*
X228543700Y-131171100D01*
D40*
X105892600Y-99911600D02*
X105892600Y-100736400D01*
X161633600Y-113018000D02*
X161645600Y-113030000D01*
X38727500Y-101474950D02*
X38727500Y-102176700D01*
X92659200Y-112166400D02*
X92964000Y-112166400D01*
D41*
X76581000Y-110566200D02*
X75590400Y-109575600D01*
X128600200Y-109626400D02*
X126542800Y-111683800D01*
D40*
X106585200Y-99715000D02*
X106388600Y-99911600D01*
X38912800Y-119938800D02*
X39674800Y-119938800D01*
X228163467Y-121850000D02*
X228159867Y-121846400D01*
D41*
X211251800Y-113334800D02*
X211251800Y-114935000D01*
D40*
X90843000Y-114363400D02*
X90843000Y-113818800D01*
D41*
X113538000Y-108407200D02*
X113538000Y-104800400D01*
D40*
X94386400Y-115443000D02*
X94386400Y-114567400D01*
D41*
X143256000Y-110820200D02*
X142062200Y-109626400D01*
D40*
X38727500Y-107365800D02*
X38727500Y-108044100D01*
X38912800Y-108229400D02*
X39674800Y-108229400D01*
X158014800Y-111569400D02*
X158014800Y-112091600D01*
X219050200Y-129252600D02*
X219498800Y-129252600D01*
X39674800Y-119938800D02*
X39674800Y-119128900D01*
X38732600Y-113239050D02*
X38732600Y-113942000D01*
X106803000Y-101215000D02*
X106641400Y-101053400D01*
X219659200Y-129870200D02*
X219748800Y-129959800D01*
X38732600Y-96238200D02*
X38938200Y-96443800D01*
D41*
X120904000Y-111683800D02*
X120904000Y-110693200D01*
D40*
X39682600Y-114114400D02*
X39674800Y-114122200D01*
X38732600Y-119758600D02*
X38912800Y-119938800D01*
X159435800Y-113018000D02*
X161633600Y-113018000D01*
X106641400Y-100265600D02*
X106692000Y-100215000D01*
X157569600Y-113018000D02*
X157314800Y-112763200D01*
X158014800Y-112091600D02*
X158115000Y-112191800D01*
D42*
X227749800Y-131171100D02*
X227749800Y-130593400D01*
D40*
X92379800Y-112445800D02*
X92659200Y-112166400D01*
X177837400Y-100443600D02*
X178143000Y-100749200D01*
X221875500Y-130046400D02*
X222781800Y-130046400D01*
X107307900Y-100215000D02*
X106692000Y-100215000D01*
X228163467Y-119850000D02*
X228159867Y-119846400D01*
D41*
X92964000Y-112166400D02*
X92964000Y-110337600D01*
D40*
X229590600Y-120850000D02*
X228163467Y-120850000D01*
X220488900Y-130046400D02*
X220402300Y-129959800D01*
X160858200Y-113043400D02*
X159461200Y-113043400D01*
X39682600Y-113239050D02*
X39682600Y-114114400D01*
X107307900Y-101215000D02*
X106803000Y-101215000D01*
X174599600Y-100443600D02*
X176022000Y-100443600D01*
D41*
X214435400Y-131140200D02*
X213385400Y-131140200D01*
D40*
X39677500Y-108226700D02*
X39674800Y-108229400D01*
X176022000Y-100443600D02*
X177837400Y-100443600D01*
X92106800Y-112718800D02*
X92379800Y-112445800D01*
D42*
X227939600Y-129448600D02*
X227949800Y-129438400D01*
X228543700Y-131171100D02*
X228549200Y-131165600D01*
D40*
X229590600Y-121850000D02*
X228163467Y-121850000D01*
X38938200Y-102387400D02*
X39674800Y-102387400D01*
X219050200Y-129752600D02*
X219541600Y-129752600D01*
X228163467Y-120850000D02*
X228159867Y-120846400D01*
D41*
X76581000Y-112166400D02*
X76581000Y-110566200D01*
D40*
X219541600Y-129752600D02*
X219659200Y-129870200D01*
X107307900Y-99715000D02*
X106585200Y-99715000D01*
X38732600Y-119121100D02*
X38732600Y-119758600D01*
X219659200Y-129413000D02*
X219659200Y-129870200D01*
X39677500Y-101474950D02*
X39677500Y-102384700D01*
X106641400Y-100265600D02*
X106641400Y-100164400D01*
X38938200Y-96443800D02*
X39700200Y-96443800D01*
X107995400Y-102902500D02*
X107995400Y-103586600D01*
D42*
X227939600Y-130403600D02*
X227939600Y-129448600D01*
D41*
X114731800Y-109601000D02*
X113538000Y-108407200D01*
D40*
X39682600Y-96426200D02*
X39700200Y-96443800D01*
X38732600Y-95592900D02*
X38732600Y-96238200D01*
X221875500Y-130046400D02*
X220488900Y-130046400D01*
X39677500Y-102384700D02*
X39674800Y-102387400D01*
X91543000Y-112718800D02*
X92106800Y-112718800D01*
D41*
X210413600Y-112496600D02*
X211251800Y-113334800D01*
D42*
X227749800Y-130593400D02*
X227939600Y-130403600D01*
D40*
%TO.N,Net-(U701-VCAP)*%
X180911400Y-102019200D02*
X180443000Y-102019200D01*
X181711600Y-99886200D02*
X181711600Y-101219000D01*
X181711600Y-101219000D02*
X180911400Y-102019200D01*
%TO.N,Net-(U702-VCAP)*%
X87452200Y-113690400D02*
X88023800Y-113118800D01*
X88023800Y-113118800D02*
X88543000Y-113118800D01*
X87452200Y-115201000D02*
X87452200Y-113690400D01*
%TO.N,Net-(U703-VCAP)*%
X154368600Y-111569400D02*
X155014800Y-111569400D01*
X153949400Y-111988600D02*
X154368600Y-111569400D01*
X153949400Y-113677000D02*
X153949400Y-111988600D01*
D41*
%TO.N,Net-(D301-K)*%
X211455000Y-131140200D02*
X210706400Y-130391600D01*
X210706400Y-130391600D02*
X209709600Y-130391600D01*
X204825600Y-130302000D02*
X204915200Y-130391600D01*
D40*
X212928200Y-129604200D02*
X212928200Y-129971800D01*
D41*
X204915200Y-130391600D02*
X205594800Y-130391600D01*
X203715600Y-130302000D02*
X204825600Y-130302000D01*
D40*
X212335400Y-130564600D02*
X212335400Y-131140200D01*
X212928200Y-129971800D02*
X212335400Y-130564600D01*
X214477600Y-129604200D02*
X212928200Y-129604200D01*
D41*
X212335400Y-131140200D02*
X211455000Y-131140200D01*
X209709600Y-130391600D02*
X205594800Y-130391600D01*
D40*
%TO.N,TUBE0_LED_B*%
X194030600Y-110642400D02*
X195046600Y-109626400D01*
X191973200Y-111379000D02*
X193294000Y-111379000D01*
X181254400Y-104444800D02*
X181254400Y-108940600D01*
X210159600Y-110693200D02*
X211886800Y-112420400D01*
X186334400Y-110210600D02*
X187502800Y-111379000D01*
X180943200Y-103219200D02*
X181152800Y-103428800D01*
X193294000Y-111379000D02*
X194030600Y-110642400D01*
X187502800Y-111379000D02*
X191973200Y-111379000D01*
X180443000Y-103219200D02*
X180943200Y-103219200D01*
X181254400Y-103530400D02*
X181254400Y-104444800D01*
X197408800Y-109626400D02*
X209092800Y-109626400D01*
X195046600Y-109626400D02*
X197408800Y-109626400D01*
X181254400Y-108940600D02*
X182194200Y-109880400D01*
X186004200Y-109880400D02*
X186334400Y-110210600D01*
X211886800Y-112420400D02*
X213055200Y-112420400D01*
X182194200Y-109880400D02*
X186004200Y-109880400D01*
X209092800Y-109626400D02*
X210159600Y-110693200D01*
X181152800Y-103428800D02*
X181254400Y-103530400D01*
%TO.N,TUBE0_LED_G*%
X216357200Y-110972600D02*
X217855800Y-109474000D01*
X216890600Y-104927400D02*
X215087200Y-103124000D01*
X183972200Y-105029000D02*
X181762400Y-102819200D01*
X213385400Y-113893600D02*
X215214200Y-113893600D01*
X215087200Y-103124000D02*
X210286600Y-103124000D01*
X181762400Y-102819200D02*
X180443000Y-102819200D01*
X194843400Y-105079800D02*
X192506600Y-102743000D01*
X217855800Y-109474000D02*
X220345000Y-109474000D01*
X188645800Y-102743000D02*
X186359800Y-105029000D01*
X192506600Y-102743000D02*
X188645800Y-102743000D01*
X216357200Y-112750600D02*
X216357200Y-110972600D01*
X221386400Y-108432600D02*
X221386400Y-106222800D01*
X221386400Y-106222800D02*
X220091000Y-104927400D01*
X215214200Y-113893600D02*
X216357200Y-112750600D01*
X210286600Y-103124000D02*
X208330800Y-105079800D01*
X186359800Y-105029000D02*
X183972200Y-105029000D01*
X220091000Y-104927400D02*
X216890600Y-104927400D01*
X220345000Y-109474000D02*
X221386400Y-108432600D01*
X208330800Y-105079800D02*
X194843400Y-105079800D01*
%TO.N,TUBE0_LED_R*%
X185369200Y-100609400D02*
X185724800Y-100965000D01*
X186055000Y-101295200D02*
X190728600Y-101295200D01*
X180443000Y-102419200D02*
X181730600Y-102419200D01*
X185724800Y-100965000D02*
X186055000Y-101295200D01*
X181730600Y-102419200D02*
X182194200Y-101955600D01*
X183540400Y-100609400D02*
X184480200Y-100609400D01*
X182194200Y-101955600D02*
X183540400Y-100609400D01*
X184480200Y-100609400D02*
X185369200Y-100609400D01*
%TO.N,TUBE3_LED_B*%
X87687200Y-111918800D02*
X88543000Y-111918800D01*
X87401400Y-111633000D02*
X87687200Y-111918800D01*
%TO.N,TUBE3_LED_G*%
X88543000Y-112318800D02*
X87401400Y-112318800D01*
%TO.N,TUBE3_LED_R*%
X87687200Y-112718800D02*
X87426800Y-112979200D01*
X88543000Y-112718800D02*
X87687200Y-112718800D01*
%TO.N,COLON0_LED_B*%
X154152600Y-110109000D02*
X153212800Y-109169200D01*
X154413000Y-110369400D02*
X154152600Y-110109000D01*
X155014800Y-110369400D02*
X154413000Y-110369400D01*
X153212800Y-109169200D02*
X153111200Y-109169200D01*
%TO.N,COLON0_LED_G*%
X153847800Y-110388400D02*
X153136600Y-109677200D01*
X155014800Y-110769400D02*
X154228800Y-110769400D01*
X153136600Y-109677200D02*
X152501600Y-109677200D01*
X154228800Y-110769400D02*
X153847800Y-110388400D01*
%TO.N,COLON0_LED_R*%
X153930400Y-111169400D02*
X153924000Y-111175800D01*
X155014800Y-111169400D02*
X153930400Y-111169400D01*
%TO.N,TUBE1_LED_B*%
X179343000Y-105568800D02*
X179343000Y-104319200D01*
X179146200Y-105765600D02*
X179343000Y-105568800D01*
%TO.N,TUBE1_LED_G*%
X179743000Y-105244800D02*
X179743000Y-104319200D01*
X179908200Y-105410000D02*
X179743000Y-105244800D01*
%TO.N,TUBE1_LED_R*%
X180441600Y-104597200D02*
X180441600Y-103620600D01*
X180441600Y-103620600D02*
X180443000Y-103619200D01*
%TO.N,TUBE4_LED_B*%
X89643000Y-109785200D02*
X89643000Y-110818800D01*
X89230200Y-109372400D02*
X89643000Y-109785200D01*
%TO.N,TUBE4_LED_G*%
X83007200Y-111455200D02*
X83007200Y-110337600D01*
X83007200Y-110337600D02*
X83845400Y-109499400D01*
X80391000Y-111810800D02*
X82651600Y-111810800D01*
X88569800Y-109499400D02*
X89243000Y-110172600D01*
X82651600Y-111810800D02*
X83007200Y-111455200D01*
X83845400Y-109499400D02*
X88569800Y-109499400D01*
X79654400Y-112547400D02*
X80391000Y-111810800D01*
X79654400Y-113334800D02*
X79654400Y-112547400D01*
X89243000Y-110172600D02*
X89243000Y-110818800D01*
%TO.N,TUBE4_LED_R*%
X83515200Y-112522000D02*
X83515200Y-110896400D01*
X83515200Y-110896400D02*
X84455000Y-109956600D01*
X86461600Y-109956600D02*
X88023800Y-111518800D01*
X81407000Y-113258600D02*
X82778600Y-113258600D01*
X82778600Y-113258600D02*
X83515200Y-112522000D01*
X80746600Y-113919000D02*
X81407000Y-113258600D01*
X84455000Y-109956600D02*
X86461600Y-109956600D01*
X79298800Y-113919000D02*
X80746600Y-113919000D01*
X88023800Y-111518800D02*
X88543000Y-111518800D01*
%TO.N,COLON1_LED_B*%
X156108400Y-109263000D02*
X156114800Y-109269400D01*
X156108400Y-107365800D02*
X156108400Y-109263000D01*
%TO.N,COLON1_LED_G*%
X155714800Y-108089800D02*
X155625800Y-108000800D01*
X155714800Y-109269400D02*
X155714800Y-108089800D01*
%TO.N,COLON1_LED_R*%
X155016200Y-109968000D02*
X155014800Y-109969400D01*
X155016200Y-108483400D02*
X155016200Y-109968000D01*
%TO.N,TUBE2_LED_B*%
X173609000Y-98094800D02*
X172593000Y-97078800D01*
X151485600Y-100838000D02*
X150255640Y-102067960D01*
X148869400Y-112496600D02*
X146685000Y-112496600D01*
X178143000Y-104319200D02*
X174245400Y-104319200D01*
X173609000Y-103682800D02*
X173609000Y-98094800D01*
X174245400Y-104319200D02*
X173609000Y-103682800D01*
X150255640Y-102067960D02*
X150255640Y-111110360D01*
X154940000Y-97078800D02*
X154101800Y-97917000D01*
X150255640Y-111110360D02*
X148869400Y-112496600D01*
X153238200Y-100838000D02*
X151485600Y-100838000D01*
X154101800Y-97917000D02*
X154101800Y-99974400D01*
X172593000Y-97078800D02*
X154940000Y-97078800D01*
X154101800Y-99974400D02*
X153238200Y-100838000D01*
%TO.N,TUBE2_LED_G*%
X178308000Y-105105200D02*
X174269400Y-105105200D01*
X173151800Y-103987600D02*
X173151800Y-103149400D01*
X155422600Y-97586800D02*
X155092400Y-97917000D01*
X172389800Y-97586800D02*
X170484800Y-97586800D01*
X174269400Y-105105200D02*
X173532800Y-104368600D01*
X170484800Y-97586800D02*
X155422600Y-97586800D01*
X178543000Y-104870200D02*
X178308000Y-105105200D01*
X173532800Y-104368600D02*
X173151800Y-103987600D01*
X173151800Y-103149400D02*
X173151800Y-98348800D01*
X173151800Y-98348800D02*
X172618400Y-97815400D01*
X172618400Y-97815400D02*
X172389800Y-97586800D01*
X178543000Y-104319200D02*
X178543000Y-104870200D01*
%TO.N,TUBE2_LED_R*%
X172110400Y-98094800D02*
X171373800Y-98094800D01*
X172262800Y-98247200D02*
X172110400Y-98094800D01*
X172694600Y-104368600D02*
X172694600Y-103708200D01*
X171373800Y-98094800D02*
X155905200Y-98094800D01*
X177241200Y-105511600D02*
X173837600Y-105511600D01*
X178943000Y-104319200D02*
X178943000Y-105009016D01*
X173837600Y-105511600D02*
X173456600Y-105130600D01*
X172694600Y-103708200D02*
X172694600Y-98679000D01*
X178943000Y-105009016D02*
X178440416Y-105511600D01*
X178440416Y-105511600D02*
X177241200Y-105511600D01*
X155905200Y-98094800D02*
X155829000Y-98171000D01*
X172694600Y-98679000D02*
X172262800Y-98247200D01*
X173456600Y-105130600D02*
X172694600Y-104368600D01*
%TO.N,TUBE5_LED_B*%
X90843000Y-110477400D02*
X90843000Y-110818800D01*
X91414600Y-109905800D02*
X90843000Y-110477400D01*
%TO.N,TUBE5_LED_G*%
X90443000Y-109505800D02*
X90443000Y-110818800D01*
X90728800Y-109220000D02*
X90443000Y-109505800D01*
%TO.N,TUBE5_LED_R*%
X90043000Y-109499400D02*
X89966800Y-109423200D01*
X90043000Y-110818800D02*
X90043000Y-109499400D01*
%TO.N,Net-(D1001-A)*%
X124663400Y-84834000D02*
X124663400Y-85558600D01*
%TO.N,Net-(D1002-A)*%
X126873200Y-84808600D02*
X126873200Y-85558600D01*
%TO.N,Net-(D1003-A)*%
X128956000Y-84808600D02*
X128956000Y-85558600D01*
%TO.N,Net-(D1004-A)*%
X130988000Y-84808600D02*
X130988000Y-85558600D01*
%TO.N,Net-(D1005-A)*%
X133223200Y-84808600D02*
X133223200Y-85558600D01*
%TO.N,Net-(D1006-A)*%
X135255200Y-84834000D02*
X135255200Y-85558600D01*
%TO.N,Net-(D1007-A)*%
X137490400Y-84834000D02*
X137490400Y-85558600D01*
%TO.N,Net-(D1008-A)*%
X139573200Y-84808600D02*
X139573200Y-85558600D01*
%TO.N,Net-(D1009-A)*%
X141706800Y-84808600D02*
X141706800Y-85558600D01*
%TO.N,Net-(D1010-A)*%
X143738800Y-84783200D02*
X143738800Y-85558600D01*
%TO.N,Net-(D1011-A)*%
X145872400Y-84808600D02*
X145872400Y-85558600D01*
%TO.N,Net-(Q401-B)*%
X203987400Y-122670000D02*
X204761400Y-122670000D01*
X204761400Y-122670000D02*
X204861400Y-122570000D01*
X204861400Y-122570000D02*
X205527400Y-122570000D01*
%TO.N,Net-(Q401-C)*%
X207527400Y-121275600D02*
X207527400Y-121920000D01*
X207833000Y-120970000D02*
X207527400Y-121275600D01*
X209321400Y-120970000D02*
X207833000Y-120970000D01*
%TO.N,Net-(Q402-B)*%
X138186400Y-122570000D02*
X138877800Y-122570000D01*
X138086400Y-122670000D02*
X138186400Y-122570000D01*
X137337800Y-122670000D02*
X138086400Y-122670000D01*
%TO.N,Net-(Q402-C)*%
X140877800Y-121402600D02*
X141310400Y-120970000D01*
X141310400Y-120970000D02*
X142671800Y-120970000D01*
X140877800Y-121920000D02*
X140877800Y-121402600D01*
%TO.N,Net-(Q403-B)*%
X71511400Y-122570000D02*
X72202800Y-122570000D01*
X71411400Y-122670000D02*
X71511400Y-122570000D01*
X70662800Y-122670000D02*
X71411400Y-122670000D01*
%TO.N,Net-(Q403-C)*%
X74202800Y-121920000D02*
X74202800Y-121402600D01*
X74202800Y-121402600D02*
X74635400Y-120970000D01*
X74635400Y-120970000D02*
X75996800Y-120970000D01*
%TO.N,Net-(Q404-B)*%
X211505800Y-122870000D02*
X212333800Y-122870000D01*
X209321400Y-122870000D02*
X211505800Y-122870000D01*
X212333800Y-122870000D02*
X212633800Y-122570000D01*
X212633800Y-122570000D02*
X213249000Y-122570000D01*
%TO.N,+180V*%
X56911200Y-120970000D02*
X55956200Y-120970000D01*
X191919190Y-121270000D02*
X191967462Y-121221728D01*
X79436200Y-121270000D02*
X79136200Y-120970000D01*
X57699400Y-121270000D02*
X58588826Y-121270000D01*
X146599400Y-121270000D02*
X146136600Y-121270000D01*
X145836600Y-120970000D02*
X144856200Y-120970000D01*
X229590600Y-95850000D02*
X228163467Y-95850000D01*
X79136200Y-120970000D02*
X78181200Y-120970000D01*
X213249000Y-121270000D02*
X212760800Y-121270000D01*
X229590600Y-94850000D02*
X228163467Y-94850000D01*
X191024000Y-121270000D02*
X191919190Y-121270000D01*
X214144190Y-121270000D02*
X214192462Y-121221728D01*
X124349000Y-121270000D02*
X125229797Y-121270000D01*
X58588826Y-121270000D02*
X58655645Y-121203181D01*
X212760800Y-121270000D02*
X212460800Y-120970000D01*
X123708400Y-121270000D02*
X123408400Y-120970000D01*
D41*
X96205000Y-111506000D02*
X96205000Y-103174800D01*
D40*
X80826441Y-121270000D02*
X80855133Y-121241308D01*
X228163467Y-94850000D02*
X228159867Y-94846400D01*
X125229797Y-121270000D02*
X125330756Y-121169041D01*
X190235800Y-120970000D02*
X189280800Y-120970000D01*
X57211200Y-121270000D02*
X56911200Y-120970000D01*
X57699400Y-121270000D02*
X57211200Y-121270000D01*
X190535800Y-121270000D02*
X190235800Y-120970000D01*
X147488826Y-121270000D02*
X147555645Y-121203181D01*
X212460800Y-120970000D02*
X211505800Y-120970000D01*
D41*
X162880000Y-111506000D02*
X162880000Y-112486400D01*
X96205000Y-115036600D02*
X96205000Y-111506000D01*
D40*
X228163467Y-95850000D02*
X228159867Y-95846400D01*
D41*
X162880000Y-111506000D02*
X162880000Y-103174800D01*
D40*
X79924400Y-121270000D02*
X79436200Y-121270000D01*
X213249000Y-121270000D02*
X214144190Y-121270000D01*
X146599400Y-121270000D02*
X147488826Y-121270000D01*
X124349000Y-121270000D02*
X123708400Y-121270000D01*
X191024000Y-121270000D02*
X190535800Y-121270000D01*
D41*
X162880000Y-112486400D02*
X162890200Y-112496600D01*
D40*
X123408400Y-120970000D02*
X122605800Y-120970000D01*
X146136600Y-121270000D02*
X145836600Y-120970000D01*
X79924400Y-121270000D02*
X80826441Y-121270000D01*
%TO.N,Net-(Q404-C)*%
X217043000Y-122870000D02*
X215580000Y-122870000D01*
X215580000Y-122870000D02*
X215249000Y-122539000D01*
X215249000Y-122539000D02*
X215249000Y-121920000D01*
%TO.N,Net-(Q405-B)*%
X144856200Y-122870000D02*
X145709600Y-122870000D01*
X142671800Y-122870000D02*
X144856200Y-122870000D01*
X145709600Y-122870000D02*
X146009600Y-122570000D01*
X146009600Y-122570000D02*
X146599400Y-122570000D01*
%TO.N,Net-(Q405-C)*%
X148828800Y-122870000D02*
X148599400Y-122640600D01*
X150393400Y-122870000D02*
X148828800Y-122870000D01*
X148599400Y-122640600D02*
X148599400Y-121920000D01*
%TO.N,Net-(Q406-B)*%
X79182200Y-122570000D02*
X79924400Y-122570000D01*
X75996800Y-122870000D02*
X78181200Y-122870000D01*
X78882200Y-122870000D02*
X79182200Y-122570000D01*
X78181200Y-122870000D02*
X78882200Y-122870000D01*
%TO.N,Net-(Q406-C)*%
X83718400Y-122870000D02*
X82306200Y-122870000D01*
X81924400Y-122488200D02*
X81924400Y-121920000D01*
X82306200Y-122870000D02*
X81924400Y-122488200D01*
%TO.N,Net-(Q407-B)*%
X181762400Y-122670000D02*
X182434800Y-122670000D01*
X182534800Y-122570000D02*
X183302400Y-122570000D01*
X182434800Y-122670000D02*
X182534800Y-122570000D01*
%TO.N,Net-(Q407-C)*%
X185302400Y-121199400D02*
X185302400Y-121920000D01*
X187096400Y-120970000D02*
X185531800Y-120970000D01*
X185531800Y-120970000D02*
X185302400Y-121199400D01*
%TO.N,Net-(Q408-B)*%
X115087400Y-122695400D02*
X115759800Y-122695400D01*
X115859800Y-122595400D02*
X116627400Y-122595400D01*
X115759800Y-122695400D02*
X115859800Y-122595400D01*
%TO.N,Net-(Q408-C)*%
X120421400Y-120995400D02*
X119110800Y-120995400D01*
X118627400Y-121478800D02*
X118627400Y-121945400D01*
X119110800Y-120995400D02*
X118627400Y-121478800D01*
%TO.N,Net-(Q409-B)*%
X49313400Y-122644600D02*
X48437800Y-122644600D01*
X49977800Y-122544600D02*
X49413400Y-122544600D01*
X49413400Y-122544600D02*
X49313400Y-122644600D01*
%TO.N,Net-(Q409-C)*%
X53771800Y-120970000D02*
X52461200Y-120970000D01*
X52461200Y-120970000D02*
X51977800Y-121453400D01*
X51977800Y-121453400D02*
X51977800Y-121894600D01*
%TO.N,Net-(Q410-B)*%
X190134200Y-122870000D02*
X190434200Y-122570000D01*
X189280800Y-122870000D02*
X190134200Y-122870000D01*
X187096400Y-122870000D02*
X189280800Y-122870000D01*
X190434200Y-122570000D02*
X191024000Y-122570000D01*
%TO.N,Net-(Q410-C)*%
X193202600Y-122870000D02*
X193024000Y-122691400D01*
X194818000Y-122870000D02*
X193202600Y-122870000D01*
X193024000Y-122691400D02*
X193024000Y-121920000D01*
%TO.N,Net-(Q411-B)*%
X122605800Y-122870000D02*
X123383000Y-122870000D01*
X122580400Y-122895400D02*
X122605800Y-122870000D01*
X123683000Y-122570000D02*
X124349000Y-122570000D01*
X120421400Y-122895400D02*
X122580400Y-122895400D01*
X123383000Y-122870000D02*
X123683000Y-122570000D01*
%TO.N,Net-(Q411-C)*%
X126553000Y-122870000D02*
X126349000Y-122666000D01*
X126349000Y-122666000D02*
X126349000Y-121920000D01*
X128143000Y-122870000D02*
X126553000Y-122870000D01*
%TO.N,Net-(Q412-B)*%
X55956200Y-122870000D02*
X53771800Y-122870000D01*
X57287400Y-122570000D02*
X56987400Y-122870000D01*
X57699400Y-122570000D02*
X57287400Y-122570000D01*
X56987400Y-122870000D02*
X55956200Y-122870000D01*
%TO.N,Net-(Q412-C)*%
X61493400Y-122870000D02*
X60132000Y-122870000D01*
X59699400Y-122437400D02*
X59699400Y-121920000D01*
X60132000Y-122870000D02*
X59699400Y-122437400D01*
%TO.N,Net-(Q501-B)*%
X226691406Y-83439000D02*
X226691406Y-84135492D01*
X226691406Y-84135492D02*
X226791406Y-84235492D01*
X226791406Y-84235492D02*
X226791406Y-84953600D01*
%TO.N,Cathode_0*%
X215479560Y-97485200D02*
X216687400Y-96277360D01*
X129895600Y-118935500D02*
X85445600Y-118935500D01*
X63246500Y-118935500D02*
X63246000Y-118935000D01*
X215392000Y-97485200D02*
X215479560Y-97485200D01*
X216687400Y-93903800D02*
X217449400Y-93141800D01*
X218605100Y-118935500D02*
X212204300Y-118935500D01*
X173203100Y-118935500D02*
X196570600Y-118935500D01*
X216687400Y-96277360D02*
X216687400Y-93903800D01*
X173202100Y-118935500D02*
X152120600Y-118935500D01*
X227441406Y-86953600D02*
X227433514Y-86953600D01*
X225679000Y-87604600D02*
X226326600Y-86957000D01*
X223912360Y-93141800D02*
X225679000Y-91375160D01*
X212204300Y-118935500D02*
X196570600Y-118935500D01*
X152120600Y-118935500D02*
X129895600Y-118935500D01*
X85445600Y-118935500D02*
X63246500Y-118935500D01*
X226326600Y-86957000D02*
X227430114Y-86957000D01*
X173202600Y-118936000D02*
X173202100Y-118935500D01*
X173202600Y-118936000D02*
X173203100Y-118935500D01*
X227433514Y-86953600D02*
X227430114Y-86957000D01*
X225679000Y-91375160D02*
X225679000Y-87604600D01*
X217449400Y-93141800D02*
X223912360Y-93141800D01*
%TO.N,Net-(Q502-B)*%
X221083794Y-83439000D02*
X221083794Y-84121380D01*
X221183794Y-84221380D02*
X221183794Y-84953600D01*
X221083794Y-84121380D02*
X221183794Y-84221380D01*
%TO.N,Cathode_2*%
X199694800Y-92024200D02*
X182499000Y-92024200D01*
X177063400Y-92024200D02*
X137972800Y-92024200D01*
X221833794Y-89697206D02*
X221833794Y-86953600D01*
X70764400Y-92024200D02*
X48945800Y-92024200D01*
X204419200Y-92024200D02*
X199694800Y-92024200D01*
X221716600Y-89814400D02*
X221833794Y-89697206D01*
X182499000Y-92024200D02*
X177063400Y-92024200D01*
X204431900Y-92036900D02*
X204419200Y-92024200D01*
X221411800Y-92036900D02*
X204431900Y-92036900D01*
X137972800Y-92024200D02*
X115671600Y-92024200D01*
X115671600Y-92024200D02*
X70764400Y-92024200D01*
%TO.N,Net-(Q503-B)*%
X215582714Y-84163000D02*
X215576182Y-84169532D01*
X215476182Y-83439000D02*
X215476182Y-84056468D01*
X215576182Y-84169532D02*
X215576182Y-84953600D01*
X215476182Y-84056468D02*
X215582714Y-84163000D01*
%TO.N,Cathode_4*%
X216226182Y-86953600D02*
X216221114Y-86953600D01*
X73964800Y-94969600D02*
X51740800Y-94969600D01*
X207289400Y-94969600D02*
X205867000Y-94969600D01*
X207290400Y-94970600D02*
X207289400Y-94969600D01*
X185064400Y-94969600D02*
X180162200Y-94969600D01*
X51740800Y-94969600D02*
X51739800Y-94970600D01*
X140614400Y-94969600D02*
X118389400Y-94969600D01*
X205867000Y-94969600D02*
X185064400Y-94969600D01*
X118389400Y-94969600D02*
X73964800Y-94969600D01*
X214147400Y-94970600D02*
X207290400Y-94970600D01*
X216221114Y-86953600D02*
X216217714Y-86957000D01*
X180162200Y-94969600D02*
X140614400Y-94969600D01*
%TO.N,Net-(Q504-B)*%
X209968570Y-84193156D02*
X209968570Y-84953600D01*
X209868570Y-84093156D02*
X209968570Y-84193156D01*
X209868570Y-83439000D02*
X209868570Y-84093156D01*
%TO.N,Cathode_6*%
X212090000Y-93014800D02*
X210616800Y-93014800D01*
X210616800Y-93014800D02*
X190804800Y-93014800D01*
X124155200Y-93014800D02*
X79705200Y-93014800D01*
X146380200Y-93014800D02*
X124155200Y-93014800D01*
X190804800Y-93014800D02*
X184785000Y-93014800D01*
X210618570Y-86953600D02*
X210618570Y-86937244D01*
X210618570Y-86937244D02*
X210624214Y-86931600D01*
X79705200Y-93014800D02*
X57480200Y-93014800D01*
X213029800Y-93014800D02*
X212090000Y-93014800D01*
X184785000Y-93014800D02*
X146380200Y-93014800D01*
%TO.N,Net-(Q505-B)*%
X204260958Y-83439000D02*
X204260958Y-84028244D01*
X204260958Y-84028244D02*
X204360958Y-84128244D01*
X204360958Y-84128244D02*
X204360958Y-84953600D01*
%TO.N,Cathode_8*%
X216619126Y-89106400D02*
X217416074Y-89106400D01*
X217416074Y-89106400D02*
X217590674Y-89281000D01*
X63438000Y-88874600D02*
X85445600Y-88874600D01*
X196570600Y-88874600D02*
X205003400Y-88874600D01*
X217590674Y-89281000D02*
X218440000Y-89281000D01*
X63220600Y-89092000D02*
X63438000Y-88874600D01*
X205010958Y-86953600D02*
X205008714Y-86953600D01*
X152120600Y-88874600D02*
X188620400Y-88874600D01*
X208294274Y-89180400D02*
X216545126Y-89180400D01*
X207988474Y-88874600D02*
X208294274Y-89180400D01*
X205008714Y-86953600D02*
X205005314Y-86957000D01*
X85445600Y-88874600D02*
X129895600Y-88874600D01*
X216545126Y-89180400D02*
X216619126Y-89106400D01*
X188620400Y-88874600D02*
X196570600Y-88874600D01*
X129895600Y-88874600D02*
X152120600Y-88874600D01*
X218440000Y-89281000D02*
X218846400Y-88874600D01*
X205003400Y-88874600D02*
X207988474Y-88874600D01*
%TO.N,Net-(Q506-B)*%
X223887600Y-83439000D02*
X223887600Y-84141136D01*
X223987600Y-84241136D02*
X223987600Y-84953600D01*
X223887600Y-84141136D02*
X223987600Y-84241136D01*
%TO.N,Cathode_1*%
X224637600Y-86953600D02*
X224624064Y-86953600D01*
X47916600Y-91046800D02*
X47904400Y-91059000D01*
X224624064Y-86953600D02*
X224620664Y-86957000D01*
X114681000Y-91046800D02*
X69773800Y-91046800D01*
X224637600Y-90894400D02*
X224485200Y-91046800D01*
X69773800Y-91046800D02*
X47916600Y-91046800D01*
X175133000Y-91046800D02*
X114681000Y-91046800D01*
X224485200Y-91046800D02*
X203428600Y-91046800D01*
X203428600Y-91046800D02*
X201142600Y-91046800D01*
X201142600Y-91046800D02*
X175133000Y-91046800D01*
X224637600Y-86953600D02*
X224637600Y-90894400D01*
%TO.N,Net-(Q507-B)*%
X218379988Y-84227024D02*
X218379988Y-84953600D01*
X218279988Y-84127024D02*
X218379988Y-84227024D01*
X218279988Y-83439000D02*
X218279988Y-84127024D01*
%TO.N,Cathode_3*%
X215620600Y-95961200D02*
X205525600Y-95961200D01*
X50558700Y-95948500D02*
X71856600Y-95948500D01*
X205525600Y-95961200D02*
X205511400Y-95947000D01*
X205509900Y-95948500D02*
X205511400Y-95947000D01*
X71856600Y-95948500D02*
X116662200Y-95948500D01*
X183489600Y-95948500D02*
X205509900Y-95948500D01*
X50211754Y-96295446D02*
X50558700Y-95948500D01*
X218996188Y-86919800D02*
X219029988Y-86953600D01*
X138963400Y-95948500D02*
X178968400Y-95948500D01*
X217487500Y-86919800D02*
X218996188Y-86919800D01*
X178968400Y-95948500D02*
X183489600Y-95948500D01*
X116662200Y-95948500D02*
X138963400Y-95948500D01*
%TO.N,Net-(Q508-B)*%
X212772376Y-84162112D02*
X212772376Y-84953600D01*
X212672376Y-83439000D02*
X212672376Y-84062112D01*
X212672376Y-84062112D02*
X212772376Y-84162112D01*
%TO.N,Cathode_5*%
X213422376Y-86953600D02*
X213430264Y-86953600D01*
X213430264Y-86953600D02*
X213433664Y-86957000D01*
X209042000Y-93992200D02*
X186817000Y-93992200D01*
X142367000Y-93992200D02*
X120142000Y-93992200D01*
X75717400Y-93992200D02*
X53504600Y-93992200D01*
X183794400Y-93992200D02*
X142367000Y-93992200D01*
X120142000Y-93992200D02*
X75717400Y-93992200D01*
X186817000Y-93992200D02*
X183794400Y-93992200D01*
X53504600Y-93992200D02*
X53492400Y-93980000D01*
%TO.N,Net-(Q509-B)*%
X207064764Y-83997200D02*
X207164764Y-84097200D01*
X207164764Y-84097200D02*
X207164764Y-84953600D01*
X207064764Y-83439000D02*
X207064764Y-83997200D01*
%TO.N,Cathode_7*%
X194818000Y-90069400D02*
X207822800Y-90069400D01*
X61493400Y-90069400D02*
X83718400Y-90069400D01*
X207822800Y-90069400D02*
X215188800Y-90069400D01*
X217016600Y-90069400D02*
X217017600Y-90068400D01*
X83718400Y-90069400D02*
X128168400Y-90069400D01*
X128168400Y-90069400D02*
X150368000Y-90069400D01*
X150368000Y-90069400D02*
X186690000Y-90069400D01*
X207814764Y-86953600D02*
X207814764Y-86957000D01*
X215188800Y-90069400D02*
X217016600Y-90069400D01*
X186690000Y-90069400D02*
X194818000Y-90069400D01*
%TO.N,Net-(Q510-B)*%
X201557152Y-84337088D02*
X201557152Y-84953600D01*
X201457152Y-84237088D02*
X201557152Y-84337088D01*
X201457152Y-83439000D02*
X201457152Y-84237088D01*
%TO.N,Cathode_9*%
X202209400Y-87897200D02*
X219862400Y-87897200D01*
X220370400Y-88900000D02*
X220370400Y-88405200D01*
X190550800Y-87897200D02*
X198094600Y-87897200D01*
X202207152Y-87894952D02*
X202209400Y-87897200D01*
X64846200Y-87897200D02*
X86969600Y-87897200D01*
X220370400Y-88405200D02*
X219862400Y-87897200D01*
X198094600Y-87897200D02*
X202209400Y-87897200D01*
X86969600Y-87897200D02*
X131419600Y-87897200D01*
X131419600Y-87897200D02*
X153644600Y-87897200D01*
X153644600Y-87897200D02*
X190550800Y-87897200D01*
X202207152Y-86953600D02*
X202207152Y-87894952D01*
%TO.N,Net-(Q511-B)*%
X198653346Y-83451800D02*
X198653346Y-84177224D01*
X198653346Y-84177224D02*
X198753346Y-84277224D01*
X198753346Y-84277224D02*
X198753346Y-84966400D01*
%TO.N,Net-(Q511-C)*%
X198548600Y-86966400D02*
X197942200Y-86360000D01*
X199403346Y-86966400D02*
X198548600Y-86966400D01*
X197942200Y-86360000D02*
X196794200Y-86360000D01*
%TO.N,Net-(Q512-B)*%
X108676200Y-110856000D02*
X107857800Y-110856000D01*
X109413800Y-110756000D02*
X108776200Y-110756000D01*
X108776200Y-110756000D02*
X108676200Y-110856000D01*
%TO.N,Colon_1_Cathode*%
X103199861Y-111506000D02*
X103195196Y-111510665D01*
X105857800Y-111506000D02*
X103199861Y-111506000D01*
%TO.N,Net-(Q513-B)*%
X108600000Y-106055400D02*
X107857800Y-106055400D01*
X109413800Y-105955400D02*
X108700000Y-105955400D01*
X108700000Y-105955400D02*
X108600000Y-106055400D01*
%TO.N,Colon_0_Cathode*%
X103195196Y-106039996D02*
X103195196Y-103177335D01*
X103860600Y-106705400D02*
X103195196Y-106039996D01*
X105857800Y-106705400D02*
X103860600Y-106705400D01*
%TO.N,Net-(U301-SCL)*%
X213893400Y-126492000D02*
X214477600Y-127076200D01*
X214477600Y-127076200D02*
X214477600Y-128104200D01*
X203715600Y-126492000D02*
X213893400Y-126492000D01*
X215400000Y-128252600D02*
X215251600Y-128104200D01*
X215251600Y-128104200D02*
X214477600Y-128104200D01*
X215950200Y-128252600D02*
X215400000Y-128252600D01*
%TO.N,Net-(U301-SDA)*%
X215950200Y-128752600D02*
X213106000Y-128752600D01*
X212928200Y-128574800D02*
X212928200Y-128104200D01*
X210591400Y-127762000D02*
X210947000Y-128117600D01*
X210947000Y-128117600D02*
X212914800Y-128117600D01*
X212914800Y-128117600D02*
X212928200Y-128104200D01*
X213106000Y-128752600D02*
X212928200Y-128574800D01*
X203715600Y-127762000D02*
X210591400Y-127762000D01*
%TO.N,Net-(U302-XORL)*%
X220004808Y-129219792D02*
X221655808Y-129219792D01*
X219050200Y-128752600D02*
X219537616Y-128752600D01*
X221655808Y-129219792D02*
X221875500Y-129000100D01*
X219537616Y-128752600D02*
X220004808Y-129219792D01*
X221875500Y-127073200D02*
X221863500Y-127061200D01*
X221875500Y-128546400D02*
X221875500Y-127073200D01*
X221875500Y-129000100D02*
X221875500Y-128546400D01*
%TO.N,Anode_1_DSP*%
X231804000Y-97850000D02*
X231800400Y-97846400D01*
X181762400Y-121170000D02*
X181762400Y-121666000D01*
X233231133Y-97850000D02*
X231804000Y-97850000D01*
%TO.N,Anode_3_DSP*%
X115087400Y-121640600D02*
X115087400Y-121195400D01*
X233231133Y-98850000D02*
X231804000Y-98850000D01*
X231804000Y-98850000D02*
X231800400Y-98846400D01*
%TO.N,Anode_5_DSP*%
X233231133Y-99850000D02*
X231804000Y-99850000D01*
X231804000Y-99850000D02*
X231800400Y-99846400D01*
X48437800Y-121920000D02*
X48437800Y-121144600D01*
%TO.N,Anode_0*%
X219202000Y-120970000D02*
X217043000Y-120970000D01*
%TO.N,Anode_2*%
X152603200Y-120970000D02*
X150393400Y-120970000D01*
%TO.N,Anode_4*%
X85902800Y-120970000D02*
X83718400Y-120970000D01*
%TO.N,Cathode_1_DSP*%
X233231133Y-101850000D02*
X231804000Y-101850000D01*
X231804000Y-101850000D02*
X231800400Y-101846400D01*
%TO.N,Cathode_3_DSP*%
X233231133Y-102850000D02*
X231804000Y-102850000D01*
X231804000Y-102850000D02*
X231800400Y-102846400D01*
%TO.N,Cathode_5_DSP*%
X233231133Y-103850000D02*
X231804000Y-103850000D01*
X231804000Y-103850000D02*
X231800400Y-103846400D01*
%TO.N,Anode_1*%
X197002400Y-120970000D02*
X194833200Y-120970000D01*
X194833200Y-120970000D02*
X194818000Y-120954800D01*
%TO.N,Anode_3*%
X130327400Y-120970000D02*
X128183600Y-120970000D01*
X128183600Y-120970000D02*
X128168400Y-120954800D01*
%TO.N,Anode_5*%
X63677800Y-120970000D02*
X61503600Y-120970000D01*
X61503600Y-120970000D02*
X61493400Y-120980200D01*
%TO.N,Cathode_7_DSP*%
X233231133Y-104850000D02*
X231804000Y-104850000D01*
X231804000Y-104850000D02*
X231800400Y-104846400D01*
%TO.N,Cathode_9_DSP*%
X233231133Y-105850000D02*
X231804000Y-105850000D01*
X231804000Y-105850000D02*
X231800400Y-105846400D01*
%TO.N,Colon_3_DSP*%
X175920400Y-113766600D02*
X176088800Y-113598200D01*
X233231133Y-109850000D02*
X231804000Y-109850000D01*
X176088800Y-113598200D02*
X176088800Y-112256000D01*
X231804000Y-109850000D02*
X231800400Y-109846400D01*
%TO.N,Anode_0_DSP*%
X228163467Y-97850000D02*
X228159867Y-97846400D01*
X203987400Y-121716800D02*
X203987400Y-121170000D01*
X229590600Y-97850000D02*
X228163467Y-97850000D01*
%TO.N,Colon_1_DSP*%
X110388400Y-112256000D02*
X109413800Y-112256000D01*
X231804000Y-108850000D02*
X231800400Y-108846400D01*
X233231133Y-108850000D02*
X231804000Y-108850000D01*
%TO.N,Colon_0_DSP*%
X228163467Y-108850000D02*
X228159867Y-108846400D01*
X229590600Y-108850000D02*
X228163467Y-108850000D01*
X109423200Y-107464800D02*
X109413800Y-107455400D01*
X109423200Y-108915200D02*
X109423200Y-107464800D01*
%TO.N,Cathode_DP*%
X193761400Y-85938400D02*
X192481200Y-85938400D01*
X190819084Y-114260316D02*
X190819084Y-116344000D01*
X194538600Y-113030000D02*
X192049400Y-113030000D01*
X194894200Y-86360000D02*
X194183000Y-86360000D01*
X192049400Y-113030000D02*
X190819084Y-114260316D01*
X79705200Y-117957600D02*
X57480200Y-117957600D01*
X194183000Y-86360000D02*
X193761400Y-85938400D01*
X124155200Y-117957600D02*
X79705200Y-117957600D01*
X213055200Y-117957600D02*
X190830200Y-117957600D01*
X190830200Y-117957600D02*
X146380200Y-117957600D01*
X146380200Y-117957600D02*
X124155200Y-117957600D01*
%TO.N,Net-(V606-Anode)*%
X98107535Y-103177335D02*
X98105000Y-103174800D01*
X100655196Y-103177335D02*
X98107535Y-103177335D01*
%TO.N,Net-(V607-Anode)*%
X100655196Y-111510665D02*
X98109665Y-111510665D01*
X98109665Y-111510665D02*
X98105000Y-111506000D01*
%TO.N,Tube_LED_Enable*%
X108495400Y-104497000D02*
X108471400Y-104521000D01*
X90220800Y-116980200D02*
X90627200Y-116573800D01*
X179628800Y-113106200D02*
X179628800Y-107061000D01*
X179628800Y-115316000D02*
X179628800Y-113106200D01*
X112623600Y-116687600D02*
X112242600Y-117068600D01*
X108495400Y-102902500D02*
X108495400Y-104497000D01*
X156114800Y-112269400D02*
X156114800Y-113519000D01*
X179628800Y-107061000D02*
X179120800Y-106553000D01*
X108471400Y-104521000D02*
X110185200Y-104521000D01*
X156114800Y-113519000D02*
X156540200Y-113944400D01*
X174574200Y-115570000D02*
X174574200Y-116128800D01*
X156540200Y-113944400D02*
X158165800Y-115570000D01*
X158165800Y-115570000D02*
X159512000Y-115570000D01*
X110464600Y-104241600D02*
X112420400Y-104241600D01*
X112242600Y-117068600D02*
X91135200Y-117068600D01*
X90627200Y-116573800D02*
X90627200Y-116560600D01*
X175945800Y-116560600D02*
X177977800Y-116560600D01*
X177977800Y-116560600D02*
X178384200Y-116560600D01*
X112623600Y-104444800D02*
X112623600Y-116687600D01*
X159512000Y-115570000D02*
X174574200Y-115570000D01*
X179343000Y-100285600D02*
X179343000Y-101319200D01*
X89643000Y-115576400D02*
X89643000Y-113818800D01*
X179451000Y-100177600D02*
X179343000Y-100285600D01*
X179425600Y-115519200D02*
X179628800Y-115316000D01*
X174955200Y-115570000D02*
X175742600Y-116357400D01*
X178384200Y-116560600D02*
X179425600Y-115519200D01*
X174574200Y-115570000D02*
X174955200Y-115570000D01*
X175742600Y-116357400D02*
X175945800Y-116560600D01*
X91135200Y-117068600D02*
X90627200Y-116560600D01*
X90627200Y-116560600D02*
X89643000Y-115576400D01*
X112420400Y-104241600D02*
X112623600Y-104444800D01*
X110185200Y-104521000D02*
X110464600Y-104241600D01*
%TO.N,Net-(U701-IREF)*%
X179743000Y-100825400D02*
X179743000Y-101319200D01*
X180263800Y-99886200D02*
X180263800Y-100304600D01*
X180263800Y-100304600D02*
X179743000Y-100825400D01*
%TO.N,Net-(U702-IREF)*%
X89243000Y-114515800D02*
X89243000Y-113818800D01*
X88900000Y-114858800D02*
X89243000Y-114515800D01*
X88900000Y-115201000D02*
X88900000Y-114858800D01*
%TO.N,Net-(U703-IREF)*%
X155397200Y-113131600D02*
X155714800Y-112814000D01*
X155714800Y-112814000D02*
X155714800Y-112269400D01*
X155397200Y-113677000D02*
X155397200Y-113131600D01*
D41*
%TO.N,+90V*%
X130327400Y-124663200D02*
X85902800Y-124663200D01*
D40*
X229590600Y-92850000D02*
X228163467Y-92850000D01*
X228163467Y-92850000D02*
X228159867Y-92846400D01*
D41*
X203555600Y-124663200D02*
X218393800Y-124663200D01*
X202311000Y-123418600D02*
X203555600Y-124663200D01*
D40*
X229590600Y-91850000D02*
X228163467Y-91850000D01*
D41*
X152603200Y-122870000D02*
X152603200Y-124663200D01*
X219202000Y-123855000D02*
X219202000Y-122870000D01*
X85902800Y-122870000D02*
X85902800Y-124663200D01*
X199237600Y-123825000D02*
X199237600Y-121310400D01*
X197002400Y-122870000D02*
X197002400Y-124663200D01*
X152603200Y-124663200D02*
X130327400Y-124663200D01*
X218393800Y-124663200D02*
X219202000Y-123855000D01*
X199593200Y-120954800D02*
X201117200Y-120954800D01*
X198399400Y-124663200D02*
X199237600Y-123825000D01*
X201117200Y-120954800D02*
X202057000Y-120954800D01*
X197002400Y-124663200D02*
X198399400Y-124663200D01*
D40*
X228163467Y-91850000D02*
X228159867Y-91846400D01*
D41*
X197002400Y-124663200D02*
X152603200Y-124663200D01*
X130327400Y-122870000D02*
X130327400Y-124663200D01*
X199237600Y-121310400D02*
X199593200Y-120954800D01*
X192481200Y-84038400D02*
X173202600Y-84038400D01*
X63677800Y-124333000D02*
X63677800Y-122870000D01*
X202057000Y-120954800D02*
X202311000Y-121208800D01*
X194421800Y-84038400D02*
X194437000Y-84023200D01*
X192481200Y-84038400D02*
X194421800Y-84038400D01*
X202311000Y-121208800D02*
X202311000Y-123418600D01*
X64008000Y-124663200D02*
X63677800Y-124333000D01*
X85902800Y-124663200D02*
X64008000Y-124663200D01*
D40*
%TO.N,Anode_2_DSP*%
X137363200Y-121677541D02*
X137337800Y-121652141D01*
X229590600Y-98850000D02*
X228163467Y-98850000D01*
X228163467Y-98850000D02*
X228159867Y-98846400D01*
X137337800Y-121652141D02*
X137337800Y-121170000D01*
%TO.N,Anode_4_DSP*%
X229590600Y-99850000D02*
X228163467Y-99850000D01*
X70662800Y-121945400D02*
X70662800Y-121170000D01*
X228163467Y-99850000D02*
X228159867Y-99846400D01*
%TO.N,Cathode_0_DSP*%
X229590600Y-101850000D02*
X228163467Y-101850000D01*
X228163467Y-101850000D02*
X228159867Y-101846400D01*
%TO.N,Cathode_2_DSP*%
X228163467Y-102850000D02*
X228159867Y-102846400D01*
X229590600Y-102850000D02*
X228163467Y-102850000D01*
%TO.N,Cathode_4_DSP*%
X229590600Y-103850000D02*
X228163467Y-103850000D01*
X228163467Y-103850000D02*
X228159867Y-103846400D01*
%TO.N,Display_Time_LED*%
X124663400Y-84058600D02*
X124663400Y-83058200D01*
X124663400Y-83058200D02*
X124663200Y-83058000D01*
X107995400Y-97287400D02*
X108000800Y-97282000D01*
X107995400Y-99027500D02*
X107995400Y-97287400D01*
%TO.N,Set_Time_LED*%
X108495400Y-97815400D02*
X108495400Y-99027500D01*
X126873200Y-83058200D02*
X126873000Y-83058000D01*
X126873200Y-84058600D02*
X126873200Y-83058200D01*
%TO.N,Display_Date_LED*%
X108995400Y-99027500D02*
X108995400Y-97260600D01*
X108995400Y-97260600D02*
X108991400Y-97256600D01*
X128956000Y-84058600D02*
X128956000Y-83058200D01*
X128956000Y-83058200D02*
X128955800Y-83058000D01*
%TO.N,Set_Date_LED*%
X130988000Y-83058200D02*
X130987800Y-83058000D01*
X130988000Y-84058600D02*
X130988000Y-83058200D01*
X109495400Y-97815400D02*
X109495400Y-99027500D01*
%TO.N,Display_Weekday_LED*%
X109995400Y-99027500D02*
X109995400Y-97270000D01*
X133223200Y-84058600D02*
X133223200Y-83058200D01*
X133223200Y-83058200D02*
X133223000Y-83058000D01*
X109995400Y-97270000D02*
X109982000Y-97256600D01*
%TO.N,Set_Weekday_LED*%
X135255200Y-84058600D02*
X135255200Y-83058200D01*
X110495400Y-97815400D02*
X110495400Y-99027500D01*
X135255200Y-83058200D02*
X135255000Y-83058000D01*
%TO.N,Display_Alarm_LED*%
X112781400Y-99715000D02*
X111182900Y-99715000D01*
X113030000Y-99466400D02*
X112781400Y-99715000D01*
X137490400Y-83058200D02*
X137490200Y-83058000D01*
X137490400Y-84058600D02*
X137490400Y-83058200D01*
%TO.N,Set_Alarm_LED*%
X139573200Y-84058600D02*
X139573200Y-83058200D01*
X112637000Y-100215000D02*
X111182900Y-100215000D01*
X139573200Y-83058200D02*
X139573000Y-83058000D01*
%TO.N,Alarm_Enable_LED*%
X112594200Y-101215000D02*
X111182900Y-101215000D01*
X141706800Y-83058200D02*
X141706600Y-83058000D01*
X112598200Y-101219000D02*
X112594200Y-101215000D01*
X141706800Y-84058600D02*
X141706800Y-83058200D01*
%TO.N,24HR_Mode_LED*%
X113385600Y-101701600D02*
X113372200Y-101715000D01*
X143738800Y-84058600D02*
X143738800Y-83058200D01*
X143738800Y-83058200D02*
X143738600Y-83058000D01*
X113372200Y-101715000D02*
X111182900Y-101715000D01*
%TO.N,Set_Brightness_LED*%
X145872400Y-83058200D02*
X145872200Y-83058000D01*
X145872400Y-84058600D02*
X145872400Y-83058200D01*
X112592800Y-102215000D02*
X111182900Y-102215000D01*
X112598200Y-102209600D02*
X112592800Y-102215000D01*
%TO.N,I2C_DSP_SDA*%
X215290400Y-129413000D02*
X215290400Y-130505200D01*
X178543000Y-100285600D02*
X178543000Y-101319200D01*
X177723800Y-106984800D02*
X177876200Y-106984800D01*
X227939600Y-128143000D02*
X227939600Y-127173600D01*
X231804000Y-116850000D02*
X231800400Y-116846400D01*
X105841800Y-101701600D02*
X107294500Y-101701600D01*
X156914800Y-113023600D02*
X156914800Y-112269400D01*
X177469800Y-114604800D02*
X158496000Y-114604800D01*
X177571400Y-113766600D02*
X177939700Y-114134900D01*
X177876200Y-106984800D02*
X178155600Y-107264200D01*
X90601800Y-114833400D02*
X91884500Y-116116100D01*
X178028600Y-99771200D02*
X178543000Y-100285600D01*
X224104200Y-130302000D02*
X224231200Y-130175000D01*
X158496000Y-114604800D02*
X156914800Y-113023600D01*
X215392000Y-130606800D02*
X215773000Y-130987800D01*
X111353600Y-115316000D02*
X111353600Y-105359200D01*
X177342800Y-99771200D02*
X178028600Y-99771200D01*
X227939600Y-127173600D02*
X227949800Y-127163400D01*
X110591600Y-115417600D02*
X110921800Y-115747800D01*
X110058200Y-115417600D02*
X110591600Y-115417600D01*
X91884500Y-116116100D02*
X110553500Y-116116100D01*
X223418400Y-130987800D02*
X224104200Y-130302000D01*
X233231133Y-116850000D02*
X231804000Y-116850000D01*
X224231200Y-130175000D02*
X224231200Y-128803400D01*
X90443000Y-113818800D02*
X90443000Y-114674600D01*
X215450800Y-129252600D02*
X215290400Y-129413000D01*
X177939700Y-114134900D02*
X177469800Y-114604800D01*
X90443000Y-114674600D02*
X90601800Y-114833400D01*
X110553500Y-116116100D02*
X110921800Y-115747800D01*
X215290400Y-130505200D02*
X215392000Y-130606800D01*
X177571400Y-113538000D02*
X177571400Y-113766600D01*
X215950200Y-129252600D02*
X215450800Y-129252600D01*
X110921800Y-115747800D02*
X111353600Y-115316000D01*
X215773000Y-130987800D02*
X218871800Y-130987800D01*
X107294500Y-101701600D02*
X107307900Y-101715000D01*
X178155600Y-113919000D02*
X177939700Y-114134900D01*
X218871800Y-130987800D02*
X223418400Y-130987800D01*
X178155600Y-107264200D02*
X178155600Y-113919000D01*
%TO.N,I2C_DSP_SCL*%
X228163467Y-116850000D02*
X228159867Y-116846400D01*
X215950200Y-126721200D02*
X216179400Y-126492000D01*
X156514800Y-112269400D02*
X156514800Y-113233200D01*
X90576400Y-115544600D02*
X91617800Y-116586000D01*
X107302500Y-102209600D02*
X107307900Y-102215000D01*
X159131000Y-115087400D02*
X177698400Y-115087400D01*
X111175800Y-116255800D02*
X111887000Y-115544600D01*
X111887000Y-115544600D02*
X111887000Y-115062000D01*
X106400600Y-102209600D02*
X107302500Y-102209600D01*
X219710000Y-125552200D02*
X226049800Y-125552200D01*
X156514800Y-113233200D02*
X156870400Y-113588800D01*
X90043000Y-115011200D02*
X90576400Y-115544600D01*
X218770200Y-126492000D02*
X219710000Y-125552200D01*
X178790600Y-99695000D02*
X178943000Y-99847400D01*
X226034600Y-125567400D02*
X226049800Y-125552200D01*
X111887000Y-115062000D02*
X111887000Y-104876600D01*
X229590600Y-116850000D02*
X228163467Y-116850000D01*
X110845600Y-116586000D02*
X111175800Y-116255800D01*
X226049800Y-125552200D02*
X226049800Y-127163400D01*
X226034600Y-125577600D02*
X226034600Y-125567400D01*
X178028600Y-114757200D02*
X178663600Y-114122200D01*
X92481400Y-116586000D02*
X110845600Y-116586000D01*
X215950200Y-127752600D02*
X215950200Y-126721200D01*
X90043000Y-113818800D02*
X90043000Y-115011200D01*
X156870400Y-113588800D02*
X158369000Y-115087400D01*
X178943000Y-99847400D02*
X178943000Y-101319200D01*
X177698400Y-115087400D02*
X178028600Y-114757200D01*
X178663600Y-114122200D02*
X178663600Y-113461800D01*
X216179400Y-126492000D02*
X218770200Y-126492000D01*
X177749200Y-115138200D02*
X177698400Y-115087400D01*
X91617800Y-116586000D02*
X92481400Y-116586000D01*
X111493300Y-116573300D02*
X111175800Y-116255800D01*
X177749200Y-115697000D02*
X177749200Y-115138200D01*
X178663600Y-106883200D02*
X178181000Y-106400600D01*
X178663600Y-113461800D02*
X178663600Y-106883200D01*
X158369000Y-115087400D02*
X159131000Y-115087400D01*
%TO.N,Net-(D901-A)*%
X148005800Y-85558400D02*
X148006000Y-85558600D01*
X148005800Y-84810600D02*
X148005800Y-85558400D01*
%TO.N,Cathode_6_DSP*%
X228163467Y-104850000D02*
X228159867Y-104846400D01*
X229590600Y-104850000D02*
X228163467Y-104850000D01*
%TO.N,Cathode_8_DSP*%
X228163467Y-105850000D02*
X228159867Y-105846400D01*
X229590600Y-105850000D02*
X228163467Y-105850000D01*
%TO.N,Cathode_DP_DSP*%
X228163467Y-106850000D02*
X228159867Y-106846400D01*
X229590600Y-106850000D02*
X228163467Y-106850000D01*
%TO.N,Colon_2_DSP*%
X228163467Y-109850000D02*
X228159867Y-109846400D01*
X176822600Y-113309400D02*
X177190400Y-112941600D01*
X229590600Y-109850000D02*
X228163467Y-109850000D01*
X176072800Y-109245400D02*
X176072800Y-107772200D01*
X177190400Y-110363000D02*
X176072800Y-109245400D01*
X177190400Y-112941600D02*
X177190400Y-110363000D01*
%TO.N,Net-(Q514-B)*%
X175375000Y-110756000D02*
X175275000Y-110856000D01*
X176088800Y-110756000D02*
X175375000Y-110756000D01*
X175275000Y-110856000D02*
X174532800Y-110856000D01*
%TO.N,Colon_3_Cathode*%
X169866527Y-111506000D02*
X169861862Y-111510665D01*
X172532800Y-111506000D02*
X169866527Y-111506000D01*
%TO.N,Net-(Q515-B)*%
X176072800Y-106272200D02*
X175333600Y-106272200D01*
X175233600Y-106372200D02*
X174516800Y-106372200D01*
X175333600Y-106272200D02*
X175233600Y-106372200D01*
%TO.N,Colon_2_Cathode*%
X170725400Y-107022200D02*
X169861862Y-106158662D01*
X169861862Y-106158662D02*
X169861862Y-103177335D01*
X172516800Y-107022200D02*
X170725400Y-107022200D01*
%TO.N,Net-(V609-Anode)*%
X167321862Y-103177335D02*
X164782535Y-103177335D01*
X164782535Y-103177335D02*
X164780000Y-103174800D01*
%TO.N,Net-(V610-Anode)*%
X167321862Y-111510665D02*
X164784665Y-111510665D01*
X164784665Y-111510665D02*
X164780000Y-111506000D01*
%TO.N,Pushbutton_Down*%
X38732600Y-116278800D02*
X38424600Y-115970800D01*
X37693600Y-115290600D02*
X37706300Y-115277900D01*
X228163467Y-113850000D02*
X228159867Y-113846400D01*
X37706300Y-115277900D02*
X38424600Y-115277900D01*
X229590600Y-113850000D02*
X228163467Y-113850000D01*
X38424600Y-115970800D02*
X38424600Y-115277900D01*
X38732600Y-116921100D02*
X38732600Y-116278800D01*
%TO.N,Pushbutton_Up*%
X231804000Y-112850000D02*
X231800400Y-112846400D01*
X38732600Y-110462200D02*
X38424600Y-110154200D01*
X233231133Y-112850000D02*
X231804000Y-112850000D01*
X38424600Y-110154200D02*
X38424600Y-109395850D01*
X38732600Y-111039050D02*
X38732600Y-110462200D01*
X38424600Y-109395850D02*
X37720950Y-109395850D01*
X37720950Y-109395850D02*
X37719000Y-109397800D01*
%TO.N,Pushbutton_Right*%
X228163467Y-112850000D02*
X228159867Y-112846400D01*
X38727500Y-105165800D02*
X38727500Y-104513500D01*
X38429700Y-104215700D02*
X38429700Y-103505000D01*
X229590600Y-112850000D02*
X228163467Y-112850000D01*
X38429700Y-103505000D02*
X37744400Y-103505000D01*
X38727500Y-104513500D02*
X38429700Y-104215700D01*
%TO.N,Pushbutton_Left*%
X38444900Y-98490500D02*
X38444900Y-97631750D01*
X38727500Y-99274950D02*
X38727500Y-98773100D01*
X37687750Y-97631750D02*
X37668200Y-97612200D01*
X231804000Y-111850000D02*
X231800400Y-111846400D01*
X233231133Y-111850000D02*
X231804000Y-111850000D01*
X38444900Y-97631750D02*
X37687750Y-97631750D01*
X38727500Y-98773100D02*
X38444900Y-98490500D01*
%TO.N,Pushbutton_Power*%
X229590600Y-111850000D02*
X228163467Y-111850000D01*
X38450000Y-91749700D02*
X37673100Y-91749700D01*
X38732600Y-93392900D02*
X38732600Y-92834600D01*
X37673100Y-91749700D02*
X37668200Y-91744800D01*
X38732600Y-92834600D02*
X38450000Y-92552000D01*
X228163467Y-111850000D02*
X228159867Y-111846400D01*
X38450000Y-92552000D02*
X38450000Y-91749700D01*
D43*
%TO.N,Net-(U1003-SNS)*%
X40627500Y-101474950D02*
X41120650Y-101474950D01*
X41120650Y-101474950D02*
X41470650Y-101124950D01*
X41470650Y-101124950D02*
X42227700Y-101124950D01*
%TO.N,Net-(U1003-SNSK)*%
X43726300Y-100469900D02*
X43662600Y-100406200D01*
X43662600Y-100406200D02*
X43205400Y-100406200D01*
X42951300Y-100152100D02*
X42951300Y-99694900D01*
X43726300Y-101124950D02*
X43726300Y-100469900D01*
X42951300Y-99694900D02*
X42881350Y-99624950D01*
X43205400Y-100406200D02*
X42951300Y-100152100D01*
X42881350Y-99624950D02*
X42227700Y-99624950D01*
X42227700Y-99624950D02*
X41636750Y-99624950D01*
X41286750Y-99274950D02*
X40627500Y-99274950D01*
X41636750Y-99624950D02*
X41286750Y-99274950D01*
%TO.N,Pushbutton_Power_SNS*%
X44653200Y-84328000D02*
X43721200Y-85260000D01*
X43721200Y-85260000D02*
X43721200Y-93742900D01*
X74625200Y-84328000D02*
X44653200Y-84328000D01*
%TO.N,Pushbutton_Left_SNS*%
X45491400Y-85750400D02*
X44958000Y-86283800D01*
X44621650Y-99624950D02*
X43726300Y-99624950D01*
X77165200Y-84328000D02*
X77165200Y-85394800D01*
X77165200Y-85394800D02*
X76809600Y-85750400D01*
X76809600Y-85750400D02*
X45491400Y-85750400D01*
X44958000Y-99288600D02*
X44621650Y-99624950D01*
X44958000Y-86283800D02*
X44958000Y-99288600D01*
%TO.N,Pushbutton_Right_SNS*%
X78892400Y-86334600D02*
X46228000Y-86334600D01*
X46228000Y-86334600D02*
X45796200Y-86766400D01*
X79705200Y-84328000D02*
X79705200Y-85521800D01*
X45796200Y-104521000D02*
X44793600Y-105523600D01*
X79705200Y-85521800D02*
X78892400Y-86334600D01*
X44793600Y-105523600D02*
X43726300Y-105523600D01*
X45796200Y-86766400D02*
X45796200Y-104521000D01*
%TO.N,Pushbutton_Up_SNS*%
X43713400Y-111381250D02*
X43721200Y-111389050D01*
X43713400Y-110363000D02*
X43713400Y-111381250D01*
%TO.N,Pushbutton_Down_SNS*%
X43721200Y-116416000D02*
X43713400Y-116408200D01*
X43721200Y-117271100D02*
X43721200Y-116416000D01*
%TO.N,Net-(U1004-SNSK)*%
X42215700Y-105511600D02*
X42227700Y-105523600D01*
X40627500Y-105165800D02*
X41056200Y-105165800D01*
X41056200Y-105165800D02*
X41402000Y-105511600D01*
X42951300Y-105790900D02*
X42684000Y-105523600D01*
X43726300Y-107023600D02*
X43726300Y-106388100D01*
X42951300Y-106098600D02*
X42951300Y-105790900D01*
X43510200Y-106172000D02*
X43024700Y-106172000D01*
X42684000Y-105523600D02*
X42227700Y-105523600D01*
X43024700Y-106172000D02*
X42951300Y-106098600D01*
X41402000Y-105511600D02*
X42215700Y-105511600D01*
X43726300Y-106388100D02*
X43510200Y-106172000D01*
%TO.N,Net-(U1004-SNS)*%
X41249600Y-107365800D02*
X40627500Y-107365800D01*
X41591800Y-107023600D02*
X41249600Y-107365800D01*
X42227700Y-107023600D02*
X41591800Y-107023600D01*
%TO.N,Net-(U1005-SNSK)*%
X42946200Y-111487650D02*
X42946200Y-111964050D01*
X43072350Y-112090200D02*
X43357800Y-112090200D01*
X42847600Y-111389050D02*
X42946200Y-111487650D01*
X43721200Y-112453600D02*
X43721200Y-112889050D01*
X42222600Y-111389050D02*
X42847600Y-111389050D01*
X42222600Y-111389050D02*
X41589850Y-111389050D01*
X43357800Y-112090200D02*
X43721200Y-112453600D01*
X41589850Y-111389050D02*
X41239850Y-111039050D01*
X42946200Y-111964050D02*
X43072350Y-112090200D01*
X41239850Y-111039050D02*
X40632600Y-111039050D01*
%TO.N,Net-(U1005-SNS)*%
X41294550Y-113239050D02*
X40632600Y-113239050D01*
X42222600Y-112889050D02*
X41644550Y-112889050D01*
X41644550Y-112889050D02*
X41294550Y-113239050D01*
%TO.N,Net-(U1006-SNSK)*%
X42946200Y-117495200D02*
X42722100Y-117271100D01*
X43721200Y-118771100D02*
X43721200Y-118371800D01*
X42946200Y-117846100D02*
X42946200Y-117495200D01*
X43434000Y-118084600D02*
X43184700Y-118084600D01*
X42722100Y-117271100D02*
X42222600Y-117271100D01*
X41579100Y-117271100D02*
X42222600Y-117271100D01*
X43184700Y-118084600D02*
X42946200Y-117846100D01*
X41229100Y-116921100D02*
X41579100Y-117271100D01*
X43721200Y-118371800D02*
X43434000Y-118084600D01*
X40632600Y-116921100D02*
X41229100Y-116921100D01*
%TO.N,Net-(U1006-SNS)*%
X40653100Y-119100600D02*
X40632600Y-119121100D01*
X41325800Y-119100600D02*
X40653100Y-119100600D01*
X41655300Y-118771100D02*
X41325800Y-119100600D01*
X42222600Y-118771100D02*
X41655300Y-118771100D01*
%TO.N,Net-(U1007-SNSK)*%
X43307000Y-94462600D02*
X43721200Y-94876800D01*
X42926000Y-93929200D02*
X42926000Y-94297700D01*
X43721200Y-94876800D02*
X43721200Y-95242900D01*
X42926000Y-94297700D02*
X43090900Y-94462600D01*
X41399100Y-93392900D02*
X40632600Y-93392900D01*
X42222600Y-93742900D02*
X42739700Y-93742900D01*
X42739700Y-93742900D02*
X42926000Y-93929200D01*
X41749100Y-93742900D02*
X41399100Y-93392900D01*
X43090900Y-94462600D02*
X43307000Y-94462600D01*
X42222600Y-93742900D02*
X41749100Y-93742900D01*
%TO.N,Net-(U1007-SNS)*%
X41485300Y-95242900D02*
X42222600Y-95242900D01*
X40632600Y-95592900D02*
X41135300Y-95592900D01*
X41135300Y-95592900D02*
X41485300Y-95242900D01*
D40*
%TO.N,Set_Color_LED*%
X148006000Y-84058600D02*
X148006000Y-83058200D01*
X148006000Y-83058200D02*
X148005800Y-83058000D01*
X110495400Y-102902500D02*
X112819700Y-102902500D01*
X112819700Y-102902500D02*
X112826800Y-102895400D01*
%TO.N,Tube_ETC_Enable*%
X109270800Y-115265200D02*
X109270800Y-114808000D01*
X110896400Y-107238800D02*
X110693200Y-107035600D01*
X108995400Y-103788400D02*
X109220000Y-104013000D01*
X110718600Y-113360200D02*
X110896400Y-113182400D01*
X109220000Y-104013000D02*
X109575600Y-104013000D01*
X198315600Y-130302000D02*
X196380800Y-130302000D01*
X108995400Y-102902500D02*
X108995400Y-103788400D01*
X110896400Y-111937800D02*
X110896400Y-107238800D01*
X109270800Y-114808000D02*
X110718600Y-113360200D01*
X110896400Y-113182400D02*
X110896400Y-111937800D01*
X196380800Y-130302000D02*
X195630800Y-130302000D01*
%TD*%
M02*
