M48
; DRILL file {KiCad 7.0.1} date Fri Aug 11 20:05:18 2023
; FORMAT={-:-/ absolute / inch / decimal}
; #@! TF.CreationDate,2023-08-11T20:05:18-05:00
; #@! TF.GenerationSoftware,Kicad,Pcbnew,7.0.1
; #@! TF.FileFunction,Plated,1,4,PTH
FMAT,2
INCH
; #@! TA.AperFunction,Plated,PTH,ViaDrill
T1C0.0059
; #@! TA.AperFunction,Plated,PTH,ComponentDrill
T2C0.0354
; #@! TA.AperFunction,Plated,PTH,ComponentDrill
T3C0.0394
; #@! TA.AperFunction,Plated,PTH,ComponentDrill
T4C0.0472
%
G90
G05
T1
X1.483Y-3.612
X1.483Y-3.843
X1.484Y-4.539
X1.485Y-4.307
X1.486Y-4.075
X1.542Y-4.307
X1.543Y-4.075
X1.543Y-4.539
X1.544Y-3.844
X1.545Y-3.612
X1.562Y-3.72
X1.562Y-3.952
X1.562Y-4.031
X1.562Y-4.182
X1.562Y-4.261
X1.562Y-4.415
X1.562Y-4.493
X1.562Y-4.645
X1.562Y-4.722
X1.563Y-3.797
X1.721Y-4.345
X1.721Y-4.583
X1.886Y-3.585
X1.907Y-4.8
X1.927Y-3.623
X1.968Y-4.774
X1.9768Y-3.7912
X2.037Y-3.739
X2.106Y-3.7
X2.153Y-4.427
X2.248Y-4.488
X2.263Y-3.662
X2.263Y-4.644
X2.269Y-4.473
X2.273Y-4.428
X2.3093Y-4.7718
X2.421Y-3.546
X2.421Y-4.763
X2.489Y-3.5076
X2.49Y-4.6825
X2.553Y-3.4605
X2.747Y-3.5845
X2.782Y-4.801
X2.786Y-3.623
X2.829Y-3.7775
X2.8409Y-4.2781
X2.842Y-4.774
X2.912Y-3.739
X2.981Y-3.7005
X3.015Y-4.416
X3.122Y-4.485
X3.136Y-4.462
X3.138Y-3.662
X3.138Y-4.644
X3.1833Y-4.7733
X3.296Y-3.546
X3.296Y-4.762
X3.364Y-3.499
X3.364Y-4.6825
X3.412Y-4.595
X3.424Y-3.4605
X3.441Y-4.395
X3.441Y-4.422
X3.442Y-4.448
X3.513Y-4.306
X3.528Y-4.403
X3.528Y-4.438
X3.542Y-4.308
X3.552Y-4.6055
X3.552Y-4.9665
X3.564Y-4.404
X3.564Y-4.438
X3.572Y-4.3
X3.599Y-4.327
X3.66Y-4.344
X3.66Y-4.416
X3.716Y-4.422
X3.716Y-4.545
X3.7876Y-4.529
X3.9Y-4.196
X4.009Y-4.257
X4.011Y-4.202
X4.124Y-4.256
X4.167Y-4.004
X4.169Y-3.901
X4.169Y-3.966
X4.189Y-4.024
X4.211Y-4.086
X4.245Y-4.085
X4.245Y-4.416
X4.246Y-4.227
X4.252Y-3.83
X4.2715Y-3.851
X4.273Y-3.945
X4.273Y-3.975
X4.273Y-4.005
X4.291Y-3.829
X4.299Y-5.032
X4.302Y-4.538
X4.303Y-3.945
X4.303Y-3.975
X4.303Y-4.005
X4.308Y-4.288
X4.3108Y-3.851
X4.314Y-4.095
X4.318Y-4.989
X4.33Y-3.829
X4.333Y-3.945
X4.333Y-3.975
X4.333Y-4.005
X4.333Y-4.544
X4.346Y-4.4195
X4.3502Y-3.851
X4.351Y-4.969
X4.358Y-4.214
X4.384Y-4.148
X4.3895Y-4.5895
X4.405Y-4.129
X4.4142Y-3.9652
X4.433Y-3.985
X4.433Y-4.024
X4.4345Y-3.9455
X4.442Y-4.051
X4.45Y-3.916
X4.464Y-4.004
X4.47Y-4.126
X4.515Y-3.5845
X4.531Y-4.789
X4.554Y-3.623
X4.591Y-4.775
X4.593Y-3.7775
X4.661Y-3.739
X4.73Y-3.7005
X4.76Y-4.397
X4.888Y-3.662
X4.888Y-4.455
X4.888Y-4.644
X4.891Y-4.486
X4.896Y-4.427
X4.908Y-3.27
X4.908Y-3.3399
X4.9343Y-4.7704
X4.995Y-3.27
X4.995Y-3.3389
X5.046Y-3.546
X5.046Y-4.762
X5.077Y-3.27
X5.077Y-3.3389
X5.114Y-3.499
X5.114Y-4.6825
X5.157Y-3.27
X5.157Y-3.3389
X5.174Y-3.4605
X5.245Y-3.27
X5.245Y-3.3389
X5.325Y-3.27
X5.325Y-3.3399
X5.394Y-3.5845
X5.408Y-4.7905
X5.413Y-3.27
X5.413Y-3.3399
X5.432Y-3.623
X5.468Y-4.775
X5.471Y-3.7775
X5.495Y-3.27
X5.495Y-3.3389
X5.536Y-3.739
X5.579Y-3.27
X5.579Y-3.3389
X5.605Y-3.7005
X5.64Y-4.412
X5.659Y-3.27
X5.659Y-3.3379
X5.743Y-3.27
X5.743Y-3.3389
X5.763Y-3.662
X5.763Y-4.644
X5.775Y-4.429
X5.8093Y-4.7718
X5.827Y-3.27
X5.827Y-3.339
X5.843Y-3.969
X5.873Y-3.308
X5.88Y-4.04
X5.92Y-3.546
X5.921Y-4.762
X5.989Y-3.499
X5.989Y-4.6825
X6.004Y-4.318
X6.028Y-4.298
X6.049Y-3.4605
X6.06Y-4.377
X6.103Y-4.271
X6.106Y-3.855
X6.118Y-4.508
X6.127Y-4.252
X6.135Y-3.865
X6.144Y-4.343
X6.144Y-4.378
X6.146Y-4.227
X6.18Y-4.344
X6.18Y-4.378
X6.225Y-4.417
X6.333Y-4.363
X6.364Y-4.45
X6.413Y-4.429
X6.508Y-4.168
X6.531Y-4.256
X6.639Y-4.197
X6.639Y-4.256
X6.819Y-3.384
X6.819Y-4.6825
X6.8704Y-4.2385
X6.871Y-4.416
X6.872Y-5.019
X6.873Y-4.572
X6.874Y-3.923
X6.874Y-4.046
X6.895Y-3.384
X6.895Y-3.5845
X6.9Y-4.813
X6.926Y-4.479
X6.952Y-4.813
X6.9615Y-4.461
X6.971Y-3.384
X6.971Y-3.623
X6.982Y-3.928
X6.991Y-4.47
X6.997Y-4.212
X6.998Y-4.555
X7.015Y-4.189
X7.027Y-4.029
X7.027Y-4.064
X7.039Y-3.925
X7.046Y-3.7775
X7.047Y-3.384
X7.052Y-4.195
X7.053Y-4.164
X7.056Y-5.037
X7.063Y-4.03
X7.063Y-4.064
X7.065Y-3.944
X7.078Y-5.072
X7.083Y-4.15
X7.093Y-3.739
X7.097Y-3.848
X7.104Y-4.118
X7.122Y-3.384
X7.146Y-3.5845
X7.156Y-4.79
X7.185Y-3.623
X7.199Y-3.384
X7.217Y-4.774
X7.224Y-3.7775
X7.236Y-3.7005
X7.275Y-3.384
X7.275Y-3.662
X7.286Y-3.739
X7.35Y-3.384
X7.35Y-3.546
X7.355Y-3.7005
X7.401Y-4.47
X7.408Y-4.36
X7.426Y-3.384
X7.426Y-3.499
X7.502Y-3.384
X7.502Y-3.4605
X7.5053Y-4.4513
X7.508Y-4.417
X7.509Y-3.988
X7.512Y-3.662
X7.513Y-4.644
X7.5578Y-4.7725
X7.578Y-3.384
X7.639Y-5.13
X7.655Y-3.308
X7.659Y-4.45
X7.67Y-3.546
X7.67Y-4.762
X7.702Y-5.13
X7.739Y-3.499
X7.739Y-4.6825
X7.799Y-3.4605
X7.8759Y-3.345
X7.8799Y-3.285
X7.8985Y-3.4085
X7.908Y-5.101
X7.918Y-4.762
X7.9865Y-3.3445
X7.9905Y-3.2845
X8.009Y-3.5845
X8.031Y-4.792
X8.048Y-3.623
X8.07Y-5.075
X8.071Y-3.499
X8.0711Y-3.4235
X8.091Y-3.7774
X8.092Y-4.774
X8.0971Y-3.3445
X8.1011Y-3.2845
X8.161Y-3.739
X8.1817Y-3.4235
X8.182Y-3.546
X8.2077Y-3.3445
X8.2117Y-3.2845
X8.23Y-3.7005
X8.284Y-4.429
X8.292Y-3.662
X8.2923Y-3.4225
X8.293Y-5.074
X8.317Y-4.525
X8.3173Y-3.3445
X8.3213Y-3.2845
X8.37Y-4.486
X8.387Y-3.662
X8.388Y-4.426
X8.388Y-4.644
X8.401Y-4.484
X8.401Y-5.163
X8.4029Y-3.4235
X8.4279Y-3.3445
X8.431Y-3.739
X8.4319Y-3.2845
X8.4328Y-4.7725
X8.48Y-3.838
X8.489Y-3.778
X8.5125Y-3.4235
X8.5385Y-3.3445
X8.5425Y-3.2845
X8.544Y-3.546
X8.545Y-4.762
X8.548Y-5.065
X8.548Y-5.093
X8.5625Y-3.422
X8.578Y-5.065
X8.578Y-5.093
X8.6065Y-4.6825
X8.616Y-3.499
X8.616Y-3.499
X8.6491Y-3.3445
X8.6531Y-3.2845
X8.676Y-3.5
X8.717Y-3.6235
X8.729Y-3.536
X8.7589Y-3.6253
X8.7597Y-3.3445
X8.7637Y-3.2845
X8.771Y-5.12
X8.7729Y-3.5036
X8.801Y-4.977
X8.828Y-5.071
X8.8703Y-3.3445
X8.8743Y-3.2845
X8.877Y-5.164
X8.899Y-4.944
X8.974Y-5.045
X8.9809Y-3.3445
X8.9827Y-3.616
X8.9827Y-3.6554
X8.9827Y-3.7341
X8.9827Y-3.7735
X8.9827Y-3.8522
X8.9827Y-3.8916
X8.9827Y-3.931
X8.9827Y-3.9703
X8.9827Y-4.0097
X8.9827Y-4.0491
X8.9827Y-4.0884
X8.9827Y-4.1278
X8.9827Y-4.1672
X8.9827Y-4.2066
X8.9827Y-4.2459
X8.9827Y-4.2853
X8.9827Y-4.3247
X8.9827Y-4.364
X8.9827Y-4.4034
X8.9827Y-4.4428
X8.9827Y-4.4821
X8.9827Y-4.6003
X8.9827Y-4.7184
X8.9827Y-4.7577
X8.9827Y-4.7971
X8.9827Y-4.8365
X8.9849Y-3.2845
X8.998Y-5.164
X9.126Y-3.616
X9.126Y-3.6554
X9.126Y-3.6947
X9.126Y-3.7341
X9.126Y-3.7735
X9.126Y-3.8129
X9.126Y-3.8522
X9.126Y-3.8916
X9.126Y-3.931
X9.126Y-3.9703
X9.126Y-4.0097
X9.126Y-4.0491
X9.126Y-4.0884
X9.126Y-4.1278
X9.126Y-4.1672
X9.126Y-4.2066
X9.126Y-4.2459
X9.126Y-4.2853
X9.126Y-4.3247
X9.126Y-4.364
X9.126Y-4.4034
X9.126Y-4.4428
X9.126Y-4.5215
X9.126Y-4.5609
X9.126Y-4.6003
X9.126Y-4.7184
X9.126Y-4.7577
X9.126Y-4.7971
X9.126Y-4.8365
T2
X3.9628Y-4.0621
X3.9628Y-4.3902
X4.0628Y-4.0621
X4.0628Y-4.3902
X6.5875Y-4.0621
X6.5875Y-4.3902
X6.6875Y-4.0621
X6.6875Y-4.3902
T3
X2.938Y-3.32
X3.038Y-3.32
X3.138Y-3.32
X3.238Y-3.32
X3.338Y-3.32
T4
X2.0368Y-4.049
X2.0368Y-4.2261
X2.0368Y-4.4033
X2.1057Y-3.9112
X2.1057Y-4.5411
X2.2632Y-3.8718
X2.2632Y-4.5805
X2.4207Y-3.9112
X2.4207Y-3.9112
X2.4207Y-3.9112
X2.4207Y-3.9112
X2.4207Y-4.5411
X2.4896Y-4.049
X2.4896Y-4.2261
X2.4896Y-4.4033
X2.9117Y-4.049
X2.9117Y-4.2261
X2.9117Y-4.4033
X2.9806Y-3.9112
X2.9806Y-4.5411
X3.1381Y-3.8718
X3.1381Y-4.5805
X3.2956Y-3.9112
X3.2956Y-3.9112
X3.2956Y-3.9112
X3.2956Y-3.9112
X3.2956Y-4.5411
X3.3645Y-4.049
X3.3645Y-4.2261
X3.3645Y-4.4033
X4.6615Y-4.049
X4.6615Y-4.2261
X4.6615Y-4.4033
X4.7304Y-3.9112
X4.7304Y-4.5411
X4.8879Y-3.8718
X4.8879Y-4.5805
X5.0454Y-3.9112
X5.0454Y-3.9112
X5.0454Y-3.9112
X5.0454Y-3.9112
X5.0454Y-4.5411
X5.1143Y-4.049
X5.1143Y-4.2261
X5.1143Y-4.4033
X5.5364Y-4.049
X5.5364Y-4.2261
X5.5364Y-4.4033
X5.6053Y-3.9112
X5.6053Y-4.5411
X5.7628Y-3.8718
X5.7628Y-4.5805
X5.9203Y-3.9112
X5.9203Y-3.9112
X5.9203Y-3.9112
X5.9203Y-3.9112
X5.9203Y-4.5411
X5.9892Y-4.049
X5.9892Y-4.2261
X5.9892Y-4.4033
X7.2862Y-4.049
X7.2862Y-4.2261
X7.2862Y-4.4033
X7.3551Y-3.9112
X7.3551Y-4.5411
X7.5126Y-3.8718
X7.5126Y-4.5805
X7.67Y-3.9112
X7.67Y-3.9112
X7.67Y-3.9112
X7.67Y-3.9112
X7.67Y-4.5411
X7.7389Y-4.049
X7.7389Y-4.2261
X7.7389Y-4.4033
X8.1611Y-4.049
X8.1611Y-4.2261
X8.1611Y-4.4033
X8.23Y-3.9112
X8.23Y-4.5411
X8.3875Y-3.8718
X8.3875Y-4.5805
X8.5449Y-3.9112
X8.5449Y-3.9112
X8.5449Y-3.9112
X8.5449Y-3.9112
X8.5449Y-4.5411
X8.6138Y-4.049
X8.6138Y-4.2261
X8.6138Y-4.4033
T0
M30
