  0
SECTION
  2
HEADER
  9
$ANGBASE
  50
0.0
  9
$ANGDIR
  70
  1
  9
$MEASUREMENT
  70
0
  0
ENDSEC
  0
SECTION
  2
TABLES
  0
TABLE
  2
LTYPE
  70
1
  0
LTYPE
  2
CONTINUOUS
  70
0
  3
Solid line
  72
65
  73
0
  40
0.0
  0
ENDTAB
  0
TABLE
  2
STYLE
  70
4
  0
STYLE
  2
KICAD
  70
0
  40
0
  41
1
  42
1
  50
0
  71
0
  3
isocp.shx
  0
STYLE
  2
KICADB
  70
0
  40
0
  41
1
  42
1
  50
0
  71
0
  3
isocp.shx
  0
STYLE
  2
KICADI
  70
0
  40
0
  41
1
  42
1
  50
15
  71
0
  3
isocp.shx
  0
STYLE
  2
KICADBI
  70
0
  40
0
  41
1
  42
1
  50
15
  71
0
  3
isocp.shx
  0
ENDTAB
  0
TABLE
  2
LAYER
  70
30
  0
LAYER
  2
BLACK
  70
0
  62
7
  6
CONTINUOUS
  0
LAYER
  2
GRAY1
  70
0
  62
251
  6
CONTINUOUS
  0
LAYER
  2
GRAY2
  70
0
  62
8
  6
CONTINUOUS
  0
LAYER
  2
GRAY3
  70
0
  62
9
  6
CONTINUOUS
  0
LAYER
  2
WHITE
  70
0
  62
7
  6
CONTINUOUS
  0
LAYER
  2
LYELLOW
  70
0
  62
51
  6
CONTINUOUS
  0
LAYER
  2
BLUE1
  70
0
  62
178
  6
CONTINUOUS
  0
LAYER
  2
GREEN1
  70
0
  62
98
  6
CONTINUOUS
  0
LAYER
  2
CYAN1
  70
0
  62
138
  6
CONTINUOUS
  0
LAYER
  2
RED1
  70
0
  62
18
  6
CONTINUOUS
  0
LAYER
  2
MAGENTA1
  70
0
  62
228
  6
CONTINUOUS
  0
LAYER
  2
BROWN1
  70
0
  62
58
  6
CONTINUOUS
  0
LAYER
  2
BLUE2
  70
0
  62
5
  6
CONTINUOUS
  0
LAYER
  2
GREEN2
  70
0
  62
3
  6
CONTINUOUS
  0
LAYER
  2
CYAN2
  70
0
  62
4
  6
CONTINUOUS
  0
LAYER
  2
RED2
  70
0
  62
1
  6
CONTINUOUS
  0
LAYER
  2
MAGENTA2
  70
0
  62
6
  6
CONTINUOUS
  0
LAYER
  2
BROWN2
  70
0
  62
54
  6
CONTINUOUS
  0
LAYER
  2
BLUE3
  70
0
  62
171
  6
CONTINUOUS
  0
LAYER
  2
GREEN3
  70
0
  62
91
  6
CONTINUOUS
  0
LAYER
  2
CYAN3
  70
0
  62
131
  6
CONTINUOUS
  0
LAYER
  2
RED3
  70
0
  62
11
  6
CONTINUOUS
  0
LAYER
  2
MAGENTA3
  70
0
  62
221
  6
CONTINUOUS
  0
LAYER
  2
YELLOW3
  70
0
  62
2
  6
CONTINUOUS
  0
LAYER
  2
BLUE4
  70
0
  62
5
  6
CONTINUOUS
  0
LAYER
  2
GREEN4
  70
0
  62
3
  6
CONTINUOUS
  0
LAYER
  2
CYAN4
  70
0
  62
4
  6
CONTINUOUS
  0
LAYER
  2
RED4
  70
0
  62
1
  6
CONTINUOUS
  0
LAYER
  2
MAGENTA4
  70
0
  62
6
  6
CONTINUOUS
  0
LAYER
  2
YELLOW4
  70
0
  62
2
  6
CONTINUOUS
  0
ENDTAB
  0
ENDSEC
  0
SECTION
  2
ENTITIES
0
LINE
8
Black
10
238.801
20
-63.4865
11
238.809
21
-63.4865
0
LINE
8
Black
10
238.809
20
-63.4865
11
238.818
21
-63.4895
0
LINE
8
Black
10
238.818
20
-63.4895
11
238.826
21
-63.491
0
LINE
8
Black
10
238.826
20
-63.491
11
238.834
21
-63.4954
0
LINE
8
Black
10
238.834
20
-63.4954
11
238.842
21
-63.4984
0
LINE
8
Black
10
238.842
20
-63.4984
11
238.849
21
-63.504
0
LINE
8
Black
10
238.849
20
-63.504
11
238.856
21
-63.5084
0
LINE
8
Black
10
238.856
20
-63.5084
11
238.862
21
-63.5151
0
LINE
8
Black
10
238.862
20
-63.5151
11
238.869
21
-63.5207
0
LINE
8
Black
10
238.869
20
-63.5207
11
238.873
21
-63.5283
0
LINE
8
Black
10
238.873
20
-63.5283
11
238.879
21
-63.535
0
LINE
8
Black
10
238.879
20
-63.535
11
238.882
21
-63.5432
0
LINE
8
Black
10
238.882
20
-63.5432
11
238.886
21
-63.5508
0
LINE
8
Black
10
238.886
20
-63.5508
11
238.887
21
-63.5594
0
LINE
8
Black
10
238.887
20
-63.5594
11
238.89
21
-63.5676
0
LINE
8
Black
10
238.89
20
-63.5676
11
238.89
21
-63.5764
0
LINE
8
Black
10
238.89
20
-63.5764
11
238.892
21
-63.585
0
LINE
8
Black
10
238.892
20
-63.585
11
238.892
21
-113.623
0
LINE
8
Black
10
238.892
20
-113.623
11
238.89
21
-113.632
0
LINE
8
Black
10
238.89
20
-113.632
11
238.89
21
-113.64
0
LINE
8
Black
10
238.89
20
-113.64
11
238.887
21
-113.649
0
LINE
8
Black
10
238.887
20
-113.649
11
238.886
21
-113.657
0
LINE
8
Black
10
238.886
20
-113.657
11
238.882
21
-113.665
0
LINE
8
Black
10
238.882
20
-113.665
11
238.879
21
-113.673
0
LINE
8
Black
10
238.879
20
-113.673
11
238.873
21
-113.68
0
LINE
8
Black
10
238.873
20
-113.68
11
238.869
21
-113.687
0
LINE
8
Black
10
238.869
20
-113.687
11
238.862
21
-113.693
0
LINE
8
Black
10
238.862
20
-113.693
11
238.856
21
-113.7
0
LINE
8
Black
10
238.856
20
-113.7
11
238.849
21
-113.704
0
LINE
8
Black
10
238.849
20
-113.704
11
238.842
21
-113.71
0
LINE
8
Black
10
238.842
20
-113.71
11
238.834
21
-113.713
0
LINE
8
Black
10
238.834
20
-113.713
11
238.826
21
-113.717
0
LINE
8
Black
10
238.826
20
-113.717
11
238.818
21
-113.718
0
LINE
8
Black
10
238.818
20
-113.718
11
238.809
21
-113.721
0
LINE
8
Black
10
238.809
20
-113.721
11
238.801
21
-113.721
0
LINE
8
Black
10
238.801
20
-113.721
11
238.792
21
-113.723
0
LINE
8
Black
10
238.792
20
-113.723
11
38.767
21
-113.723
0
LINE
8
Black
10
38.767
20
-113.723
11
38.7584
21
-113.721
0
LINE
8
Black
10
38.7584
20
-113.721
11
38.7496
21
-113.721
0
LINE
8
Black
10
38.7496
20
-113.721
11
38.7414
21
-113.718
0
LINE
8
Black
10
38.7414
20
-113.718
11
38.7328
21
-113.717
0
LINE
8
Black
10
38.7328
20
-113.717
11
38.7252
21
-113.713
0
LINE
8
Black
10
38.7252
20
-113.713
11
38.717
21
-113.71
0
LINE
8
Black
10
38.717
20
-113.71
11
38.7103
21
-113.704
0
LINE
8
Black
10
38.7103
20
-113.704
11
38.7027
21
-113.7
0
LINE
8
Black
10
38.7027
20
-113.7
11
38.6971
21
-113.693
0
LINE
8
Black
10
38.6971
20
-113.693
11
38.6904
21
-113.687
0
LINE
8
Black
10
38.6904
20
-113.687
11
38.686
21
-113.68
0
LINE
8
Black
10
38.686
20
-113.68
11
38.6804
21
-113.673
0
LINE
8
Black
10
38.6804
20
-113.673
11
38.6774
21
-113.665
0
LINE
8
Black
10
38.6774
20
-113.665
11
38.673
21
-113.657
0
LINE
8
Black
10
38.673
20
-113.657
11
38.6715
21
-113.649
0
LINE
8
Black
10
38.6715
20
-113.649
11
38.6685
21
-113.64
0
LINE
8
Black
10
38.6685
20
-113.64
11
38.6685
21
-113.632
0
LINE
8
Black
10
38.6685
20
-113.632
11
38.667
21
-113.623
0
LINE
8
Black
10
38.667
20
-113.623
11
38.667
21
-63.585
0
LINE
8
Black
10
38.667
20
-63.585
11
38.6685
21
-63.5764
0
LINE
8
Black
10
38.6685
20
-63.5764
11
38.6685
21
-63.5676
0
LINE
8
Black
10
38.6685
20
-63.5676
11
38.6715
21
-63.5594
0
LINE
8
Black
10
38.6715
20
-63.5594
11
38.673
21
-63.5508
0
LINE
8
Black
10
38.673
20
-63.5508
11
38.6774
21
-63.5432
0
LINE
8
Black
10
38.6774
20
-63.5432
11
38.6804
21
-63.535
0
LINE
8
Black
10
38.6804
20
-63.535
11
38.686
21
-63.5283
0
LINE
8
Black
10
38.686
20
-63.5283
11
38.6904
21
-63.5207
0
LINE
8
Black
10
38.6904
20
-63.5207
11
38.6971
21
-63.5151
0
LINE
8
Black
10
38.6971
20
-63.5151
11
38.7027
21
-63.5084
0
LINE
8
Black
10
38.7027
20
-63.5084
11
38.7103
21
-63.504
0
LINE
8
Black
10
38.7103
20
-63.504
11
38.717
21
-63.4984
0
LINE
8
Black
10
38.717
20
-63.4984
11
38.7252
21
-63.4954
0
LINE
8
Black
10
38.7252
20
-63.4954
11
38.7328
21
-63.491
0
LINE
8
Black
10
38.7328
20
-63.491
11
38.7414
21
-63.4895
0
LINE
8
Black
10
38.7414
20
-63.4895
11
38.7496
21
-63.4865
0
LINE
8
Black
10
38.7496
20
-63.4865
11
38.7584
21
-63.4865
0
LINE
8
Black
10
38.7584
20
-63.4865
11
38.767
21
-63.485
0
LINE
8
Black
10
38.767
20
-63.485
11
238.792
21
-63.485
0
LINE
8
Black
10
238.792
20
-63.485
11
238.801
21
-63.4865
0
LINE
8
Black
10
38.867
20
-63.685
11
38.867
21
-113.523
0
LINE
8
Black
10
38.867
20
-113.523
11
238.692
21
-113.523
0
LINE
8
Black
10
238.692
20
-113.523
11
238.692
21
-63.685
0
LINE
8
Black
10
238.692
20
-63.685
11
38.867
21
-63.685
0
LINE
8
Black
10
44.9894
20
-109.654
11
44.5662
21
-110.01
0
LINE
8
Black
10
44.5662
20
-110.01
11
44.047
21
-110.199
0
LINE
8
Black
10
44.047
20
-110.199
11
43.4946
21
-110.199
0
LINE
8
Black
10
43.4946
20
-110.199
11
42.9754
21
-110.01
0
LINE
8
Black
10
42.9754
20
-110.01
11
42.5522
21
-109.654
0
LINE
8
Black
10
42.5522
20
-109.654
11
42.2759
21
-109.176
0
LINE
8
Black
10
42.2759
20
-109.176
11
42.18
21
-108.632
0
LINE
8
Black
10
42.18
20
-108.632
11
42.2759
21
-108.088
0
LINE
8
Black
10
42.2759
20
-108.088
11
42.5522
21
-107.609
0
LINE
8
Black
10
42.5522
20
-107.609
11
42.9754
21
-107.254
0
LINE
8
Black
10
42.9754
20
-107.254
11
43.4946
21
-107.065
0
LINE
8
Black
10
43.4946
20
-107.065
11
44.047
21
-107.065
0
LINE
8
Black
10
44.047
20
-107.065
11
44.5662
21
-107.254
0
LINE
8
Black
10
44.5662
20
-107.254
11
44.9894
21
-107.609
0
LINE
8
Black
10
44.9894
20
-107.609
11
45.2657
21
-108.088
0
LINE
8
Black
10
45.2657
20
-108.088
11
45.3616
21
-108.632
0
LINE
8
Black
10
45.3616
20
-108.632
11
45.2657
21
-109.176
0
LINE
8
Black
10
45.2657
20
-109.176
11
44.9894
21
-109.654
0
LINE
8
Black
10
44.8362
20
-107.738
11
44.4662
21
-107.427
0
LINE
8
Black
10
44.4662
20
-107.427
11
44.0123
21
-107.262
0
LINE
8
Black
10
44.0123
20
-107.262
11
43.5293
21
-107.262
0
LINE
8
Black
10
43.5293
20
-107.262
11
43.0754
21
-107.427
0
LINE
8
Black
10
43.0754
20
-107.427
11
42.7054
21
-107.738
0
LINE
8
Black
10
42.7054
20
-107.738
11
42.4638
21
-108.156
0
LINE
8
Black
10
42.4638
20
-108.156
11
42.38
21
-108.632
0
LINE
8
Black
10
42.38
20
-108.632
11
42.4638
21
-109.108
0
LINE
8
Black
10
42.4638
20
-109.108
11
42.7054
21
-109.526
0
LINE
8
Black
10
42.7054
20
-109.526
11
43.0754
21
-109.836
0
LINE
8
Black
10
43.0754
20
-109.836
11
43.5293
21
-110.002
0
LINE
8
Black
10
43.5293
20
-110.002
11
44.0123
21
-110.002
0
LINE
8
Black
10
44.0123
20
-110.002
11
44.4662
21
-109.836
0
LINE
8
Black
10
44.4662
20
-109.836
11
44.8362
21
-109.526
0
LINE
8
Black
10
44.8362
20
-109.526
11
45.0778
21
-109.108
0
LINE
8
Black
10
45.0778
20
-109.108
11
45.1616
21
-108.632
0
LINE
8
Black
10
45.1616
20
-108.632
11
45.0778
21
-108.156
0
LINE
8
Black
10
45.0778
20
-108.156
11
44.8362
21
-107.738
0
LINE
8
Black
10
234.98
20
-109.654
11
234.557
21
-110.008
0
LINE
8
Black
10
234.557
20
-110.008
11
234.039
21
-110.197
0
LINE
8
Black
10
234.039
20
-110.197
11
233.487
21
-110.197
0
LINE
8
Black
10
233.487
20
-110.197
11
232.968
21
-110.008
0
LINE
8
Black
10
232.968
20
-110.008
11
232.545
21
-109.654
0
LINE
8
Black
10
232.545
20
-109.654
11
232.269
21
-109.175
0
LINE
8
Black
10
232.269
20
-109.175
11
232.173
21
-108.632
0
LINE
8
Black
10
232.173
20
-108.632
11
232.269
21
-108.088
0
LINE
8
Black
10
232.269
20
-108.088
11
232.545
21
-107.61
0
LINE
8
Black
10
232.545
20
-107.61
11
232.968
21
-107.255
0
LINE
8
Black
10
232.968
20
-107.255
11
233.487
21
-107.067
0
LINE
8
Black
10
233.487
20
-107.067
11
234.039
21
-107.067
0
LINE
8
Black
10
234.039
20
-107.067
11
234.557
21
-107.255
0
LINE
8
Black
10
234.557
20
-107.255
11
234.98
21
-107.61
0
LINE
8
Black
10
234.98
20
-107.61
11
235.256
21
-108.088
0
LINE
8
Black
10
235.256
20
-108.088
11
235.352
21
-108.632
0
LINE
8
Black
10
235.352
20
-108.632
11
235.256
21
-109.175
0
LINE
8
Black
10
235.256
20
-109.175
11
234.98
21
-109.654
0
LINE
8
Black
10
234.827
20
-107.739
11
234.457
21
-107.429
0
LINE
8
Black
10
234.457
20
-107.429
11
234.004
21
-107.264
0
LINE
8
Black
10
234.004
20
-107.264
11
233.522
21
-107.264
0
LINE
8
Black
10
233.522
20
-107.264
11
233.068
21
-107.429
0
LINE
8
Black
10
233.068
20
-107.429
11
232.698
21
-107.739
0
LINE
8
Black
10
232.698
20
-107.739
11
232.457
21
-108.157
0
LINE
8
Black
10
232.457
20
-108.157
11
232.373
21
-108.632
0
LINE
8
Black
10
232.373
20
-108.632
11
232.457
21
-109.107
0
LINE
8
Black
10
232.457
20
-109.107
11
232.698
21
-109.525
0
LINE
8
Black
10
232.698
20
-109.525
11
233.068
21
-109.835
0
LINE
8
Black
10
233.068
20
-109.835
11
233.522
21
-110
0
LINE
8
Black
10
233.522
20
-110
11
234.004
21
-110
0
LINE
8
Black
10
234.004
20
-110
11
234.457
21
-109.835
0
LINE
8
Black
10
234.457
20
-109.835
11
234.827
21
-109.525
0
LINE
8
Black
10
234.827
20
-109.525
11
235.068
21
-109.107
0
LINE
8
Black
10
235.068
20
-109.107
11
235.152
21
-108.632
0
LINE
8
Black
10
235.152
20
-108.632
11
235.068
21
-108.157
0
LINE
8
Black
10
235.068
20
-108.157
11
234.827
21
-107.739
0
LINE
8
Black
10
235.023
20
-69.6846
11
234.586
21
-70.052
0
LINE
8
Black
10
234.586
20
-70.052
11
234.049
21
-70.2474
0
LINE
8
Black
10
234.049
20
-70.2474
11
233.477
21
-70.2474
0
LINE
8
Black
10
233.477
20
-70.2474
11
232.94
21
-70.052
0
LINE
8
Black
10
232.94
20
-70.052
11
232.502
21
-69.6846
0
LINE
8
Black
10
232.502
20
-69.6846
11
232.216
21
-69.1897
0
LINE
8
Black
10
232.216
20
-69.1897
11
232.117
21
-68.6269
0
LINE
8
Black
10
232.117
20
-68.6269
11
232.216
21
-68.0641
0
LINE
8
Black
10
232.216
20
-68.0641
11
232.502
21
-67.5692
0
LINE
8
Black
10
232.502
20
-67.5692
11
232.94
21
-67.2018
0
LINE
8
Black
10
232.94
20
-67.2018
11
233.477
21
-67.0064
0
LINE
8
Black
10
233.477
20
-67.0064
11
234.049
21
-67.0064
0
LINE
8
Black
10
234.049
20
-67.0064
11
234.586
21
-67.2018
0
LINE
8
Black
10
234.586
20
-67.2018
11
235.023
21
-67.5692
0
LINE
8
Black
10
235.023
20
-67.5692
11
235.309
21
-68.0641
0
LINE
8
Black
10
235.309
20
-68.0641
11
235.408
21
-68.6269
0
LINE
8
Black
10
235.408
20
-68.6269
11
235.309
21
-69.1897
0
LINE
8
Black
10
235.309
20
-69.1897
11
235.023
21
-69.6846
0
LINE
8
Black
10
234.87
20
-67.6977
11
234.486
21
-67.375
0
LINE
8
Black
10
234.486
20
-67.375
11
234.014
21
-67.2033
0
LINE
8
Black
10
234.014
20
-67.2033
11
233.512
21
-67.2033
0
LINE
8
Black
10
233.512
20
-67.2033
11
233.04
21
-67.375
0
LINE
8
Black
10
233.04
20
-67.375
11
232.655
21
-67.6977
0
LINE
8
Black
10
232.655
20
-67.6977
11
232.404
21
-68.1325
0
LINE
8
Black
10
232.404
20
-68.1325
11
232.317
21
-68.6269
0
LINE
8
Black
10
232.317
20
-68.6269
11
232.404
21
-69.1213
0
LINE
8
Black
10
232.404
20
-69.1213
11
232.655
21
-69.5561
0
LINE
8
Black
10
232.655
20
-69.5561
11
233.04
21
-69.8788
0
LINE
8
Black
10
233.04
20
-69.8788
11
233.512
21
-70.0505
0
LINE
8
Black
10
233.512
20
-70.0505
11
234.014
21
-70.0505
0
LINE
8
Black
10
234.014
20
-70.0505
11
234.486
21
-69.8788
0
LINE
8
Black
10
234.486
20
-69.8788
11
234.87
21
-69.5561
0
LINE
8
Black
10
234.87
20
-69.5561
11
235.121
21
-69.1213
0
LINE
8
Black
10
235.121
20
-69.1213
11
235.208
21
-68.6269
0
LINE
8
Black
10
235.208
20
-68.6269
11
235.121
21
-68.1325
0
LINE
8
Black
10
235.121
20
-68.1325
11
234.87
21
-67.6977
0
LINE
8
Black
10
44.974
20
-69.6472
11
44.5517
21
-70.0015
0
LINE
8
Black
10
44.5517
20
-70.0015
11
44.0337
21
-70.19
0
LINE
8
Black
10
44.0337
20
-70.19
11
43.4825
21
-70.19
0
LINE
8
Black
10
43.4825
20
-70.19
11
42.9645
21
-70.0015
0
LINE
8
Black
10
42.9645
20
-70.0015
11
42.5422
21
-69.6472
0
LINE
8
Black
10
42.5422
20
-69.6472
11
42.2666
21
-69.1698
0
LINE
8
Black
10
42.2666
20
-69.1698
11
42.1708
21
-68.6269
0
LINE
8
Black
10
42.1708
20
-68.6269
11
42.2666
21
-68.084
0
LINE
8
Black
10
42.2666
20
-68.084
11
42.5422
21
-67.6066
0
LINE
8
Black
10
42.5422
20
-67.6066
11
42.9645
21
-67.2523
0
LINE
8
Black
10
42.9645
20
-67.2523
11
43.4825
21
-67.0638
0
LINE
8
Black
10
43.4825
20
-67.0638
11
44.0337
21
-67.0638
0
LINE
8
Black
10
44.0337
20
-67.0638
11
44.5517
21
-67.2523
0
LINE
8
Black
10
44.5517
20
-67.2523
11
44.974
21
-67.6066
0
LINE
8
Black
10
44.974
20
-67.6066
11
45.2496
21
-68.084
0
LINE
8
Black
10
45.2496
20
-68.084
11
45.3454
21
-68.6269
0
LINE
8
Black
10
45.3454
20
-68.6269
11
45.2496
21
-69.1698
0
LINE
8
Black
10
45.2496
20
-69.1698
11
44.974
21
-69.6472
0
LINE
8
Black
10
44.8208
20
-67.7352
11
44.4517
21
-67.4255
0
LINE
8
Black
10
44.4517
20
-67.4255
11
43.999
21
-67.2607
0
LINE
8
Black
10
43.999
20
-67.2607
11
43.5172
21
-67.2607
0
LINE
8
Black
10
43.5172
20
-67.2607
11
43.0645
21
-67.4255
0
LINE
8
Black
10
43.0645
20
-67.4255
11
42.6954
21
-67.7352
0
LINE
8
Black
10
42.6954
20
-67.7352
11
42.4545
21
-68.1524
0
LINE
8
Black
10
42.4545
20
-68.1524
11
42.3708
21
-68.6269
0
LINE
8
Black
10
42.3708
20
-68.6269
11
42.4545
21
-69.1014
0
LINE
8
Black
10
42.4545
20
-69.1014
11
42.6954
21
-69.5186
0
LINE
8
Black
10
42.6954
20
-69.5186
11
43.0645
21
-69.8283
0
LINE
8
Black
10
43.0645
20
-69.8283
11
43.5172
21
-69.9931
0
LINE
8
Black
10
43.5172
20
-69.9931
11
43.999
21
-69.9931
0
LINE
8
Black
10
43.999
20
-69.9931
11
44.4517
21
-69.8283
0
LINE
8
Black
10
44.4517
20
-69.8283
11
44.8208
21
-69.5186
0
LINE
8
Black
10
44.8208
20
-69.5186
11
45.0617
21
-69.1014
0
LINE
8
Black
10
45.0617
20
-69.1014
11
45.1454
21
-68.6269
0
LINE
8
Black
10
45.1454
20
-68.6269
11
45.0617
21
-68.1524
0
LINE
8
Black
10
45.0617
20
-68.1524
11
44.8208
21
-67.7352
  0
ENDSEC
  0
EOF
