  0
SECTION
  2
HEADER
  9
$ANGBASE
  50
0.0
  9
$ANGDIR
  70
  1
  9
$MEASUREMENT
  70
0
  0
ENDSEC
  0
SECTION
  2
TABLES
  0
TABLE
  2
LTYPE
  70
1
  0
LTYPE
  2
CONTINUOUS
  70
0
  3
Solid line
  72
65
  73
0
  40
0.0
  0
ENDTAB
  0
TABLE
  2
STYLE
  70
4
  0
STYLE
  2
KICAD
  70
0
  40
0
  41
1
  42
1
  50
0
  71
0
  3
isocp.shx
  0
STYLE
  2
KICADB
  70
0
  40
0
  41
1
  42
1
  50
0
  71
0
  3
isocp.shx
  0
STYLE
  2
KICADI
  70
0
  40
0
  41
1
  42
1
  50
15
  71
0
  3
isocp.shx
  0
STYLE
  2
KICADBI
  70
0
  40
0
  41
1
  42
1
  50
15
  71
0
  3
isocp.shx
  0
ENDTAB
  0
TABLE
  2
LAYER
  70
30
  0
LAYER
  2
BLACK
  70
0
  62
7
  6
CONTINUOUS
  0
LAYER
  2
GRAY1
  70
0
  62
251
  6
CONTINUOUS
  0
LAYER
  2
GRAY2
  70
0
  62
8
  6
CONTINUOUS
  0
LAYER
  2
GRAY3
  70
0
  62
9
  6
CONTINUOUS
  0
LAYER
  2
WHITE
  70
0
  62
7
  6
CONTINUOUS
  0
LAYER
  2
LYELLOW
  70
0
  62
51
  6
CONTINUOUS
  0
LAYER
  2
BLUE1
  70
0
  62
178
  6
CONTINUOUS
  0
LAYER
  2
GREEN1
  70
0
  62
98
  6
CONTINUOUS
  0
LAYER
  2
CYAN1
  70
0
  62
138
  6
CONTINUOUS
  0
LAYER
  2
RED1
  70
0
  62
18
  6
CONTINUOUS
  0
LAYER
  2
MAGENTA1
  70
0
  62
228
  6
CONTINUOUS
  0
LAYER
  2
BROWN1
  70
0
  62
58
  6
CONTINUOUS
  0
LAYER
  2
BLUE2
  70
0
  62
5
  6
CONTINUOUS
  0
LAYER
  2
GREEN2
  70
0
  62
3
  6
CONTINUOUS
  0
LAYER
  2
CYAN2
  70
0
  62
4
  6
CONTINUOUS
  0
LAYER
  2
RED2
  70
0
  62
1
  6
CONTINUOUS
  0
LAYER
  2
MAGENTA2
  70
0
  62
6
  6
CONTINUOUS
  0
LAYER
  2
BROWN2
  70
0
  62
54
  6
CONTINUOUS
  0
LAYER
  2
BLUE3
  70
0
  62
171
  6
CONTINUOUS
  0
LAYER
  2
GREEN3
  70
0
  62
91
  6
CONTINUOUS
  0
LAYER
  2
CYAN3
  70
0
  62
131
  6
CONTINUOUS
  0
LAYER
  2
RED3
  70
0
  62
11
  6
CONTINUOUS
  0
LAYER
  2
MAGENTA3
  70
0
  62
221
  6
CONTINUOUS
  0
LAYER
  2
YELLOW3
  70
0
  62
2
  6
CONTINUOUS
  0
LAYER
  2
BLUE4
  70
0
  62
5
  6
CONTINUOUS
  0
LAYER
  2
GREEN4
  70
0
  62
3
  6
CONTINUOUS
  0
LAYER
  2
CYAN4
  70
0
  62
4
  6
CONTINUOUS
  0
LAYER
  2
RED4
  70
0
  62
1
  6
CONTINUOUS
  0
LAYER
  2
MAGENTA4
  70
0
  62
6
  6
CONTINUOUS
  0
LAYER
  2
YELLOW4
  70
0
  62
2
  6
CONTINUOUS
  0
ENDTAB
  0
ENDSEC
  0
SECTION
  2
ENTITIES
0
LINE
8
Black
10
262.899
20
-62.1315
11
262.907
21
-62.1315
0
LINE
8
Black
10
262.907
20
-62.1315
11
262.916
21
-62.1345
0
LINE
8
Black
10
262.916
20
-62.1345
11
262.924
21
-62.136
0
LINE
8
Black
10
262.924
20
-62.136
11
262.932
21
-62.1404
0
LINE
8
Black
10
262.932
20
-62.1404
11
262.94
21
-62.1434
0
LINE
8
Black
10
262.94
20
-62.1434
11
262.947
21
-62.149
0
LINE
8
Black
10
262.947
20
-62.149
11
262.954
21
-62.1534
0
LINE
8
Black
10
262.954
20
-62.1534
11
262.96
21
-62.1601
0
LINE
8
Black
10
262.96
20
-62.1601
11
262.967
21
-62.1657
0
LINE
8
Black
10
262.967
20
-62.1657
11
262.971
21
-62.1733
0
LINE
8
Black
10
262.971
20
-62.1733
11
262.977
21
-62.18
0
LINE
8
Black
10
262.977
20
-62.18
11
262.98
21
-62.1882
0
LINE
8
Black
10
262.98
20
-62.1882
11
262.984
21
-62.1958
0
LINE
8
Black
10
262.984
20
-62.1958
11
262.985
21
-62.2044
0
LINE
8
Black
10
262.985
20
-62.2044
11
262.988
21
-62.2126
0
LINE
8
Black
10
262.988
20
-62.2126
11
262.988
21
-62.2214
0
LINE
8
Black
10
262.988
20
-62.2214
11
262.99
21
-62.23
0
LINE
8
Black
10
262.99
20
-62.23
11
262.99
21
-112.268
0
LINE
8
Black
10
262.99
20
-112.268
11
262.988
21
-112.277
0
LINE
8
Black
10
262.988
20
-112.277
11
262.988
21
-112.285
0
LINE
8
Black
10
262.988
20
-112.285
11
262.985
21
-112.294
0
LINE
8
Black
10
262.985
20
-112.294
11
262.984
21
-112.302
0
LINE
8
Black
10
262.984
20
-112.302
11
262.98
21
-112.31
0
LINE
8
Black
10
262.98
20
-112.31
11
262.977
21
-112.318
0
LINE
8
Black
10
262.977
20
-112.318
11
262.971
21
-112.325
0
LINE
8
Black
10
262.971
20
-112.325
11
262.967
21
-112.332
0
LINE
8
Black
10
262.967
20
-112.332
11
262.96
21
-112.338
0
LINE
8
Black
10
262.96
20
-112.338
11
262.954
21
-112.345
0
LINE
8
Black
10
262.954
20
-112.345
11
262.947
21
-112.349
0
LINE
8
Black
10
262.947
20
-112.349
11
262.94
21
-112.355
0
LINE
8
Black
10
262.94
20
-112.355
11
262.932
21
-112.358
0
LINE
8
Black
10
262.932
20
-112.358
11
262.924
21
-112.362
0
LINE
8
Black
10
262.924
20
-112.362
11
262.916
21
-112.363
0
LINE
8
Black
10
262.916
20
-112.363
11
262.907
21
-112.366
0
LINE
8
Black
10
262.907
20
-112.366
11
262.899
21
-112.366
0
LINE
8
Black
10
262.899
20
-112.366
11
262.89
21
-112.368
0
LINE
8
Black
10
262.89
20
-112.368
11
62.865
21
-112.368
0
LINE
8
Black
10
62.865
20
-112.368
11
62.8564
21
-112.366
0
LINE
8
Black
10
62.8564
20
-112.366
11
62.8476
21
-112.366
0
LINE
8
Black
10
62.8476
20
-112.366
11
62.8394
21
-112.363
0
LINE
8
Black
10
62.8394
20
-112.363
11
62.8308
21
-112.362
0
LINE
8
Black
10
62.8308
20
-112.362
11
62.8232
21
-112.358
0
LINE
8
Black
10
62.8232
20
-112.358
11
62.815
21
-112.355
0
LINE
8
Black
10
62.815
20
-112.355
11
62.8083
21
-112.349
0
LINE
8
Black
10
62.8083
20
-112.349
11
62.8007
21
-112.345
0
LINE
8
Black
10
62.8007
20
-112.345
11
62.7951
21
-112.338
0
LINE
8
Black
10
62.7951
20
-112.338
11
62.7884
21
-112.332
0
LINE
8
Black
10
62.7884
20
-112.332
11
62.784
21
-112.325
0
LINE
8
Black
10
62.784
20
-112.325
11
62.7784
21
-112.318
0
LINE
8
Black
10
62.7784
20
-112.318
11
62.7754
21
-112.31
0
LINE
8
Black
10
62.7754
20
-112.31
11
62.771
21
-112.302
0
LINE
8
Black
10
62.771
20
-112.302
11
62.7695
21
-112.294
0
LINE
8
Black
10
62.7695
20
-112.294
11
62.7665
21
-112.285
0
LINE
8
Black
10
62.7665
20
-112.285
11
62.7665
21
-112.277
0
LINE
8
Black
10
62.7665
20
-112.277
11
62.765
21
-112.268
0
LINE
8
Black
10
62.765
20
-112.268
11
62.765
21
-62.23
0
LINE
8
Black
10
62.765
20
-62.23
11
62.7665
21
-62.2214
0
LINE
8
Black
10
62.7665
20
-62.2214
11
62.7665
21
-62.2126
0
LINE
8
Black
10
62.7665
20
-62.2126
11
62.7695
21
-62.2044
0
LINE
8
Black
10
62.7695
20
-62.2044
11
62.771
21
-62.1958
0
LINE
8
Black
10
62.771
20
-62.1958
11
62.7754
21
-62.1882
0
LINE
8
Black
10
62.7754
20
-62.1882
11
62.7784
21
-62.18
0
LINE
8
Black
10
62.7784
20
-62.18
11
62.784
21
-62.1733
0
LINE
8
Black
10
62.784
20
-62.1733
11
62.7884
21
-62.1657
0
LINE
8
Black
10
62.7884
20
-62.1657
11
62.7951
21
-62.1601
0
LINE
8
Black
10
62.7951
20
-62.1601
11
62.8007
21
-62.1534
0
LINE
8
Black
10
62.8007
20
-62.1534
11
62.8083
21
-62.149
0
LINE
8
Black
10
62.8083
20
-62.149
11
62.815
21
-62.1434
0
LINE
8
Black
10
62.815
20
-62.1434
11
62.8232
21
-62.1404
0
LINE
8
Black
10
62.8232
20
-62.1404
11
62.8308
21
-62.136
0
LINE
8
Black
10
62.8308
20
-62.136
11
62.8394
21
-62.1345
0
LINE
8
Black
10
62.8394
20
-62.1345
11
62.8476
21
-62.1315
0
LINE
8
Black
10
62.8476
20
-62.1315
11
62.8564
21
-62.1315
0
LINE
8
Black
10
62.8564
20
-62.1315
11
62.865
21
-62.13
0
LINE
8
Black
10
62.865
20
-62.13
11
262.89
21
-62.13
0
LINE
8
Black
10
262.89
20
-62.13
11
262.899
21
-62.1315
0
LINE
8
Black
10
62.965
20
-62.33
11
62.965
21
-112.168
0
LINE
8
Black
10
62.965
20
-112.168
11
262.79
21
-112.168
0
LINE
8
Black
10
262.79
20
-112.168
11
262.79
21
-62.33
0
LINE
8
Black
10
262.79
20
-62.33
11
62.965
21
-62.33
0
LINE
8
Black
10
259.216
20
-108.378
11
258.75
21
-108.769
0
LINE
8
Black
10
258.75
20
-108.769
11
258.178
21
-108.977
0
LINE
8
Black
10
258.178
20
-108.977
11
257.569
21
-108.977
0
LINE
8
Black
10
257.569
20
-108.977
11
256.997
21
-108.769
0
LINE
8
Black
10
256.997
20
-108.769
11
256.531
21
-108.378
0
LINE
8
Black
10
256.531
20
-108.378
11
256.227
21
-107.851
0
LINE
8
Black
10
256.227
20
-107.851
11
256.121
21
-107.251
0
LINE
8
Black
10
256.121
20
-107.251
11
256.227
21
-106.652
0
LINE
8
Black
10
256.227
20
-106.652
11
256.531
21
-106.125
0
LINE
8
Black
10
256.531
20
-106.125
11
256.997
21
-105.734
0
LINE
8
Black
10
256.997
20
-105.734
11
257.569
21
-105.526
0
LINE
8
Black
10
257.569
20
-105.526
11
258.178
21
-105.526
0
LINE
8
Black
10
258.178
20
-105.526
11
258.75
21
-105.734
0
LINE
8
Black
10
258.75
20
-105.734
11
259.216
21
-106.125
0
LINE
8
Black
10
259.216
20
-106.125
11
259.52
21
-106.652
0
LINE
8
Black
10
259.52
20
-106.652
11
259.626
21
-107.251
0
LINE
8
Black
10
259.626
20
-107.251
11
259.52
21
-107.851
0
LINE
8
Black
10
259.52
20
-107.851
11
259.216
21
-108.378
0
LINE
8
Black
10
259.063
20
-106.254
11
258.65
21
-105.907
0
LINE
8
Black
10
258.65
20
-105.907
11
258.143
21
-105.723
0
LINE
8
Black
10
258.143
20
-105.723
11
257.604
21
-105.723
0
LINE
8
Black
10
257.604
20
-105.723
11
257.097
21
-105.907
0
LINE
8
Black
10
257.097
20
-105.907
11
256.684
21
-106.254
0
LINE
8
Black
10
256.684
20
-106.254
11
256.415
21
-106.721
0
LINE
8
Black
10
256.415
20
-106.721
11
256.321
21
-107.251
0
LINE
8
Black
10
256.321
20
-107.251
11
256.415
21
-107.782
0
LINE
8
Black
10
256.415
20
-107.782
11
256.684
21
-108.249
0
LINE
8
Black
10
256.684
20
-108.249
11
257.097
21
-108.596
0
LINE
8
Black
10
257.097
20
-108.596
11
257.604
21
-108.78
0
LINE
8
Black
10
257.604
20
-108.78
11
258.143
21
-108.78
0
LINE
8
Black
10
258.143
20
-108.78
11
258.65
21
-108.596
0
LINE
8
Black
10
258.65
20
-108.596
11
259.063
21
-108.249
0
LINE
8
Black
10
259.063
20
-108.249
11
259.332
21
-107.782
0
LINE
8
Black
10
259.332
20
-107.782
11
259.426
21
-107.251
0
LINE
8
Black
10
259.426
20
-107.251
11
259.332
21
-106.721
0
LINE
8
Black
10
259.332
20
-106.721
11
259.063
21
-106.254
0
LINE
8
Black
10
69.2228
20
-108.377
11
68.757
21
-108.768
0
LINE
8
Black
10
68.757
20
-108.768
11
68.1856
21
-108.976
0
LINE
8
Black
10
68.1856
20
-108.976
11
67.5774
21
-108.976
0
LINE
8
Black
10
67.5774
20
-108.976
11
67.006
21
-108.768
0
LINE
8
Black
10
67.006
20
-108.768
11
66.5402
21
-108.377
0
LINE
8
Black
10
66.5402
20
-108.377
11
66.2361
21
-107.85
0
LINE
8
Black
10
66.2361
20
-107.85
11
66.1305
21
-107.251
0
LINE
8
Black
10
66.1305
20
-107.251
11
66.2361
21
-106.653
0
LINE
8
Black
10
66.2361
20
-106.653
11
66.5402
21
-106.126
0
LINE
8
Black
10
66.5402
20
-106.126
11
67.006
21
-105.735
0
LINE
8
Black
10
67.006
20
-105.735
11
67.5774
21
-105.527
0
LINE
8
Black
10
67.5774
20
-105.527
11
68.1856
21
-105.527
0
LINE
8
Black
10
68.1856
20
-105.527
11
68.757
21
-105.735
0
LINE
8
Black
10
68.757
20
-105.735
11
69.2228
21
-106.126
0
LINE
8
Black
10
69.2228
20
-106.126
11
69.5269
21
-106.653
0
LINE
8
Black
10
69.5269
20
-106.653
11
69.6325
21
-107.251
0
LINE
8
Black
10
69.6325
20
-107.251
11
69.5269
21
-107.85
0
LINE
8
Black
10
69.5269
20
-107.85
11
69.2228
21
-108.377
0
LINE
8
Black
10
69.0696
20
-106.255
11
68.657
21
-105.908
0
LINE
8
Black
10
68.657
20
-105.908
11
68.1508
21
-105.724
0
LINE
8
Black
10
68.1508
20
-105.724
11
67.6122
21
-105.724
0
LINE
8
Black
10
67.6122
20
-105.724
11
67.106
21
-105.908
0
LINE
8
Black
10
67.106
20
-105.908
11
66.6934
21
-106.255
0
LINE
8
Black
10
66.6934
20
-106.255
11
66.424
21
-106.721
0
LINE
8
Black
10
66.424
20
-106.721
11
66.3305
21
-107.251
0
LINE
8
Black
10
66.3305
20
-107.251
11
66.424
21
-107.782
0
LINE
8
Black
10
66.424
20
-107.782
11
66.6934
21
-108.248
0
LINE
8
Black
10
66.6934
20
-108.248
11
67.106
21
-108.595
0
LINE
8
Black
10
67.106
20
-108.595
11
67.6122
21
-108.779
0
LINE
8
Black
10
67.6122
20
-108.779
11
68.1508
21
-108.779
0
LINE
8
Black
10
68.1508
20
-108.779
11
68.657
21
-108.595
0
LINE
8
Black
10
68.657
20
-108.595
11
69.0696
21
-108.248
0
LINE
8
Black
10
69.0696
20
-108.248
11
69.339
21
-107.782
0
LINE
8
Black
10
69.339
20
-107.782
11
69.4325
21
-107.251
0
LINE
8
Black
10
69.4325
20
-107.251
11
69.339
21
-106.721
0
LINE
8
Black
10
69.339
20
-106.721
11
69.0696
21
-106.255
0
LINE
8
Black
10
98.287
20
-96.9481
11
95.5342
21
-99.2581
0
LINE
8
Black
10
95.5342
20
-99.2581
11
92.1573
21
-100.487
0
LINE
8
Black
10
92.1573
20
-100.487
11
88.5637
21
-100.487
0
LINE
8
Black
10
88.5637
20
-100.487
11
85.1868
21
-99.2581
0
LINE
8
Black
10
85.1868
20
-99.2581
11
82.434
21
-96.9481
0
LINE
8
Black
10
82.434
20
-96.9481
11
80.6372
21
-93.836
0
LINE
8
Black
10
80.6372
20
-93.836
11
80.0132
21
-90.297
0
LINE
8
Black
10
80.0132
20
-90.297
11
80.6372
21
-86.758
0
LINE
8
Black
10
80.6372
20
-86.758
11
82.434
21
-83.6459
0
LINE
8
Black
10
82.434
20
-83.6459
11
85.1868
21
-81.3359
0
LINE
8
Black
10
85.1868
20
-81.3359
11
88.5637
21
-80.1069
0
LINE
8
Black
10
88.5637
20
-80.1069
11
92.1573
21
-80.1069
0
LINE
8
Black
10
92.1573
20
-80.1069
11
95.5342
21
-81.3359
0
LINE
8
Black
10
95.5342
20
-81.3359
11
98.287
21
-83.6459
0
LINE
8
Black
10
98.287
20
-83.6459
11
100.084
21
-86.758
0
LINE
8
Black
10
100.084
20
-86.758
11
100.708
21
-90.297
0
LINE
8
Black
10
100.708
20
-90.297
11
100.084
21
-93.836
0
LINE
8
Black
10
100.084
20
-93.836
11
98.287
21
-96.9481
0
LINE
8
Black
10
98.1338
20
-83.7744
11
95.4342
21
-81.5092
0
LINE
8
Black
10
95.4342
20
-81.5092
11
92.1226
21
-80.3038
0
LINE
8
Black
10
92.1226
20
-80.3038
11
88.5984
21
-80.3038
0
LINE
8
Black
10
88.5984
20
-80.3038
11
85.2868
21
-81.5092
0
LINE
8
Black
10
85.2868
20
-81.5092
11
82.5872
21
-83.7744
0
LINE
8
Black
10
82.5872
20
-83.7744
11
80.8251
21
-86.8264
0
LINE
8
Black
10
80.8251
20
-86.8264
11
80.2132
21
-90.297
0
LINE
8
Black
10
80.2132
20
-90.297
11
80.8251
21
-93.7676
0
LINE
8
Black
10
80.8251
20
-93.7676
11
82.5872
21
-96.8196
0
LINE
8
Black
10
82.5872
20
-96.8196
11
85.2868
21
-99.0848
0
LINE
8
Black
10
85.2868
20
-99.0848
11
88.5984
21
-100.29
0
LINE
8
Black
10
88.5984
20
-100.29
11
92.1226
21
-100.29
0
LINE
8
Black
10
92.1226
20
-100.29
11
95.4342
21
-99.0848
0
LINE
8
Black
10
95.4342
20
-99.0848
11
98.1338
21
-96.8196
0
LINE
8
Black
10
98.1338
20
-96.8196
11
99.8959
21
-93.7676
0
LINE
8
Black
10
99.8959
20
-93.7676
11
100.508
21
-90.297
0
LINE
8
Black
10
100.508
20
-90.297
11
99.8959
21
-86.8264
0
LINE
8
Black
10
99.8959
20
-86.8264
11
98.1338
21
-83.7744
0
LINE
8
Black
10
121.032
20
-96.8513
11
118.319
21
-99.1276
0
LINE
8
Black
10
118.319
20
-99.1276
11
114.991
21
-100.339
0
LINE
8
Black
10
114.991
20
-100.339
11
111.45
21
-100.339
0
LINE
8
Black
10
111.45
20
-100.339
11
108.122
21
-99.1276
0
LINE
8
Black
10
108.122
20
-99.1276
11
105.409
21
-96.8513
0
LINE
8
Black
10
105.409
20
-96.8513
11
103.639
21
-93.7845
0
LINE
8
Black
10
103.639
20
-93.7845
11
103.024
21
-90.297
0
LINE
8
Black
10
103.024
20
-90.297
11
103.639
21
-86.8095
0
LINE
8
Black
10
103.639
20
-86.8095
11
105.409
21
-83.7427
0
LINE
8
Black
10
105.409
20
-83.7427
11
108.122
21
-81.4664
0
LINE
8
Black
10
108.122
20
-81.4664
11
111.45
21
-80.2552
0
LINE
8
Black
10
111.45
20
-80.2552
11
114.991
21
-80.2552
0
LINE
8
Black
10
114.991
20
-80.2552
11
118.319
21
-81.4664
0
LINE
8
Black
10
118.319
20
-81.4664
11
121.032
21
-83.7427
0
LINE
8
Black
10
121.032
20
-83.7427
11
122.802
21
-86.8095
0
LINE
8
Black
10
122.802
20
-86.8095
11
123.417
21
-90.297
0
LINE
8
Black
10
123.417
20
-90.297
11
122.802
21
-93.7845
0
LINE
8
Black
10
122.802
20
-93.7845
11
121.032
21
-96.8513
0
LINE
8
Black
10
120.878
20
-83.8712
11
118.219
21
-81.6396
0
LINE
8
Black
10
118.219
20
-81.6396
11
114.956
21
-80.4522
0
LINE
8
Black
10
114.956
20
-80.4522
11
111.485
21
-80.4522
0
LINE
8
Black
10
111.485
20
-80.4522
11
108.222
21
-81.6396
0
LINE
8
Black
10
108.222
20
-81.6396
11
105.563
21
-83.8712
0
LINE
8
Black
10
105.563
20
-83.8712
11
103.827
21
-86.8779
0
LINE
8
Black
10
103.827
20
-86.8779
11
103.224
21
-90.297
0
LINE
8
Black
10
103.224
20
-90.297
11
103.827
21
-93.7161
0
LINE
8
Black
10
103.827
20
-93.7161
11
105.563
21
-96.7228
0
LINE
8
Black
10
105.563
20
-96.7228
11
108.222
21
-98.9544
0
LINE
8
Black
10
108.222
20
-98.9544
11
111.485
21
-100.142
0
LINE
8
Black
10
111.485
20
-100.142
11
114.956
21
-100.142
0
LINE
8
Black
10
114.956
20
-100.142
11
118.219
21
-98.9544
0
LINE
8
Black
10
118.219
20
-98.9544
11
120.878
21
-96.7228
0
LINE
8
Black
10
120.878
20
-96.7228
11
122.614
21
-93.7161
0
LINE
8
Black
10
122.614
20
-93.7161
11
123.217
21
-90.297
0
LINE
8
Black
10
123.217
20
-90.297
11
122.614
21
-86.8779
0
LINE
8
Black
10
122.614
20
-86.8779
11
120.878
21
-83.8712
0
LINE
8
Black
10
181.689
20
-96.5441
11
179.103
21
-98.7137
0
LINE
8
Black
10
179.103
20
-98.7137
11
175.932
21
-99.8681
0
LINE
8
Black
10
175.932
20
-99.8681
11
172.556
21
-99.8681
0
LINE
8
Black
10
172.556
20
-99.8681
11
169.385
21
-98.7137
0
LINE
8
Black
10
169.385
20
-98.7137
11
166.799
21
-96.5441
0
LINE
8
Black
10
166.799
20
-96.5441
11
165.111
21
-93.621
0
LINE
8
Black
10
165.111
20
-93.621
11
164.525
21
-90.297
0
LINE
8
Black
10
164.525
20
-90.297
11
165.111
21
-86.973
0
LINE
8
Black
10
165.111
20
-86.973
11
166.799
21
-84.0499
0
LINE
8
Black
10
166.799
20
-84.0499
11
169.385
21
-81.8803
0
LINE
8
Black
10
169.385
20
-81.8803
11
172.556
21
-80.7259
0
LINE
8
Black
10
172.556
20
-80.7259
11
175.932
21
-80.7259
0
LINE
8
Black
10
175.932
20
-80.7259
11
179.103
21
-81.8803
0
LINE
8
Black
10
179.103
20
-81.8803
11
181.689
21
-84.0499
0
LINE
8
Black
10
181.689
20
-84.0499
11
183.377
21
-86.973
0
LINE
8
Black
10
183.377
20
-86.973
11
183.963
21
-90.297
0
LINE
8
Black
10
183.963
20
-90.297
11
183.377
21
-93.621
0
LINE
8
Black
10
183.377
20
-93.621
11
181.689
21
-96.5441
0
LINE
8
Black
10
181.536
20
-84.1785
11
179.003
21
-82.0535
0
LINE
8
Black
10
179.003
20
-82.0535
11
175.897
21
-80.9229
0
LINE
8
Black
10
175.897
20
-80.9229
11
172.591
21
-80.9229
0
LINE
8
Black
10
172.591
20
-80.9229
11
169.485
21
-82.0535
0
LINE
8
Black
10
169.485
20
-82.0535
11
166.952
21
-84.1785
0
LINE
8
Black
10
166.952
20
-84.1785
11
165.299
21
-87.0414
0
LINE
8
Black
10
165.299
20
-87.0414
11
164.725
21
-90.297
0
LINE
8
Black
10
164.725
20
-90.297
11
165.299
21
-93.5526
0
LINE
8
Black
10
165.299
20
-93.5526
11
166.952
21
-96.4155
0
LINE
8
Black
10
166.952
20
-96.4155
11
169.485
21
-98.5405
0
LINE
8
Black
10
169.485
20
-98.5405
11
172.591
21
-99.6711
0
LINE
8
Black
10
172.591
20
-99.6711
11
175.897
21
-99.6711
0
LINE
8
Black
10
175.897
20
-99.6711
11
179.003
21
-98.5405
0
LINE
8
Black
10
179.003
20
-98.5405
11
181.536
21
-96.4155
0
LINE
8
Black
10
181.536
20
-96.4155
11
183.189
21
-93.5526
0
LINE
8
Black
10
183.189
20
-93.5526
11
183.763
21
-90.297
0
LINE
8
Black
10
183.763
20
-90.297
11
183.189
21
-87.0414
0
LINE
8
Black
10
183.189
20
-87.0414
11
181.536
21
-84.1785
0
LINE
8
Black
10
158.694
20
-96.4838
11
156.133
21
-98.6325
0
LINE
8
Black
10
156.133
20
-98.6325
11
152.992
21
-99.7758
0
LINE
8
Black
10
152.992
20
-99.7758
11
149.649
21
-99.7758
0
LINE
8
Black
10
149.649
20
-99.7758
11
146.508
21
-98.6325
0
LINE
8
Black
10
146.508
20
-98.6325
11
143.947
21
-96.4838
0
LINE
8
Black
10
143.947
20
-96.4838
11
142.276
21
-93.5889
0
LINE
8
Black
10
142.276
20
-93.5889
11
141.695
21
-90.297
0
LINE
8
Black
10
141.695
20
-90.297
11
142.276
21
-87.0051
0
LINE
8
Black
10
142.276
20
-87.0051
11
143.947
21
-84.1102
0
LINE
8
Black
10
143.947
20
-84.1102
11
146.508
21
-81.9615
0
LINE
8
Black
10
146.508
20
-81.9615
11
149.649
21
-80.8182
0
LINE
8
Black
10
149.649
20
-80.8182
11
152.992
21
-80.8182
0
LINE
8
Black
10
152.992
20
-80.8182
11
156.133
21
-81.9615
0
LINE
8
Black
10
156.133
20
-81.9615
11
158.694
21
-84.1102
0
LINE
8
Black
10
158.694
20
-84.1102
11
160.365
21
-87.0051
0
LINE
8
Black
10
160.365
20
-87.0051
11
160.945
21
-90.297
0
LINE
8
Black
10
160.945
20
-90.297
11
160.365
21
-93.5889
0
LINE
8
Black
10
160.365
20
-93.5889
11
158.694
21
-96.4838
0
LINE
8
Black
10
158.54
20
-84.2387
11
156.033
21
-82.1347
0
LINE
8
Black
10
156.033
20
-82.1347
11
152.957
21
-81.0152
0
LINE
8
Black
10
152.957
20
-81.0152
11
149.684
21
-81.0152
0
LINE
8
Black
10
149.684
20
-81.0152
11
146.608
21
-82.1347
0
LINE
8
Black
10
146.608
20
-82.1347
11
144.101
21
-84.2387
0
LINE
8
Black
10
144.101
20
-84.2387
11
142.464
21
-87.0735
0
LINE
8
Black
10
142.464
20
-87.0735
11
141.895
21
-90.297
0
LINE
8
Black
10
141.895
20
-90.297
11
142.464
21
-93.5205
0
LINE
8
Black
10
142.464
20
-93.5205
11
144.101
21
-96.3553
0
LINE
8
Black
10
144.101
20
-96.3553
11
146.608
21
-98.4593
0
LINE
8
Black
10
146.608
20
-98.4593
11
149.684
21
-99.5788
0
LINE
8
Black
10
149.684
20
-99.5788
11
152.957
21
-99.5788
0
LINE
8
Black
10
152.957
20
-99.5788
11
156.033
21
-98.4593
0
LINE
8
Black
10
156.033
20
-98.4593
11
158.54
21
-96.3553
0
LINE
8
Black
10
158.54
20
-96.3553
11
160.177
21
-93.5205
0
LINE
8
Black
10
160.177
20
-93.5205
11
160.745
21
-90.297
0
LINE
8
Black
10
160.745
20
-90.297
11
160.177
21
-87.0735
0
LINE
8
Black
10
160.177
20
-87.0735
11
158.54
21
-84.2387
0
LINE
8
Black
10
219.621
20
-96.4567
11
217.072
21
-98.5959
0
LINE
8
Black
10
217.072
20
-98.5959
11
213.945
21
-99.7342
0
LINE
8
Black
10
213.945
20
-99.7342
11
210.616
21
-99.7342
0
LINE
8
Black
10
210.616
20
-99.7342
11
207.489
21
-98.5959
0
LINE
8
Black
10
207.489
20
-98.5959
11
204.94
21
-96.4567
0
LINE
8
Black
10
204.94
20
-96.4567
11
203.276
21
-93.5745
0
LINE
8
Black
10
203.276
20
-93.5745
11
202.698
21
-90.297
0
LINE
8
Black
10
202.698
20
-90.297
11
203.276
21
-87.0195
0
LINE
8
Black
10
203.276
20
-87.0195
11
204.94
21
-84.1373
0
LINE
8
Black
10
204.94
20
-84.1373
11
207.489
21
-81.9981
0
LINE
8
Black
10
207.489
20
-81.9981
11
210.616
21
-80.8598
0
LINE
8
Black
10
210.616
20
-80.8598
11
213.945
21
-80.8598
0
LINE
8
Black
10
213.945
20
-80.8598
11
217.072
21
-81.9981
0
LINE
8
Black
10
217.072
20
-81.9981
11
219.621
21
-84.1373
0
LINE
8
Black
10
219.621
20
-84.1373
11
221.285
21
-87.0195
0
LINE
8
Black
10
221.285
20
-87.0195
11
221.863
21
-90.297
0
LINE
8
Black
10
221.863
20
-90.297
11
221.285
21
-93.5745
0
LINE
8
Black
10
221.285
20
-93.5745
11
219.621
21
-96.4567
0
LINE
8
Black
10
219.468
20
-84.2659
11
216.972
21
-82.1713
0
LINE
8
Black
10
216.972
20
-82.1713
11
213.91
21
-81.0568
0
LINE
8
Black
10
213.91
20
-81.0568
11
210.651
21
-81.0568
0
LINE
8
Black
10
210.651
20
-81.0568
11
207.589
21
-82.1713
0
LINE
8
Black
10
207.589
20
-82.1713
11
205.093
21
-84.2659
0
LINE
8
Black
10
205.093
20
-84.2659
11
203.464
21
-87.0879
0
LINE
8
Black
10
203.464
20
-87.0879
11
202.898
21
-90.297
0
LINE
8
Black
10
202.898
20
-90.297
11
203.464
21
-93.5061
0
LINE
8
Black
10
203.464
20
-93.5061
11
205.093
21
-96.3281
0
LINE
8
Black
10
205.093
20
-96.3281
11
207.589
21
-98.4227
0
LINE
8
Black
10
207.589
20
-98.4227
11
210.651
21
-99.5372
0
LINE
8
Black
10
210.651
20
-99.5372
11
213.91
21
-99.5372
0
LINE
8
Black
10
213.91
20
-99.5372
11
216.972
21
-98.4227
0
LINE
8
Black
10
216.972
20
-98.4227
11
219.468
21
-96.3281
0
LINE
8
Black
10
219.468
20
-96.3281
11
221.097
21
-93.5061
0
LINE
8
Black
10
221.097
20
-93.5061
11
221.663
21
-90.297
0
LINE
8
Black
10
221.663
20
-90.297
11
221.097
21
-87.0879
0
LINE
8
Black
10
221.097
20
-87.0879
11
219.468
21
-84.2659
0
LINE
8
Black
10
242.469
20
-96.4464
11
239.924
21
-98.5821
0
LINE
8
Black
10
239.924
20
-98.5821
11
236.802
21
-99.7185
0
LINE
8
Black
10
236.802
20
-99.7185
11
233.479
21
-99.7185
0
LINE
8
Black
10
233.479
20
-99.7185
11
230.357
21
-98.5821
0
LINE
8
Black
10
230.357
20
-98.5821
11
227.812
21
-96.4464
0
LINE
8
Black
10
227.812
20
-96.4464
11
226.151
21
-93.569
0
LINE
8
Black
10
226.151
20
-93.569
11
225.574
21
-90.297
0
LINE
8
Black
10
225.574
20
-90.297
11
226.151
21
-87.025
0
LINE
8
Black
10
226.151
20
-87.025
11
227.812
21
-84.1476
0
LINE
8
Black
10
227.812
20
-84.1476
11
230.357
21
-82.0119
0
LINE
8
Black
10
230.357
20
-82.0119
11
233.479
21
-80.8755
0
LINE
8
Black
10
233.479
20
-80.8755
11
236.802
21
-80.8755
0
LINE
8
Black
10
236.802
20
-80.8755
11
239.924
21
-82.0119
0
LINE
8
Black
10
239.924
20
-82.0119
11
242.469
21
-84.1476
0
LINE
8
Black
10
242.469
20
-84.1476
11
244.13
21
-87.025
0
LINE
8
Black
10
244.13
20
-87.025
11
244.707
21
-90.297
0
LINE
8
Black
10
244.707
20
-90.297
11
244.13
21
-93.569
0
LINE
8
Black
10
244.13
20
-93.569
11
242.469
21
-96.4464
0
LINE
8
Black
10
242.316
20
-84.2761
11
239.824
21
-82.1851
0
LINE
8
Black
10
239.824
20
-82.1851
11
236.767
21
-81.0725
0
LINE
8
Black
10
236.767
20
-81.0725
11
233.514
21
-81.0725
0
LINE
8
Black
10
233.514
20
-81.0725
11
230.457
21
-82.1851
0
LINE
8
Black
10
230.457
20
-82.1851
11
227.965
21
-84.2761
0
LINE
8
Black
10
227.965
20
-84.2761
11
226.339
21
-87.0934
0
LINE
8
Black
10
226.339
20
-87.0934
11
225.774
21
-90.297
0
LINE
8
Black
10
225.774
20
-90.297
11
226.339
21
-93.5006
0
LINE
8
Black
10
226.339
20
-93.5006
11
227.965
21
-96.3179
0
LINE
8
Black
10
227.965
20
-96.3179
11
230.457
21
-98.4089
0
LINE
8
Black
10
230.457
20
-98.4089
11
233.514
21
-99.5215
0
LINE
8
Black
10
233.514
20
-99.5215
11
236.767
21
-99.5215
0
LINE
8
Black
10
236.767
20
-99.5215
11
239.824
21
-98.4089
0
LINE
8
Black
10
239.824
20
-98.4089
11
242.316
21
-96.3179
0
LINE
8
Black
10
242.316
20
-96.3179
11
243.942
21
-93.5006
0
LINE
8
Black
10
243.942
20
-93.5006
11
244.507
21
-90.297
0
LINE
8
Black
10
244.507
20
-90.297
11
243.942
21
-87.0934
0
LINE
8
Black
10
243.942
20
-87.0934
11
242.316
21
-84.2761
0
LINE
8
Black
10
135.664
20
-92.8903
11
134.485
21
-93.8792
0
LINE
8
Black
10
134.485
20
-93.8792
11
133.04
21
-94.4054
0
LINE
8
Black
10
133.04
20
-94.4054
11
131.501
21
-94.4054
0
LINE
8
Black
10
131.501
20
-94.4054
11
130.056
21
-93.8792
0
LINE
8
Black
10
130.056
20
-93.8792
11
128.877
21
-92.8903
0
LINE
8
Black
10
128.877
20
-92.8903
11
128.108
21
-91.558
0
LINE
8
Black
10
128.108
20
-91.558
11
127.841
21
-90.043
0
LINE
8
Black
10
127.841
20
-90.043
11
128.108
21
-88.528
0
LINE
8
Black
10
128.108
20
-88.528
11
128.877
21
-87.1957
0
LINE
8
Black
10
128.877
20
-87.1957
11
130.056
21
-86.2068
0
LINE
8
Black
10
130.056
20
-86.2068
11
131.501
21
-85.6806
0
LINE
8
Black
10
131.501
20
-85.6806
11
133.04
21
-85.6806
0
LINE
8
Black
10
133.04
20
-85.6806
11
134.485
21
-86.2068
0
LINE
8
Black
10
134.485
20
-86.2068
11
135.664
21
-87.1957
0
LINE
8
Black
10
135.664
20
-87.1957
11
136.433
21
-88.528
0
LINE
8
Black
10
136.433
20
-88.528
11
136.7
21
-90.043
0
LINE
8
Black
10
136.7
20
-90.043
11
136.433
21
-91.558
0
LINE
8
Black
10
136.433
20
-91.558
11
135.664
21
-92.8903
0
LINE
8
Black
10
135.511
20
-87.3242
11
134.385
21
-86.38
0
LINE
8
Black
10
134.385
20
-86.38
11
133.005
21
-85.8776
0
LINE
8
Black
10
133.005
20
-85.8776
11
131.536
21
-85.8776
0
LINE
8
Black
10
131.536
20
-85.8776
11
130.156
21
-86.38
0
LINE
8
Black
10
130.156
20
-86.38
11
129.03
21
-87.3242
0
LINE
8
Black
10
129.03
20
-87.3242
11
128.296
21
-88.5964
0
LINE
8
Black
10
128.296
20
-88.5964
11
128.041
21
-90.043
0
LINE
8
Black
10
128.041
20
-90.043
11
128.296
21
-91.4896
0
LINE
8
Black
10
128.296
20
-91.4896
11
129.03
21
-92.7618
0
LINE
8
Black
10
129.03
20
-92.7618
11
130.156
21
-93.706
0
LINE
8
Black
10
130.156
20
-93.706
11
131.536
21
-94.2084
0
LINE
8
Black
10
131.536
20
-94.2084
11
133.005
21
-94.2084
0
LINE
8
Black
10
133.005
20
-94.2084
11
134.385
21
-93.706
0
LINE
8
Black
10
134.385
20
-93.706
11
135.511
21
-92.7618
0
LINE
8
Black
10
135.511
20
-92.7618
11
136.245
21
-91.4896
0
LINE
8
Black
10
136.245
20
-91.4896
11
136.5
21
-90.043
0
LINE
8
Black
10
136.5
20
-90.043
11
136.245
21
-88.5964
0
LINE
8
Black
10
136.245
20
-88.5964
11
135.511
21
-87.3242
0
LINE
8
Black
10
196.373
20
-92.7435
11
195.282
21
-93.6594
0
LINE
8
Black
10
195.282
20
-93.6594
11
193.943
21
-94.1467
0
LINE
8
Black
10
193.943
20
-94.1467
11
192.518
21
-94.1467
0
LINE
8
Black
10
192.518
20
-94.1467
11
191.179
21
-93.6594
0
LINE
8
Black
10
191.179
20
-93.6594
11
190.088
21
-92.7435
0
LINE
8
Black
10
190.088
20
-92.7435
11
189.375
21
-91.5096
0
LINE
8
Black
10
189.375
20
-91.5096
11
189.128
21
-90.1065
0
LINE
8
Black
10
189.128
20
-90.1065
11
189.375
21
-88.7034
0
LINE
8
Black
10
189.375
20
-88.7034
11
190.088
21
-87.4695
0
LINE
8
Black
10
190.088
20
-87.4695
11
191.179
21
-86.5536
0
LINE
8
Black
10
191.179
20
-86.5536
11
192.518
21
-86.0663
0
LINE
8
Black
10
192.518
20
-86.0663
11
193.943
21
-86.0663
0
LINE
8
Black
10
193.943
20
-86.0663
11
195.282
21
-86.5536
0
LINE
8
Black
10
195.282
20
-86.5536
11
196.373
21
-87.4695
0
LINE
8
Black
10
196.373
20
-87.4695
11
197.086
21
-88.7034
0
LINE
8
Black
10
197.086
20
-88.7034
11
197.333
21
-90.1065
0
LINE
8
Black
10
197.333
20
-90.1065
11
197.086
21
-91.5096
0
LINE
8
Black
10
197.086
20
-91.5096
11
196.373
21
-92.7435
0
LINE
8
Black
10
196.22
20
-87.598
11
195.182
21
-86.7268
0
LINE
8
Black
10
195.182
20
-86.7268
11
193.908
21
-86.2633
0
LINE
8
Black
10
193.908
20
-86.2633
11
192.553
21
-86.2633
0
LINE
8
Black
10
192.553
20
-86.2633
11
191.279
21
-86.7268
0
LINE
8
Black
10
191.279
20
-86.7268
11
190.241
21
-87.598
0
LINE
8
Black
10
190.241
20
-87.598
11
189.563
21
-88.7718
0
LINE
8
Black
10
189.563
20
-88.7718
11
189.328
21
-90.1065
0
LINE
8
Black
10
189.328
20
-90.1065
11
189.563
21
-91.4412
0
LINE
8
Black
10
189.563
20
-91.4412
11
190.241
21
-92.615
0
LINE
8
Black
10
190.241
20
-92.615
11
191.279
21
-93.4862
0
LINE
8
Black
10
191.279
20
-93.4862
11
192.553
21
-93.9497
0
LINE
8
Black
10
192.553
20
-93.9497
11
193.908
21
-93.9497
0
LINE
8
Black
10
193.908
20
-93.9497
11
195.182
21
-93.4862
0
LINE
8
Black
10
195.182
20
-93.4862
11
196.22
21
-92.615
0
LINE
8
Black
10
196.22
20
-92.615
11
196.898
21
-91.4412
0
LINE
8
Black
10
196.898
20
-91.4412
11
197.133
21
-90.1065
0
LINE
8
Black
10
197.133
20
-90.1065
11
196.898
21
-88.7718
0
LINE
8
Black
10
196.898
20
-88.7718
11
196.22
21
-87.598
0
LINE
8
Black
10
69.2312
20
-68.3791
11
68.7625
21
-68.7724
0
LINE
8
Black
10
68.7625
20
-68.7724
11
68.1875
21
-68.9817
0
LINE
8
Black
10
68.1875
20
-68.9817
11
67.5755
21
-68.9817
0
LINE
8
Black
10
67.5755
20
-68.9817
11
67.0005
21
-68.7724
0
LINE
8
Black
10
67.0005
20
-68.7724
11
66.5318
21
-68.3791
0
LINE
8
Black
10
66.5318
20
-68.3791
11
66.2258
21
-67.8491
0
LINE
8
Black
10
66.2258
20
-67.8491
11
66.1195
21
-67.2465
0
LINE
8
Black
10
66.1195
20
-67.2465
11
66.2258
21
-66.6439
0
LINE
8
Black
10
66.2258
20
-66.6439
11
66.5318
21
-66.1139
0
LINE
8
Black
10
66.5318
20
-66.1139
11
67.0005
21
-65.7206
0
LINE
8
Black
10
67.0005
20
-65.7206
11
67.5755
21
-65.5113
0
LINE
8
Black
10
67.5755
20
-65.5113
11
68.1875
21
-65.5113
0
LINE
8
Black
10
68.1875
20
-65.5113
11
68.7625
21
-65.7206
0
LINE
8
Black
10
68.7625
20
-65.7206
11
69.2312
21
-66.1139
0
LINE
8
Black
10
69.2312
20
-66.1139
11
69.5372
21
-66.6439
0
LINE
8
Black
10
69.5372
20
-66.6439
11
69.6435
21
-67.2465
0
LINE
8
Black
10
69.6435
20
-67.2465
11
69.5372
21
-67.8491
0
LINE
8
Black
10
69.5372
20
-67.8491
11
69.2312
21
-68.3791
0
LINE
8
Black
10
69.078
20
-66.2425
11
68.6625
21
-65.8938
0
LINE
8
Black
10
68.6625
20
-65.8938
11
68.1527
21
-65.7083
0
LINE
8
Black
10
68.1527
20
-65.7083
11
67.6103
21
-65.7083
0
LINE
8
Black
10
67.6103
20
-65.7083
11
67.1005
21
-65.8938
0
LINE
8
Black
10
67.1005
20
-65.8938
11
66.685
21
-66.2425
0
LINE
8
Black
10
66.685
20
-66.2425
11
66.4137
21
-66.7123
0
LINE
8
Black
10
66.4137
20
-66.7123
11
66.3195
21
-67.2465
0
LINE
8
Black
10
66.3195
20
-67.2465
11
66.4137
21
-67.7807
0
LINE
8
Black
10
66.4137
20
-67.7807
11
66.685
21
-68.2505
0
LINE
8
Black
10
66.685
20
-68.2505
11
67.1005
21
-68.5992
0
LINE
8
Black
10
67.1005
20
-68.5992
11
67.6103
21
-68.7847
0
LINE
8
Black
10
67.6103
20
-68.7847
11
68.1527
21
-68.7847
0
LINE
8
Black
10
68.1527
20
-68.7847
11
68.6625
21
-68.5992
0
LINE
8
Black
10
68.6625
20
-68.5992
11
69.078
21
-68.2505
0
LINE
8
Black
10
69.078
20
-68.2505
11
69.3493
21
-67.7807
0
LINE
8
Black
10
69.3493
20
-67.7807
11
69.4435
21
-67.2465
0
LINE
8
Black
10
69.4435
20
-67.2465
11
69.3493
21
-66.7123
0
LINE
8
Black
10
69.3493
20
-66.7123
11
69.078
21
-66.2425
0
LINE
8
Black
10
259.219
20
-68.3752
11
258.751
21
-68.7671
0
LINE
8
Black
10
258.751
20
-68.7671
11
258.178
21
-68.9757
0
LINE
8
Black
10
258.178
20
-68.9757
11
257.569
21
-68.9757
0
LINE
8
Black
10
257.569
20
-68.9757
11
256.996
21
-68.7671
0
LINE
8
Black
10
256.996
20
-68.7671
11
256.528
21
-68.3752
0
LINE
8
Black
10
256.528
20
-68.3752
11
256.224
21
-67.847
0
LINE
8
Black
10
256.224
20
-67.847
11
256.118
21
-67.2465
0
LINE
8
Black
10
256.118
20
-67.2465
11
256.224
21
-66.646
0
LINE
8
Black
10
256.224
20
-66.646
11
256.528
21
-66.1178
0
LINE
8
Black
10
256.528
20
-66.1178
11
256.996
21
-65.7259
0
LINE
8
Black
10
256.996
20
-65.7259
11
257.569
21
-65.5173
0
LINE
8
Black
10
257.569
20
-65.5173
11
258.178
21
-65.5173
0
LINE
8
Black
10
258.178
20
-65.5173
11
258.751
21
-65.7259
0
LINE
8
Black
10
258.751
20
-65.7259
11
259.219
21
-66.1178
0
LINE
8
Black
10
259.219
20
-66.1178
11
259.523
21
-66.646
0
LINE
8
Black
10
259.523
20
-66.646
11
259.629
21
-67.2465
0
LINE
8
Black
10
259.629
20
-67.2465
11
259.523
21
-67.847
0
LINE
8
Black
10
259.523
20
-67.847
11
259.219
21
-68.3752
0
LINE
8
Black
10
259.065
20
-66.2464
11
258.651
21
-65.8991
0
LINE
8
Black
10
258.651
20
-65.8991
11
258.144
21
-65.7143
0
LINE
8
Black
10
258.144
20
-65.7143
11
257.603
21
-65.7143
0
LINE
8
Black
10
257.603
20
-65.7143
11
257.096
21
-65.8991
0
LINE
8
Black
10
257.096
20
-65.8991
11
256.682
21
-66.2464
0
LINE
8
Black
10
256.682
20
-66.2464
11
256.411
21
-66.7144
0
LINE
8
Black
10
256.411
20
-66.7144
11
256.318
21
-67.2465
0
LINE
8
Black
10
256.318
20
-67.2465
11
256.411
21
-67.7786
0
LINE
8
Black
10
256.411
20
-67.7786
11
256.682
21
-68.2466
0
LINE
8
Black
10
256.682
20
-68.2466
11
257.096
21
-68.5939
0
LINE
8
Black
10
257.096
20
-68.5939
11
257.603
21
-68.7787
0
LINE
8
Black
10
257.603
20
-68.7787
11
258.144
21
-68.7787
0
LINE
8
Black
10
258.144
20
-68.7787
11
258.651
21
-68.5939
0
LINE
8
Black
10
258.651
20
-68.5939
11
259.065
21
-68.2466
0
LINE
8
Black
10
259.065
20
-68.2466
11
259.336
21
-67.7786
0
LINE
8
Black
10
259.336
20
-67.7786
11
259.429
21
-67.2465
0
LINE
8
Black
10
259.429
20
-67.2465
11
259.336
21
-66.7144
0
LINE
8
Black
10
259.336
20
-66.7144
11
259.065
21
-66.2464
  0
ENDSEC
  0
EOF
