<?xml version="1.0" standalone="no"?>
 <!DOCTYPE svg PUBLIC "-//W3C//DTD SVG 1.1//EN" 
 "http://www.w3.org/Graphics/SVG/1.1/DTD/svg11.dtd"> 
<svg
  xmlns:svg="http://www.w3.org/2000/svg"
  xmlns="http://www.w3.org/2000/svg"
  xmlns:xlink="http://www.w3.org/1999/xlink"
  version="1.1"
  width="279.4000mm" height="215.9000mm" viewBox="0.0000 0.0000 279.4000 215.9000">
<title>SVG Image created as IN12_carrier-User_5.svg date 2023/11/30 20:18:15 </title>
  <desc>Image generated by PCBNEW </desc>
<g style="fill:#000000; fill-opacity:1.0000;stroke:#000000; stroke-opacity:1.0000;
stroke-linecap:round; stroke-linejoin:round;"
 transform="translate(0 0) scale(1 1)">
</g>
<g style="fill:#000000; fill-opacity:0.0; 
stroke:#000000; stroke-width:0.0000; stroke-opacity:1; 
stroke-linecap:round; stroke-linejoin:round;">
</g>
<g style="fill:#000000; fill-opacity:0.0; 
stroke:#000000; stroke-width:0.1500; stroke-opacity:1; 
stroke-linecap:round; stroke-linejoin:round;">
<circle cx="168.5965" cy="22.6314" r="1.6000" /> 
<circle cx="38.2635" cy="22.6440" r="1.6000" /> 
<circle cx="101.9302" cy="22.6440" r="1.6000" /> 
</g>
<g style="fill:#000000; fill-opacity:0.0; 
stroke:#000000; stroke-width:0.1000; stroke-opacity:1; 
stroke-linecap:round; stroke-linejoin:round;">
<path d="M241.6135 75.9940
L241.6135 13.2940
" />
</g>
<g style="fill:#000000; fill-opacity:0.0; 
stroke:#000000; stroke-width:0.1500; stroke-opacity:1; 
stroke-linecap:round; stroke-linejoin:round;">
<circle cx="38.2635" cy="66.6440" r="1.6000" /> 
<circle cx="232.2631" cy="22.6314" r="1.6000" /> 
<circle cx="232.2635" cy="66.6440" r="1.6000" /> 
</g>
<g style="fill:#000000; fill-opacity:0.0; 
stroke:#000000; stroke-width:0.1000; stroke-opacity:1; 
stroke-linecap:round; stroke-linejoin:round;">
<path d="M241.6135 13.2940
L28.9135 13.2940
" />
<path d="M28.9135 75.9940
L241.6135 75.9940
" />
</g>
<g style="fill:#000000; fill-opacity:0.0; 
stroke:#000000; stroke-width:0.1500; stroke-opacity:1; 
stroke-linecap:round; stroke-linejoin:round;">
<circle cx="168.5965" cy="66.6440" r="1.6000" /> 
</g>
<g style="fill:#000000; fill-opacity:0.0; 
stroke:#000000; stroke-width:0.1000; stroke-opacity:1; 
stroke-linecap:round; stroke-linejoin:round;">
<path d="M28.9135 13.2940
L28.9135 75.9940
" />
</g>
<g style="fill:#000000; fill-opacity:0.0; 
stroke:#000000; stroke-width:0.1500; stroke-opacity:1; 
stroke-linecap:round; stroke-linejoin:round;">
<circle cx="101.9302" cy="66.6440" r="1.6000" /> 
</g>
<g style="fill:#000000; fill-opacity:0.0; 
stroke:#000000; stroke-width:0.1000; stroke-opacity:1; 
stroke-linecap:round; stroke-linejoin:round;">
<path d="M28.9135 75.9940
L28.9135 138.6940
" />
<circle cx="168.6052" cy="111.5060" r="3.8100" /> 
</g>
<g style="fill:#000000; fill-opacity:0.0; 
stroke:#000000; stroke-width:0.1500; stroke-opacity:1; 
stroke-linecap:round; stroke-linejoin:round;">
<circle cx="101.9302" cy="129.3440" r="1.6000" /> 
<circle cx="232.2635" cy="129.3440" r="1.6000" /> 
</g>
<g style="fill:#000000; fill-opacity:0.0; 
stroke:#000000; stroke-width:0.1000; stroke-opacity:1; 
stroke-linecap:round; stroke-linejoin:round;">
<circle cx="101.9302" cy="103.1748" r="3.8100" /> 
</g>
<g style="fill:#000000; fill-opacity:0.0; 
stroke:#000000; stroke-width:0.1500; stroke-opacity:1; 
stroke-linecap:round; stroke-linejoin:round;">
<circle cx="232.2631" cy="85.3314" r="1.6000" /> 
<circle cx="38.2635" cy="129.3440" r="1.6000" /> 
<circle cx="168.5965" cy="129.3440" r="1.6000" /> 
</g>
<g style="fill:#000000; fill-opacity:0.0; 
stroke:#000000; stroke-width:0.1000; stroke-opacity:1; 
stroke-linecap:round; stroke-linejoin:round;">
<path d="M28.9135 138.6940
L241.6135 138.6940
" />
<path d="M241.6135 138.6940
L241.6135 75.9940
" />
<path d="M241.6135 75.9940
L28.9135 75.9940
" />
<circle cx="101.9302" cy="111.5060" r="3.8100" /> 
</g>
<g style="fill:#000000; fill-opacity:0.0; 
stroke:#000000; stroke-width:0.1500; stroke-opacity:1; 
stroke-linecap:round; stroke-linejoin:round;">
<circle cx="168.5965" cy="85.3314" r="1.6000" /> 
<circle cx="38.2635" cy="85.3440" r="1.6000" /> 
</g>
<g style="fill:#000000; fill-opacity:0.0; 
stroke:#000000; stroke-width:0.1000; stroke-opacity:1; 
stroke-linecap:round; stroke-linejoin:round;">
<circle cx="168.6052" cy="103.1748" r="3.8100" /> 
</g>
<g style="fill:#000000; fill-opacity:0.0; 
stroke:#000000; stroke-width:0.1500; stroke-opacity:1; 
stroke-linecap:round; stroke-linejoin:round;">
<circle cx="101.9302" cy="85.3440" r="1.6000" /> 
</g>
<g style="fill:#000000; fill-opacity:0.0; 
stroke:#000000; stroke-width:0.1000; stroke-opacity:1; 
stroke-linecap:round; stroke-linejoin:round;">
<path d="M46.7358 118.0940 A13.4428 13.4428 0.0 0 0 68.2358 118.0940" />
<path d="M68.2358 96.5940 A13.4428 13.4428 0.0 0 0 46.7358 96.5940" />
<path d="M68.2358 96.5940
L68.2358 118.0940
" />
<path d="M46.7358 118.0940
L46.7358 96.5940
" />
<path d="M68.9580 118.0940 A13.4428 13.4428 0.0 0 0 90.4580 118.0940" />
<path d="M90.4580 96.5940 A13.4428 13.4428 0.0 0 0 68.9580 96.5940" />
<path d="M90.4580 96.5940
L90.4580 118.0940
" />
<path d="M68.9580 118.0940
L68.9580 96.5940
" />
<path d="M113.4024 118.0940 A13.4428 13.4428 0.0 0 0 134.9024 118.0940" />
<path d="M134.9024 96.5940 A13.4428 13.4428 0.0 0 0 113.4024 96.5940" />
<path d="M134.9024 96.5940
L134.9024 118.0940
" />
<path d="M113.4024 118.0940
L113.4024 96.5940
" />
<path d="M135.6246 118.0940 A13.4428 13.4428 0.0 0 0 157.1246 118.0940" />
<path d="M157.1246 96.5940 A13.4428 13.4428 0.0 0 0 135.6246 96.5940" />
<path d="M157.1246 96.5940
L157.1246 118.0940
" />
<path d="M135.6246 118.0940
L135.6246 96.5940
" />
<path d="M180.0691 118.0940 A13.4428 13.4428 0.0 0 0 201.5691 118.0940" />
<path d="M201.5691 96.5940 A13.4428 13.4428 0.0 0 0 180.0691 96.5940" />
<path d="M201.5691 96.5940
L201.5691 118.0940
" />
<path d="M180.0691 118.0940
L180.0691 96.5940
" />
<path d="M202.2913 118.0940 A13.4428 13.4428 0.0 0 0 223.7913 118.0940" />
<path d="M223.7913 96.5940 A13.4428 13.4428 0.0 0 0 202.2913 96.5940" />
<path d="M223.7913 96.5940
L223.7913 118.0940
" />
<path d="M202.2913 118.0940
L202.2913 96.5940
" />
<path d="M147.3560 86.2586
L147.3560 83.3586
" />
<path d="M148.6560 86.2586
L147.3560 86.2586
" />
<path d="M147.3560 83.3586
L148.6560 83.3586
" />
<path d="M148.6560 83.3586
L148.6560 86.2586
" />
<path d="M145.2224 86.2586
L145.2224 83.3586
" />
<path d="M146.5224 86.2586
L145.2224 86.2586
" />
<path d="M145.2224 83.3586
L146.5224 83.3586
" />
<path d="M146.5224 83.3586
L146.5224 86.2586
" />
<path d="M143.0888 86.2586
L143.0888 83.3586
" />
<path d="M144.3888 86.2586
L143.0888 86.2586
" />
<path d="M143.0888 83.3586
L144.3888 83.3586
" />
<path d="M144.3888 83.3586
L144.3888 86.2586
" />
<path d="M141.0568 86.2586
L141.0568 83.3586
" />
<path d="M142.3568 86.2586
L141.0568 86.2586
" />
<path d="M141.0568 83.3586
L142.3568 83.3586
" />
<path d="M142.3568 83.3586
L142.3568 86.2586
" />
<path d="M138.9232 86.2586
L138.9232 83.3586
" />
<path d="M140.2232 86.2586
L138.9232 86.2586
" />
<path d="M138.9232 83.3586
L140.2232 83.3586
" />
<path d="M140.2232 83.3586
L140.2232 86.2586
" />
<path d="M136.8404 86.2586
L136.8404 83.3586
" />
<path d="M138.1404 86.2586
L136.8404 86.2586
" />
<path d="M136.8404 83.3586
L138.1404 83.3586
" />
<path d="M138.1404 83.3586
L138.1404 86.2586
" />
<path d="M134.6052 86.2586
L134.6052 83.3586
" />
<path d="M135.9052 86.2586
L134.6052 86.2586
" />
<path d="M134.6052 83.3586
L135.9052 83.3586
" />
<path d="M135.9052 83.3586
L135.9052 86.2586
" />
<path d="M132.5732 86.2586
L132.5732 83.3586
" />
<path d="M133.8732 86.2586
L132.5732 86.2586
" />
<path d="M132.5732 83.3586
L133.8732 83.3586
" />
<path d="M133.8732 83.3586
L133.8732 86.2586
" />
<path d="M130.3380 86.2586
L130.3380 83.3586
" />
<path d="M131.6380 86.2586
L130.3380 86.2586
" />
<path d="M130.3380 83.3586
L131.6380 83.3586
" />
<path d="M131.6380 83.3586
L131.6380 86.2586
" />
<path d="M128.3060 86.2586
L128.3060 83.3586
" />
<path d="M129.6060 86.2586
L128.3060 86.2586
" />
<path d="M128.3060 83.3586
L129.6060 83.3586
" />
<path d="M129.6060 83.3586
L129.6060 86.2586
" />
<path d="M126.2232 86.2586
L126.2232 83.3586
" />
<path d="M127.5232 86.2586
L126.2232 86.2586
" />
<path d="M126.2232 83.3586
L127.5232 83.3586
" />
<path d="M127.5232 83.3586
L127.5232 86.2586
" />
<path d="M124.0134 86.2586
L124.0134 83.3586
" />
<path d="M125.3134 86.2586
L124.0134 86.2586
" />
<path d="M124.0134 83.3586
L125.3134 83.3586
" />
<path d="M125.3134 83.3586
L125.3134 86.2586
" />
<g >
</g>
<g >
</g>
<g >
</g>
<g >
</g>
<g >
</g>
<g >
</g>
<g >
</g>
<g >
</g>
<g >
</g>
<g >
</g>
<g >
</g>
<g >
</g>
<g >
</g>
<g >
</g>
<g >
</g>
<g >
</g>
<g >
</g>
<g >
</g>
<g >
</g>
<g >
</g>
<g >
</g>
<g >
</g>
<g >
</g>
<g >
</g>
<g >
</g>
<g >
</g>
<g >
</g>
<g >
</g>
<g >
</g>
<g >
</g>
<g >
</g>
<g >
</g>
<g >
</g>
<g >
</g>
<g >
</g>
<g >
</g>
<g >
</g>
<g >
</g>
<g >
</g>
<g >
</g>
<g >
</g>
<g >
</g>
<g >
</g>
<g >
</g>
<g >
</g>
<g >
</g>
<g >
</g>
<g >
</g>
<g >
</g>
<g >
</g>
<g >
</g>
<g >
</g>
<g >
</g>
<g >
</g>
<g >
</g>
<g >
</g>
<g >
</g>
<g >
</g>
<g >
</g>
<g >
</g>
<g >
</g>
<g >
</g>
<g >
</g>
<g >
</g>
<g >
</g>
<g >
</g>
<g >
</g>
<g >
</g>
<g >
</g>
<g >
</g>
<g >
</g>
<g >
</g>
<g >
</g>
<g >
</g>
<g >
</g>
<g >
</g>
<g >
</g>
<g >
</g>
<g >
</g>
<g >
</g>
<g >
</g>
<g >
</g>
<g >
</g>
<g >
</g>
<g >
</g>
<g >
</g>
<g >
</g>
<g >
</g>
<g >
</g>
<g >
</g>
<g >
</g>
<g >
</g>
<g >
</g>
<g >
</g>
<g >
</g>
<g >
</g>
<g >
</g>
<g >
</g>
<g >
</g>
<g >
</g>
<g >
</g>
<g >
</g>
<g >
</g>
<g >
</g>
<g >
</g>
<g >
</g>
<g >
</g>
<g >
</g>
<g >
</g>
<g >
</g>
<g >
</g>
<g >
</g>
<g >
</g>
<g >
</g>
<g >
</g>
<g >
</g>
<g >
</g>
<g >
</g>
<g >
</g>
<g >
</g>
<g >
</g>
<g >
</g>
<g >
</g>
<g >
</g>
<g >
</g>
<g >
</g>
<g >
</g>
<g >
</g>
<g >
</g>
<g >
</g>
<g >
</g>
<g >
</g>
<g >
</g>
<g >
</g>
<g >
</g>
<g >
</g>
<g >
</g>
<g >
</g>
<g >
</g>
<g >
</g>
<g >
</g>
<g >
</g>
<g >
</g>
<g >
</g>
<g >
</g>
<g >
</g>
<g >
</g>
<g >
</g>
<g >
</g>
<g >
</g>
<g >
</g>
<g >
</g>
<g >
</g>
<g >
</g>
<g >
</g>
<g >
</g>
<g >
</g>
<g >
</g>
<g >
</g>
<g >
</g>
<g >
</g>
<g >
</g>
<g >
</g>
<g >
</g>
<g >
</g>
<g >
</g>
<g >
</g>
<g >
</g>
<g >
</g>
<g >
</g>
<g >
</g>
<g >
</g>
<g >
</g>
<g >
</g>
<g >
</g>
<g >
</g>
<g >
</g>
<g >
</g>
<g >
</g>
<g >
</g>
<g >
</g>
<g >
</g>
<g >
</g>
<g >
</g>
<g >
</g>
<g >
</g>
<g >
</g>
<g >
</g>
<g >
</g>
<g >
</g>
<g >
</g>
<g >
</g>
<g >
</g>
<g >
</g>
<g >
</g>
<g >
</g>
<g >
</g>
<g >
</g>
<g >
</g>
<g >
</g>
<g >
</g>
<g >
</g>
<g >
</g>
<g >
</g>
<g >
</g>
<g >
</g>
<g >
</g>
<g >
</g>
<g >
</g>
<g >
</g>
<g >
</g>
<g >
</g>
<g >
</g>
<g >
</g>
<g >
</g>
<g >
</g>
<g >
</g>
<g >
</g>
<g >
</g>
<g >
</g>
<g >
</g>
<g >
</g>
<g >
</g>
<g >
</g>
<g >
</g>
<g >
</g>
<g >
</g>
</g> 
</svg>
