<?xml version="1.0" standalone="no"?>
 <!DOCTYPE svg PUBLIC "-//W3C//DTD SVG 1.1//EN" 
 "http://www.w3.org/Graphics/SVG/1.1/DTD/svg11.dtd"> 
<svg
  xmlns:svg="http://www.w3.org/2000/svg"
  xmlns="http://www.w3.org/2000/svg"
  xmlns:xlink="http://www.w3.org/1999/xlink"
  version="1.1"
  width="279.4000mm" height="215.9000mm" viewBox="0.0000 0.0000 279.4000 215.9000">
<title>SVG Image created as IN12_carrier-User_5.svg date 2023/11/10 20:16:05 </title>
  <desc>Image generated by PCBNEW </desc>
<g style="fill:#000000; fill-opacity:1.0000;stroke:#000000; stroke-opacity:1.0000;
stroke-linecap:round; stroke-linejoin:round;"
 transform="translate(0 0) scale(1 1)">
</g>
<g style="fill:#000000; fill-opacity:0.0; 
stroke:#000000; stroke-width:0.0000; stroke-opacity:1; 
stroke-linecap:round; stroke-linejoin:round;">
</g>
<g style="fill:#000000; fill-opacity:0.0; 
stroke:#000000; stroke-width:0.1000; stroke-opacity:1; 
stroke-linecap:round; stroke-linejoin:round;">
<circle cx="101.9302" cy="111.5060" r="3.8100" /> 
<circle cx="101.9302" cy="103.1748" r="3.8100" /> 
<circle cx="168.6052" cy="111.5060" r="3.8100" /> 
<circle cx="168.6052" cy="103.1748" r="3.8100" /> 
</g>
<g style="fill:#000000; fill-opacity:0.0; 
stroke:#000000; stroke-width:0.1500; stroke-opacity:1; 
stroke-linecap:round; stroke-linejoin:round;">
<circle cx="38.2635" cy="28.9940" r="1.6000" /> 
<circle cx="101.9302" cy="28.9940" r="1.6000" /> 
<circle cx="38.2635" cy="72.9940" r="1.6000" /> 
</g>
<g style="fill:#000000; fill-opacity:0.0; 
stroke:#000000; stroke-width:0.1000; stroke-opacity:1; 
stroke-linecap:round; stroke-linejoin:round;">
<path d="M32.0885 79.1690
L238.4385 79.1690
" />
</g>
<g style="fill:#000000; fill-opacity:0.0; 
stroke:#000000; stroke-width:0.1500; stroke-opacity:1; 
stroke-linecap:round; stroke-linejoin:round;">
<circle cx="232.2631" cy="28.9814" r="1.6000" /> 
</g>
<g style="fill:#000000; fill-opacity:0.0; 
stroke:#000000; stroke-width:0.1000; stroke-opacity:1; 
stroke-linecap:round; stroke-linejoin:round;">
<path d="M238.4385 79.1690
L238.4385 22.8190
" />
<path d="M32.0885 22.8190
L32.0885 79.1690
" />
<path d="M238.4385 22.8190
L32.0885 22.8190
" />
</g>
<g style="fill:#000000; fill-opacity:0.0; 
stroke:#000000; stroke-width:0.1500; stroke-opacity:1; 
stroke-linecap:round; stroke-linejoin:round;">
<circle cx="232.2635" cy="72.9940" r="1.6000" /> 
<circle cx="168.5965" cy="72.9940" r="1.6000" /> 
<circle cx="101.9302" cy="72.9940" r="1.6000" /> 
<circle cx="168.5965" cy="28.9814" r="1.6000" /> 
</g>
<g style="fill:#000000; fill-opacity:0.0; 
stroke:#000000; stroke-width:0.1000; stroke-opacity:1; 
stroke-linecap:round; stroke-linejoin:round;">
<path d="M238.4385 135.5190
L238.4385 79.1690
" />
<path d="M32.0885 135.5190
L238.4385 135.5190
" />
<path d="M32.0885 79.1690
L32.0885 135.5190
" />
<path d="M238.4385 79.1690
L32.0885 79.1690
" />
</g>
<g style="fill:#000000; fill-opacity:0.0; 
stroke:#000000; stroke-width:0.1500; stroke-opacity:1; 
stroke-linecap:round; stroke-linejoin:round;">
<circle cx="232.2635" cy="129.3440" r="1.6000" /> 
<circle cx="232.2631" cy="85.3314" r="1.6000" /> 
<circle cx="168.5965" cy="85.3314" r="1.6000" /> 
<circle cx="168.5965" cy="129.3440" r="1.6000" /> 
<circle cx="101.9302" cy="129.3440" r="1.6000" /> 
<circle cx="101.9302" cy="85.3440" r="1.6000" /> 
<circle cx="38.2635" cy="85.3440" r="1.6000" /> 
<circle cx="38.2635" cy="129.3440" r="1.6000" /> 
</g>
<g style="fill:#000000; fill-opacity:0.0; 
stroke:#000000; stroke-width:0.1000; stroke-opacity:1; 
stroke-linecap:round; stroke-linejoin:round;">
<path d="M47.1048 117.7250 A12.9764 12.9764 0.0 0 0 67.8589 117.7250" />
<path d="M67.8668 96.9630 A12.9764 12.9764 0.0 0 0 47.1126 96.9630" />
<path d="M67.8668 96.9630
L67.8668 117.7250
" />
<path d="M47.1048 117.7250
L47.1048 96.9630
" />
<path d="M69.3270 117.7250 A12.9764 12.9764 0.0 0 0 90.0811 117.7250" />
<path d="M90.0890 96.9630 A12.9764 12.9764 0.0 0 0 69.3349 96.9630" />
<path d="M90.0890 96.9630
L90.0890 117.7250
" />
<path d="M69.3270 117.7250
L69.3270 96.9630
" />
<path d="M113.7714 117.7250 A12.9764 12.9764 0.0 0 0 134.5255 117.7250" />
<path d="M134.5334 96.9630 A12.9764 12.9764 0.0 0 0 113.7793 96.9630" />
<path d="M134.5334 96.9630
L134.5334 117.7250
" />
<path d="M113.7714 117.7250
L113.7714 96.9630
" />
<path d="M180.4381 117.7250 A12.9764 12.9764 0.0 0 0 201.1922 117.7250" />
<path d="M201.2001 96.9630 A12.9764 12.9764 0.0 0 0 180.4460 96.9630" />
<path d="M201.2001 96.9630
L201.2001 117.7250
" />
<path d="M180.4381 117.7250
L180.4381 96.9630
" />
<path d="M202.6603 117.7250 A12.9764 12.9764 0.0 0 0 223.4144 117.7250" />
<path d="M223.4223 96.9630 A12.9764 12.9764 0.0 0 0 202.6682 96.9630" />
<path d="M223.4223 96.9630
L223.4223 117.7250
" />
<path d="M202.6603 117.7250
L202.6603 96.9630
" />
<path d="M135.9936 117.7250 A12.9764 12.9764 0.0 0 0 156.7478 117.7250" />
<path d="M156.7556 96.9630 A12.9764 12.9764 0.0 0 0 136.0015 96.9630" />
<path d="M156.7556 96.9630
L156.7556 117.7250
" />
<path d="M135.9936 117.7250
L135.9936 96.9630
" />
<g >
</g>
<g >
</g>
<g >
</g>
<g >
</g>
<g >
</g>
<g >
</g>
<g >
</g>
<g >
</g>
<g >
</g>
<g >
</g>
<g >
</g>
<g >
</g>
<g >
</g>
<g >
</g>
<g >
</g>
<g >
</g>
<g >
</g>
<g >
</g>
<g >
</g>
<g >
</g>
<g >
</g>
<g >
</g>
<g >
</g>
<g >
</g>
<g >
</g>
<g >
</g>
<g >
</g>
<g >
</g>
<g >
</g>
<g >
</g>
<g >
</g>
<g >
</g>
<g >
</g>
<g >
</g>
<g >
</g>
<g >
</g>
<g >
</g>
<g >
</g>
<g >
</g>
<g >
</g>
<g >
</g>
<g >
</g>
<g >
</g>
<g >
</g>
<g >
</g>
<g >
</g>
<g >
</g>
<g >
</g>
<g >
</g>
<g >
</g>
<g >
</g>
<g >
</g>
<g >
</g>
<g >
</g>
<g >
</g>
<g >
</g>
<g >
</g>
<g >
</g>
<g >
</g>
<g >
</g>
<g >
</g>
<g >
</g>
<g >
</g>
<g >
</g>
<g >
</g>
<g >
</g>
<g >
</g>
<g >
</g>
<g >
</g>
<g >
</g>
<g >
</g>
<g >
</g>
<g >
</g>
<g >
</g>
<g >
</g>
<g >
</g>
<g >
</g>
<g >
</g>
<g >
</g>
<g >
</g>
<g >
</g>
<g >
</g>
<g >
</g>
<g >
</g>
<g >
</g>
<g >
</g>
<g >
</g>
<g >
</g>
<g >
</g>
<g >
</g>
<g >
</g>
<g >
</g>
<g >
</g>
<g >
</g>
<g >
</g>
<g >
</g>
<g >
</g>
<g >
</g>
<g >
</g>
<g >
</g>
<g >
</g>
<g >
</g>
<g >
</g>
<g >
</g>
<g >
</g>
<g >
</g>
<g >
</g>
<g >
</g>
<g >
</g>
<g >
</g>
<g >
</g>
<g >
</g>
<g >
</g>
<g >
</g>
<g >
</g>
<g >
</g>
<g >
</g>
<g >
</g>
<g >
</g>
<g >
</g>
<g >
</g>
<g >
</g>
<g >
</g>
<g >
</g>
<g >
</g>
<g >
</g>
<g >
</g>
<g >
</g>
<g >
</g>
<g >
</g>
<g >
</g>
<g >
</g>
<g >
</g>
<g >
</g>
<g >
</g>
<g >
</g>
<g >
</g>
<g >
</g>
<g >
</g>
<g >
</g>
<g >
</g>
<g >
</g>
<g >
</g>
<g >
</g>
<g >
</g>
<g >
</g>
<g >
</g>
<g >
</g>
<g >
</g>
<g >
</g>
<g >
</g>
<g >
</g>
<g >
</g>
<g >
</g>
<g >
</g>
<g >
</g>
<g >
</g>
<g >
</g>
<g >
</g>
<g >
</g>
<g >
</g>
<g >
</g>
<g >
</g>
<g >
</g>
<g >
</g>
<g >
</g>
<g >
</g>
<g >
</g>
<g >
</g>
<g >
</g>
<g >
</g>
<g >
</g>
<g >
</g>
<g >
</g>
<g >
</g>
<g >
</g>
<g >
</g>
<g >
</g>
<g >
</g>
<g >
</g>
<g >
</g>
<g >
</g>
<g >
</g>
<g >
</g>
<g >
</g>
<g >
</g>
<g >
</g>
<g >
</g>
<g >
</g>
<g >
</g>
<g >
</g>
<g >
</g>
<g >
</g>
<g >
</g>
<g >
</g>
<g >
</g>
<g >
</g>
<g >
</g>
<g >
</g>
<g >
</g>
<g >
</g>
<g >
</g>
<g >
</g>
<g >
</g>
<g >
</g>
<g >
</g>
<g >
</g>
<g >
</g>
<g >
</g>
<g >
</g>
<g >
</g>
<g >
</g>
<g >
</g>
<g >
</g>
<g >
</g>
</g> 
</svg>
