M48
;DRILL file {KiCad 4.0.5} date Sunday, August 20, 2017 'PMt' 09:04:37 PM
;FORMAT={-:-/ absolute / metric / decimal}
FMAT,2
METRIC,TZ
T1C0.400
T2C0.500
T3C1.000
T4C3.000
%
G90
G05
M71
T1
X42.274Y-75.91
X44.99Y-90.001
X48.165Y-81.746
X52.07Y-107.188
X53.355Y-84.322
X53.355Y-85.096
X54.483Y-107.061
X54.515Y-82.127
X54.595Y-84.322
X54.595Y-85.096
X54.769Y-94.319
X56.42Y-81.492
X56.801Y-93.049
X56.928Y-85.81
X56.928Y-87.08
X58.198Y-88.731
X58.198Y-93.049
X58.96Y-91.906
X60.452Y-103.632
X60.484Y-87.207
X62.262Y-78.952
X63.024Y-70.316
X63.246Y-108.839
X63.532Y-78.952
X63.913Y-69.122
X64.548Y-100.542
X64.802Y-78.952
X66.834Y-96.478
X67.215Y-95.716
X67.723Y-94.954
X68.231Y-86.699
X68.58Y-101.854
X68.612Y-103.209
X69.374Y-93.303
X69.755Y-85.048
X71.025Y-73.11
X72.295Y-93.303
X72.549Y-95.081
X72.676Y-81.238
X72.93Y-107.781
X73.438Y-106.892
X73.819Y-94.319
X74.2Y-88.096
X74.792Y-101.081
X74.792Y-102.881
X76.486Y-74.126
X76.592Y-101.081
X76.592Y-102.881
X76.74Y-105.749
X76.881Y-92.541
X78.01Y-105.495
X78.899Y-105.241
X78.994Y-91.821
X79.28Y-108.035
X79.749Y-101.803
X79.756Y-96.647
X79.756Y-99.314
X82.169Y-106.299
X83.217Y-105.876
X84.436Y-91.271
X85.725Y-96.901
X85.725Y-104.648
X89.027Y-92.456
X89.027Y-93.726
X89.408Y-87.757
X89.916Y-99.441
X90.043Y-91.059
X91.821Y-71.12
X91.821Y-92.075
X92.456Y-99.441
X93.25Y-70.824
X93.345Y-91.059
X93.599Y-81.026
X93.599Y-84.074
X93.599Y-87.376
X93.726Y-99.441
X94.266Y-85.81
X94.673Y-92.387
X94.673Y-93.287
X95.536Y-101.812
X95.573Y-92.387
X95.573Y-93.287
X95.631Y-79.248
X95.79Y-87.08
X96.298Y-99.78
X96.425Y-106.765
X96.52Y-90.297
X96.806Y-102.574
X97.294Y-85.75
X97.536Y-84.074
X97.536Y-99.568
X97.663Y-81.026
X98.33Y-87.08
X100.362Y-87.08
X100.692Y-103.971
X102.394Y-95.97
X105.569Y-72.348
X105.569Y-73.618
X105.696Y-74.634
X111.411Y-74.888
X111.411Y-76.412
X111.538Y-73.872
X111.665Y-72.475
X115.602Y-77.047
X117.202Y-75.015
X117.507Y-96.224
X117.761Y-97.24
X117.888Y-105.114
X118.015Y-108.416
X118.523Y-83.778
X118.523Y-85.556
X119.031Y-104.352
X119.158Y-105.876
X119.158Y-109.432
X120.809Y-77.047
X121.539Y-93.218
X121.876Y-98.891
X121.876Y-101.939
X122.485Y-75.015
X122.714Y-104.352
X124.079Y-93.218
X125.889Y-77.047
X125.94Y-102.599
X126.143Y-105.876
X126.619Y-93.218
X127.718Y-75.015
X128.81Y-105.876
X129.159Y-93.218
X130.461Y-93.176
X130.969Y-77.047
X131.223Y-96.732
X131.604Y-105.876
X132.798Y-75.015
X133.255Y-99.018
X133.89Y-99.907
X134.525Y-105.876
X136.049Y-77.047
X137.319Y-105.876
X137.725Y-75.015
X137.776Y-95.487
X137.827Y-96.732
X137.979Y-98.027
X139.986Y-105.876
X140.24Y-80.857
X141.383Y-77.047
X141.478Y-80.391
X141.986Y-89.535
X142.653Y-79.968
X142.907Y-75.015
X142.907Y-106.003
X144.018Y-80.391
X145.066Y-89.493
X145.574Y-105.876
X146.558Y-80.391
X147.86Y-80.095
X148.241Y-105.876
X149.257Y-101.939
X150.4Y-98.129
X151.162Y-105.876
X152.432Y-73.237
X155.455Y-68.868
X157.131Y-96.533
X158.02Y-95.843
X159.798Y-95.081
X161.068Y-89.239
X162.814Y-82.042
X163.322Y-73.152
X163.449Y-79.248
X163.576Y-74.549
X163.608Y-88.477
X163.957Y-82.042
X166.497Y-72.517
X169.164Y-76.2
X169.164Y-77.343
X169.831Y-83.778
X173.101Y-78.232
X174.752Y-74.041
X186.722Y-95.589
X189.389Y-97.621
X189.459Y-92.349
X190.024Y-96.224
X191.7Y-90.757
X191.7Y-91.996
X192.056Y-85.175
X192.475Y-90.757
X192.475Y-91.996
X192.818Y-97.875
X194.596Y-88.223
X195.231Y-77.047
X195.961Y-93.599
X197.644Y-85.556
X198.025Y-95.97
X198.152Y-87.08
X198.914Y-90.255
X200.184Y-94.192
X200.692Y-104.352
X201.708Y-105.114
X203.486Y-105.876
X205.137Y-76.285
X206.407Y-87.461
X208.788Y-82.804
X208.915Y-87.503
X210.566Y-69.088
X210.566Y-72.136
X214.027Y-76.92
X214.154Y-82.508
X214.736Y-84.984
X219.456Y-68.961
X219.456Y-72.136
X223.044Y-75.142
X223.171Y-80.603
X224.568Y-78.952
X227.584Y-93.218
X227.711Y-85.09
X227.711Y-98.933
X227.711Y-104.394
X228.346Y-86.741
X228.473Y-69.088
X228.473Y-72.009
X230.378Y-79.248
X230.759Y-80.772
X231.553Y-78.317
X235.966Y-91.567
X235.966Y-97.409
X235.966Y-102.87
T2
X41.51Y-68.627
X41.51Y-108.627
X42.169Y-67.036
X42.169Y-70.218
X42.169Y-107.036
X42.169Y-110.218
X43.76Y-66.377
X43.76Y-70.877
X43.76Y-106.377
X43.76Y-110.877
X45.351Y-67.036
X45.351Y-70.218
X45.351Y-107.036
X45.351Y-110.218
X46.01Y-68.627
X46.01Y-108.627
X231.51Y-68.627
X231.51Y-108.627
X232.169Y-67.036
X232.169Y-70.218
X232.169Y-107.036
X232.169Y-110.218
X233.76Y-66.377
X233.76Y-70.877
X233.76Y-106.377
X233.76Y-110.877
X235.351Y-67.036
X235.351Y-70.218
X235.351Y-107.036
X235.351Y-110.218
X236.01Y-68.627
X236.01Y-108.627
T3
X54.991Y-110.49
X57.531Y-110.49
X69.596Y-110.998
X72.136Y-110.998
X74.676Y-110.998
X77.216Y-110.998
X79.756Y-110.998
X82.296Y-110.998
X85.09Y-66.294
X87.63Y-66.294
X104.231Y-82.091
X104.231Y-96.735
X106.731Y-93.091
X106.731Y-107.735
X109.231Y-82.091
X109.231Y-96.735
X119.634Y-66.294
X122.174Y-66.294
X124.714Y-66.294
X125.984Y-110.998
X127.254Y-66.294
X128.524Y-110.998
X129.794Y-66.294
X131.064Y-110.998
X132.334Y-66.294
X133.604Y-110.998
X136.144Y-110.998
X138.684Y-110.998
X141.224Y-110.998
X143.764Y-110.998
X146.304Y-110.998
X148.844Y-110.998
X151.384Y-110.998
X161.417Y-66.294
X163.957Y-66.294
X166.497Y-66.294
X169.037Y-66.294
X171.577Y-66.294
X171.577Y-69.469
X174.117Y-66.294
X174.117Y-69.469
X205.041Y-66.294
X207.581Y-66.294
X213.931Y-66.294
X216.471Y-66.294
X222.948Y-66.294
X225.488Y-66.294
T4
X43.76Y-68.627
X43.76Y-108.627
X54.143Y-66.15
X233.76Y-68.627
X233.76Y-108.627
T4
X49.443Y-69.15G85X49.443Y-69.15
G05
X54.143Y-72.15G85X54.143Y-72.15
G05
T0
M30
