G04 #@! TF.FileFunction,Paste,Top*
%FSLAX46Y46*%
G04 Gerber Fmt 4.6, Leading zero omitted, Abs format (unit mm)*
G04 Created by KiCad (PCBNEW 4.0.5) date Sunday, September 10, 2017 'PMt' 08:36:45 PM*
%MOMM*%
%LPD*%
G01*
G04 APERTURE LIST*
%ADD10C,0.100000*%
%ADD11R,0.500000X0.600000*%
%ADD12R,0.600000X0.500000*%
%ADD13R,1.000000X1.600000*%
%ADD14R,1.250000X1.000000*%
%ADD15R,5.000000X1.000000*%
%ADD16R,1.000000X1.250000*%
%ADD17R,2.500000X1.950000*%
%ADD18R,1.600000X1.000000*%
%ADD19R,1.100000X1.100000*%
%ADD20R,0.600000X0.450000*%
%ADD21R,0.800000X0.800000*%
%ADD22R,0.450000X0.600000*%
%ADD23R,0.900000X1.700000*%
%ADD24R,2.413000X3.429000*%
%ADD25R,2.900000X5.400000*%
%ADD26R,0.600000X0.400000*%
%ADD27R,1.550000X0.600000*%
%ADD28R,2.032000X3.657600*%
%ADD29R,2.032000X1.016000*%
%ADD30R,0.900000X0.800000*%
%ADD31R,0.450000X0.700000*%
%ADD32R,0.700000X0.450000*%
%ADD33R,0.400000X0.600000*%
%ADD34R,3.200000X1.000000*%
%ADD35R,0.700000X1.300000*%
%ADD36R,0.900000X0.500000*%
%ADD37R,1.300000X0.700000*%
%ADD38R,0.250000X0.700000*%
%ADD39R,0.660000X0.366000*%
%ADD40R,0.300000X0.650000*%
%ADD41R,0.744000X0.465000*%
%ADD42R,0.650000X0.300000*%
%ADD43R,0.465000X0.744000*%
%ADD44R,0.650000X1.060000*%
%ADD45O,0.850000X0.200000*%
%ADD46O,0.200000X0.850000*%
%ADD47R,1.080000X1.080000*%
%ADD48R,0.600000X2.000000*%
%ADD49O,0.300000X0.750000*%
%ADD50O,0.750000X0.300000*%
%ADD51R,0.540000X0.540000*%
%ADD52R,0.600000X1.500000*%
%ADD53R,1.200000X1.400000*%
%ADD54R,1.000000X1.400000*%
%ADD55R,0.650000X0.400000*%
%ADD56R,1.300000X1.100000*%
%ADD57R,2.400000X1.900000*%
G04 APERTURE END LIST*
D10*
D11*
X67224000Y-68044000D03*
X67224000Y-69144000D03*
X66081000Y-68044000D03*
X66081000Y-69144000D03*
X64938000Y-68044000D03*
X64938000Y-69144000D03*
D12*
X53287000Y-87715000D03*
X52187000Y-87715000D03*
D13*
X52586000Y-80984000D03*
X49586000Y-80984000D03*
D14*
X57658000Y-91932000D03*
X57658000Y-89932000D03*
D11*
X57785000Y-85132000D03*
X57785000Y-84032000D03*
D14*
X180149500Y-81381000D03*
X180149500Y-83381000D03*
X189547500Y-78565500D03*
X189547500Y-80565500D03*
D15*
X195231000Y-78565000D03*
X195231000Y-84165000D03*
D14*
X189547500Y-82629500D03*
X189547500Y-84629500D03*
D13*
X193381500Y-96075500D03*
X196381500Y-96075500D03*
D12*
X196871500Y-90233500D03*
X197971500Y-90233500D03*
D16*
X188769500Y-94170500D03*
X186769500Y-94170500D03*
D12*
X197971500Y-93662500D03*
X196871500Y-93662500D03*
D11*
X211391500Y-86084500D03*
X211391500Y-84984500D03*
X212534500Y-86084500D03*
X212534500Y-84984500D03*
X213677500Y-86084500D03*
X213677500Y-84984500D03*
X70739000Y-102912000D03*
X70739000Y-101812000D03*
X79756000Y-98552000D03*
X79756000Y-97452000D03*
X69596000Y-102912000D03*
X69596000Y-101812000D03*
X85725000Y-98848000D03*
X85725000Y-97748000D03*
X85725000Y-102701000D03*
X85725000Y-103801000D03*
X137541000Y-89620000D03*
X137541000Y-90720000D03*
X138684000Y-89620000D03*
X138684000Y-90720000D03*
X139827000Y-89620000D03*
X139827000Y-90720000D03*
D17*
X95631000Y-84075000D03*
X95631000Y-81025000D03*
D11*
X90043000Y-89112000D03*
X90043000Y-90212000D03*
D18*
X99949000Y-93750000D03*
X99949000Y-96750000D03*
D11*
X119507000Y-84032000D03*
X119507000Y-85132000D03*
X120650000Y-84032000D03*
X120650000Y-85132000D03*
X121793000Y-84032000D03*
X121793000Y-85132000D03*
X121856500Y-100943500D03*
X121856500Y-99843500D03*
X120713500Y-100943500D03*
X120713500Y-99843500D03*
X119570500Y-100943500D03*
X119570500Y-99843500D03*
X165925500Y-76221500D03*
X165925500Y-77321500D03*
X167068500Y-76221500D03*
X167068500Y-77321500D03*
X168211500Y-76221500D03*
X168211500Y-77321500D03*
X88392000Y-71035000D03*
X88392000Y-69935000D03*
X89535000Y-71035000D03*
X89535000Y-69935000D03*
X90678000Y-71035000D03*
X90678000Y-69935000D03*
D12*
X227626000Y-81915000D03*
X226526000Y-81915000D03*
X227626000Y-83058000D03*
X226526000Y-83058000D03*
X227626000Y-84201000D03*
X226526000Y-84201000D03*
D11*
X228536500Y-71098500D03*
X228536500Y-69998500D03*
X227393500Y-71098500D03*
X227393500Y-69998500D03*
X226250500Y-71098500D03*
X226250500Y-69998500D03*
X217233500Y-71098500D03*
X217233500Y-69998500D03*
X218376500Y-71098500D03*
X218376500Y-69998500D03*
X219519500Y-71098500D03*
X219519500Y-69998500D03*
X210629500Y-71098500D03*
X210629500Y-69998500D03*
X209486500Y-71098500D03*
X209486500Y-69998500D03*
X208343500Y-71098500D03*
X208343500Y-69998500D03*
D12*
X81957000Y-90170000D03*
X80857000Y-90170000D03*
X81957000Y-89027000D03*
X80857000Y-89027000D03*
X81957000Y-87884000D03*
X80857000Y-87884000D03*
D19*
X42274000Y-79924000D03*
X45074000Y-79924000D03*
X45074000Y-77638000D03*
X42274000Y-77638000D03*
D20*
X43640000Y-75479000D03*
X45740000Y-75479000D03*
D19*
X185867500Y-78422500D03*
X183067500Y-78422500D03*
X183067500Y-80962500D03*
X185867500Y-80962500D03*
X185867500Y-83502500D03*
X183067500Y-83502500D03*
D21*
X232283000Y-81242000D03*
X232283000Y-82842000D03*
X234607000Y-91567000D03*
X233007000Y-91567000D03*
X234734000Y-97409000D03*
X233134000Y-97409000D03*
D19*
X60452000Y-105280000D03*
X60452000Y-108080000D03*
X60449000Y-110490000D03*
X63249000Y-110490000D03*
D22*
X52070000Y-108297000D03*
X52070000Y-110397000D03*
D21*
X234734000Y-102870000D03*
X233134000Y-102870000D03*
D20*
X173897000Y-74041000D03*
X171797000Y-74041000D03*
D23*
X57605000Y-75565000D03*
X60505000Y-75565000D03*
D24*
X49911000Y-91948000D03*
X54737000Y-91948000D03*
D25*
X190433500Y-102044500D03*
X180533500Y-102044500D03*
D26*
X84455000Y-92260000D03*
X84455000Y-93160000D03*
D27*
X68867000Y-75565000D03*
X68867000Y-74295000D03*
X68867000Y-73025000D03*
X68867000Y-71755000D03*
X63467000Y-71755000D03*
X63467000Y-73025000D03*
X63467000Y-74295000D03*
X63467000Y-75565000D03*
D28*
X180530500Y-89471500D03*
D29*
X187134500Y-89471500D03*
X187134500Y-87185500D03*
X187134500Y-91757500D03*
D30*
X92694000Y-88326000D03*
X92694000Y-86426000D03*
X90694000Y-87376000D03*
D31*
X153113500Y-104727500D03*
X151813500Y-104727500D03*
X152463500Y-106727500D03*
X150319500Y-104727500D03*
X149019500Y-104727500D03*
X149669500Y-106727500D03*
X125173500Y-104727500D03*
X123873500Y-104727500D03*
X124523500Y-106727500D03*
X147525500Y-104727500D03*
X146225500Y-104727500D03*
X146875500Y-106727500D03*
X144731500Y-104727500D03*
X143431500Y-104727500D03*
X144081500Y-106727500D03*
X141937500Y-104727500D03*
X140637500Y-104727500D03*
X141287500Y-106727500D03*
X139143500Y-104727500D03*
X137843500Y-104727500D03*
X138493500Y-106727500D03*
X136349500Y-104727500D03*
X135049500Y-104727500D03*
X135699500Y-106727500D03*
X133555500Y-104727500D03*
X132255500Y-104727500D03*
X132905500Y-106727500D03*
X130761500Y-104727500D03*
X129461500Y-104727500D03*
X130111500Y-106727500D03*
X127967500Y-104727500D03*
X126667500Y-104727500D03*
X127317500Y-106727500D03*
X115428000Y-72247000D03*
X116728000Y-72247000D03*
X116078000Y-70247000D03*
X120508000Y-72247000D03*
X121808000Y-72247000D03*
X121158000Y-70247000D03*
X113396000Y-77073000D03*
X114696000Y-77073000D03*
X114046000Y-75073000D03*
X118476000Y-77073000D03*
X119776000Y-77073000D03*
X119126000Y-75073000D03*
X125588000Y-72247000D03*
X126888000Y-72247000D03*
X126238000Y-70247000D03*
X130668000Y-72247000D03*
X131968000Y-72247000D03*
X131318000Y-70247000D03*
X123556000Y-77073000D03*
X124856000Y-77073000D03*
X124206000Y-75073000D03*
X128636000Y-77073000D03*
X129936000Y-77073000D03*
X129286000Y-75073000D03*
X135748000Y-72247000D03*
X137048000Y-72247000D03*
X136398000Y-70247000D03*
X140828000Y-72247000D03*
X142128000Y-72247000D03*
X141478000Y-70247000D03*
X133716000Y-77073000D03*
X135016000Y-77073000D03*
X134366000Y-75073000D03*
X138796000Y-77073000D03*
X140096000Y-77073000D03*
X139446000Y-75073000D03*
X161211500Y-72310500D03*
X162511500Y-72310500D03*
X161861500Y-70310500D03*
X164132500Y-72310500D03*
X165432500Y-72310500D03*
X164782500Y-70310500D03*
X230774000Y-83836000D03*
X229474000Y-83836000D03*
X230124000Y-85836000D03*
D32*
X227600000Y-90917000D03*
X227600000Y-92217000D03*
X229600000Y-91567000D03*
X227727000Y-96759000D03*
X227727000Y-98059000D03*
X229727000Y-97409000D03*
X227727000Y-102220000D03*
X227727000Y-103520000D03*
X229727000Y-102870000D03*
D33*
X72754000Y-71769000D03*
X71854000Y-71769000D03*
X71854000Y-74309000D03*
X72754000Y-74309000D03*
X67155000Y-66308000D03*
X68055000Y-66308000D03*
X71854000Y-73039000D03*
X72754000Y-73039000D03*
X69060000Y-66308000D03*
X69960000Y-66308000D03*
X70965000Y-66308000D03*
X71865000Y-66308000D03*
X44875000Y-73828000D03*
X45775000Y-73828000D03*
D26*
X48260000Y-72321000D03*
X48260000Y-73221000D03*
X59055000Y-84132000D03*
X59055000Y-85032000D03*
D33*
X59124000Y-87122000D03*
X58224000Y-87122000D03*
D26*
X56515000Y-85032000D03*
X56515000Y-84132000D03*
X55150000Y-80280000D03*
X55150000Y-81180000D03*
X56515000Y-83254000D03*
X56515000Y-82354000D03*
D33*
X55176000Y-87630000D03*
X56076000Y-87630000D03*
D34*
X200469500Y-78497500D03*
X200469500Y-84697500D03*
D33*
X196347500Y-87058500D03*
X195447500Y-87058500D03*
X194442500Y-87058500D03*
X193542500Y-87058500D03*
D35*
X190121500Y-87185500D03*
X192021500Y-87185500D03*
D36*
X200215500Y-87832500D03*
X200215500Y-89332500D03*
D33*
X196971500Y-88963500D03*
X197871500Y-88963500D03*
D36*
X200215500Y-91134500D03*
X200215500Y-92634500D03*
D33*
X196971500Y-92392500D03*
X197871500Y-92392500D03*
X212984500Y-83756500D03*
X212084500Y-83756500D03*
D26*
X206311500Y-82036500D03*
X206311500Y-82936500D03*
X206311500Y-83814500D03*
X206311500Y-84714500D03*
X206311500Y-85592500D03*
X206311500Y-86492500D03*
D33*
X212084500Y-82486500D03*
X212984500Y-82486500D03*
X80449000Y-106299000D03*
X81349000Y-106299000D03*
X80449000Y-107569000D03*
X81349000Y-107569000D03*
D26*
X141478000Y-81211000D03*
X141478000Y-82111000D03*
X142748000Y-82111000D03*
X142748000Y-81211000D03*
D33*
X139835200Y-96750800D03*
X138935200Y-96750800D03*
X139835200Y-99290800D03*
X138935200Y-99290800D03*
D26*
X147828000Y-82111000D03*
X147828000Y-81211000D03*
X145288000Y-82111000D03*
X145288000Y-81211000D03*
X144018000Y-82111000D03*
X144018000Y-81211000D03*
X146558000Y-82111000D03*
X146558000Y-81211000D03*
D33*
X139835200Y-98020800D03*
X138935200Y-98020800D03*
X139835200Y-95480800D03*
X138935200Y-95480800D03*
D26*
X95758000Y-87942000D03*
X95758000Y-88842000D03*
D33*
X89847000Y-92456000D03*
X90747000Y-92456000D03*
D26*
X94488000Y-88842000D03*
X94488000Y-87942000D03*
D33*
X90747000Y-93726000D03*
X89847000Y-93726000D03*
D26*
X91186000Y-98621000D03*
X91186000Y-97721000D03*
X97028000Y-87942000D03*
X97028000Y-88842000D03*
X97536000Y-98621000D03*
X97536000Y-97721000D03*
X98298000Y-88842000D03*
X98298000Y-87942000D03*
X94996000Y-98621000D03*
X94996000Y-97721000D03*
X96266000Y-97721000D03*
X96266000Y-98621000D03*
X93726000Y-97721000D03*
X93726000Y-98621000D03*
X89916000Y-97721000D03*
X89916000Y-98621000D03*
X92456000Y-97721000D03*
X92456000Y-98621000D03*
X129159000Y-92271000D03*
X129159000Y-91371000D03*
X122809000Y-91371000D03*
X122809000Y-92271000D03*
X125349000Y-91371000D03*
X125349000Y-92271000D03*
X127889000Y-91371000D03*
X127889000Y-92271000D03*
X130429000Y-91371000D03*
X130429000Y-92271000D03*
X126619000Y-91371000D03*
X126619000Y-92271000D03*
X124079000Y-91371000D03*
X124079000Y-92271000D03*
X121539000Y-91371000D03*
X121539000Y-92271000D03*
D33*
X152013500Y-103441500D03*
X152913500Y-103441500D03*
X149219500Y-103441500D03*
X150119500Y-103441500D03*
D26*
X122491500Y-106939500D03*
X122491500Y-106039500D03*
D33*
X124835500Y-97599500D03*
X125735500Y-97599500D03*
X124073500Y-103441500D03*
X124973500Y-103441500D03*
X146425500Y-103441500D03*
X147325500Y-103441500D03*
X143631500Y-103441500D03*
X144531500Y-103441500D03*
X123830500Y-97599500D03*
X122930500Y-97599500D03*
X140837500Y-103441500D03*
X141737500Y-103441500D03*
X138043500Y-103441500D03*
X138943500Y-103441500D03*
X135249500Y-103441500D03*
X136149500Y-103441500D03*
X132455500Y-103441500D03*
X133355500Y-103441500D03*
X129661500Y-103441500D03*
X130561500Y-103441500D03*
X126867500Y-103441500D03*
X127767500Y-103441500D03*
X116009000Y-74041000D03*
X116909000Y-74041000D03*
X121089000Y-74041000D03*
X121989000Y-74041000D03*
X114104000Y-73660000D03*
X115004000Y-73660000D03*
X119184000Y-73660000D03*
X120084000Y-73660000D03*
X114496000Y-78359000D03*
X113596000Y-78359000D03*
X119576000Y-78359000D03*
X118676000Y-78359000D03*
D37*
X113538000Y-69154000D03*
X113538000Y-71054000D03*
X118618000Y-69154000D03*
X118618000Y-71054000D03*
D33*
X126169000Y-74041000D03*
X127069000Y-74041000D03*
X131249000Y-74041000D03*
X132149000Y-74041000D03*
X124264000Y-73660000D03*
X125164000Y-73660000D03*
X129344000Y-73660000D03*
X130244000Y-73660000D03*
X124656000Y-78359000D03*
X123756000Y-78359000D03*
X129736000Y-78359000D03*
X128836000Y-78359000D03*
D37*
X123698000Y-69154000D03*
X123698000Y-71054000D03*
X128778000Y-68900000D03*
X128778000Y-70800000D03*
D33*
X136329000Y-74041000D03*
X137229000Y-74041000D03*
X141409000Y-74041000D03*
X142309000Y-74041000D03*
X134424000Y-73660000D03*
X135324000Y-73660000D03*
X139504000Y-73660000D03*
X140404000Y-73660000D03*
X134816000Y-78359000D03*
X133916000Y-78359000D03*
X139896000Y-78359000D03*
X138996000Y-78359000D03*
D37*
X133858000Y-68900000D03*
X133858000Y-70800000D03*
X138938000Y-68900000D03*
X138938000Y-70800000D03*
D26*
X161480500Y-80258500D03*
X161480500Y-81158500D03*
D33*
X162311500Y-73596500D03*
X161411500Y-73596500D03*
D26*
X162750500Y-80258500D03*
X162750500Y-81158500D03*
X165290500Y-80258500D03*
X165290500Y-81158500D03*
D33*
X165232500Y-73596500D03*
X164332500Y-73596500D03*
D26*
X164020500Y-80258500D03*
X164020500Y-81158500D03*
X86995000Y-73337000D03*
X86995000Y-74237000D03*
X85217000Y-73337000D03*
X85217000Y-74237000D03*
X232283000Y-84513000D03*
X232283000Y-85413000D03*
X229489000Y-81592000D03*
X229489000Y-82492000D03*
X230759000Y-82492000D03*
X230759000Y-81592000D03*
D33*
X54414000Y-108204000D03*
X55314000Y-108204000D03*
X56573000Y-108204000D03*
X57473000Y-108204000D03*
X231717000Y-91567000D03*
X230817000Y-91567000D03*
X231844000Y-97409000D03*
X230944000Y-97409000D03*
D26*
X224917000Y-92017000D03*
X224917000Y-91117000D03*
X225044000Y-97859000D03*
X225044000Y-96959000D03*
X226187000Y-91117000D03*
X226187000Y-92017000D03*
X226314000Y-96959000D03*
X226314000Y-97859000D03*
D33*
X231844000Y-102870000D03*
X230944000Y-102870000D03*
D26*
X225044000Y-103320000D03*
X225044000Y-102420000D03*
X226314000Y-102420000D03*
X226314000Y-103320000D03*
X224853500Y-73273500D03*
X224853500Y-74173500D03*
X223075500Y-73273500D03*
X223075500Y-74173500D03*
X215836500Y-73273500D03*
X215836500Y-74173500D03*
X214058500Y-73273500D03*
X214058500Y-74173500D03*
X206946500Y-73273500D03*
X206946500Y-74173500D03*
X205168500Y-73273500D03*
X205168500Y-74173500D03*
X173101000Y-77412000D03*
X173101000Y-76512000D03*
D37*
X155448000Y-71943000D03*
X155448000Y-70043000D03*
X152400000Y-71943000D03*
X152400000Y-70043000D03*
D26*
X171831000Y-77412000D03*
X171831000Y-76512000D03*
D38*
X70387000Y-68050000D03*
X69887000Y-68050000D03*
X69387000Y-68050000D03*
X68887000Y-68050000D03*
X68887000Y-69900000D03*
X69387000Y-69900000D03*
X69887000Y-69900000D03*
X70387000Y-69900000D03*
D39*
X69087000Y-68975000D03*
X70187000Y-68975000D03*
D40*
X54975000Y-83159000D03*
X54475000Y-83159000D03*
X53975000Y-83159000D03*
X53475000Y-83159000D03*
X52975000Y-83159000D03*
X52975000Y-86259000D03*
X53475000Y-86259000D03*
X53975000Y-86259000D03*
X54475000Y-86259000D03*
X54975000Y-86259000D03*
D41*
X53355000Y-85096500D03*
X54595000Y-85096500D03*
X53355000Y-84321500D03*
X54595000Y-84321500D03*
D42*
X193637500Y-92376500D03*
X193637500Y-91876500D03*
X193637500Y-91376500D03*
X193637500Y-90876500D03*
X193637500Y-90376500D03*
X190537500Y-90376500D03*
X190537500Y-90876500D03*
X190537500Y-91376500D03*
X190537500Y-91876500D03*
X190537500Y-92376500D03*
D43*
X191700000Y-90756500D03*
X191700000Y-91996500D03*
X192475000Y-90756500D03*
X192475000Y-91996500D03*
D44*
X209801500Y-83926500D03*
X208851500Y-83926500D03*
X207901500Y-83926500D03*
X207901500Y-86126500D03*
X209801500Y-86126500D03*
X208851500Y-86126500D03*
D45*
X73242000Y-100181000D03*
X73242000Y-100581000D03*
X73242000Y-100981000D03*
X73242000Y-101381000D03*
X73242000Y-101781000D03*
X73242000Y-102181000D03*
X73242000Y-102581000D03*
X73242000Y-102981000D03*
X73242000Y-103381000D03*
X73242000Y-103781000D03*
D46*
X73892000Y-104431000D03*
X74292000Y-104431000D03*
X74692000Y-104431000D03*
X75092000Y-104431000D03*
X75492000Y-104431000D03*
X75892000Y-104431000D03*
X76292000Y-104431000D03*
X76692000Y-104431000D03*
X77092000Y-104431000D03*
X77492000Y-104431000D03*
D45*
X78142000Y-103781000D03*
X78142000Y-103381000D03*
X78142000Y-102981000D03*
X78142000Y-102581000D03*
X78142000Y-102181000D03*
X78142000Y-101781000D03*
X78142000Y-101381000D03*
X78142000Y-100981000D03*
X78142000Y-100581000D03*
X78142000Y-100181000D03*
D46*
X77492000Y-99531000D03*
X77092000Y-99531000D03*
X76692000Y-99531000D03*
X76292000Y-99531000D03*
X75892000Y-99531000D03*
X75492000Y-99531000D03*
X75092000Y-99531000D03*
X74692000Y-99531000D03*
X74292000Y-99531000D03*
X73892000Y-99531000D03*
D47*
X76592000Y-102881000D03*
X76592000Y-101081000D03*
X74792000Y-102881000D03*
X74792000Y-101081000D03*
D48*
X141478000Y-94616000D03*
X142748000Y-94616000D03*
X144018000Y-94616000D03*
X145288000Y-94616000D03*
X146558000Y-94616000D03*
X147828000Y-94616000D03*
X149098000Y-94616000D03*
X150368000Y-94616000D03*
X151638000Y-94616000D03*
X152908000Y-94616000D03*
X154178000Y-94616000D03*
X155448000Y-94616000D03*
X155448000Y-85216000D03*
X154178000Y-85216000D03*
X152908000Y-85216000D03*
X151638000Y-85216000D03*
X150368000Y-85216000D03*
X149098000Y-85216000D03*
X147828000Y-85216000D03*
X146558000Y-85216000D03*
X145288000Y-85216000D03*
X144018000Y-85216000D03*
X142748000Y-85216000D03*
X141478000Y-85216000D03*
D49*
X95873000Y-91362000D03*
X95373000Y-91362000D03*
X94873000Y-91362000D03*
X94373000Y-91362000D03*
D50*
X93648000Y-92087000D03*
X93648000Y-92587000D03*
X93648000Y-93087000D03*
X93648000Y-93587000D03*
D49*
X94373000Y-94312000D03*
X94873000Y-94312000D03*
X95373000Y-94312000D03*
X95873000Y-94312000D03*
D50*
X96598000Y-93587000D03*
X96598000Y-93087000D03*
X96598000Y-92587000D03*
X96598000Y-92087000D03*
D51*
X94673000Y-93287000D03*
X95573000Y-93287000D03*
X94673000Y-92387000D03*
X95573000Y-92387000D03*
D52*
X123317000Y-88171000D03*
X124587000Y-88171000D03*
X125857000Y-88171000D03*
X127127000Y-88171000D03*
X128397000Y-88171000D03*
X129667000Y-88171000D03*
X130937000Y-88171000D03*
X132207000Y-88171000D03*
X132207000Y-82771000D03*
X130937000Y-82771000D03*
X129667000Y-82771000D03*
X128397000Y-82771000D03*
X127127000Y-82771000D03*
X125857000Y-82771000D03*
X124587000Y-82771000D03*
X123317000Y-82771000D03*
D44*
X125346500Y-99293500D03*
X124396500Y-99293500D03*
X123446500Y-99293500D03*
X123446500Y-101493500D03*
X125346500Y-101493500D03*
X162562500Y-77871500D03*
X163512500Y-77871500D03*
X164462500Y-77871500D03*
X164462500Y-75671500D03*
X162562500Y-75671500D03*
X163512500Y-75671500D03*
D53*
X86876000Y-69385000D03*
D54*
X85156000Y-69385000D03*
X85156000Y-71585000D03*
X87056000Y-71585000D03*
D55*
X226380000Y-79233000D03*
X226380000Y-80533000D03*
X228280000Y-79883000D03*
X226380000Y-79883000D03*
X228280000Y-80533000D03*
X228280000Y-79233000D03*
D53*
X224734500Y-69448500D03*
D54*
X223014500Y-69448500D03*
X223014500Y-71648500D03*
X224914500Y-71648500D03*
D53*
X215717500Y-69448500D03*
D54*
X213997500Y-69448500D03*
X213997500Y-71648500D03*
X215897500Y-71648500D03*
D53*
X206827500Y-69448500D03*
D54*
X205107500Y-69448500D03*
X205107500Y-71648500D03*
X207007500Y-71648500D03*
D56*
X82627429Y-91828200D03*
X80327429Y-91828200D03*
X80327429Y-93728200D03*
X82627429Y-93728200D03*
D57*
X82575400Y-98737200D03*
X82575400Y-102837200D03*
M02*
