G04 #@! TF.FileFunction,Copper,L4,Bot,Mixed*
%FSLAX46Y46*%
G04 Gerber Fmt 4.6, Leading zero omitted, Abs format (unit mm)*
G04 Created by KiCad (PCBNEW 4.0.5) date Sunday, August 20, 2017 'PMt' 09:04:34 PM*
%MOMM*%
%LPD*%
G01*
G04 APERTURE LIST*
%ADD10C,0.100000*%
%ADD11C,0.150000*%
%ADD12C,6.000000*%
%ADD13C,0.600000*%
%ADD14C,2.000000*%
%ADD15R,3.500000X3.500000*%
%ADD16R,1.700000X1.700000*%
%ADD17O,1.700000X1.700000*%
%ADD18C,0.762000*%
%ADD19C,0.250000*%
%ADD20C,0.635000*%
%ADD21C,0.254000*%
%ADD22C,0.177800*%
%ADD23C,0.381000*%
G04 APERTURE END LIST*
D10*
D11*
X215868477Y-112011714D02*
X215868477Y-112678381D01*
X215630381Y-111630762D02*
X215392286Y-112345048D01*
X216011334Y-112345048D01*
D12*
X233760000Y-68627000D03*
D13*
X231510000Y-68627000D03*
X232169010Y-67036010D03*
X233760000Y-66377000D03*
X235350990Y-67036010D03*
X236010000Y-68627000D03*
X235350990Y-70217990D03*
X233760000Y-70877000D03*
X232169010Y-70217990D03*
D14*
X106730800Y-93091000D03*
X104230800Y-82091000D03*
X109230800Y-82091000D03*
X106730800Y-107735000D03*
X104230800Y-96735000D03*
X109230800Y-96735000D03*
D15*
X54143000Y-72150000D03*
X54143000Y-66150000D03*
X49443000Y-69150000D03*
D16*
X82296000Y-110998000D03*
D17*
X79756000Y-110998000D03*
X77216000Y-110998000D03*
X74676000Y-110998000D03*
X72136000Y-110998000D03*
X69596000Y-110998000D03*
D16*
X87630000Y-66294000D03*
D17*
X85090000Y-66294000D03*
D16*
X225488500Y-66294000D03*
D17*
X222948500Y-66294000D03*
D16*
X216471500Y-66294000D03*
D17*
X213931500Y-66294000D03*
D16*
X207581500Y-66294000D03*
D17*
X205041500Y-66294000D03*
D16*
X151384000Y-110998000D03*
D17*
X148844000Y-110998000D03*
X146304000Y-110998000D03*
X143764000Y-110998000D03*
X141224000Y-110998000D03*
X138684000Y-110998000D03*
X136144000Y-110998000D03*
X133604000Y-110998000D03*
X131064000Y-110998000D03*
X128524000Y-110998000D03*
X125984000Y-110998000D03*
D16*
X132334000Y-66294000D03*
D17*
X129794000Y-66294000D03*
X127254000Y-66294000D03*
X124714000Y-66294000D03*
X122174000Y-66294000D03*
X119634000Y-66294000D03*
D16*
X161417000Y-66294000D03*
D17*
X163957000Y-66294000D03*
X166497000Y-66294000D03*
X169037000Y-66294000D03*
X171577000Y-66294000D03*
X174117000Y-66294000D03*
D16*
X54991000Y-110490000D03*
D17*
X57531000Y-110490000D03*
D16*
X171577000Y-69469000D03*
D17*
X174117000Y-69469000D03*
D12*
X43760000Y-68627000D03*
D13*
X41510000Y-68627000D03*
X42169010Y-67036010D03*
X43760000Y-66377000D03*
X45350990Y-67036010D03*
X46010000Y-68627000D03*
X45350990Y-70217990D03*
X43760000Y-70877000D03*
X42169010Y-70217990D03*
D12*
X43760000Y-108627000D03*
D13*
X41510000Y-108627000D03*
X42169010Y-107036010D03*
X43760000Y-106377000D03*
X45350990Y-107036010D03*
X46010000Y-108627000D03*
X45350990Y-110217990D03*
X43760000Y-110877000D03*
X42169010Y-110217990D03*
D12*
X233760000Y-108627000D03*
D13*
X231510000Y-108627000D03*
X232169010Y-107036010D03*
X233760000Y-106377000D03*
X235350990Y-107036010D03*
X236010000Y-108627000D03*
X235350990Y-110217990D03*
X233760000Y-110877000D03*
X232169010Y-110217990D03*
X151162000Y-105876000D03*
X148241000Y-105876000D03*
X145574000Y-105876000D03*
X142907000Y-106003000D03*
X139986000Y-105876000D03*
X137319000Y-105876000D03*
X134525000Y-105876000D03*
X131604000Y-105876000D03*
X128810000Y-105876000D03*
X126143000Y-105876000D03*
X122714000Y-104352000D03*
X93250000Y-70824000D03*
X48165000Y-81746000D03*
X223171000Y-80603000D03*
X214735500Y-84984500D03*
X200184000Y-94192000D03*
X198025000Y-95970000D03*
X56928000Y-87080000D03*
X58198000Y-88731000D03*
X56420000Y-81492000D03*
X53355000Y-85096500D03*
X54595000Y-85096500D03*
X54595000Y-84321500D03*
X53355000Y-84321500D03*
X198914000Y-90255000D03*
X197644000Y-85556000D03*
X192056000Y-85175000D03*
X186722000Y-95589000D03*
X206407000Y-87461000D03*
X121875800Y-98891000D03*
X137776200Y-95487400D03*
X137979400Y-98027400D03*
X63913000Y-69122200D03*
X141383000Y-77047000D03*
X136049000Y-77047000D03*
X130969000Y-77047000D03*
X125889000Y-77047000D03*
X120809000Y-77047000D03*
X115602000Y-77047000D03*
X145066000Y-89493000D03*
X118523000Y-85556000D03*
X95631000Y-79248000D03*
X97663000Y-81026000D03*
X93599000Y-81026000D03*
X126619000Y-93218000D03*
X124079000Y-93218000D03*
X121539000Y-93218000D03*
X68580000Y-101854000D03*
X63246000Y-108839000D03*
X78994000Y-91821000D03*
X89027000Y-93726000D03*
X90043000Y-91059000D03*
X93599000Y-87376000D03*
X192475000Y-90756500D03*
X191700000Y-90756500D03*
X191700000Y-91996500D03*
X192475000Y-91996500D03*
X195961000Y-93599000D03*
X208788000Y-82804000D03*
X228473000Y-69088000D03*
X219456000Y-68961000D03*
X210566000Y-69088000D03*
X163322000Y-73152000D03*
X166497000Y-72517000D03*
X174752000Y-74041000D03*
X163449000Y-79248000D03*
X169164000Y-77343000D03*
X163957000Y-82042000D03*
X162814000Y-82042000D03*
X93726000Y-99441000D03*
X92456000Y-99441000D03*
X89916000Y-99441000D03*
X82169000Y-106299000D03*
X85725000Y-104648000D03*
X85725000Y-96901000D03*
X79756000Y-96647000D03*
X76592000Y-102881000D03*
X74792000Y-102881000D03*
X74792000Y-101081000D03*
X76592000Y-101081000D03*
X94673000Y-93287000D03*
X95573000Y-93287000D03*
X95573000Y-92387000D03*
X94673000Y-92387000D03*
X42274000Y-75910000D03*
X52070000Y-107188000D03*
X228346000Y-86741000D03*
X230759000Y-80772000D03*
X227584000Y-93218000D03*
X227711000Y-98933000D03*
X227711000Y-104394000D03*
X144018000Y-80391000D03*
X146558000Y-80391000D03*
X63024000Y-70316000D03*
X71025000Y-73110000D03*
X62262000Y-78952000D03*
X63532000Y-78952000D03*
X64802000Y-78952000D03*
X192818000Y-97875000D03*
X190024000Y-96224000D03*
X189389000Y-97621000D03*
X58198000Y-93049000D03*
X58960000Y-91906000D03*
X54769000Y-94319000D03*
X56801000Y-93049000D03*
X54515000Y-82127000D03*
X56928000Y-85810000D03*
X100692200Y-103971000D03*
X121875800Y-101939000D03*
X125939800Y-102599400D03*
X118523000Y-83778000D03*
X89408000Y-87757000D03*
X100362000Y-87080000D03*
X95790000Y-87080000D03*
X102394000Y-95970000D03*
X91821000Y-71120000D03*
X141478000Y-80391000D03*
X141986000Y-89535000D03*
X129159000Y-93218000D03*
X208915000Y-87503000D03*
X228473000Y-72009000D03*
X219456000Y-72136000D03*
X210566000Y-72136000D03*
X173101000Y-78232000D03*
X163576000Y-74549000D03*
X169164000Y-76200000D03*
X54483000Y-107061000D03*
X60452000Y-103632000D03*
X235966000Y-91567000D03*
X235966000Y-97409000D03*
X235966000Y-102870000D03*
X230378000Y-79248000D03*
X227711000Y-85090000D03*
X195231000Y-77047000D03*
X152432000Y-73237000D03*
X142907000Y-75015000D03*
X137725400Y-75015000D03*
X132797800Y-75015000D03*
X127717800Y-75015000D03*
X122485400Y-75015000D03*
X117202200Y-75015000D03*
X159798000Y-95081000D03*
X68231000Y-86699000D03*
X79748877Y-101802726D03*
X79280000Y-108035000D03*
X84436200Y-91271000D03*
X97293966Y-85749996D03*
X94266000Y-85810000D03*
X68612000Y-103209000D03*
X79756000Y-99314000D03*
X96520000Y-90297000D03*
X97536000Y-99568000D03*
X93599000Y-84074000D03*
X97536000Y-84074000D03*
X89027000Y-92456000D03*
X44990000Y-90001000D03*
X72930000Y-107781000D03*
X64548000Y-100542000D03*
X72549000Y-95081000D03*
X155454600Y-68868200D03*
X231553000Y-78317000D03*
X119158000Y-109432000D03*
X72676000Y-81238000D03*
X83217000Y-105876000D03*
X224568000Y-78952000D03*
X118015000Y-108416000D03*
X96425000Y-106765000D03*
X60484000Y-87207000D03*
X76740000Y-105749000D03*
X198152000Y-87080000D03*
X117507000Y-96224000D03*
X95536000Y-101812000D03*
X78899000Y-105241000D03*
X194596000Y-88223000D03*
X189458640Y-92349140D03*
X78010000Y-105495000D03*
X214154000Y-82508000D03*
X117761000Y-97240000D03*
X96806000Y-102574000D03*
X69374000Y-93303000D03*
X142653000Y-79968000D03*
X130461000Y-93176000D03*
X111411000Y-76412000D03*
X137827000Y-96732000D03*
X131223000Y-96732000D03*
X147860000Y-80095000D03*
X140240000Y-80857000D03*
X91821000Y-92075000D03*
X93345000Y-91059000D03*
X73438000Y-106892000D03*
X98330000Y-87080000D03*
X96298000Y-99780000D03*
X72295000Y-93303000D03*
X149257000Y-101939000D03*
X150400000Y-98129000D03*
X157131000Y-96533500D03*
X133890000Y-99907000D03*
X158020000Y-95843000D03*
X133255000Y-99018000D03*
X161068000Y-89239000D03*
X76880900Y-92541000D03*
X163608000Y-88477000D03*
X74200000Y-88096000D03*
X200692000Y-104352000D03*
X119031000Y-104352000D03*
X201708000Y-105114000D03*
X117888000Y-105114000D03*
X203486000Y-105876000D03*
X119158000Y-105876000D03*
X223044000Y-75142000D03*
X111411000Y-74888000D03*
X105696000Y-74634000D03*
X67723000Y-94954000D03*
X214027000Y-76920000D03*
X111538000Y-73872000D03*
X105569000Y-73618000D03*
X67215000Y-95716000D03*
X205137000Y-76285000D03*
X111665000Y-72475000D03*
X105569000Y-72348000D03*
X66834000Y-96478000D03*
X73819000Y-94319000D03*
X69755000Y-85048000D03*
X76486000Y-74126000D03*
X169831000Y-83778000D03*
D18*
X190024000Y-96224000D02*
X188373000Y-96224000D01*
X188373000Y-96224000D02*
X187611000Y-96986000D01*
X177451000Y-96986000D02*
X165640000Y-85175000D01*
X112427000Y-81111000D02*
X108871000Y-77555000D01*
X187611000Y-96986000D02*
X177451000Y-96986000D01*
X165640000Y-85175000D02*
X126778000Y-85175000D01*
X126778000Y-85175000D02*
X124238000Y-87715000D01*
X124238000Y-87715000D02*
X116618000Y-87715000D01*
X73946000Y-78952000D02*
X64802000Y-78952000D01*
X116618000Y-87715000D02*
X112427000Y-83524000D01*
X112427000Y-83524000D02*
X112427000Y-81111000D01*
X108871000Y-77555000D02*
X108871000Y-70443000D01*
X108871000Y-70443000D02*
X107728000Y-69300000D01*
X74327000Y-78952000D02*
X73946000Y-78952000D01*
X107728000Y-69300000D02*
X83979000Y-69300000D01*
X83979000Y-69300000D02*
X74327000Y-78952000D01*
D19*
X71025000Y-73110000D02*
X68231000Y-70316000D01*
X68231000Y-70316000D02*
X63024000Y-70316000D01*
D18*
X63532000Y-78952000D02*
X62262000Y-78952000D01*
X64802000Y-78952000D02*
X63532000Y-78952000D01*
X189389000Y-97621000D02*
X189389000Y-96859000D01*
X189389000Y-96859000D02*
X190024000Y-96224000D01*
X192818000Y-97875000D02*
X191675000Y-97875000D01*
X191675000Y-97875000D02*
X190024000Y-96224000D01*
D20*
X100062001Y-86780001D02*
X100362000Y-87080000D01*
X99544498Y-86262498D02*
X100062001Y-86780001D01*
X97937598Y-86262498D02*
X99544498Y-86262498D01*
X97120096Y-87080000D02*
X97937598Y-86262498D01*
X95790000Y-87080000D02*
X97120096Y-87080000D01*
X179864000Y-75650000D02*
X193834000Y-75650000D01*
X193834000Y-75650000D02*
X195231000Y-77047000D01*
X142907000Y-75015000D02*
X154972000Y-75015000D01*
X154972000Y-75015000D02*
X157893000Y-75015000D01*
X152432000Y-73237000D02*
X152432000Y-73661264D01*
X152432000Y-73661264D02*
X153785736Y-75015000D01*
X153785736Y-75015000D02*
X154972000Y-75015000D01*
X175419000Y-80095000D02*
X179864000Y-75650000D01*
X168180000Y-80095000D02*
X175419000Y-80095000D01*
X167672000Y-79587000D02*
X168180000Y-80095000D01*
X164878000Y-76793000D02*
X167672000Y-79587000D01*
X159671000Y-76793000D02*
X164878000Y-76793000D01*
X157893000Y-75015000D02*
X159671000Y-76793000D01*
X137725400Y-75015000D02*
X142907000Y-75015000D01*
X132797800Y-75015000D02*
X137725400Y-75015000D01*
X127717800Y-75015000D02*
X132797800Y-75015000D01*
X122485400Y-75015000D02*
X127717800Y-75015000D01*
X117202200Y-75015000D02*
X122485400Y-75015000D01*
D21*
X157766000Y-92922000D02*
X159798000Y-94954000D01*
X159798000Y-94954000D02*
X159798000Y-95081000D01*
X150019000Y-92922000D02*
X157766000Y-92922000D01*
X145574000Y-97367000D02*
X150019000Y-92922000D01*
X137065000Y-97367000D02*
X145574000Y-97367000D01*
X136430000Y-98002000D02*
X137065000Y-97367000D01*
X114967000Y-98002000D02*
X136430000Y-98002000D01*
X101039000Y-84074000D02*
X114967000Y-98002000D01*
X97536000Y-84074000D02*
X101039000Y-84074000D01*
D22*
X49943000Y-107146000D02*
X44990000Y-102193000D01*
X44990000Y-102193000D02*
X44990000Y-90001000D01*
X50578000Y-107781000D02*
X49943000Y-107146000D01*
X72930000Y-107781000D02*
X50578000Y-107781000D01*
X72549000Y-95081000D02*
X70009000Y-95081000D01*
X70009000Y-95081000D02*
X64548000Y-100542000D01*
D23*
X155454600Y-68868200D02*
X163922800Y-68868200D01*
X163922800Y-68868200D02*
X166497000Y-66294000D01*
D22*
X72676000Y-81238000D02*
X63278000Y-81238000D01*
X63278000Y-81238000D02*
X59341000Y-85175000D01*
X59341000Y-85175000D02*
X59341000Y-88096000D01*
X59341000Y-88096000D02*
X62135000Y-90890000D01*
X62135000Y-90890000D02*
X62135000Y-104352000D01*
X62135000Y-104352000D02*
X64086099Y-106303099D01*
X64086099Y-106303099D02*
X73720673Y-106303099D01*
X73720673Y-106303099D02*
X73801574Y-106384000D01*
X73801574Y-106384000D02*
X76867000Y-106384000D01*
X76867000Y-106384000D02*
X77375000Y-106892000D01*
X77375000Y-106892000D02*
X82447574Y-106892000D01*
X82447574Y-106892000D02*
X82917001Y-106422573D01*
X82917001Y-106422573D02*
X82917001Y-106175999D01*
X82917001Y-106175999D02*
X83217000Y-105876000D01*
X232188000Y-87715000D02*
X232188000Y-78952000D01*
X232188000Y-78952000D02*
X231553000Y-78317000D01*
X230664000Y-89239000D02*
X232188000Y-87715000D01*
X225584000Y-89239000D02*
X230664000Y-89239000D01*
X201708000Y-113115000D02*
X225584000Y-89239000D01*
X173895000Y-113115000D02*
X201708000Y-113115000D01*
X170212000Y-109432000D02*
X173895000Y-113115000D01*
X119158000Y-109432000D02*
X170212000Y-109432000D01*
X224568000Y-87969000D02*
X224568000Y-78952000D01*
X223552000Y-88985000D02*
X224568000Y-87969000D01*
X199803000Y-112734000D02*
X223552000Y-88985000D01*
X174530000Y-112734000D02*
X199803000Y-112734000D01*
X170847000Y-109051000D02*
X174530000Y-112734000D01*
X130842000Y-109051000D02*
X170847000Y-109051000D01*
X119648574Y-109051000D02*
X130842000Y-109051000D01*
X118015000Y-108416000D02*
X119013574Y-108416000D01*
X119013574Y-108416000D02*
X119648574Y-109051000D01*
X84587696Y-106384000D02*
X96044000Y-106384000D01*
X96044000Y-106384000D02*
X96425000Y-106765000D01*
X82853426Y-105368000D02*
X82934327Y-105287099D01*
X83490795Y-105287099D02*
X84587696Y-106384000D01*
X82934327Y-105287099D02*
X83490795Y-105287099D01*
X80423000Y-106257000D02*
X81312000Y-105368000D01*
X81312000Y-105368000D02*
X82853426Y-105368000D01*
X79661000Y-106257000D02*
X80423000Y-106257000D01*
X77672264Y-106257000D02*
X79661000Y-106257000D01*
X76740000Y-105749000D02*
X77164264Y-105749000D01*
X77164264Y-105749000D02*
X77672264Y-106257000D01*
X62897000Y-103844000D02*
X62897000Y-89620000D01*
X62897000Y-89620000D02*
X60484000Y-87207000D01*
X64802000Y-105749000D02*
X62897000Y-103844000D01*
X76740000Y-105749000D02*
X64802000Y-105749000D01*
X202089000Y-96605000D02*
X202089000Y-96478000D01*
X202089000Y-96478000D02*
X202089000Y-89239000D01*
X192941810Y-109943190D02*
X202089000Y-100796000D01*
X202089000Y-100796000D02*
X202089000Y-96478000D01*
X176210494Y-109943190D02*
X192941810Y-109943190D01*
X158303495Y-92036191D02*
X176210494Y-109943190D01*
X136049000Y-92033000D02*
X139224000Y-92033000D01*
X139224000Y-92033000D02*
X139227190Y-92036190D01*
X139227190Y-92036190D02*
X158303495Y-92036191D01*
X202089000Y-89239000D02*
X199930000Y-87080000D01*
X199930000Y-87080000D02*
X198152000Y-87080000D01*
X132874000Y-95208000D02*
X136049000Y-92033000D01*
X118523000Y-95208000D02*
X132874000Y-95208000D01*
X117507000Y-96224000D02*
X118523000Y-95208000D01*
X84741000Y-105368000D02*
X91980000Y-105368000D01*
X91980000Y-105368000D02*
X95536000Y-101812000D01*
X83852000Y-104479000D02*
X84741000Y-105368000D01*
X79661000Y-104479000D02*
X83852000Y-104479000D01*
X78899000Y-105241000D02*
X79661000Y-104479000D01*
D21*
X190659000Y-88858000D02*
X193961000Y-88858000D01*
X193961000Y-88858000D02*
X194596000Y-88223000D01*
X189458640Y-90058360D02*
X190659000Y-88858000D01*
X189458640Y-92349140D02*
X189458640Y-90058360D01*
D22*
X78010000Y-105495000D02*
X78345001Y-105830001D01*
X95409000Y-102574000D02*
X96806000Y-102574000D01*
X78345001Y-105830001D02*
X79325999Y-105830001D01*
X80296000Y-104860000D02*
X83598000Y-104860000D01*
X92237190Y-105745810D02*
X95409000Y-102574000D01*
X79325999Y-105830001D02*
X80296000Y-104860000D01*
X83598000Y-104860000D02*
X84483810Y-105745810D01*
X84483810Y-105745810D02*
X92237190Y-105745810D01*
X216313000Y-84159000D02*
X214662000Y-82508000D01*
X214662000Y-82508000D02*
X214154000Y-82508000D01*
X216313000Y-87588000D02*
X216313000Y-84159000D01*
X193580000Y-110321000D02*
X216313000Y-87588000D01*
X176054000Y-110321000D02*
X193580000Y-110321000D01*
X158147000Y-92414000D02*
X176054000Y-110321000D01*
X156750000Y-92414000D02*
X158147000Y-92414000D01*
X136202304Y-92414000D02*
X156750000Y-92414000D01*
X133030495Y-95585809D02*
X136202304Y-92414000D01*
X120805810Y-95585810D02*
X120805811Y-95585809D01*
X120805811Y-95585809D02*
X133030495Y-95585809D01*
X117761000Y-97240000D02*
X119415190Y-95585810D01*
X119415190Y-95585810D02*
X120805810Y-95585810D01*
X142653000Y-79968000D02*
X141926574Y-79968000D01*
X141760673Y-79802099D02*
X140278901Y-79802099D01*
X141926574Y-79968000D02*
X141760673Y-79802099D01*
X140278901Y-79802099D02*
X137827000Y-82254000D01*
X137827000Y-82254000D02*
X117253000Y-82254000D01*
X117253000Y-82254000D02*
X111411000Y-76412000D01*
X81566000Y-77682000D02*
X69374000Y-89874000D01*
X69374000Y-89874000D02*
X69374000Y-93303000D01*
X103664000Y-77682000D02*
X81566000Y-77682000D01*
X106585000Y-80603000D02*
X103664000Y-77682000D01*
X106585000Y-85302000D02*
X106585000Y-80603000D01*
X112046000Y-90763000D02*
X106585000Y-85302000D01*
X120428000Y-90763000D02*
X112046000Y-90763000D01*
X128556000Y-90763000D02*
X130461000Y-92668000D01*
X130461000Y-92668000D02*
X130461000Y-93176000D01*
X120428000Y-90763000D02*
X128556000Y-90763000D01*
X131223000Y-96732000D02*
X137827000Y-96732000D01*
X146844000Y-81619000D02*
X147860000Y-80603000D01*
X147860000Y-80603000D02*
X147860000Y-80095000D01*
X141002000Y-81619000D02*
X146844000Y-81619000D01*
X140240000Y-80857000D02*
X141002000Y-81619000D01*
D19*
X93345000Y-91059000D02*
X92837000Y-91059000D01*
X92837000Y-91059000D02*
X91821000Y-92075000D01*
D22*
X73438000Y-106892000D02*
X76232000Y-106892000D01*
X97060000Y-107400000D02*
X98330000Y-106130000D01*
X98330000Y-106130000D02*
X98330000Y-87504264D01*
X98330000Y-87504264D02*
X98330000Y-87080000D01*
X76232000Y-106892000D02*
X76740000Y-107400000D01*
X76740000Y-107400000D02*
X97060000Y-107400000D01*
X93631000Y-96097000D02*
X96298000Y-98764000D01*
X96298000Y-98764000D02*
X96298000Y-99780000D01*
X86773000Y-96097000D02*
X93631000Y-96097000D01*
X83979000Y-93303000D02*
X86773000Y-96097000D01*
X72295000Y-93303000D02*
X83979000Y-93303000D01*
D23*
X150400000Y-98129000D02*
X149257000Y-99272000D01*
X149257000Y-99272000D02*
X149257000Y-101939000D01*
X157131000Y-96533500D02*
X154773500Y-96533500D01*
X154773500Y-96533500D02*
X154718000Y-96478000D01*
X149638000Y-96478000D02*
X154718000Y-96478000D01*
X146209000Y-99907000D02*
X149638000Y-96478000D01*
X133890000Y-99907000D02*
X146209000Y-99907000D01*
X158020000Y-95843000D02*
X149384000Y-95843000D01*
X149384000Y-95843000D02*
X146209000Y-99018000D01*
X146209000Y-99018000D02*
X134525000Y-99018000D01*
X134525000Y-99018000D02*
X133255000Y-99018000D01*
D22*
X157922495Y-91521809D02*
X160205304Y-89239000D01*
X160205304Y-89239000D02*
X161068000Y-89239000D01*
X135824494Y-91521810D02*
X157922495Y-91521809D01*
X132649495Y-94696809D02*
X135824494Y-91521810D01*
X113159506Y-94696810D02*
X132649495Y-94696809D01*
X111715348Y-93252652D02*
X113159506Y-94696810D01*
X101224696Y-82762000D02*
X111715348Y-93252652D01*
X80169000Y-82762000D02*
X101224696Y-82762000D01*
X79410190Y-83520810D02*
X80169000Y-82762000D01*
X79410190Y-83520810D02*
X79413380Y-83524000D01*
X76880900Y-86050100D02*
X79410190Y-83520810D01*
X76880900Y-92541000D02*
X76880900Y-86050100D01*
X157766000Y-91144000D02*
X160433000Y-88477000D01*
X160433000Y-88477000D02*
X163608000Y-88477000D01*
X74200000Y-88096000D02*
X79915000Y-82381000D01*
X135668000Y-91144000D02*
X157766000Y-91144000D01*
X79915000Y-82381000D02*
X101378000Y-82381000D01*
X113316000Y-94319000D02*
X132493000Y-94319000D01*
X101378000Y-82381000D02*
X113316000Y-94319000D01*
X132493000Y-94319000D02*
X135668000Y-91144000D01*
D23*
X119031000Y-104352000D02*
X120487672Y-104352000D01*
X120487672Y-104352000D02*
X123516652Y-107380980D01*
X194161010Y-110882990D02*
X200692000Y-104352000D01*
X123516652Y-107380980D02*
X172217325Y-107380981D01*
X172217325Y-107380981D02*
X175719334Y-110882990D01*
X175719334Y-110882990D02*
X194161010Y-110882990D01*
X123275990Y-107961990D02*
X120428000Y-105114000D01*
X120428000Y-105114000D02*
X117888000Y-105114000D01*
X171976662Y-107961990D02*
X123275990Y-107961990D01*
X175478672Y-111464000D02*
X171976662Y-107961990D01*
X195358000Y-111464000D02*
X175478672Y-111464000D01*
X201708000Y-105114000D02*
X195358000Y-111464000D01*
X175292000Y-112099000D02*
X197263000Y-112099000D01*
X197263000Y-112099000D02*
X203486000Y-105876000D01*
X171736000Y-108543000D02*
X175292000Y-112099000D01*
X122968000Y-108543000D02*
X171736000Y-108543000D01*
X120301000Y-105876000D02*
X122968000Y-108543000D01*
X119158000Y-105876000D02*
X120301000Y-105876000D01*
D22*
X111411000Y-74888000D02*
X118015000Y-81492000D01*
X166783000Y-82381000D02*
X171482000Y-82381000D01*
X118015000Y-81492000D02*
X137573000Y-81492000D01*
X137573000Y-81492000D02*
X139732000Y-79333000D01*
X216393901Y-81919099D02*
X223044000Y-75269000D01*
X139732000Y-79333000D02*
X159163000Y-79333000D01*
X159163000Y-79333000D02*
X160839410Y-81009410D01*
X160839410Y-81009410D02*
X165411410Y-81009410D01*
X165411410Y-81009410D02*
X166783000Y-82381000D01*
X171482000Y-82381000D02*
X171943901Y-81919099D01*
X171943901Y-81919099D02*
X216393901Y-81919099D01*
X223044000Y-75269000D02*
X223044000Y-75142000D01*
X103283000Y-77047000D02*
X105696000Y-74634000D01*
X80931000Y-77047000D02*
X103283000Y-77047000D01*
X73518901Y-84459099D02*
X80931000Y-77047000D01*
X67215000Y-85937000D02*
X68692901Y-84459099D01*
X68692901Y-84459099D02*
X73518901Y-84459099D01*
X67215000Y-94446000D02*
X67215000Y-85937000D01*
X67723000Y-94954000D02*
X67215000Y-94446000D01*
X171836696Y-81492000D02*
X209455000Y-81492000D01*
X209455000Y-81492000D02*
X209937590Y-81009410D01*
X209937590Y-81009410D02*
X214027000Y-76920000D01*
X166939494Y-82003190D02*
X171325506Y-82003190D01*
X171325506Y-82003190D02*
X171836696Y-81492000D01*
X161068000Y-80603000D02*
X165539304Y-80603000D01*
X165539304Y-80603000D02*
X166939494Y-82003190D01*
X159420190Y-78955190D02*
X161068000Y-80603000D01*
X139575506Y-78955190D02*
X159420190Y-78955190D01*
X137188810Y-81114190D02*
X139347810Y-78955190D01*
X139347810Y-78955190D02*
X139575506Y-78955190D01*
X118780190Y-81114190D02*
X137188810Y-81114190D01*
X111538000Y-73872000D02*
X118780190Y-81114190D01*
X80774506Y-76669190D02*
X102517810Y-76669190D01*
X102517810Y-76669190D02*
X105569000Y-73618000D01*
X73362407Y-84081289D02*
X80774506Y-76669190D01*
X68536407Y-84081289D02*
X73362407Y-84081289D01*
X66837191Y-85780505D02*
X68536407Y-84081289D01*
X66834000Y-94910736D02*
X66834000Y-92033000D01*
X66834000Y-92033000D02*
X66837190Y-92029810D01*
X66837190Y-92029810D02*
X66837191Y-85780505D01*
X67215000Y-95716000D02*
X67215000Y-95291736D01*
X67215000Y-95291736D02*
X66834000Y-94910736D01*
X171680202Y-81114190D02*
X200307810Y-81114190D01*
X200307810Y-81114190D02*
X205137000Y-76285000D01*
X167164000Y-81619000D02*
X171175392Y-81619000D01*
X171175392Y-81619000D02*
X171680202Y-81114190D01*
X165770190Y-80225190D02*
X167164000Y-81619000D01*
X161322000Y-80222000D02*
X165132000Y-80222000D01*
X165132000Y-80222000D02*
X165135190Y-80225190D01*
X165135190Y-80225190D02*
X165770190Y-80225190D01*
X159671000Y-78571000D02*
X161322000Y-80222000D01*
X139097000Y-78571000D02*
X159671000Y-78571000D01*
X136931620Y-80736380D02*
X139097000Y-78571000D01*
X121450380Y-80736380D02*
X136931620Y-80736380D01*
X111665000Y-72475000D02*
X113189000Y-72475000D01*
X113189000Y-72475000D02*
X121450380Y-80736380D01*
X80618012Y-76291380D02*
X101625620Y-76291380D01*
X101625620Y-76291380D02*
X105569000Y-72348000D01*
X73205913Y-83703479D02*
X80618012Y-76291380D01*
X68379913Y-83703479D02*
X73205913Y-83703479D01*
X66453000Y-96097000D02*
X66453000Y-85630392D01*
X66453000Y-85630392D02*
X68379913Y-83703479D01*
X66834000Y-96478000D02*
X66453000Y-96097000D01*
D23*
X169831000Y-83778000D02*
X169196000Y-83143000D01*
X169196000Y-83143000D02*
X118909942Y-83143000D01*
X118909942Y-83143000D02*
X118500352Y-82733410D01*
X118500352Y-82733410D02*
X115827410Y-82733410D01*
X115827410Y-82733410D02*
X110268000Y-77174000D01*
X110268000Y-77174000D02*
X110268000Y-69554000D01*
X110268000Y-69554000D02*
X108744000Y-68030000D01*
X82582000Y-68030000D02*
X76486000Y-74126000D01*
X108744000Y-68030000D02*
X82582000Y-68030000D01*
X68358000Y-93557000D02*
X69120000Y-94319000D01*
X69120000Y-94319000D02*
X73819000Y-94319000D01*
X68358000Y-89239000D02*
X68358000Y-93557000D01*
X69755000Y-87842000D02*
X68358000Y-89239000D01*
X69755000Y-85048000D02*
X69755000Y-87842000D01*
M02*
