G04 #@! TF.FileFunction,Copper,L3,Inr,Mixed*
%FSLAX46Y46*%
G04 Gerber Fmt 4.6, Leading zero omitted, Abs format (unit mm)*
G04 Created by KiCad (PCBNEW 4.0.5) date Sunday, August 20, 2017 'PMt' 09:04:34 PM*
%MOMM*%
%LPD*%
G01*
G04 APERTURE LIST*
%ADD10C,0.100000*%
%ADD11C,0.150000*%
%ADD12C,6.000000*%
%ADD13C,0.600000*%
%ADD14C,2.000000*%
%ADD15R,3.500000X3.500000*%
%ADD16R,1.700000X1.700000*%
%ADD17O,1.700000X1.700000*%
%ADD18C,0.254000*%
G04 APERTURE END LIST*
D10*
D11*
X214328667Y-111678381D02*
X214947715Y-111678381D01*
X214614381Y-112059333D01*
X214757239Y-112059333D01*
X214852477Y-112106952D01*
X214900096Y-112154571D01*
X214947715Y-112249810D01*
X214947715Y-112487905D01*
X214900096Y-112583143D01*
X214852477Y-112630762D01*
X214757239Y-112678381D01*
X214471524Y-112678381D01*
X214376286Y-112630762D01*
X214328667Y-112583143D01*
D12*
X233760000Y-68627000D03*
D13*
X231510000Y-68627000D03*
X232169010Y-67036010D03*
X233760000Y-66377000D03*
X235350990Y-67036010D03*
X236010000Y-68627000D03*
X235350990Y-70217990D03*
X233760000Y-70877000D03*
X232169010Y-70217990D03*
D14*
X106730800Y-93091000D03*
X104230800Y-82091000D03*
X109230800Y-82091000D03*
X106730800Y-107735000D03*
X104230800Y-96735000D03*
X109230800Y-96735000D03*
D15*
X54143000Y-72150000D03*
X54143000Y-66150000D03*
X49443000Y-69150000D03*
D16*
X82296000Y-110998000D03*
D17*
X79756000Y-110998000D03*
X77216000Y-110998000D03*
X74676000Y-110998000D03*
X72136000Y-110998000D03*
X69596000Y-110998000D03*
D16*
X87630000Y-66294000D03*
D17*
X85090000Y-66294000D03*
D16*
X225488500Y-66294000D03*
D17*
X222948500Y-66294000D03*
D16*
X216471500Y-66294000D03*
D17*
X213931500Y-66294000D03*
D16*
X207581500Y-66294000D03*
D17*
X205041500Y-66294000D03*
D16*
X151384000Y-110998000D03*
D17*
X148844000Y-110998000D03*
X146304000Y-110998000D03*
X143764000Y-110998000D03*
X141224000Y-110998000D03*
X138684000Y-110998000D03*
X136144000Y-110998000D03*
X133604000Y-110998000D03*
X131064000Y-110998000D03*
X128524000Y-110998000D03*
X125984000Y-110998000D03*
D16*
X132334000Y-66294000D03*
D17*
X129794000Y-66294000D03*
X127254000Y-66294000D03*
X124714000Y-66294000D03*
X122174000Y-66294000D03*
X119634000Y-66294000D03*
D16*
X161417000Y-66294000D03*
D17*
X163957000Y-66294000D03*
X166497000Y-66294000D03*
X169037000Y-66294000D03*
X171577000Y-66294000D03*
X174117000Y-66294000D03*
D16*
X54991000Y-110490000D03*
D17*
X57531000Y-110490000D03*
D16*
X171577000Y-69469000D03*
D17*
X174117000Y-69469000D03*
D12*
X43760000Y-68627000D03*
D13*
X41510000Y-68627000D03*
X42169010Y-67036010D03*
X43760000Y-66377000D03*
X45350990Y-67036010D03*
X46010000Y-68627000D03*
X45350990Y-70217990D03*
X43760000Y-70877000D03*
X42169010Y-70217990D03*
D12*
X43760000Y-108627000D03*
D13*
X41510000Y-108627000D03*
X42169010Y-107036010D03*
X43760000Y-106377000D03*
X45350990Y-107036010D03*
X46010000Y-108627000D03*
X45350990Y-110217990D03*
X43760000Y-110877000D03*
X42169010Y-110217990D03*
D12*
X233760000Y-108627000D03*
D13*
X231510000Y-108627000D03*
X232169010Y-107036010D03*
X233760000Y-106377000D03*
X235350990Y-107036010D03*
X236010000Y-108627000D03*
X235350990Y-110217990D03*
X233760000Y-110877000D03*
X232169010Y-110217990D03*
X151162000Y-105876000D03*
X148241000Y-105876000D03*
X145574000Y-105876000D03*
X142907000Y-106003000D03*
X139986000Y-105876000D03*
X137319000Y-105876000D03*
X134525000Y-105876000D03*
X131604000Y-105876000D03*
X128810000Y-105876000D03*
X126143000Y-105876000D03*
X122714000Y-104352000D03*
X93250000Y-70824000D03*
X48165000Y-81746000D03*
X223171000Y-80603000D03*
X214735500Y-84984500D03*
X200184000Y-94192000D03*
X198025000Y-95970000D03*
X56928000Y-87080000D03*
X58198000Y-88731000D03*
X56420000Y-81492000D03*
X53355000Y-85096500D03*
X54595000Y-85096500D03*
X54595000Y-84321500D03*
X53355000Y-84321500D03*
X198914000Y-90255000D03*
X197644000Y-85556000D03*
X192056000Y-85175000D03*
X186722000Y-95589000D03*
X206407000Y-87461000D03*
X121875800Y-98891000D03*
X137776200Y-95487400D03*
X137979400Y-98027400D03*
X63913000Y-69122200D03*
X141383000Y-77047000D03*
X136049000Y-77047000D03*
X130969000Y-77047000D03*
X125889000Y-77047000D03*
X120809000Y-77047000D03*
X115602000Y-77047000D03*
X145066000Y-89493000D03*
X118523000Y-85556000D03*
X95631000Y-79248000D03*
X97663000Y-81026000D03*
X93599000Y-81026000D03*
X126619000Y-93218000D03*
X124079000Y-93218000D03*
X121539000Y-93218000D03*
X68580000Y-101854000D03*
X63246000Y-108839000D03*
X78994000Y-91821000D03*
X89027000Y-93726000D03*
X90043000Y-91059000D03*
X93599000Y-87376000D03*
X192475000Y-90756500D03*
X191700000Y-90756500D03*
X191700000Y-91996500D03*
X192475000Y-91996500D03*
X195961000Y-93599000D03*
X208788000Y-82804000D03*
X228473000Y-69088000D03*
X219456000Y-68961000D03*
X210566000Y-69088000D03*
X163322000Y-73152000D03*
X166497000Y-72517000D03*
X174752000Y-74041000D03*
X163449000Y-79248000D03*
X169164000Y-77343000D03*
X163957000Y-82042000D03*
X162814000Y-82042000D03*
X93726000Y-99441000D03*
X92456000Y-99441000D03*
X89916000Y-99441000D03*
X82169000Y-106299000D03*
X85725000Y-104648000D03*
X85725000Y-96901000D03*
X79756000Y-96647000D03*
X76592000Y-102881000D03*
X74792000Y-102881000D03*
X74792000Y-101081000D03*
X76592000Y-101081000D03*
X94673000Y-93287000D03*
X95573000Y-93287000D03*
X95573000Y-92387000D03*
X94673000Y-92387000D03*
X42274000Y-75910000D03*
X52070000Y-107188000D03*
X228346000Y-86741000D03*
X230759000Y-80772000D03*
X227584000Y-93218000D03*
X227711000Y-98933000D03*
X227711000Y-104394000D03*
X144018000Y-80391000D03*
X146558000Y-80391000D03*
X63024000Y-70316000D03*
X71025000Y-73110000D03*
X62262000Y-78952000D03*
X63532000Y-78952000D03*
X64802000Y-78952000D03*
X192818000Y-97875000D03*
X190024000Y-96224000D03*
X189389000Y-97621000D03*
X58198000Y-93049000D03*
X58960000Y-91906000D03*
X54769000Y-94319000D03*
X56801000Y-93049000D03*
X54515000Y-82127000D03*
X56928000Y-85810000D03*
X100692200Y-103971000D03*
X121875800Y-101939000D03*
X125939800Y-102599400D03*
X118523000Y-83778000D03*
X89408000Y-87757000D03*
X100362000Y-87080000D03*
X95790000Y-87080000D03*
X102394000Y-95970000D03*
X91821000Y-71120000D03*
X141478000Y-80391000D03*
X141986000Y-89535000D03*
X129159000Y-93218000D03*
X208915000Y-87503000D03*
X228473000Y-72009000D03*
X219456000Y-72136000D03*
X210566000Y-72136000D03*
X173101000Y-78232000D03*
X163576000Y-74549000D03*
X169164000Y-76200000D03*
X54483000Y-107061000D03*
X60452000Y-103632000D03*
X235966000Y-91567000D03*
X235966000Y-97409000D03*
X235966000Y-102870000D03*
X230378000Y-79248000D03*
X227711000Y-85090000D03*
X195231000Y-77047000D03*
X152432000Y-73237000D03*
X142907000Y-75015000D03*
X137725400Y-75015000D03*
X132797800Y-75015000D03*
X127717800Y-75015000D03*
X122485400Y-75015000D03*
X117202200Y-75015000D03*
X159798000Y-95081000D03*
X68231000Y-86699000D03*
X79748877Y-101802726D03*
X79280000Y-108035000D03*
X84436200Y-91271000D03*
X97293966Y-85749996D03*
X94266000Y-85810000D03*
X68612000Y-103209000D03*
X79756000Y-99314000D03*
X96520000Y-90297000D03*
X97536000Y-99568000D03*
X93599000Y-84074000D03*
X97536000Y-84074000D03*
X89027000Y-92456000D03*
X44990000Y-90001000D03*
X72930000Y-107781000D03*
X64548000Y-100542000D03*
X72549000Y-95081000D03*
X155454600Y-68868200D03*
X231553000Y-78317000D03*
X119158000Y-109432000D03*
X72676000Y-81238000D03*
X83217000Y-105876000D03*
X224568000Y-78952000D03*
X118015000Y-108416000D03*
X96425000Y-106765000D03*
X60484000Y-87207000D03*
X76740000Y-105749000D03*
X198152000Y-87080000D03*
X117507000Y-96224000D03*
X95536000Y-101812000D03*
X78899000Y-105241000D03*
X194596000Y-88223000D03*
X189458640Y-92349140D03*
X78010000Y-105495000D03*
X214154000Y-82508000D03*
X117761000Y-97240000D03*
X96806000Y-102574000D03*
X69374000Y-93303000D03*
X142653000Y-79968000D03*
X130461000Y-93176000D03*
X111411000Y-76412000D03*
X137827000Y-96732000D03*
X131223000Y-96732000D03*
X147860000Y-80095000D03*
X140240000Y-80857000D03*
X91821000Y-92075000D03*
X93345000Y-91059000D03*
X73438000Y-106892000D03*
X98330000Y-87080000D03*
X96298000Y-99780000D03*
X72295000Y-93303000D03*
X149257000Y-101939000D03*
X150400000Y-98129000D03*
X157131000Y-96533500D03*
X133890000Y-99907000D03*
X158020000Y-95843000D03*
X133255000Y-99018000D03*
X161068000Y-89239000D03*
X76880900Y-92541000D03*
X163608000Y-88477000D03*
X74200000Y-88096000D03*
X200692000Y-104352000D03*
X119031000Y-104352000D03*
X201708000Y-105114000D03*
X117888000Y-105114000D03*
X203486000Y-105876000D03*
X119158000Y-105876000D03*
X223044000Y-75142000D03*
X111411000Y-74888000D03*
X105696000Y-74634000D03*
X67723000Y-94954000D03*
X214027000Y-76920000D03*
X111538000Y-73872000D03*
X105569000Y-73618000D03*
X67215000Y-95716000D03*
X205137000Y-76285000D03*
X111665000Y-72475000D03*
X105569000Y-72348000D03*
X66834000Y-96478000D03*
X73819000Y-94319000D03*
X69755000Y-85048000D03*
X76486000Y-74126000D03*
X169831000Y-83778000D03*
D18*
G36*
X238050000Y-112917000D02*
X215773191Y-112917000D01*
X215773191Y-110816000D01*
X213550810Y-110816000D01*
X213550810Y-112917000D01*
X39470000Y-112917000D01*
X39470000Y-109640000D01*
X53493560Y-109640000D01*
X53493560Y-111340000D01*
X53537838Y-111575317D01*
X53676910Y-111791441D01*
X53889110Y-111936431D01*
X54141000Y-111987440D01*
X55841000Y-111987440D01*
X56076317Y-111943162D01*
X56292441Y-111804090D01*
X56437431Y-111591890D01*
X56459301Y-111483893D01*
X56764076Y-111761645D01*
X57174110Y-111931476D01*
X57404000Y-111810155D01*
X57404000Y-110617000D01*
X57658000Y-110617000D01*
X57658000Y-111810155D01*
X57887890Y-111931476D01*
X58297924Y-111761645D01*
X58726183Y-111371358D01*
X58915184Y-110968907D01*
X68111000Y-110968907D01*
X68111000Y-111027093D01*
X68224039Y-111595378D01*
X68545946Y-112077147D01*
X69027715Y-112399054D01*
X69596000Y-112512093D01*
X70164285Y-112399054D01*
X70646054Y-112077147D01*
X70866000Y-111747974D01*
X71085946Y-112077147D01*
X71567715Y-112399054D01*
X72136000Y-112512093D01*
X72704285Y-112399054D01*
X73186054Y-112077147D01*
X73406000Y-111747974D01*
X73625946Y-112077147D01*
X74107715Y-112399054D01*
X74676000Y-112512093D01*
X75244285Y-112399054D01*
X75726054Y-112077147D01*
X75953702Y-111736447D01*
X76020817Y-111879358D01*
X76449076Y-112269645D01*
X76859110Y-112439476D01*
X77089000Y-112318155D01*
X77089000Y-111125000D01*
X77069000Y-111125000D01*
X77069000Y-110871000D01*
X77089000Y-110871000D01*
X77089000Y-109677845D01*
X77343000Y-109677845D01*
X77343000Y-110871000D01*
X77363000Y-110871000D01*
X77363000Y-111125000D01*
X77343000Y-111125000D01*
X77343000Y-112318155D01*
X77572890Y-112439476D01*
X77982924Y-112269645D01*
X78411183Y-111879358D01*
X78478298Y-111736447D01*
X78705946Y-112077147D01*
X79187715Y-112399054D01*
X79756000Y-112512093D01*
X80324285Y-112399054D01*
X80806054Y-112077147D01*
X80833850Y-112035548D01*
X80842838Y-112083317D01*
X80981910Y-112299441D01*
X81194110Y-112444431D01*
X81446000Y-112495440D01*
X83146000Y-112495440D01*
X83381317Y-112451162D01*
X83597441Y-112312090D01*
X83742431Y-112099890D01*
X83793440Y-111848000D01*
X83793440Y-110968907D01*
X124499000Y-110968907D01*
X124499000Y-111027093D01*
X124612039Y-111595378D01*
X124933946Y-112077147D01*
X125415715Y-112399054D01*
X125984000Y-112512093D01*
X126552285Y-112399054D01*
X127034054Y-112077147D01*
X127254000Y-111747974D01*
X127473946Y-112077147D01*
X127955715Y-112399054D01*
X128524000Y-112512093D01*
X129092285Y-112399054D01*
X129574054Y-112077147D01*
X129794000Y-111747974D01*
X130013946Y-112077147D01*
X130495715Y-112399054D01*
X131064000Y-112512093D01*
X131632285Y-112399054D01*
X132114054Y-112077147D01*
X132334000Y-111747974D01*
X132553946Y-112077147D01*
X133035715Y-112399054D01*
X133604000Y-112512093D01*
X134172285Y-112399054D01*
X134654054Y-112077147D01*
X134874000Y-111747974D01*
X135093946Y-112077147D01*
X135575715Y-112399054D01*
X136144000Y-112512093D01*
X136712285Y-112399054D01*
X137194054Y-112077147D01*
X137414000Y-111747974D01*
X137633946Y-112077147D01*
X138115715Y-112399054D01*
X138684000Y-112512093D01*
X139252285Y-112399054D01*
X139734054Y-112077147D01*
X139954000Y-111747974D01*
X140173946Y-112077147D01*
X140655715Y-112399054D01*
X141224000Y-112512093D01*
X141792285Y-112399054D01*
X142274054Y-112077147D01*
X142494000Y-111747974D01*
X142713946Y-112077147D01*
X143195715Y-112399054D01*
X143764000Y-112512093D01*
X144332285Y-112399054D01*
X144814054Y-112077147D01*
X145034000Y-111747974D01*
X145253946Y-112077147D01*
X145735715Y-112399054D01*
X146304000Y-112512093D01*
X146872285Y-112399054D01*
X147354054Y-112077147D01*
X147574000Y-111747974D01*
X147793946Y-112077147D01*
X148275715Y-112399054D01*
X148844000Y-112512093D01*
X149412285Y-112399054D01*
X149894054Y-112077147D01*
X149921850Y-112035548D01*
X149930838Y-112083317D01*
X150069910Y-112299441D01*
X150282110Y-112444431D01*
X150534000Y-112495440D01*
X152234000Y-112495440D01*
X152469317Y-112451162D01*
X152685441Y-112312090D01*
X152830431Y-112099890D01*
X152881440Y-111848000D01*
X152881440Y-110148000D01*
X152837162Y-109912683D01*
X152698090Y-109696559D01*
X152485890Y-109551569D01*
X152234000Y-109500560D01*
X150534000Y-109500560D01*
X150298683Y-109544838D01*
X150082559Y-109683910D01*
X149937569Y-109896110D01*
X149923914Y-109963541D01*
X149894054Y-109918853D01*
X149412285Y-109596946D01*
X148844000Y-109483907D01*
X148275715Y-109596946D01*
X147793946Y-109918853D01*
X147574000Y-110248026D01*
X147354054Y-109918853D01*
X146872285Y-109596946D01*
X146304000Y-109483907D01*
X145735715Y-109596946D01*
X145253946Y-109918853D01*
X145034000Y-110248026D01*
X144814054Y-109918853D01*
X144332285Y-109596946D01*
X143764000Y-109483907D01*
X143195715Y-109596946D01*
X142713946Y-109918853D01*
X142494000Y-110248026D01*
X142274054Y-109918853D01*
X141792285Y-109596946D01*
X141224000Y-109483907D01*
X140655715Y-109596946D01*
X140173946Y-109918853D01*
X139954000Y-110248026D01*
X139734054Y-109918853D01*
X139252285Y-109596946D01*
X138684000Y-109483907D01*
X138115715Y-109596946D01*
X137633946Y-109918853D01*
X137414000Y-110248026D01*
X137194054Y-109918853D01*
X136712285Y-109596946D01*
X136144000Y-109483907D01*
X135575715Y-109596946D01*
X135093946Y-109918853D01*
X134874000Y-110248026D01*
X134654054Y-109918853D01*
X134172285Y-109596946D01*
X133604000Y-109483907D01*
X133035715Y-109596946D01*
X132553946Y-109918853D01*
X132334000Y-110248026D01*
X132114054Y-109918853D01*
X131632285Y-109596946D01*
X131064000Y-109483907D01*
X130495715Y-109596946D01*
X130013946Y-109918853D01*
X129794000Y-110248026D01*
X129574054Y-109918853D01*
X129092285Y-109596946D01*
X128524000Y-109483907D01*
X127955715Y-109596946D01*
X127473946Y-109918853D01*
X127254000Y-110248026D01*
X127034054Y-109918853D01*
X126552285Y-109596946D01*
X125984000Y-109483907D01*
X125415715Y-109596946D01*
X124933946Y-109918853D01*
X124612039Y-110400622D01*
X124499000Y-110968907D01*
X83793440Y-110968907D01*
X83793440Y-110148000D01*
X83749162Y-109912683D01*
X83610090Y-109696559D01*
X83397890Y-109551569D01*
X83146000Y-109500560D01*
X81446000Y-109500560D01*
X81210683Y-109544838D01*
X80994559Y-109683910D01*
X80849569Y-109896110D01*
X80835914Y-109963541D01*
X80806054Y-109918853D01*
X80324285Y-109596946D01*
X79756000Y-109483907D01*
X79187715Y-109596946D01*
X78705946Y-109918853D01*
X78478298Y-110259553D01*
X78411183Y-110116642D01*
X77982924Y-109726355D01*
X77572890Y-109556524D01*
X77343000Y-109677845D01*
X77089000Y-109677845D01*
X76859110Y-109556524D01*
X76449076Y-109726355D01*
X76020817Y-110116642D01*
X75953702Y-110259553D01*
X75726054Y-109918853D01*
X75244285Y-109596946D01*
X74676000Y-109483907D01*
X74107715Y-109596946D01*
X73625946Y-109918853D01*
X73406000Y-110248026D01*
X73186054Y-109918853D01*
X72704285Y-109596946D01*
X72136000Y-109483907D01*
X71567715Y-109596946D01*
X71085946Y-109918853D01*
X70866000Y-110248026D01*
X70646054Y-109918853D01*
X70164285Y-109596946D01*
X69596000Y-109483907D01*
X69027715Y-109596946D01*
X68545946Y-109918853D01*
X68224039Y-110400622D01*
X68111000Y-110968907D01*
X58915184Y-110968907D01*
X58972486Y-110846892D01*
X58851819Y-110617000D01*
X57658000Y-110617000D01*
X57404000Y-110617000D01*
X57384000Y-110617000D01*
X57384000Y-110363000D01*
X57404000Y-110363000D01*
X57404000Y-109169845D01*
X57658000Y-109169845D01*
X57658000Y-110363000D01*
X58851819Y-110363000D01*
X58972486Y-110133108D01*
X58726183Y-109608642D01*
X58297924Y-109218355D01*
X57887890Y-109048524D01*
X57658000Y-109169845D01*
X57404000Y-109169845D01*
X57174110Y-109048524D01*
X56764076Y-109218355D01*
X56461063Y-109494501D01*
X56444162Y-109404683D01*
X56305090Y-109188559D01*
X56092890Y-109043569D01*
X55841000Y-108992560D01*
X54141000Y-108992560D01*
X53905683Y-109036838D01*
X53689559Y-109175910D01*
X53544569Y-109388110D01*
X53493560Y-109640000D01*
X39470000Y-109640000D01*
X39470000Y-107246167D01*
X53547838Y-107246167D01*
X53689883Y-107589943D01*
X53952673Y-107853192D01*
X54296201Y-107995838D01*
X54668167Y-107996162D01*
X54740760Y-107966167D01*
X71994838Y-107966167D01*
X72136883Y-108309943D01*
X72399673Y-108573192D01*
X72743201Y-108715838D01*
X73115167Y-108716162D01*
X73458943Y-108574117D01*
X73722192Y-108311327D01*
X73760045Y-108220167D01*
X78344838Y-108220167D01*
X78486883Y-108563943D01*
X78749673Y-108827192D01*
X79093201Y-108969838D01*
X79465167Y-108970162D01*
X79665147Y-108887532D01*
X105757873Y-108887532D01*
X105856536Y-109154387D01*
X106466261Y-109380908D01*
X107116260Y-109356856D01*
X107605064Y-109154387D01*
X107703727Y-108887532D01*
X106730800Y-107914605D01*
X105757873Y-108887532D01*
X79665147Y-108887532D01*
X79808943Y-108828117D01*
X80072192Y-108565327D01*
X80214838Y-108221799D01*
X80215162Y-107849833D01*
X80073117Y-107506057D01*
X79810327Y-107242808D01*
X79466799Y-107100162D01*
X79094833Y-107099838D01*
X78751057Y-107241883D01*
X78487808Y-107504673D01*
X78345162Y-107848201D01*
X78344838Y-108220167D01*
X73760045Y-108220167D01*
X73864838Y-107967799D01*
X73865048Y-107727219D01*
X73966943Y-107685117D01*
X74230192Y-107422327D01*
X74372838Y-107078799D01*
X74372950Y-106950167D01*
X95489838Y-106950167D01*
X95631883Y-107293943D01*
X95894673Y-107557192D01*
X96238201Y-107699838D01*
X96610167Y-107700162D01*
X96953943Y-107558117D01*
X97041752Y-107470461D01*
X105084892Y-107470461D01*
X105108944Y-108120460D01*
X105311413Y-108609264D01*
X105578268Y-108707927D01*
X106551195Y-107735000D01*
X106910405Y-107735000D01*
X107883332Y-108707927D01*
X108150187Y-108609264D01*
X108153195Y-108601167D01*
X117079838Y-108601167D01*
X117221883Y-108944943D01*
X117484673Y-109208192D01*
X117828201Y-109350838D01*
X118200167Y-109351162D01*
X118223078Y-109341695D01*
X118222838Y-109617167D01*
X118364883Y-109960943D01*
X118627673Y-110224192D01*
X118971201Y-110366838D01*
X119343167Y-110367162D01*
X119686943Y-110225117D01*
X119950192Y-109962327D01*
X120092838Y-109618799D01*
X120093162Y-109246833D01*
X119951117Y-108903057D01*
X119688327Y-108639808D01*
X119344799Y-108497162D01*
X118972833Y-108496838D01*
X118949922Y-108506305D01*
X118950162Y-108230833D01*
X118808117Y-107887057D01*
X118545327Y-107623808D01*
X118201799Y-107481162D01*
X117829833Y-107480838D01*
X117486057Y-107622883D01*
X117222808Y-107885673D01*
X117080162Y-108229201D01*
X117079838Y-108601167D01*
X108153195Y-108601167D01*
X108376708Y-107999539D01*
X108352656Y-107349540D01*
X108150187Y-106860736D01*
X107883332Y-106762073D01*
X106910405Y-107735000D01*
X106551195Y-107735000D01*
X105578268Y-106762073D01*
X105311413Y-106860736D01*
X105084892Y-107470461D01*
X97041752Y-107470461D01*
X97217192Y-107295327D01*
X97359838Y-106951799D01*
X97360159Y-106582468D01*
X105757873Y-106582468D01*
X106730800Y-107555395D01*
X107703727Y-106582468D01*
X107605064Y-106315613D01*
X106995339Y-106089092D01*
X106345340Y-106113144D01*
X105856536Y-106315613D01*
X105757873Y-106582468D01*
X97360159Y-106582468D01*
X97360162Y-106579833D01*
X97218117Y-106236057D01*
X96955327Y-105972808D01*
X96611799Y-105830162D01*
X96239833Y-105829838D01*
X95896057Y-105971883D01*
X95632808Y-106234673D01*
X95490162Y-106578201D01*
X95489838Y-106950167D01*
X74372950Y-106950167D01*
X74373162Y-106706833D01*
X74231117Y-106363057D01*
X73968327Y-106099808D01*
X73624799Y-105957162D01*
X73252833Y-105956838D01*
X72909057Y-106098883D01*
X72645808Y-106361673D01*
X72503162Y-106705201D01*
X72502952Y-106945781D01*
X72401057Y-106987883D01*
X72137808Y-107250673D01*
X71995162Y-107594201D01*
X71994838Y-107966167D01*
X54740760Y-107966167D01*
X55011943Y-107854117D01*
X55275192Y-107591327D01*
X55417838Y-107247799D01*
X55418162Y-106875833D01*
X55276117Y-106532057D01*
X55013327Y-106268808D01*
X54669799Y-106126162D01*
X54297833Y-106125838D01*
X53954057Y-106267883D01*
X53690808Y-106530673D01*
X53548162Y-106874201D01*
X53547838Y-107246167D01*
X39470000Y-107246167D01*
X39470000Y-105934167D01*
X75804838Y-105934167D01*
X75946883Y-106277943D01*
X76209673Y-106541192D01*
X76553201Y-106683838D01*
X76925167Y-106684162D01*
X77268943Y-106542117D01*
X77511199Y-106300283D01*
X77823201Y-106429838D01*
X78195167Y-106430162D01*
X78538943Y-106288117D01*
X78669274Y-106158013D01*
X78712201Y-106175838D01*
X79084167Y-106176162D01*
X79362476Y-106061167D01*
X82281838Y-106061167D01*
X82423883Y-106404943D01*
X82686673Y-106668192D01*
X83030201Y-106810838D01*
X83402167Y-106811162D01*
X83745943Y-106669117D01*
X84009192Y-106406327D01*
X84151838Y-106062799D01*
X84152162Y-105690833D01*
X84010117Y-105347057D01*
X83962311Y-105299167D01*
X116952838Y-105299167D01*
X117094883Y-105642943D01*
X117357673Y-105906192D01*
X117701201Y-106048838D01*
X118073167Y-106049162D01*
X118222902Y-105987293D01*
X118222838Y-106061167D01*
X118364883Y-106404943D01*
X118627673Y-106668192D01*
X118971201Y-106810838D01*
X119343167Y-106811162D01*
X119686943Y-106669117D01*
X119950192Y-106406327D01*
X120092838Y-106062799D01*
X120092839Y-106061167D01*
X202550838Y-106061167D01*
X202692883Y-106404943D01*
X202955673Y-106668192D01*
X203299201Y-106810838D01*
X203671167Y-106811162D01*
X204014943Y-106669117D01*
X204278192Y-106406327D01*
X204420838Y-106062799D01*
X204421162Y-105690833D01*
X204279117Y-105347057D01*
X204016327Y-105083808D01*
X203672799Y-104941162D01*
X203300833Y-104940838D01*
X202957057Y-105082883D01*
X202693808Y-105345673D01*
X202551162Y-105689201D01*
X202550838Y-106061167D01*
X120092839Y-106061167D01*
X120093162Y-105690833D01*
X119951117Y-105347057D01*
X119688327Y-105083808D01*
X119641032Y-105064169D01*
X119823192Y-104882327D01*
X119965838Y-104538799D01*
X119965839Y-104537167D01*
X199756838Y-104537167D01*
X199898883Y-104880943D01*
X200161673Y-105144192D01*
X200505201Y-105286838D01*
X200772849Y-105287071D01*
X200772838Y-105299167D01*
X200914883Y-105642943D01*
X201177673Y-105906192D01*
X201521201Y-106048838D01*
X201893167Y-106049162D01*
X202236943Y-105907117D01*
X202500192Y-105644327D01*
X202642838Y-105300799D01*
X202643162Y-104928833D01*
X202501117Y-104585057D01*
X202238327Y-104321808D01*
X201894799Y-104179162D01*
X201627151Y-104178929D01*
X201627162Y-104166833D01*
X201485117Y-103823057D01*
X201222327Y-103559808D01*
X200878799Y-103417162D01*
X200506833Y-103416838D01*
X200163057Y-103558883D01*
X199899808Y-103821673D01*
X199757162Y-104165201D01*
X199756838Y-104537167D01*
X119965839Y-104537167D01*
X119966162Y-104166833D01*
X119824117Y-103823057D01*
X119561327Y-103559808D01*
X119217799Y-103417162D01*
X118845833Y-103416838D01*
X118502057Y-103558883D01*
X118238808Y-103821673D01*
X118096162Y-104165201D01*
X118096142Y-104188024D01*
X118074799Y-104179162D01*
X117702833Y-104178838D01*
X117359057Y-104320883D01*
X117095808Y-104583673D01*
X116953162Y-104927201D01*
X116952838Y-105299167D01*
X83962311Y-105299167D01*
X83747327Y-105083808D01*
X83403799Y-104941162D01*
X83031833Y-104940838D01*
X82688057Y-105082883D01*
X82424808Y-105345673D01*
X82282162Y-105689201D01*
X82281838Y-106061167D01*
X79362476Y-106061167D01*
X79427943Y-106034117D01*
X79691192Y-105771327D01*
X79833838Y-105427799D01*
X79834162Y-105055833D01*
X79692117Y-104712057D01*
X79429327Y-104448808D01*
X79085799Y-104306162D01*
X78713833Y-104305838D01*
X78370057Y-104447883D01*
X78239726Y-104577987D01*
X78196799Y-104560162D01*
X77824833Y-104559838D01*
X77481057Y-104701883D01*
X77238801Y-104943717D01*
X76926799Y-104814162D01*
X76554833Y-104813838D01*
X76211057Y-104955883D01*
X75947808Y-105218673D01*
X75805162Y-105562201D01*
X75804838Y-105934167D01*
X39470000Y-105934167D01*
X39470000Y-103817167D01*
X59516838Y-103817167D01*
X59658883Y-104160943D01*
X59921673Y-104424192D01*
X60265201Y-104566838D01*
X60637167Y-104567162D01*
X60980943Y-104425117D01*
X61244192Y-104162327D01*
X61246749Y-104156167D01*
X99757038Y-104156167D01*
X99899083Y-104499943D01*
X100161873Y-104763192D01*
X100505401Y-104905838D01*
X100877367Y-104906162D01*
X101221143Y-104764117D01*
X101484392Y-104501327D01*
X101627038Y-104157799D01*
X101627362Y-103785833D01*
X101485317Y-103442057D01*
X101222527Y-103178808D01*
X100878999Y-103036162D01*
X100507033Y-103035838D01*
X100163257Y-103177883D01*
X99900008Y-103440673D01*
X99757362Y-103784201D01*
X99757038Y-104156167D01*
X61246749Y-104156167D01*
X61386838Y-103818799D01*
X61387162Y-103446833D01*
X61365401Y-103394167D01*
X67676838Y-103394167D01*
X67818883Y-103737943D01*
X68081673Y-104001192D01*
X68425201Y-104143838D01*
X68797167Y-104144162D01*
X69140943Y-104002117D01*
X69404192Y-103739327D01*
X69546838Y-103395799D01*
X69547162Y-103023833D01*
X69405117Y-102680057D01*
X69142327Y-102416808D01*
X68798799Y-102274162D01*
X68426833Y-102273838D01*
X68083057Y-102415883D01*
X67819808Y-102678673D01*
X67677162Y-103022201D01*
X67676838Y-103394167D01*
X61365401Y-103394167D01*
X61245117Y-103103057D01*
X60982327Y-102839808D01*
X60638799Y-102697162D01*
X60266833Y-102696838D01*
X59923057Y-102838883D01*
X59659808Y-103101673D01*
X59517162Y-103445201D01*
X59516838Y-103817167D01*
X39470000Y-103817167D01*
X39470000Y-101987893D01*
X78813715Y-101987893D01*
X78955760Y-102331669D01*
X79218550Y-102594918D01*
X79562078Y-102737564D01*
X79934044Y-102737888D01*
X80277820Y-102595843D01*
X80541069Y-102333053D01*
X80680541Y-101997167D01*
X94600838Y-101997167D01*
X94742883Y-102340943D01*
X95005673Y-102604192D01*
X95349201Y-102746838D01*
X95721167Y-102747162D01*
X95870902Y-102685293D01*
X95870838Y-102759167D01*
X96012883Y-103102943D01*
X96275673Y-103366192D01*
X96619201Y-103508838D01*
X96991167Y-103509162D01*
X97334943Y-103367117D01*
X97598192Y-103104327D01*
X97740838Y-102760799D01*
X97741162Y-102388833D01*
X97631805Y-102124167D01*
X120940638Y-102124167D01*
X121082683Y-102467943D01*
X121345473Y-102731192D01*
X121689001Y-102873838D01*
X122060967Y-102874162D01*
X122277803Y-102784567D01*
X125004638Y-102784567D01*
X125146683Y-103128343D01*
X125409473Y-103391592D01*
X125753001Y-103534238D01*
X126124967Y-103534562D01*
X126468743Y-103392517D01*
X126731992Y-103129727D01*
X126762952Y-103055167D01*
X235030838Y-103055167D01*
X235172883Y-103398943D01*
X235435673Y-103662192D01*
X235779201Y-103804838D01*
X236151167Y-103805162D01*
X236494943Y-103663117D01*
X236758192Y-103400327D01*
X236900838Y-103056799D01*
X236901162Y-102684833D01*
X236759117Y-102341057D01*
X236496327Y-102077808D01*
X236152799Y-101935162D01*
X235780833Y-101934838D01*
X235437057Y-102076883D01*
X235173808Y-102339673D01*
X235031162Y-102683201D01*
X235030838Y-103055167D01*
X126762952Y-103055167D01*
X126874638Y-102786199D01*
X126874962Y-102414233D01*
X126755110Y-102124167D01*
X148321838Y-102124167D01*
X148463883Y-102467943D01*
X148726673Y-102731192D01*
X149070201Y-102873838D01*
X149442167Y-102874162D01*
X149785943Y-102732117D01*
X150049192Y-102469327D01*
X150191838Y-102125799D01*
X150192162Y-101753833D01*
X150050117Y-101410057D01*
X149787327Y-101146808D01*
X149443799Y-101004162D01*
X149071833Y-101003838D01*
X148728057Y-101145883D01*
X148464808Y-101408673D01*
X148322162Y-101752201D01*
X148321838Y-102124167D01*
X126755110Y-102124167D01*
X126732917Y-102070457D01*
X126470127Y-101807208D01*
X126126599Y-101664562D01*
X125754633Y-101664238D01*
X125410857Y-101806283D01*
X125147608Y-102069073D01*
X125004962Y-102412601D01*
X125004638Y-102784567D01*
X122277803Y-102784567D01*
X122404743Y-102732117D01*
X122667992Y-102469327D01*
X122810638Y-102125799D01*
X122810962Y-101753833D01*
X122668917Y-101410057D01*
X122406127Y-101146808D01*
X122062599Y-101004162D01*
X121690633Y-101003838D01*
X121346857Y-101145883D01*
X121083608Y-101408673D01*
X120940962Y-101752201D01*
X120940638Y-102124167D01*
X97631805Y-102124167D01*
X97599117Y-102045057D01*
X97336327Y-101781808D01*
X96992799Y-101639162D01*
X96620833Y-101638838D01*
X96471098Y-101700707D01*
X96471162Y-101626833D01*
X96329117Y-101283057D01*
X96066327Y-101019808D01*
X95722799Y-100877162D01*
X95350833Y-100876838D01*
X95007057Y-101018883D01*
X94743808Y-101281673D01*
X94601162Y-101625201D01*
X94600838Y-101997167D01*
X80680541Y-101997167D01*
X80683715Y-101989525D01*
X80684039Y-101617559D01*
X80541994Y-101273783D01*
X80279204Y-101010534D01*
X79935676Y-100867888D01*
X79563710Y-100867564D01*
X79219934Y-101009609D01*
X78956685Y-101272399D01*
X78814039Y-101615927D01*
X78813715Y-101987893D01*
X39470000Y-101987893D01*
X39470000Y-100727167D01*
X63612838Y-100727167D01*
X63754883Y-101070943D01*
X64017673Y-101334192D01*
X64361201Y-101476838D01*
X64733167Y-101477162D01*
X65076943Y-101335117D01*
X65340192Y-101072327D01*
X65482838Y-100728799D01*
X65483162Y-100356833D01*
X65341117Y-100013057D01*
X65078327Y-99749808D01*
X64734799Y-99607162D01*
X64362833Y-99606838D01*
X64019057Y-99748883D01*
X63755808Y-100011673D01*
X63613162Y-100355201D01*
X63612838Y-100727167D01*
X39470000Y-100727167D01*
X39470000Y-99499167D01*
X78820838Y-99499167D01*
X78962883Y-99842943D01*
X79225673Y-100106192D01*
X79569201Y-100248838D01*
X79941167Y-100249162D01*
X80284943Y-100107117D01*
X80427140Y-99965167D01*
X95362838Y-99965167D01*
X95504883Y-100308943D01*
X95767673Y-100572192D01*
X96111201Y-100714838D01*
X96483167Y-100715162D01*
X96826943Y-100573117D01*
X97030085Y-100370329D01*
X97349201Y-100502838D01*
X97721167Y-100503162D01*
X98064943Y-100361117D01*
X98328192Y-100098327D01*
X98470838Y-99754799D01*
X98471162Y-99382833D01*
X98396926Y-99203167D01*
X132319838Y-99203167D01*
X132461883Y-99546943D01*
X132724673Y-99810192D01*
X132955000Y-99905833D01*
X132954838Y-100092167D01*
X133096883Y-100435943D01*
X133359673Y-100699192D01*
X133703201Y-100841838D01*
X134075167Y-100842162D01*
X134418943Y-100700117D01*
X134682192Y-100437327D01*
X134824838Y-100093799D01*
X134825162Y-99721833D01*
X134683117Y-99378057D01*
X134420327Y-99114808D01*
X134190000Y-99019167D01*
X134190162Y-98832833D01*
X134048117Y-98489057D01*
X133873532Y-98314167D01*
X149464838Y-98314167D01*
X149606883Y-98657943D01*
X149869673Y-98921192D01*
X150213201Y-99063838D01*
X150585167Y-99064162D01*
X150928943Y-98922117D01*
X151192192Y-98659327D01*
X151334838Y-98315799D01*
X151335162Y-97943833D01*
X151278280Y-97806167D01*
X188453838Y-97806167D01*
X188595883Y-98149943D01*
X188858673Y-98413192D01*
X189202201Y-98555838D01*
X189574167Y-98556162D01*
X189917943Y-98414117D01*
X190181192Y-98151327D01*
X190219045Y-98060167D01*
X191882838Y-98060167D01*
X192024883Y-98403943D01*
X192287673Y-98667192D01*
X192631201Y-98809838D01*
X193003167Y-98810162D01*
X193346943Y-98668117D01*
X193610192Y-98405327D01*
X193752838Y-98061799D01*
X193753162Y-97689833D01*
X193713634Y-97594167D01*
X235030838Y-97594167D01*
X235172883Y-97937943D01*
X235435673Y-98201192D01*
X235779201Y-98343838D01*
X236151167Y-98344162D01*
X236494943Y-98202117D01*
X236758192Y-97939327D01*
X236900838Y-97595799D01*
X236901162Y-97223833D01*
X236759117Y-96880057D01*
X236496327Y-96616808D01*
X236152799Y-96474162D01*
X235780833Y-96473838D01*
X235437057Y-96615883D01*
X235173808Y-96878673D01*
X235031162Y-97222201D01*
X235030838Y-97594167D01*
X193713634Y-97594167D01*
X193611117Y-97346057D01*
X193348327Y-97082808D01*
X193004799Y-96940162D01*
X192632833Y-96939838D01*
X192289057Y-97081883D01*
X192025808Y-97344673D01*
X191883162Y-97688201D01*
X191882838Y-98060167D01*
X190219045Y-98060167D01*
X190323838Y-97807799D01*
X190324162Y-97435833D01*
X190209745Y-97158923D01*
X190552943Y-97017117D01*
X190816192Y-96754327D01*
X190958838Y-96410799D01*
X190959162Y-96038833D01*
X190817117Y-95695057D01*
X190554327Y-95431808D01*
X190210799Y-95289162D01*
X189838833Y-95288838D01*
X189495057Y-95430883D01*
X189231808Y-95693673D01*
X189089162Y-96037201D01*
X189088838Y-96409167D01*
X189203255Y-96686077D01*
X188860057Y-96827883D01*
X188596808Y-97090673D01*
X188454162Y-97434201D01*
X188453838Y-97806167D01*
X151278280Y-97806167D01*
X151193117Y-97600057D01*
X150930327Y-97336808D01*
X150586799Y-97194162D01*
X150214833Y-97193838D01*
X149871057Y-97335883D01*
X149607808Y-97598673D01*
X149465162Y-97942201D01*
X149464838Y-98314167D01*
X133873532Y-98314167D01*
X133785327Y-98225808D01*
X133441799Y-98083162D01*
X133069833Y-98082838D01*
X132726057Y-98224883D01*
X132462808Y-98487673D01*
X132320162Y-98831201D01*
X132319838Y-99203167D01*
X98396926Y-99203167D01*
X98329117Y-99039057D01*
X98066327Y-98775808D01*
X97722799Y-98633162D01*
X97350833Y-98632838D01*
X97007057Y-98774883D01*
X96803915Y-98977671D01*
X96484799Y-98845162D01*
X96112833Y-98844838D01*
X95769057Y-98986883D01*
X95505808Y-99249673D01*
X95363162Y-99593201D01*
X95362838Y-99965167D01*
X80427140Y-99965167D01*
X80548192Y-99844327D01*
X80690838Y-99500799D01*
X80691162Y-99128833D01*
X80549117Y-98785057D01*
X80286327Y-98521808D01*
X79942799Y-98379162D01*
X79570833Y-98378838D01*
X79227057Y-98520883D01*
X78963808Y-98783673D01*
X78821162Y-99127201D01*
X78820838Y-99499167D01*
X39470000Y-99499167D01*
X39470000Y-96663167D01*
X65898838Y-96663167D01*
X66040883Y-97006943D01*
X66303673Y-97270192D01*
X66647201Y-97412838D01*
X67019167Y-97413162D01*
X67362943Y-97271117D01*
X67626192Y-97008327D01*
X67768838Y-96664799D01*
X67768995Y-96484108D01*
X68007192Y-96246327D01*
X68045045Y-96155167D01*
X101458838Y-96155167D01*
X101600883Y-96498943D01*
X101863673Y-96762192D01*
X102207201Y-96904838D01*
X102579167Y-96905162D01*
X102595656Y-96898349D01*
X102595516Y-97058795D01*
X102843906Y-97659943D01*
X103303437Y-98120278D01*
X103904152Y-98369716D01*
X104554595Y-98370284D01*
X105155743Y-98121894D01*
X105616078Y-97662363D01*
X105865516Y-97061648D01*
X105865518Y-97058795D01*
X107595516Y-97058795D01*
X107843906Y-97659943D01*
X108303437Y-98120278D01*
X108904152Y-98369716D01*
X109554595Y-98370284D01*
X110155743Y-98121894D01*
X110616078Y-97662363D01*
X110865516Y-97061648D01*
X110866084Y-96411205D01*
X110865242Y-96409167D01*
X116571838Y-96409167D01*
X116713883Y-96752943D01*
X116881230Y-96920583D01*
X116826162Y-97053201D01*
X116825838Y-97425167D01*
X116967883Y-97768943D01*
X117230673Y-98032192D01*
X117574201Y-98174838D01*
X117946167Y-98175162D01*
X118289943Y-98033117D01*
X118553192Y-97770327D01*
X118695838Y-97426799D01*
X118696162Y-97054833D01*
X118639280Y-96917167D01*
X130287838Y-96917167D01*
X130429883Y-97260943D01*
X130692673Y-97524192D01*
X131036201Y-97666838D01*
X131408167Y-97667162D01*
X131751943Y-97525117D01*
X132015192Y-97262327D01*
X132157838Y-96918799D01*
X132157839Y-96917167D01*
X136891838Y-96917167D01*
X137033883Y-97260943D01*
X137296673Y-97524192D01*
X137640201Y-97666838D01*
X138012167Y-97667162D01*
X138355943Y-97525117D01*
X138619192Y-97262327D01*
X138761838Y-96918799D01*
X138762012Y-96718667D01*
X156195838Y-96718667D01*
X156337883Y-97062443D01*
X156600673Y-97325692D01*
X156944201Y-97468338D01*
X157316167Y-97468662D01*
X157659943Y-97326617D01*
X157923192Y-97063827D01*
X158041870Y-96778020D01*
X158205167Y-96778162D01*
X158548943Y-96636117D01*
X158812192Y-96373327D01*
X158954838Y-96029799D01*
X158955162Y-95657833D01*
X158813117Y-95314057D01*
X158765311Y-95266167D01*
X158862838Y-95266167D01*
X159004883Y-95609943D01*
X159267673Y-95873192D01*
X159611201Y-96015838D01*
X159983167Y-96016162D01*
X160326943Y-95874117D01*
X160590192Y-95611327D01*
X160732838Y-95267799D01*
X160733162Y-94895833D01*
X160591117Y-94552057D01*
X160328327Y-94288808D01*
X159984799Y-94146162D01*
X159612833Y-94145838D01*
X159269057Y-94287883D01*
X159005808Y-94550673D01*
X158863162Y-94894201D01*
X158862838Y-95266167D01*
X158765311Y-95266167D01*
X158550327Y-95050808D01*
X158206799Y-94908162D01*
X157834833Y-94907838D01*
X157491057Y-95049883D01*
X157227808Y-95312673D01*
X157109130Y-95598480D01*
X156945833Y-95598338D01*
X156602057Y-95740383D01*
X156338808Y-96003173D01*
X156196162Y-96346701D01*
X156195838Y-96718667D01*
X138762012Y-96718667D01*
X138762162Y-96546833D01*
X138620117Y-96203057D01*
X138357327Y-95939808D01*
X138013799Y-95797162D01*
X137641833Y-95796838D01*
X137298057Y-95938883D01*
X137034808Y-96201673D01*
X136892162Y-96545201D01*
X136891838Y-96917167D01*
X132157839Y-96917167D01*
X132158162Y-96546833D01*
X132016117Y-96203057D01*
X131753327Y-95939808D01*
X131409799Y-95797162D01*
X131037833Y-95796838D01*
X130694057Y-95938883D01*
X130430808Y-96201673D01*
X130288162Y-96545201D01*
X130287838Y-96917167D01*
X118639280Y-96917167D01*
X118554117Y-96711057D01*
X118386770Y-96543417D01*
X118441838Y-96410799D01*
X118442162Y-96038833D01*
X118300117Y-95695057D01*
X118037327Y-95431808D01*
X117693799Y-95289162D01*
X117321833Y-95288838D01*
X116978057Y-95430883D01*
X116714808Y-95693673D01*
X116572162Y-96037201D01*
X116571838Y-96409167D01*
X110865242Y-96409167D01*
X110617694Y-95810057D01*
X110158163Y-95349722D01*
X109557448Y-95100284D01*
X108907005Y-95099716D01*
X108305857Y-95348106D01*
X107845522Y-95807637D01*
X107596084Y-96408352D01*
X107595516Y-97058795D01*
X105865518Y-97058795D01*
X105866084Y-96411205D01*
X105617694Y-95810057D01*
X105158163Y-95349722D01*
X104557448Y-95100284D01*
X103907005Y-95099716D01*
X103305857Y-95348106D01*
X103194600Y-95459168D01*
X103187117Y-95441057D01*
X102924327Y-95177808D01*
X102580799Y-95035162D01*
X102208833Y-95034838D01*
X101865057Y-95176883D01*
X101601808Y-95439673D01*
X101459162Y-95783201D01*
X101458838Y-96155167D01*
X68045045Y-96155167D01*
X68149838Y-95902799D01*
X68149937Y-95789265D01*
X68251943Y-95747117D01*
X68515192Y-95484327D01*
X68657838Y-95140799D01*
X68658162Y-94768833D01*
X68516117Y-94425057D01*
X68253327Y-94161808D01*
X67909799Y-94019162D01*
X67537833Y-94018838D01*
X67194057Y-94160883D01*
X66930808Y-94423673D01*
X66788162Y-94767201D01*
X66788063Y-94880735D01*
X66686057Y-94922883D01*
X66422808Y-95185673D01*
X66280162Y-95529201D01*
X66280005Y-95709892D01*
X66041808Y-95947673D01*
X65899162Y-96291201D01*
X65898838Y-96663167D01*
X39470000Y-96663167D01*
X39470000Y-94504167D01*
X53833838Y-94504167D01*
X53975883Y-94847943D01*
X54238673Y-95111192D01*
X54582201Y-95253838D01*
X54954167Y-95254162D01*
X55297943Y-95112117D01*
X55561192Y-94849327D01*
X55703838Y-94505799D01*
X55704162Y-94133833D01*
X55562117Y-93790057D01*
X55299327Y-93526808D01*
X54955799Y-93384162D01*
X54583833Y-93383838D01*
X54240057Y-93525883D01*
X53976808Y-93788673D01*
X53834162Y-94132201D01*
X53833838Y-94504167D01*
X39470000Y-94504167D01*
X39470000Y-93234167D01*
X55865838Y-93234167D01*
X56007883Y-93577943D01*
X56270673Y-93841192D01*
X56614201Y-93983838D01*
X56986167Y-93984162D01*
X57329943Y-93842117D01*
X57499565Y-93672791D01*
X57667673Y-93841192D01*
X58011201Y-93983838D01*
X58383167Y-93984162D01*
X58726943Y-93842117D01*
X58990192Y-93579327D01*
X59028045Y-93488167D01*
X68438838Y-93488167D01*
X68580883Y-93831943D01*
X68843673Y-94095192D01*
X69187201Y-94237838D01*
X69559167Y-94238162D01*
X69902943Y-94096117D01*
X70166192Y-93833327D01*
X70308838Y-93489799D01*
X70308839Y-93488167D01*
X71359838Y-93488167D01*
X71501883Y-93831943D01*
X71764673Y-94095192D01*
X72108201Y-94237838D01*
X72141106Y-94237867D01*
X72020057Y-94287883D01*
X71756808Y-94550673D01*
X71614162Y-94894201D01*
X71613838Y-95266167D01*
X71755883Y-95609943D01*
X72018673Y-95873192D01*
X72362201Y-96015838D01*
X72734167Y-96016162D01*
X73077943Y-95874117D01*
X73341192Y-95611327D01*
X73483838Y-95267799D01*
X73483904Y-95192259D01*
X73632201Y-95253838D01*
X74004167Y-95254162D01*
X74347943Y-95112117D01*
X74611192Y-94849327D01*
X74753838Y-94505799D01*
X74754162Y-94133833D01*
X74612117Y-93790057D01*
X74349327Y-93526808D01*
X74005799Y-93384162D01*
X73633833Y-93383838D01*
X73290057Y-93525883D01*
X73161612Y-93654104D01*
X73229838Y-93489799D01*
X73230162Y-93117833D01*
X73088117Y-92774057D01*
X73040311Y-92726167D01*
X75945738Y-92726167D01*
X76087783Y-93069943D01*
X76350573Y-93333192D01*
X76694101Y-93475838D01*
X77066067Y-93476162D01*
X77214586Y-93414795D01*
X105095516Y-93414795D01*
X105343906Y-94015943D01*
X105803437Y-94476278D01*
X106404152Y-94725716D01*
X107054595Y-94726284D01*
X107655743Y-94477894D01*
X108116078Y-94018363D01*
X108365516Y-93417648D01*
X108365528Y-93403167D01*
X128223838Y-93403167D01*
X128365883Y-93746943D01*
X128628673Y-94010192D01*
X128972201Y-94152838D01*
X129344167Y-94153162D01*
X129687943Y-94011117D01*
X129830982Y-93868327D01*
X129930673Y-93968192D01*
X130274201Y-94110838D01*
X130646167Y-94111162D01*
X130989943Y-93969117D01*
X131253192Y-93706327D01*
X131395838Y-93362799D01*
X131396162Y-92990833D01*
X131254117Y-92647057D01*
X131141564Y-92534307D01*
X188523478Y-92534307D01*
X188665523Y-92878083D01*
X188928313Y-93141332D01*
X189271841Y-93283978D01*
X189643807Y-93284302D01*
X189987583Y-93142257D01*
X190250832Y-92879467D01*
X190393478Y-92535939D01*
X190393802Y-92163973D01*
X190251757Y-91820197D01*
X190183846Y-91752167D01*
X235030838Y-91752167D01*
X235172883Y-92095943D01*
X235435673Y-92359192D01*
X235779201Y-92501838D01*
X236151167Y-92502162D01*
X236494943Y-92360117D01*
X236758192Y-92097327D01*
X236900838Y-91753799D01*
X236901162Y-91381833D01*
X236759117Y-91038057D01*
X236496327Y-90774808D01*
X236152799Y-90632162D01*
X235780833Y-90631838D01*
X235437057Y-90773883D01*
X235173808Y-91036673D01*
X235031162Y-91380201D01*
X235030838Y-91752167D01*
X190183846Y-91752167D01*
X189988967Y-91556948D01*
X189645439Y-91414302D01*
X189273473Y-91413978D01*
X188929697Y-91556023D01*
X188666448Y-91818813D01*
X188523802Y-92162341D01*
X188523478Y-92534307D01*
X131141564Y-92534307D01*
X130991327Y-92383808D01*
X130647799Y-92241162D01*
X130275833Y-92240838D01*
X129932057Y-92382883D01*
X129789018Y-92525673D01*
X129689327Y-92425808D01*
X129345799Y-92283162D01*
X128973833Y-92282838D01*
X128630057Y-92424883D01*
X128366808Y-92687673D01*
X128224162Y-93031201D01*
X128223838Y-93403167D01*
X108365528Y-93403167D01*
X108366084Y-92767205D01*
X108117694Y-92166057D01*
X107658163Y-91705722D01*
X107057448Y-91456284D01*
X106407005Y-91455716D01*
X105805857Y-91704106D01*
X105345522Y-92163637D01*
X105096084Y-92764352D01*
X105095516Y-93414795D01*
X77214586Y-93414795D01*
X77409843Y-93334117D01*
X77673092Y-93071327D01*
X77815738Y-92727799D01*
X77815813Y-92641167D01*
X88091838Y-92641167D01*
X88233883Y-92984943D01*
X88496673Y-93248192D01*
X88840201Y-93390838D01*
X89212167Y-93391162D01*
X89555943Y-93249117D01*
X89819192Y-92986327D01*
X89961838Y-92642799D01*
X89962162Y-92270833D01*
X89957755Y-92260167D01*
X90885838Y-92260167D01*
X91027883Y-92603943D01*
X91290673Y-92867192D01*
X91634201Y-93009838D01*
X92006167Y-93010162D01*
X92349943Y-92868117D01*
X92613192Y-92605327D01*
X92755838Y-92261799D01*
X92756162Y-91889833D01*
X92687598Y-91723895D01*
X92814673Y-91851192D01*
X93158201Y-91993838D01*
X93530167Y-91994162D01*
X93873943Y-91852117D01*
X94137192Y-91589327D01*
X94279838Y-91245799D01*
X94280162Y-90873833D01*
X94138117Y-90530057D01*
X94090311Y-90482167D01*
X95584838Y-90482167D01*
X95726883Y-90825943D01*
X95989673Y-91089192D01*
X96333201Y-91231838D01*
X96705167Y-91232162D01*
X97048943Y-91090117D01*
X97312192Y-90827327D01*
X97454838Y-90483799D01*
X97455162Y-90111833D01*
X97313117Y-89768057D01*
X97265311Y-89720167D01*
X141050838Y-89720167D01*
X141192883Y-90063943D01*
X141455673Y-90327192D01*
X141799201Y-90469838D01*
X142171167Y-90470162D01*
X142514943Y-90328117D01*
X142778192Y-90065327D01*
X142920838Y-89721799D01*
X142921097Y-89424167D01*
X160132838Y-89424167D01*
X160274883Y-89767943D01*
X160537673Y-90031192D01*
X160881201Y-90173838D01*
X161253167Y-90174162D01*
X161596943Y-90032117D01*
X161860192Y-89769327D01*
X162002838Y-89425799D01*
X162003162Y-89053833D01*
X161861117Y-88710057D01*
X161813311Y-88662167D01*
X162672838Y-88662167D01*
X162814883Y-89005943D01*
X163077673Y-89269192D01*
X163421201Y-89411838D01*
X163793167Y-89412162D01*
X164136943Y-89270117D01*
X164400192Y-89007327D01*
X164542838Y-88663799D01*
X164543060Y-88408167D01*
X193660838Y-88408167D01*
X193802883Y-88751943D01*
X194065673Y-89015192D01*
X194409201Y-89157838D01*
X194781167Y-89158162D01*
X195124943Y-89016117D01*
X195388192Y-88753327D01*
X195530838Y-88409799D01*
X195531162Y-88037833D01*
X195389117Y-87694057D01*
X195126327Y-87430808D01*
X194782799Y-87288162D01*
X194410833Y-87287838D01*
X194067057Y-87429883D01*
X193803808Y-87692673D01*
X193661162Y-88036201D01*
X193660838Y-88408167D01*
X164543060Y-88408167D01*
X164543162Y-88291833D01*
X164401117Y-87948057D01*
X164138327Y-87684808D01*
X163794799Y-87542162D01*
X163422833Y-87541838D01*
X163079057Y-87683883D01*
X162815808Y-87946673D01*
X162673162Y-88290201D01*
X162672838Y-88662167D01*
X161813311Y-88662167D01*
X161598327Y-88446808D01*
X161254799Y-88304162D01*
X160882833Y-88303838D01*
X160539057Y-88445883D01*
X160275808Y-88708673D01*
X160133162Y-89052201D01*
X160132838Y-89424167D01*
X142921097Y-89424167D01*
X142921162Y-89349833D01*
X142779117Y-89006057D01*
X142516327Y-88742808D01*
X142172799Y-88600162D01*
X141800833Y-88599838D01*
X141457057Y-88741883D01*
X141193808Y-89004673D01*
X141051162Y-89348201D01*
X141050838Y-89720167D01*
X97265311Y-89720167D01*
X97050327Y-89504808D01*
X96706799Y-89362162D01*
X96334833Y-89361838D01*
X95991057Y-89503883D01*
X95727808Y-89766673D01*
X95585162Y-90110201D01*
X95584838Y-90482167D01*
X94090311Y-90482167D01*
X93875327Y-90266808D01*
X93531799Y-90124162D01*
X93159833Y-90123838D01*
X92816057Y-90265883D01*
X92552808Y-90528673D01*
X92410162Y-90872201D01*
X92409838Y-91244167D01*
X92478402Y-91410105D01*
X92351327Y-91282808D01*
X92007799Y-91140162D01*
X91635833Y-91139838D01*
X91292057Y-91281883D01*
X91028808Y-91544673D01*
X90886162Y-91888201D01*
X90885838Y-92260167D01*
X89957755Y-92260167D01*
X89820117Y-91927057D01*
X89557327Y-91663808D01*
X89213799Y-91521162D01*
X88841833Y-91520838D01*
X88498057Y-91662883D01*
X88234808Y-91925673D01*
X88092162Y-92269201D01*
X88091838Y-92641167D01*
X77815813Y-92641167D01*
X77816062Y-92355833D01*
X77674017Y-92012057D01*
X77411227Y-91748808D01*
X77067699Y-91606162D01*
X76695733Y-91605838D01*
X76351957Y-91747883D01*
X76088708Y-92010673D01*
X75946062Y-92354201D01*
X75945738Y-92726167D01*
X73040311Y-92726167D01*
X72825327Y-92510808D01*
X72481799Y-92368162D01*
X72109833Y-92367838D01*
X71766057Y-92509883D01*
X71502808Y-92772673D01*
X71360162Y-93116201D01*
X71359838Y-93488167D01*
X70308839Y-93488167D01*
X70309162Y-93117833D01*
X70167117Y-92774057D01*
X69904327Y-92510808D01*
X69560799Y-92368162D01*
X69188833Y-92367838D01*
X68845057Y-92509883D01*
X68581808Y-92772673D01*
X68439162Y-93116201D01*
X68438838Y-93488167D01*
X59028045Y-93488167D01*
X59132838Y-93235799D01*
X59133162Y-92863833D01*
X59123787Y-92841143D01*
X59145167Y-92841162D01*
X59488943Y-92699117D01*
X59752192Y-92436327D01*
X59894838Y-92092799D01*
X59895162Y-91720833D01*
X59785805Y-91456167D01*
X83501038Y-91456167D01*
X83643083Y-91799943D01*
X83905873Y-92063192D01*
X84249401Y-92205838D01*
X84621367Y-92206162D01*
X84965143Y-92064117D01*
X85228392Y-91801327D01*
X85371038Y-91457799D01*
X85371362Y-91085833D01*
X85229317Y-90742057D01*
X84966527Y-90478808D01*
X84622999Y-90336162D01*
X84251033Y-90335838D01*
X83907257Y-90477883D01*
X83644008Y-90740673D01*
X83501362Y-91084201D01*
X83501038Y-91456167D01*
X59785805Y-91456167D01*
X59753117Y-91377057D01*
X59490327Y-91113808D01*
X59146799Y-90971162D01*
X58774833Y-90970838D01*
X58431057Y-91112883D01*
X58167808Y-91375673D01*
X58025162Y-91719201D01*
X58024838Y-92091167D01*
X58034213Y-92113857D01*
X58012833Y-92113838D01*
X57669057Y-92255883D01*
X57499435Y-92425209D01*
X57331327Y-92256808D01*
X56987799Y-92114162D01*
X56615833Y-92113838D01*
X56272057Y-92255883D01*
X56008808Y-92518673D01*
X55866162Y-92862201D01*
X55865838Y-93234167D01*
X39470000Y-93234167D01*
X39470000Y-90186167D01*
X44054838Y-90186167D01*
X44196883Y-90529943D01*
X44459673Y-90793192D01*
X44803201Y-90935838D01*
X45175167Y-90936162D01*
X45518943Y-90794117D01*
X45782192Y-90531327D01*
X45924838Y-90187799D01*
X45925162Y-89815833D01*
X45783117Y-89472057D01*
X45520327Y-89208808D01*
X45176799Y-89066162D01*
X44804833Y-89065838D01*
X44461057Y-89207883D01*
X44197808Y-89470673D01*
X44055162Y-89814201D01*
X44054838Y-90186167D01*
X39470000Y-90186167D01*
X39470000Y-88281167D01*
X73264838Y-88281167D01*
X73406883Y-88624943D01*
X73669673Y-88888192D01*
X74013201Y-89030838D01*
X74385167Y-89031162D01*
X74728943Y-88889117D01*
X74992192Y-88626327D01*
X75134838Y-88282799D01*
X75135134Y-87942167D01*
X88472838Y-87942167D01*
X88614883Y-88285943D01*
X88877673Y-88549192D01*
X89221201Y-88691838D01*
X89593167Y-88692162D01*
X89936943Y-88550117D01*
X90200192Y-88287327D01*
X90342838Y-87943799D01*
X90343162Y-87571833D01*
X90216451Y-87265167D01*
X94854838Y-87265167D01*
X94996883Y-87608943D01*
X95259673Y-87872192D01*
X95603201Y-88014838D01*
X95975167Y-88015162D01*
X96318943Y-87873117D01*
X96582192Y-87610327D01*
X96724838Y-87266799D01*
X96725162Y-86894833D01*
X96583117Y-86551057D01*
X96320327Y-86287808D01*
X95976799Y-86145162D01*
X95604833Y-86144838D01*
X95261057Y-86286883D01*
X94997808Y-86549673D01*
X94855162Y-86893201D01*
X94854838Y-87265167D01*
X90216451Y-87265167D01*
X90201117Y-87228057D01*
X89938327Y-86964808D01*
X89594799Y-86822162D01*
X89222833Y-86821838D01*
X88879057Y-86963883D01*
X88615808Y-87226673D01*
X88473162Y-87570201D01*
X88472838Y-87942167D01*
X75135134Y-87942167D01*
X75135162Y-87910833D01*
X74993117Y-87567057D01*
X74730327Y-87303808D01*
X74386799Y-87161162D01*
X74014833Y-87160838D01*
X73671057Y-87302883D01*
X73407808Y-87565673D01*
X73265162Y-87909201D01*
X73264838Y-88281167D01*
X39470000Y-88281167D01*
X39470000Y-87392167D01*
X59548838Y-87392167D01*
X59690883Y-87735943D01*
X59953673Y-87999192D01*
X60297201Y-88141838D01*
X60669167Y-88142162D01*
X61012943Y-88000117D01*
X61276192Y-87737327D01*
X61418838Y-87393799D01*
X61419162Y-87021833D01*
X61362280Y-86884167D01*
X67295838Y-86884167D01*
X67437883Y-87227943D01*
X67700673Y-87491192D01*
X68044201Y-87633838D01*
X68416167Y-87634162D01*
X68759943Y-87492117D01*
X69023192Y-87229327D01*
X69165838Y-86885799D01*
X69166162Y-86513833D01*
X69024117Y-86170057D01*
X68761327Y-85906808D01*
X68417799Y-85764162D01*
X68045833Y-85763838D01*
X67702057Y-85905883D01*
X67438808Y-86168673D01*
X67296162Y-86512201D01*
X67295838Y-86884167D01*
X61362280Y-86884167D01*
X61277117Y-86678057D01*
X61014327Y-86414808D01*
X60670799Y-86272162D01*
X60298833Y-86271838D01*
X59955057Y-86413883D01*
X59691808Y-86676673D01*
X59549162Y-87020201D01*
X59548838Y-87392167D01*
X39470000Y-87392167D01*
X39470000Y-85995167D01*
X55992838Y-85995167D01*
X56134883Y-86338943D01*
X56397673Y-86602192D01*
X56741201Y-86744838D01*
X57113167Y-86745162D01*
X57456943Y-86603117D01*
X57720192Y-86340327D01*
X57862838Y-85996799D01*
X57863162Y-85624833D01*
X57721117Y-85281057D01*
X57673311Y-85233167D01*
X68819838Y-85233167D01*
X68961883Y-85576943D01*
X69224673Y-85840192D01*
X69568201Y-85982838D01*
X69940167Y-85983162D01*
X70283943Y-85841117D01*
X70547192Y-85578327D01*
X70689838Y-85234799D01*
X70690162Y-84862833D01*
X70548117Y-84519057D01*
X70288681Y-84259167D01*
X92663838Y-84259167D01*
X92805883Y-84602943D01*
X93068673Y-84866192D01*
X93412201Y-85008838D01*
X93755803Y-85009137D01*
X93737057Y-85016883D01*
X93473808Y-85279673D01*
X93331162Y-85623201D01*
X93330838Y-85995167D01*
X93472883Y-86338943D01*
X93735673Y-86602192D01*
X94079201Y-86744838D01*
X94451167Y-86745162D01*
X94794943Y-86603117D01*
X95058192Y-86340327D01*
X95200838Y-85996799D01*
X95200891Y-85935163D01*
X96358804Y-85935163D01*
X96500849Y-86278939D01*
X96763639Y-86542188D01*
X97107167Y-86684834D01*
X97479133Y-86685158D01*
X97482050Y-86683953D01*
X97395162Y-86893201D01*
X97394838Y-87265167D01*
X97536883Y-87608943D01*
X97799673Y-87872192D01*
X98143201Y-88014838D01*
X98515167Y-88015162D01*
X98858943Y-87873117D01*
X99122192Y-87610327D01*
X99264838Y-87266799D01*
X99264839Y-87265167D01*
X99426838Y-87265167D01*
X99568883Y-87608943D01*
X99831673Y-87872192D01*
X100175201Y-88014838D01*
X100547167Y-88015162D01*
X100890943Y-87873117D01*
X101154192Y-87610327D01*
X101296838Y-87266799D01*
X101296839Y-87265167D01*
X197216838Y-87265167D01*
X197358883Y-87608943D01*
X197621673Y-87872192D01*
X197965201Y-88014838D01*
X198337167Y-88015162D01*
X198680943Y-87873117D01*
X198866216Y-87688167D01*
X207979838Y-87688167D01*
X208121883Y-88031943D01*
X208384673Y-88295192D01*
X208728201Y-88437838D01*
X209100167Y-88438162D01*
X209443943Y-88296117D01*
X209707192Y-88033327D01*
X209849838Y-87689799D01*
X209850162Y-87317833D01*
X209708117Y-86974057D01*
X209445327Y-86710808D01*
X209101799Y-86568162D01*
X208729833Y-86567838D01*
X208386057Y-86709883D01*
X208122808Y-86972673D01*
X207980162Y-87316201D01*
X207979838Y-87688167D01*
X198866216Y-87688167D01*
X198944192Y-87610327D01*
X199086838Y-87266799D01*
X199087162Y-86894833D01*
X198945117Y-86551057D01*
X198682327Y-86287808D01*
X198338799Y-86145162D01*
X197966833Y-86144838D01*
X197623057Y-86286883D01*
X197359808Y-86549673D01*
X197217162Y-86893201D01*
X197216838Y-87265167D01*
X101296839Y-87265167D01*
X101297162Y-86894833D01*
X101155117Y-86551057D01*
X100892327Y-86287808D01*
X100548799Y-86145162D01*
X100176833Y-86144838D01*
X99833057Y-86286883D01*
X99569808Y-86549673D01*
X99427162Y-86893201D01*
X99426838Y-87265167D01*
X99264839Y-87265167D01*
X99265162Y-86894833D01*
X99123117Y-86551057D01*
X98860327Y-86287808D01*
X98516799Y-86145162D01*
X98144833Y-86144838D01*
X98141916Y-86146043D01*
X98228804Y-85936795D01*
X98229128Y-85564829D01*
X98109443Y-85275167D01*
X226775838Y-85275167D01*
X226917883Y-85618943D01*
X227180673Y-85882192D01*
X227524201Y-86024838D01*
X227896167Y-86025162D01*
X228239943Y-85883117D01*
X228503192Y-85620327D01*
X228645838Y-85276799D01*
X228646162Y-84904833D01*
X228504117Y-84561057D01*
X228241327Y-84297808D01*
X227897799Y-84155162D01*
X227525833Y-84154838D01*
X227182057Y-84296883D01*
X226918808Y-84559673D01*
X226776162Y-84903201D01*
X226775838Y-85275167D01*
X98109443Y-85275167D01*
X98087083Y-85221053D01*
X97830475Y-84963997D01*
X98064943Y-84867117D01*
X98328192Y-84604327D01*
X98470838Y-84260799D01*
X98471097Y-83963167D01*
X117587838Y-83963167D01*
X117729883Y-84306943D01*
X117992673Y-84570192D01*
X118336201Y-84712838D01*
X118708167Y-84713162D01*
X119051943Y-84571117D01*
X119315192Y-84308327D01*
X119457838Y-83964799D01*
X119457839Y-83963167D01*
X168895838Y-83963167D01*
X169037883Y-84306943D01*
X169300673Y-84570192D01*
X169644201Y-84712838D01*
X170016167Y-84713162D01*
X170359943Y-84571117D01*
X170623192Y-84308327D01*
X170765838Y-83964799D01*
X170766162Y-83592833D01*
X170624117Y-83249057D01*
X170361327Y-82985808D01*
X170017799Y-82843162D01*
X169645833Y-82842838D01*
X169302057Y-82984883D01*
X169038808Y-83247673D01*
X168896162Y-83591201D01*
X168895838Y-83963167D01*
X119457839Y-83963167D01*
X119458162Y-83592833D01*
X119316117Y-83249057D01*
X119053327Y-82985808D01*
X118709799Y-82843162D01*
X118337833Y-82842838D01*
X117994057Y-82984883D01*
X117730808Y-83247673D01*
X117588162Y-83591201D01*
X117587838Y-83963167D01*
X98471097Y-83963167D01*
X98471162Y-83888833D01*
X98329117Y-83545057D01*
X98066327Y-83281808D01*
X97722799Y-83139162D01*
X97350833Y-83138838D01*
X97007057Y-83280883D01*
X96743808Y-83543673D01*
X96601162Y-83887201D01*
X96600838Y-84259167D01*
X96742883Y-84602943D01*
X96999491Y-84859999D01*
X96765023Y-84956879D01*
X96501774Y-85219669D01*
X96359128Y-85563197D01*
X96358804Y-85935163D01*
X95200891Y-85935163D01*
X95201162Y-85624833D01*
X95059117Y-85281057D01*
X94796327Y-85017808D01*
X94452799Y-84875162D01*
X94109197Y-84874863D01*
X94127943Y-84867117D01*
X94391192Y-84604327D01*
X94533838Y-84260799D01*
X94534162Y-83888833D01*
X94392117Y-83545057D01*
X94129327Y-83281808D01*
X93785799Y-83139162D01*
X93413833Y-83138838D01*
X93070057Y-83280883D01*
X92806808Y-83543673D01*
X92664162Y-83887201D01*
X92663838Y-84259167D01*
X70288681Y-84259167D01*
X70285327Y-84255808D01*
X69941799Y-84113162D01*
X69569833Y-84112838D01*
X69226057Y-84254883D01*
X68962808Y-84517673D01*
X68820162Y-84861201D01*
X68819838Y-85233167D01*
X57673311Y-85233167D01*
X57458327Y-85017808D01*
X57114799Y-84875162D01*
X56742833Y-84874838D01*
X56399057Y-85016883D01*
X56135808Y-85279673D01*
X55993162Y-85623201D01*
X55992838Y-85995167D01*
X39470000Y-85995167D01*
X39470000Y-82312167D01*
X53579838Y-82312167D01*
X53721883Y-82655943D01*
X53984673Y-82919192D01*
X54328201Y-83061838D01*
X54700167Y-83062162D01*
X55043943Y-82920117D01*
X55307192Y-82657327D01*
X55407900Y-82414795D01*
X102595516Y-82414795D01*
X102843906Y-83015943D01*
X103303437Y-83476278D01*
X103904152Y-83725716D01*
X104554595Y-83726284D01*
X105155743Y-83477894D01*
X105616078Y-83018363D01*
X105865516Y-82417648D01*
X105865518Y-82414795D01*
X107595516Y-82414795D01*
X107843906Y-83015943D01*
X108303437Y-83476278D01*
X108904152Y-83725716D01*
X109554595Y-83726284D01*
X110155743Y-83477894D01*
X110616078Y-83018363D01*
X110751110Y-82693167D01*
X213218838Y-82693167D01*
X213360883Y-83036943D01*
X213623673Y-83300192D01*
X213967201Y-83442838D01*
X214339167Y-83443162D01*
X214682943Y-83301117D01*
X214946192Y-83038327D01*
X215088838Y-82694799D01*
X215089162Y-82322833D01*
X214947117Y-81979057D01*
X214684327Y-81715808D01*
X214340799Y-81573162D01*
X213968833Y-81572838D01*
X213625057Y-81714883D01*
X213361808Y-81977673D01*
X213219162Y-82321201D01*
X213218838Y-82693167D01*
X110751110Y-82693167D01*
X110865516Y-82417648D01*
X110866084Y-81767205D01*
X110617694Y-81166057D01*
X110494021Y-81042167D01*
X139304838Y-81042167D01*
X139446883Y-81385943D01*
X139709673Y-81649192D01*
X140053201Y-81791838D01*
X140425167Y-81792162D01*
X140768943Y-81650117D01*
X141032192Y-81387327D01*
X141092061Y-81243147D01*
X141291201Y-81325838D01*
X141663167Y-81326162D01*
X142006943Y-81184117D01*
X142270192Y-80921327D01*
X142305566Y-80836136D01*
X142466201Y-80902838D01*
X142838167Y-80903162D01*
X143181943Y-80761117D01*
X143445192Y-80498327D01*
X143535780Y-80280167D01*
X146924838Y-80280167D01*
X147066883Y-80623943D01*
X147329673Y-80887192D01*
X147673201Y-81029838D01*
X148045167Y-81030162D01*
X148388943Y-80888117D01*
X148652192Y-80625327D01*
X148794838Y-80281799D01*
X148795162Y-79909833D01*
X148653117Y-79566057D01*
X148390327Y-79302808D01*
X148046799Y-79160162D01*
X147674833Y-79159838D01*
X147331057Y-79301883D01*
X147067808Y-79564673D01*
X146925162Y-79908201D01*
X146924838Y-80280167D01*
X143535780Y-80280167D01*
X143587838Y-80154799D01*
X143588162Y-79782833D01*
X143446117Y-79439057D01*
X143183327Y-79175808D01*
X142839799Y-79033162D01*
X142467833Y-79032838D01*
X142124057Y-79174883D01*
X141860808Y-79437673D01*
X141825434Y-79522864D01*
X141664799Y-79456162D01*
X141292833Y-79455838D01*
X140949057Y-79597883D01*
X140685808Y-79860673D01*
X140625939Y-80004853D01*
X140426799Y-79922162D01*
X140054833Y-79921838D01*
X139711057Y-80063883D01*
X139447808Y-80326673D01*
X139305162Y-80670201D01*
X139304838Y-81042167D01*
X110494021Y-81042167D01*
X110158163Y-80705722D01*
X109557448Y-80456284D01*
X108907005Y-80455716D01*
X108305857Y-80704106D01*
X107845522Y-81163637D01*
X107596084Y-81764352D01*
X107595516Y-82414795D01*
X105865518Y-82414795D01*
X105866084Y-81767205D01*
X105617694Y-81166057D01*
X105158163Y-80705722D01*
X104557448Y-80456284D01*
X103907005Y-80455716D01*
X103305857Y-80704106D01*
X102845522Y-81163637D01*
X102596084Y-81764352D01*
X102595516Y-82414795D01*
X55407900Y-82414795D01*
X55449838Y-82313799D01*
X55450162Y-81941833D01*
X55308117Y-81598057D01*
X55133532Y-81423167D01*
X71740838Y-81423167D01*
X71882883Y-81766943D01*
X72145673Y-82030192D01*
X72489201Y-82172838D01*
X72861167Y-82173162D01*
X73204943Y-82031117D01*
X73468192Y-81768327D01*
X73610838Y-81424799D01*
X73611162Y-81052833D01*
X73469117Y-80709057D01*
X73206327Y-80445808D01*
X72862799Y-80303162D01*
X72490833Y-80302838D01*
X72147057Y-80444883D01*
X71883808Y-80707673D01*
X71741162Y-81051201D01*
X71740838Y-81423167D01*
X55133532Y-81423167D01*
X55045327Y-81334808D01*
X54701799Y-81192162D01*
X54329833Y-81191838D01*
X53986057Y-81333883D01*
X53722808Y-81596673D01*
X53580162Y-81940201D01*
X53579838Y-82312167D01*
X39470000Y-82312167D01*
X39470000Y-79137167D01*
X61326838Y-79137167D01*
X61468883Y-79480943D01*
X61731673Y-79744192D01*
X62075201Y-79886838D01*
X62447167Y-79887162D01*
X62790943Y-79745117D01*
X62896954Y-79639290D01*
X63001673Y-79744192D01*
X63345201Y-79886838D01*
X63717167Y-79887162D01*
X64060943Y-79745117D01*
X64166954Y-79639290D01*
X64271673Y-79744192D01*
X64615201Y-79886838D01*
X64987167Y-79887162D01*
X65330943Y-79745117D01*
X65594192Y-79482327D01*
X65736838Y-79138799D01*
X65737162Y-78766833D01*
X65595117Y-78423057D01*
X65589238Y-78417167D01*
X172165838Y-78417167D01*
X172307883Y-78760943D01*
X172570673Y-79024192D01*
X172914201Y-79166838D01*
X173286167Y-79167162D01*
X173358760Y-79137167D01*
X223632838Y-79137167D01*
X223774883Y-79480943D01*
X224037673Y-79744192D01*
X224381201Y-79886838D01*
X224753167Y-79887162D01*
X225096943Y-79745117D01*
X225360192Y-79482327D01*
X225380605Y-79433167D01*
X229442838Y-79433167D01*
X229584883Y-79776943D01*
X229847673Y-80040192D01*
X230191201Y-80182838D01*
X230563167Y-80183162D01*
X230906943Y-80041117D01*
X231170192Y-79778327D01*
X231312838Y-79434799D01*
X231313017Y-79229754D01*
X231366201Y-79251838D01*
X231738167Y-79252162D01*
X232081943Y-79110117D01*
X232345192Y-78847327D01*
X232487838Y-78503799D01*
X232488162Y-78131833D01*
X232346117Y-77788057D01*
X232083327Y-77524808D01*
X231739799Y-77382162D01*
X231367833Y-77381838D01*
X231024057Y-77523883D01*
X230760808Y-77786673D01*
X230618162Y-78130201D01*
X230617983Y-78335246D01*
X230564799Y-78313162D01*
X230192833Y-78312838D01*
X229849057Y-78454883D01*
X229585808Y-78717673D01*
X229443162Y-79061201D01*
X229442838Y-79433167D01*
X225380605Y-79433167D01*
X225502838Y-79138799D01*
X225503162Y-78766833D01*
X225361117Y-78423057D01*
X225098327Y-78159808D01*
X224754799Y-78017162D01*
X224382833Y-78016838D01*
X224039057Y-78158883D01*
X223775808Y-78421673D01*
X223633162Y-78765201D01*
X223632838Y-79137167D01*
X173358760Y-79137167D01*
X173629943Y-79025117D01*
X173893192Y-78762327D01*
X174035838Y-78418799D01*
X174036162Y-78046833D01*
X173894117Y-77703057D01*
X173631327Y-77439808D01*
X173287799Y-77297162D01*
X172915833Y-77296838D01*
X172572057Y-77438883D01*
X172308808Y-77701673D01*
X172166162Y-78045201D01*
X172165838Y-78417167D01*
X65589238Y-78417167D01*
X65332327Y-78159808D01*
X64988799Y-78017162D01*
X64616833Y-78016838D01*
X64273057Y-78158883D01*
X64167046Y-78264710D01*
X64062327Y-78159808D01*
X63718799Y-78017162D01*
X63346833Y-78016838D01*
X63003057Y-78158883D01*
X62897046Y-78264710D01*
X62792327Y-78159808D01*
X62448799Y-78017162D01*
X62076833Y-78016838D01*
X61733057Y-78158883D01*
X61469808Y-78421673D01*
X61327162Y-78765201D01*
X61326838Y-79137167D01*
X39470000Y-79137167D01*
X39470000Y-67400000D01*
X47045560Y-67400000D01*
X47045560Y-70900000D01*
X47089838Y-71135317D01*
X47228910Y-71351441D01*
X47441110Y-71496431D01*
X47693000Y-71547440D01*
X51193000Y-71547440D01*
X51428317Y-71503162D01*
X51644441Y-71364090D01*
X51745560Y-71216097D01*
X51745560Y-73900000D01*
X51789838Y-74135317D01*
X51928910Y-74351441D01*
X52141110Y-74496431D01*
X52393000Y-74547440D01*
X55893000Y-74547440D01*
X56128317Y-74503162D01*
X56344441Y-74364090D01*
X56380601Y-74311167D01*
X75550838Y-74311167D01*
X75692883Y-74654943D01*
X75955673Y-74918192D01*
X76299201Y-75060838D01*
X76671167Y-75061162D01*
X77014943Y-74919117D01*
X77278192Y-74656327D01*
X77420838Y-74312799D01*
X77421162Y-73940833D01*
X77279117Y-73597057D01*
X77016327Y-73333808D01*
X76672799Y-73191162D01*
X76300833Y-73190838D01*
X75957057Y-73332883D01*
X75693808Y-73595673D01*
X75551162Y-73939201D01*
X75550838Y-74311167D01*
X56380601Y-74311167D01*
X56489431Y-74151890D01*
X56540440Y-73900000D01*
X56540440Y-73295167D01*
X70089838Y-73295167D01*
X70231883Y-73638943D01*
X70494673Y-73902192D01*
X70838201Y-74044838D01*
X71210167Y-74045162D01*
X71553943Y-73903117D01*
X71817192Y-73640327D01*
X71959838Y-73296799D01*
X71960162Y-72924833D01*
X71818117Y-72581057D01*
X71770311Y-72533167D01*
X104633838Y-72533167D01*
X104775883Y-72876943D01*
X104881710Y-72982954D01*
X104776808Y-73087673D01*
X104634162Y-73431201D01*
X104633838Y-73803167D01*
X104775883Y-74146943D01*
X104853539Y-74224734D01*
X104761162Y-74447201D01*
X104760838Y-74819167D01*
X104902883Y-75162943D01*
X105165673Y-75426192D01*
X105509201Y-75568838D01*
X105881167Y-75569162D01*
X106224943Y-75427117D01*
X106488192Y-75164327D01*
X106526045Y-75073167D01*
X110475838Y-75073167D01*
X110617883Y-75416943D01*
X110850709Y-75650176D01*
X110618808Y-75881673D01*
X110476162Y-76225201D01*
X110475838Y-76597167D01*
X110617883Y-76940943D01*
X110880673Y-77204192D01*
X111224201Y-77346838D01*
X111596167Y-77347162D01*
X111874476Y-77232167D01*
X194295838Y-77232167D01*
X194437883Y-77575943D01*
X194700673Y-77839192D01*
X195044201Y-77981838D01*
X195416167Y-77982162D01*
X195759943Y-77840117D01*
X196023192Y-77577327D01*
X196165838Y-77233799D01*
X196166162Y-76861833D01*
X196024117Y-76518057D01*
X195976311Y-76470167D01*
X204201838Y-76470167D01*
X204343883Y-76813943D01*
X204606673Y-77077192D01*
X204950201Y-77219838D01*
X205322167Y-77220162D01*
X205600476Y-77105167D01*
X213091838Y-77105167D01*
X213233883Y-77448943D01*
X213496673Y-77712192D01*
X213840201Y-77854838D01*
X214212167Y-77855162D01*
X214555943Y-77713117D01*
X214819192Y-77450327D01*
X214961838Y-77106799D01*
X214962162Y-76734833D01*
X214820117Y-76391057D01*
X214557327Y-76127808D01*
X214213799Y-75985162D01*
X213841833Y-75984838D01*
X213498057Y-76126883D01*
X213234808Y-76389673D01*
X213092162Y-76733201D01*
X213091838Y-77105167D01*
X205600476Y-77105167D01*
X205665943Y-77078117D01*
X205929192Y-76815327D01*
X206071838Y-76471799D01*
X206072162Y-76099833D01*
X205930117Y-75756057D01*
X205667327Y-75492808D01*
X205323799Y-75350162D01*
X204951833Y-75349838D01*
X204608057Y-75491883D01*
X204344808Y-75754673D01*
X204202162Y-76098201D01*
X204201838Y-76470167D01*
X195976311Y-76470167D01*
X195761327Y-76254808D01*
X195417799Y-76112162D01*
X195045833Y-76111838D01*
X194702057Y-76253883D01*
X194438808Y-76516673D01*
X194296162Y-76860201D01*
X194295838Y-77232167D01*
X111874476Y-77232167D01*
X111939943Y-77205117D01*
X112203192Y-76942327D01*
X112345838Y-76598799D01*
X112346024Y-76385167D01*
X168228838Y-76385167D01*
X168370883Y-76728943D01*
X168633673Y-76992192D01*
X168977201Y-77134838D01*
X169349167Y-77135162D01*
X169692943Y-76993117D01*
X169956192Y-76730327D01*
X170098838Y-76386799D01*
X170099162Y-76014833D01*
X169957117Y-75671057D01*
X169694327Y-75407808D01*
X169500123Y-75327167D01*
X222108838Y-75327167D01*
X222250883Y-75670943D01*
X222513673Y-75934192D01*
X222857201Y-76076838D01*
X223229167Y-76077162D01*
X223572943Y-75935117D01*
X223836192Y-75672327D01*
X223978838Y-75328799D01*
X223979162Y-74956833D01*
X223837117Y-74613057D01*
X223574327Y-74349808D01*
X223230799Y-74207162D01*
X222858833Y-74206838D01*
X222515057Y-74348883D01*
X222251808Y-74611673D01*
X222109162Y-74955201D01*
X222108838Y-75327167D01*
X169500123Y-75327167D01*
X169350799Y-75265162D01*
X168978833Y-75264838D01*
X168635057Y-75406883D01*
X168371808Y-75669673D01*
X168229162Y-76013201D01*
X168228838Y-76385167D01*
X112346024Y-76385167D01*
X112346162Y-76226833D01*
X112204117Y-75883057D01*
X111971291Y-75649824D01*
X112203192Y-75418327D01*
X112293780Y-75200167D01*
X116267038Y-75200167D01*
X116409083Y-75543943D01*
X116671873Y-75807192D01*
X117015401Y-75949838D01*
X117387367Y-75950162D01*
X117731143Y-75808117D01*
X117994392Y-75545327D01*
X118137038Y-75201799D01*
X118137039Y-75200167D01*
X121550238Y-75200167D01*
X121692283Y-75543943D01*
X121955073Y-75807192D01*
X122298601Y-75949838D01*
X122670567Y-75950162D01*
X123014343Y-75808117D01*
X123277592Y-75545327D01*
X123420238Y-75201799D01*
X123420239Y-75200167D01*
X126782638Y-75200167D01*
X126924683Y-75543943D01*
X127187473Y-75807192D01*
X127531001Y-75949838D01*
X127902967Y-75950162D01*
X128246743Y-75808117D01*
X128509992Y-75545327D01*
X128652638Y-75201799D01*
X128652639Y-75200167D01*
X131862638Y-75200167D01*
X132004683Y-75543943D01*
X132267473Y-75807192D01*
X132611001Y-75949838D01*
X132982967Y-75950162D01*
X133326743Y-75808117D01*
X133589992Y-75545327D01*
X133732638Y-75201799D01*
X133732639Y-75200167D01*
X136790238Y-75200167D01*
X136932283Y-75543943D01*
X137195073Y-75807192D01*
X137538601Y-75949838D01*
X137910567Y-75950162D01*
X138254343Y-75808117D01*
X138517592Y-75545327D01*
X138660238Y-75201799D01*
X138660239Y-75200167D01*
X141971838Y-75200167D01*
X142113883Y-75543943D01*
X142376673Y-75807192D01*
X142720201Y-75949838D01*
X143092167Y-75950162D01*
X143435943Y-75808117D01*
X143699192Y-75545327D01*
X143841838Y-75201799D01*
X143842162Y-74829833D01*
X143802634Y-74734167D01*
X162640838Y-74734167D01*
X162782883Y-75077943D01*
X163045673Y-75341192D01*
X163389201Y-75483838D01*
X163761167Y-75484162D01*
X164104943Y-75342117D01*
X164368192Y-75079327D01*
X164510838Y-74735799D01*
X164511162Y-74363833D01*
X164369117Y-74020057D01*
X164106327Y-73756808D01*
X163762799Y-73614162D01*
X163390833Y-73613838D01*
X163047057Y-73755883D01*
X162783808Y-74018673D01*
X162641162Y-74362201D01*
X162640838Y-74734167D01*
X143802634Y-74734167D01*
X143700117Y-74486057D01*
X143437327Y-74222808D01*
X143093799Y-74080162D01*
X142721833Y-74079838D01*
X142378057Y-74221883D01*
X142114808Y-74484673D01*
X141972162Y-74828201D01*
X141971838Y-75200167D01*
X138660239Y-75200167D01*
X138660562Y-74829833D01*
X138518517Y-74486057D01*
X138255727Y-74222808D01*
X137912199Y-74080162D01*
X137540233Y-74079838D01*
X137196457Y-74221883D01*
X136933208Y-74484673D01*
X136790562Y-74828201D01*
X136790238Y-75200167D01*
X133732639Y-75200167D01*
X133732962Y-74829833D01*
X133590917Y-74486057D01*
X133328127Y-74222808D01*
X132984599Y-74080162D01*
X132612633Y-74079838D01*
X132268857Y-74221883D01*
X132005608Y-74484673D01*
X131862962Y-74828201D01*
X131862638Y-75200167D01*
X128652639Y-75200167D01*
X128652962Y-74829833D01*
X128510917Y-74486057D01*
X128248127Y-74222808D01*
X127904599Y-74080162D01*
X127532633Y-74079838D01*
X127188857Y-74221883D01*
X126925608Y-74484673D01*
X126782962Y-74828201D01*
X126782638Y-75200167D01*
X123420239Y-75200167D01*
X123420562Y-74829833D01*
X123278517Y-74486057D01*
X123015727Y-74222808D01*
X122672199Y-74080162D01*
X122300233Y-74079838D01*
X121956457Y-74221883D01*
X121693208Y-74484673D01*
X121550562Y-74828201D01*
X121550238Y-75200167D01*
X118137039Y-75200167D01*
X118137362Y-74829833D01*
X117995317Y-74486057D01*
X117732527Y-74222808D01*
X117388999Y-74080162D01*
X117017033Y-74079838D01*
X116673257Y-74221883D01*
X116410008Y-74484673D01*
X116267362Y-74828201D01*
X116267038Y-75200167D01*
X112293780Y-75200167D01*
X112345838Y-75074799D01*
X112346162Y-74702833D01*
X112253591Y-74478794D01*
X112330192Y-74402327D01*
X112472838Y-74058799D01*
X112473162Y-73686833D01*
X112363805Y-73422167D01*
X151496838Y-73422167D01*
X151638883Y-73765943D01*
X151901673Y-74029192D01*
X152245201Y-74171838D01*
X152617167Y-74172162D01*
X152960943Y-74030117D01*
X153224192Y-73767327D01*
X153366838Y-73423799D01*
X153367162Y-73051833D01*
X153225117Y-72708057D01*
X152962327Y-72444808D01*
X152664568Y-72321167D01*
X209630838Y-72321167D01*
X209772883Y-72664943D01*
X210035673Y-72928192D01*
X210379201Y-73070838D01*
X210751167Y-73071162D01*
X211094943Y-72929117D01*
X211358192Y-72666327D01*
X211500838Y-72322799D01*
X211500839Y-72321167D01*
X218520838Y-72321167D01*
X218662883Y-72664943D01*
X218925673Y-72928192D01*
X219269201Y-73070838D01*
X219641167Y-73071162D01*
X219984943Y-72929117D01*
X220248192Y-72666327D01*
X220390838Y-72322799D01*
X220390950Y-72194167D01*
X227537838Y-72194167D01*
X227679883Y-72537943D01*
X227942673Y-72801192D01*
X228286201Y-72943838D01*
X228658167Y-72944162D01*
X229001943Y-72802117D01*
X229265192Y-72539327D01*
X229407838Y-72195799D01*
X229408162Y-71823833D01*
X229266117Y-71480057D01*
X229003327Y-71216808D01*
X228659799Y-71074162D01*
X228287833Y-71073838D01*
X227944057Y-71215883D01*
X227680808Y-71478673D01*
X227538162Y-71822201D01*
X227537838Y-72194167D01*
X220390950Y-72194167D01*
X220391162Y-71950833D01*
X220249117Y-71607057D01*
X219986327Y-71343808D01*
X219642799Y-71201162D01*
X219270833Y-71200838D01*
X218927057Y-71342883D01*
X218663808Y-71605673D01*
X218521162Y-71949201D01*
X218520838Y-72321167D01*
X211500839Y-72321167D01*
X211501162Y-71950833D01*
X211359117Y-71607057D01*
X211096327Y-71343808D01*
X210752799Y-71201162D01*
X210380833Y-71200838D01*
X210037057Y-71342883D01*
X209773808Y-71605673D01*
X209631162Y-71949201D01*
X209630838Y-72321167D01*
X152664568Y-72321167D01*
X152618799Y-72302162D01*
X152246833Y-72301838D01*
X151903057Y-72443883D01*
X151639808Y-72706673D01*
X151497162Y-73050201D01*
X151496838Y-73422167D01*
X112363805Y-73422167D01*
X112331117Y-73343057D01*
X112225180Y-73236935D01*
X112457192Y-73005327D01*
X112599838Y-72661799D01*
X112600162Y-72289833D01*
X112458117Y-71946057D01*
X112195327Y-71682808D01*
X111851799Y-71540162D01*
X111479833Y-71539838D01*
X111136057Y-71681883D01*
X110872808Y-71944673D01*
X110730162Y-72288201D01*
X110729838Y-72660167D01*
X110871883Y-73003943D01*
X110977820Y-73110065D01*
X110745808Y-73341673D01*
X110603162Y-73685201D01*
X110602838Y-74057167D01*
X110695409Y-74281206D01*
X110618808Y-74357673D01*
X110476162Y-74701201D01*
X110475838Y-75073167D01*
X106526045Y-75073167D01*
X106630838Y-74820799D01*
X106631162Y-74448833D01*
X106489117Y-74105057D01*
X106411461Y-74027266D01*
X106503838Y-73804799D01*
X106504162Y-73432833D01*
X106362117Y-73089057D01*
X106256290Y-72983046D01*
X106361192Y-72878327D01*
X106503838Y-72534799D01*
X106504162Y-72162833D01*
X106362117Y-71819057D01*
X106099327Y-71555808D01*
X105755799Y-71413162D01*
X105383833Y-71412838D01*
X105040057Y-71554883D01*
X104776808Y-71817673D01*
X104634162Y-72161201D01*
X104633838Y-72533167D01*
X71770311Y-72533167D01*
X71555327Y-72317808D01*
X71211799Y-72175162D01*
X70839833Y-72174838D01*
X70496057Y-72316883D01*
X70232808Y-72579673D01*
X70090162Y-72923201D01*
X70089838Y-73295167D01*
X56540440Y-73295167D01*
X56540440Y-71305167D01*
X90885838Y-71305167D01*
X91027883Y-71648943D01*
X91290673Y-71912192D01*
X91634201Y-72054838D01*
X92006167Y-72055162D01*
X92349943Y-71913117D01*
X92613192Y-71650327D01*
X92755838Y-71306799D01*
X92756162Y-70934833D01*
X92614117Y-70591057D01*
X92351327Y-70327808D01*
X92007799Y-70185162D01*
X91635833Y-70184838D01*
X91292057Y-70326883D01*
X91028808Y-70589673D01*
X90886162Y-70933201D01*
X90885838Y-71305167D01*
X56540440Y-71305167D01*
X56540440Y-70501167D01*
X62088838Y-70501167D01*
X62230883Y-70844943D01*
X62493673Y-71108192D01*
X62837201Y-71250838D01*
X63209167Y-71251162D01*
X63552943Y-71109117D01*
X63816192Y-70846327D01*
X63958838Y-70502799D01*
X63959162Y-70130833D01*
X63817117Y-69787057D01*
X63554327Y-69523808D01*
X63210799Y-69381162D01*
X62838833Y-69380838D01*
X62495057Y-69522883D01*
X62231808Y-69785673D01*
X62089162Y-70129201D01*
X62088838Y-70501167D01*
X56540440Y-70501167D01*
X56540440Y-70400000D01*
X56496162Y-70164683D01*
X56357090Y-69948559D01*
X56144890Y-69803569D01*
X55893000Y-69752560D01*
X52393000Y-69752560D01*
X52157683Y-69796838D01*
X51941559Y-69935910D01*
X51840440Y-70083903D01*
X51840440Y-69053367D01*
X154519438Y-69053367D01*
X154661483Y-69397143D01*
X154924273Y-69660392D01*
X155267801Y-69803038D01*
X155639767Y-69803362D01*
X155983543Y-69661317D01*
X156246792Y-69398527D01*
X156389438Y-69054999D01*
X156389762Y-68683033D01*
X156363305Y-68619000D01*
X170079560Y-68619000D01*
X170079560Y-70319000D01*
X170123838Y-70554317D01*
X170262910Y-70770441D01*
X170475110Y-70915431D01*
X170727000Y-70966440D01*
X172427000Y-70966440D01*
X172662317Y-70922162D01*
X172878441Y-70783090D01*
X173023431Y-70570890D01*
X173045301Y-70462893D01*
X173350076Y-70740645D01*
X173760110Y-70910476D01*
X173990000Y-70789155D01*
X173990000Y-69596000D01*
X174244000Y-69596000D01*
X174244000Y-70789155D01*
X174473890Y-70910476D01*
X174883924Y-70740645D01*
X175312183Y-70350358D01*
X175558486Y-69825892D01*
X175437819Y-69596000D01*
X174244000Y-69596000D01*
X173990000Y-69596000D01*
X173970000Y-69596000D01*
X173970000Y-69342000D01*
X173990000Y-69342000D01*
X173990000Y-68148845D01*
X174244000Y-68148845D01*
X174244000Y-69342000D01*
X175437819Y-69342000D01*
X175558486Y-69112108D01*
X175312183Y-68587642D01*
X174883924Y-68197355D01*
X174473890Y-68027524D01*
X174244000Y-68148845D01*
X173990000Y-68148845D01*
X173760110Y-68027524D01*
X173350076Y-68197355D01*
X173047063Y-68473501D01*
X173030162Y-68383683D01*
X172891090Y-68167559D01*
X172678890Y-68022569D01*
X172427000Y-67971560D01*
X170727000Y-67971560D01*
X170491683Y-68015838D01*
X170275559Y-68154910D01*
X170130569Y-68367110D01*
X170079560Y-68619000D01*
X156363305Y-68619000D01*
X156247717Y-68339257D01*
X155984927Y-68076008D01*
X155641399Y-67933362D01*
X155269433Y-67933038D01*
X154925657Y-68075083D01*
X154662408Y-68337873D01*
X154519762Y-68681401D01*
X154519438Y-69053367D01*
X51840440Y-69053367D01*
X51840440Y-67400000D01*
X51796162Y-67164683D01*
X51657090Y-66948559D01*
X51444890Y-66803569D01*
X51193000Y-66752560D01*
X47693000Y-66752560D01*
X47457683Y-66796838D01*
X47241559Y-66935910D01*
X47096569Y-67148110D01*
X47045560Y-67400000D01*
X39470000Y-67400000D01*
X39470000Y-66264907D01*
X83605000Y-66264907D01*
X83605000Y-66323093D01*
X83718039Y-66891378D01*
X84039946Y-67373147D01*
X84521715Y-67695054D01*
X85090000Y-67808093D01*
X85658285Y-67695054D01*
X86140054Y-67373147D01*
X86169403Y-67329223D01*
X86241673Y-67503698D01*
X86420301Y-67682327D01*
X86653690Y-67779000D01*
X87344250Y-67779000D01*
X87503000Y-67620250D01*
X87503000Y-66421000D01*
X87757000Y-66421000D01*
X87757000Y-67620250D01*
X87915750Y-67779000D01*
X88606310Y-67779000D01*
X88839699Y-67682327D01*
X89018327Y-67503698D01*
X89115000Y-67270309D01*
X89115000Y-66579750D01*
X88956250Y-66421000D01*
X87757000Y-66421000D01*
X87503000Y-66421000D01*
X87483000Y-66421000D01*
X87483000Y-66264907D01*
X118149000Y-66264907D01*
X118149000Y-66323093D01*
X118262039Y-66891378D01*
X118583946Y-67373147D01*
X119065715Y-67695054D01*
X119634000Y-67808093D01*
X120202285Y-67695054D01*
X120684054Y-67373147D01*
X120904000Y-67043974D01*
X121123946Y-67373147D01*
X121605715Y-67695054D01*
X122174000Y-67808093D01*
X122742285Y-67695054D01*
X123224054Y-67373147D01*
X123444000Y-67043974D01*
X123663946Y-67373147D01*
X124145715Y-67695054D01*
X124714000Y-67808093D01*
X125282285Y-67695054D01*
X125764054Y-67373147D01*
X125984000Y-67043974D01*
X126203946Y-67373147D01*
X126685715Y-67695054D01*
X127254000Y-67808093D01*
X127822285Y-67695054D01*
X128304054Y-67373147D01*
X128524000Y-67043974D01*
X128743946Y-67373147D01*
X129225715Y-67695054D01*
X129794000Y-67808093D01*
X130362285Y-67695054D01*
X130844054Y-67373147D01*
X130871850Y-67331548D01*
X130880838Y-67379317D01*
X131019910Y-67595441D01*
X131232110Y-67740431D01*
X131484000Y-67791440D01*
X133184000Y-67791440D01*
X133419317Y-67747162D01*
X133635441Y-67608090D01*
X133780431Y-67395890D01*
X133831440Y-67144000D01*
X133831440Y-65444000D01*
X159919560Y-65444000D01*
X159919560Y-67144000D01*
X159963838Y-67379317D01*
X160102910Y-67595441D01*
X160315110Y-67740431D01*
X160567000Y-67791440D01*
X162267000Y-67791440D01*
X162502317Y-67747162D01*
X162718441Y-67608090D01*
X162863431Y-67395890D01*
X162877086Y-67328459D01*
X162906946Y-67373147D01*
X163388715Y-67695054D01*
X163957000Y-67808093D01*
X164525285Y-67695054D01*
X165007054Y-67373147D01*
X165227000Y-67043974D01*
X165446946Y-67373147D01*
X165928715Y-67695054D01*
X166497000Y-67808093D01*
X167065285Y-67695054D01*
X167547054Y-67373147D01*
X167767000Y-67043974D01*
X167986946Y-67373147D01*
X168468715Y-67695054D01*
X169037000Y-67808093D01*
X169605285Y-67695054D01*
X170087054Y-67373147D01*
X170307000Y-67043974D01*
X170526946Y-67373147D01*
X171008715Y-67695054D01*
X171577000Y-67808093D01*
X172145285Y-67695054D01*
X172627054Y-67373147D01*
X172854702Y-67032447D01*
X172921817Y-67175358D01*
X173350076Y-67565645D01*
X173760110Y-67735476D01*
X173990000Y-67614155D01*
X173990000Y-66421000D01*
X174244000Y-66421000D01*
X174244000Y-67614155D01*
X174473890Y-67735476D01*
X174883924Y-67565645D01*
X175312183Y-67175358D01*
X175558486Y-66650892D01*
X175437819Y-66421000D01*
X174244000Y-66421000D01*
X173990000Y-66421000D01*
X173970000Y-66421000D01*
X173970000Y-66264907D01*
X203556500Y-66264907D01*
X203556500Y-66323093D01*
X203669539Y-66891378D01*
X203991446Y-67373147D01*
X204473215Y-67695054D01*
X205041500Y-67808093D01*
X205609785Y-67695054D01*
X206091554Y-67373147D01*
X206120903Y-67329223D01*
X206193173Y-67503698D01*
X206371801Y-67682327D01*
X206605190Y-67779000D01*
X207295750Y-67779000D01*
X207454500Y-67620250D01*
X207454500Y-66421000D01*
X207708500Y-66421000D01*
X207708500Y-67620250D01*
X207867250Y-67779000D01*
X208557810Y-67779000D01*
X208791199Y-67682327D01*
X208969827Y-67503698D01*
X209066500Y-67270309D01*
X209066500Y-66579750D01*
X208907750Y-66421000D01*
X207708500Y-66421000D01*
X207454500Y-66421000D01*
X207434500Y-66421000D01*
X207434500Y-66264907D01*
X212446500Y-66264907D01*
X212446500Y-66323093D01*
X212559539Y-66891378D01*
X212881446Y-67373147D01*
X213363215Y-67695054D01*
X213931500Y-67808093D01*
X214499785Y-67695054D01*
X214981554Y-67373147D01*
X215010903Y-67329223D01*
X215083173Y-67503698D01*
X215261801Y-67682327D01*
X215495190Y-67779000D01*
X216185750Y-67779000D01*
X216344500Y-67620250D01*
X216344500Y-66421000D01*
X216598500Y-66421000D01*
X216598500Y-67620250D01*
X216757250Y-67779000D01*
X217447810Y-67779000D01*
X217681199Y-67682327D01*
X217859827Y-67503698D01*
X217956500Y-67270309D01*
X217956500Y-66579750D01*
X217797750Y-66421000D01*
X216598500Y-66421000D01*
X216344500Y-66421000D01*
X216324500Y-66421000D01*
X216324500Y-66264907D01*
X221463500Y-66264907D01*
X221463500Y-66323093D01*
X221576539Y-66891378D01*
X221898446Y-67373147D01*
X222380215Y-67695054D01*
X222948500Y-67808093D01*
X223516785Y-67695054D01*
X223998554Y-67373147D01*
X224027903Y-67329223D01*
X224100173Y-67503698D01*
X224278801Y-67682327D01*
X224512190Y-67779000D01*
X225202750Y-67779000D01*
X225361500Y-67620250D01*
X225361500Y-66421000D01*
X225615500Y-66421000D01*
X225615500Y-67620250D01*
X225774250Y-67779000D01*
X226464810Y-67779000D01*
X226698199Y-67682327D01*
X226876827Y-67503698D01*
X226973500Y-67270309D01*
X226973500Y-66579750D01*
X226814750Y-66421000D01*
X225615500Y-66421000D01*
X225361500Y-66421000D01*
X225341500Y-66421000D01*
X225341500Y-66167000D01*
X225361500Y-66167000D01*
X225361500Y-64967750D01*
X225615500Y-64967750D01*
X225615500Y-66167000D01*
X226814750Y-66167000D01*
X226973500Y-66008250D01*
X226973500Y-65317691D01*
X226876827Y-65084302D01*
X226698199Y-64905673D01*
X226464810Y-64809000D01*
X225774250Y-64809000D01*
X225615500Y-64967750D01*
X225361500Y-64967750D01*
X225202750Y-64809000D01*
X224512190Y-64809000D01*
X224278801Y-64905673D01*
X224100173Y-65084302D01*
X224027903Y-65258777D01*
X223998554Y-65214853D01*
X223516785Y-64892946D01*
X222948500Y-64779907D01*
X222380215Y-64892946D01*
X221898446Y-65214853D01*
X221576539Y-65696622D01*
X221463500Y-66264907D01*
X216324500Y-66264907D01*
X216324500Y-66167000D01*
X216344500Y-66167000D01*
X216344500Y-64967750D01*
X216598500Y-64967750D01*
X216598500Y-66167000D01*
X217797750Y-66167000D01*
X217956500Y-66008250D01*
X217956500Y-65317691D01*
X217859827Y-65084302D01*
X217681199Y-64905673D01*
X217447810Y-64809000D01*
X216757250Y-64809000D01*
X216598500Y-64967750D01*
X216344500Y-64967750D01*
X216185750Y-64809000D01*
X215495190Y-64809000D01*
X215261801Y-64905673D01*
X215083173Y-65084302D01*
X215010903Y-65258777D01*
X214981554Y-65214853D01*
X214499785Y-64892946D01*
X213931500Y-64779907D01*
X213363215Y-64892946D01*
X212881446Y-65214853D01*
X212559539Y-65696622D01*
X212446500Y-66264907D01*
X207434500Y-66264907D01*
X207434500Y-66167000D01*
X207454500Y-66167000D01*
X207454500Y-64967750D01*
X207708500Y-64967750D01*
X207708500Y-66167000D01*
X208907750Y-66167000D01*
X209066500Y-66008250D01*
X209066500Y-65317691D01*
X208969827Y-65084302D01*
X208791199Y-64905673D01*
X208557810Y-64809000D01*
X207867250Y-64809000D01*
X207708500Y-64967750D01*
X207454500Y-64967750D01*
X207295750Y-64809000D01*
X206605190Y-64809000D01*
X206371801Y-64905673D01*
X206193173Y-65084302D01*
X206120903Y-65258777D01*
X206091554Y-65214853D01*
X205609785Y-64892946D01*
X205041500Y-64779907D01*
X204473215Y-64892946D01*
X203991446Y-65214853D01*
X203669539Y-65696622D01*
X203556500Y-66264907D01*
X173970000Y-66264907D01*
X173970000Y-66167000D01*
X173990000Y-66167000D01*
X173990000Y-64973845D01*
X174244000Y-64973845D01*
X174244000Y-66167000D01*
X175437819Y-66167000D01*
X175558486Y-65937108D01*
X175312183Y-65412642D01*
X174883924Y-65022355D01*
X174473890Y-64852524D01*
X174244000Y-64973845D01*
X173990000Y-64973845D01*
X173760110Y-64852524D01*
X173350076Y-65022355D01*
X172921817Y-65412642D01*
X172854702Y-65555553D01*
X172627054Y-65214853D01*
X172145285Y-64892946D01*
X171577000Y-64779907D01*
X171008715Y-64892946D01*
X170526946Y-65214853D01*
X170307000Y-65544026D01*
X170087054Y-65214853D01*
X169605285Y-64892946D01*
X169037000Y-64779907D01*
X168468715Y-64892946D01*
X167986946Y-65214853D01*
X167767000Y-65544026D01*
X167547054Y-65214853D01*
X167065285Y-64892946D01*
X166497000Y-64779907D01*
X165928715Y-64892946D01*
X165446946Y-65214853D01*
X165227000Y-65544026D01*
X165007054Y-65214853D01*
X164525285Y-64892946D01*
X163957000Y-64779907D01*
X163388715Y-64892946D01*
X162906946Y-65214853D01*
X162879150Y-65256452D01*
X162870162Y-65208683D01*
X162731090Y-64992559D01*
X162518890Y-64847569D01*
X162267000Y-64796560D01*
X160567000Y-64796560D01*
X160331683Y-64840838D01*
X160115559Y-64979910D01*
X159970569Y-65192110D01*
X159919560Y-65444000D01*
X133831440Y-65444000D01*
X133787162Y-65208683D01*
X133648090Y-64992559D01*
X133435890Y-64847569D01*
X133184000Y-64796560D01*
X131484000Y-64796560D01*
X131248683Y-64840838D01*
X131032559Y-64979910D01*
X130887569Y-65192110D01*
X130873914Y-65259541D01*
X130844054Y-65214853D01*
X130362285Y-64892946D01*
X129794000Y-64779907D01*
X129225715Y-64892946D01*
X128743946Y-65214853D01*
X128524000Y-65544026D01*
X128304054Y-65214853D01*
X127822285Y-64892946D01*
X127254000Y-64779907D01*
X126685715Y-64892946D01*
X126203946Y-65214853D01*
X125984000Y-65544026D01*
X125764054Y-65214853D01*
X125282285Y-64892946D01*
X124714000Y-64779907D01*
X124145715Y-64892946D01*
X123663946Y-65214853D01*
X123444000Y-65544026D01*
X123224054Y-65214853D01*
X122742285Y-64892946D01*
X122174000Y-64779907D01*
X121605715Y-64892946D01*
X121123946Y-65214853D01*
X120904000Y-65544026D01*
X120684054Y-65214853D01*
X120202285Y-64892946D01*
X119634000Y-64779907D01*
X119065715Y-64892946D01*
X118583946Y-65214853D01*
X118262039Y-65696622D01*
X118149000Y-66264907D01*
X87483000Y-66264907D01*
X87483000Y-66167000D01*
X87503000Y-66167000D01*
X87503000Y-64967750D01*
X87757000Y-64967750D01*
X87757000Y-66167000D01*
X88956250Y-66167000D01*
X89115000Y-66008250D01*
X89115000Y-65317691D01*
X89018327Y-65084302D01*
X88839699Y-64905673D01*
X88606310Y-64809000D01*
X87915750Y-64809000D01*
X87757000Y-64967750D01*
X87503000Y-64967750D01*
X87344250Y-64809000D01*
X86653690Y-64809000D01*
X86420301Y-64905673D01*
X86241673Y-65084302D01*
X86169403Y-65258777D01*
X86140054Y-65214853D01*
X85658285Y-64892946D01*
X85090000Y-64779907D01*
X84521715Y-64892946D01*
X84039946Y-65214853D01*
X83718039Y-65696622D01*
X83605000Y-66264907D01*
X39470000Y-66264907D01*
X39470000Y-64337000D01*
X238050000Y-64337000D01*
X238050000Y-112917000D01*
X238050000Y-112917000D01*
G37*
X238050000Y-112917000D02*
X215773191Y-112917000D01*
X215773191Y-110816000D01*
X213550810Y-110816000D01*
X213550810Y-112917000D01*
X39470000Y-112917000D01*
X39470000Y-109640000D01*
X53493560Y-109640000D01*
X53493560Y-111340000D01*
X53537838Y-111575317D01*
X53676910Y-111791441D01*
X53889110Y-111936431D01*
X54141000Y-111987440D01*
X55841000Y-111987440D01*
X56076317Y-111943162D01*
X56292441Y-111804090D01*
X56437431Y-111591890D01*
X56459301Y-111483893D01*
X56764076Y-111761645D01*
X57174110Y-111931476D01*
X57404000Y-111810155D01*
X57404000Y-110617000D01*
X57658000Y-110617000D01*
X57658000Y-111810155D01*
X57887890Y-111931476D01*
X58297924Y-111761645D01*
X58726183Y-111371358D01*
X58915184Y-110968907D01*
X68111000Y-110968907D01*
X68111000Y-111027093D01*
X68224039Y-111595378D01*
X68545946Y-112077147D01*
X69027715Y-112399054D01*
X69596000Y-112512093D01*
X70164285Y-112399054D01*
X70646054Y-112077147D01*
X70866000Y-111747974D01*
X71085946Y-112077147D01*
X71567715Y-112399054D01*
X72136000Y-112512093D01*
X72704285Y-112399054D01*
X73186054Y-112077147D01*
X73406000Y-111747974D01*
X73625946Y-112077147D01*
X74107715Y-112399054D01*
X74676000Y-112512093D01*
X75244285Y-112399054D01*
X75726054Y-112077147D01*
X75953702Y-111736447D01*
X76020817Y-111879358D01*
X76449076Y-112269645D01*
X76859110Y-112439476D01*
X77089000Y-112318155D01*
X77089000Y-111125000D01*
X77069000Y-111125000D01*
X77069000Y-110871000D01*
X77089000Y-110871000D01*
X77089000Y-109677845D01*
X77343000Y-109677845D01*
X77343000Y-110871000D01*
X77363000Y-110871000D01*
X77363000Y-111125000D01*
X77343000Y-111125000D01*
X77343000Y-112318155D01*
X77572890Y-112439476D01*
X77982924Y-112269645D01*
X78411183Y-111879358D01*
X78478298Y-111736447D01*
X78705946Y-112077147D01*
X79187715Y-112399054D01*
X79756000Y-112512093D01*
X80324285Y-112399054D01*
X80806054Y-112077147D01*
X80833850Y-112035548D01*
X80842838Y-112083317D01*
X80981910Y-112299441D01*
X81194110Y-112444431D01*
X81446000Y-112495440D01*
X83146000Y-112495440D01*
X83381317Y-112451162D01*
X83597441Y-112312090D01*
X83742431Y-112099890D01*
X83793440Y-111848000D01*
X83793440Y-110968907D01*
X124499000Y-110968907D01*
X124499000Y-111027093D01*
X124612039Y-111595378D01*
X124933946Y-112077147D01*
X125415715Y-112399054D01*
X125984000Y-112512093D01*
X126552285Y-112399054D01*
X127034054Y-112077147D01*
X127254000Y-111747974D01*
X127473946Y-112077147D01*
X127955715Y-112399054D01*
X128524000Y-112512093D01*
X129092285Y-112399054D01*
X129574054Y-112077147D01*
X129794000Y-111747974D01*
X130013946Y-112077147D01*
X130495715Y-112399054D01*
X131064000Y-112512093D01*
X131632285Y-112399054D01*
X132114054Y-112077147D01*
X132334000Y-111747974D01*
X132553946Y-112077147D01*
X133035715Y-112399054D01*
X133604000Y-112512093D01*
X134172285Y-112399054D01*
X134654054Y-112077147D01*
X134874000Y-111747974D01*
X135093946Y-112077147D01*
X135575715Y-112399054D01*
X136144000Y-112512093D01*
X136712285Y-112399054D01*
X137194054Y-112077147D01*
X137414000Y-111747974D01*
X137633946Y-112077147D01*
X138115715Y-112399054D01*
X138684000Y-112512093D01*
X139252285Y-112399054D01*
X139734054Y-112077147D01*
X139954000Y-111747974D01*
X140173946Y-112077147D01*
X140655715Y-112399054D01*
X141224000Y-112512093D01*
X141792285Y-112399054D01*
X142274054Y-112077147D01*
X142494000Y-111747974D01*
X142713946Y-112077147D01*
X143195715Y-112399054D01*
X143764000Y-112512093D01*
X144332285Y-112399054D01*
X144814054Y-112077147D01*
X145034000Y-111747974D01*
X145253946Y-112077147D01*
X145735715Y-112399054D01*
X146304000Y-112512093D01*
X146872285Y-112399054D01*
X147354054Y-112077147D01*
X147574000Y-111747974D01*
X147793946Y-112077147D01*
X148275715Y-112399054D01*
X148844000Y-112512093D01*
X149412285Y-112399054D01*
X149894054Y-112077147D01*
X149921850Y-112035548D01*
X149930838Y-112083317D01*
X150069910Y-112299441D01*
X150282110Y-112444431D01*
X150534000Y-112495440D01*
X152234000Y-112495440D01*
X152469317Y-112451162D01*
X152685441Y-112312090D01*
X152830431Y-112099890D01*
X152881440Y-111848000D01*
X152881440Y-110148000D01*
X152837162Y-109912683D01*
X152698090Y-109696559D01*
X152485890Y-109551569D01*
X152234000Y-109500560D01*
X150534000Y-109500560D01*
X150298683Y-109544838D01*
X150082559Y-109683910D01*
X149937569Y-109896110D01*
X149923914Y-109963541D01*
X149894054Y-109918853D01*
X149412285Y-109596946D01*
X148844000Y-109483907D01*
X148275715Y-109596946D01*
X147793946Y-109918853D01*
X147574000Y-110248026D01*
X147354054Y-109918853D01*
X146872285Y-109596946D01*
X146304000Y-109483907D01*
X145735715Y-109596946D01*
X145253946Y-109918853D01*
X145034000Y-110248026D01*
X144814054Y-109918853D01*
X144332285Y-109596946D01*
X143764000Y-109483907D01*
X143195715Y-109596946D01*
X142713946Y-109918853D01*
X142494000Y-110248026D01*
X142274054Y-109918853D01*
X141792285Y-109596946D01*
X141224000Y-109483907D01*
X140655715Y-109596946D01*
X140173946Y-109918853D01*
X139954000Y-110248026D01*
X139734054Y-109918853D01*
X139252285Y-109596946D01*
X138684000Y-109483907D01*
X138115715Y-109596946D01*
X137633946Y-109918853D01*
X137414000Y-110248026D01*
X137194054Y-109918853D01*
X136712285Y-109596946D01*
X136144000Y-109483907D01*
X135575715Y-109596946D01*
X135093946Y-109918853D01*
X134874000Y-110248026D01*
X134654054Y-109918853D01*
X134172285Y-109596946D01*
X133604000Y-109483907D01*
X133035715Y-109596946D01*
X132553946Y-109918853D01*
X132334000Y-110248026D01*
X132114054Y-109918853D01*
X131632285Y-109596946D01*
X131064000Y-109483907D01*
X130495715Y-109596946D01*
X130013946Y-109918853D01*
X129794000Y-110248026D01*
X129574054Y-109918853D01*
X129092285Y-109596946D01*
X128524000Y-109483907D01*
X127955715Y-109596946D01*
X127473946Y-109918853D01*
X127254000Y-110248026D01*
X127034054Y-109918853D01*
X126552285Y-109596946D01*
X125984000Y-109483907D01*
X125415715Y-109596946D01*
X124933946Y-109918853D01*
X124612039Y-110400622D01*
X124499000Y-110968907D01*
X83793440Y-110968907D01*
X83793440Y-110148000D01*
X83749162Y-109912683D01*
X83610090Y-109696559D01*
X83397890Y-109551569D01*
X83146000Y-109500560D01*
X81446000Y-109500560D01*
X81210683Y-109544838D01*
X80994559Y-109683910D01*
X80849569Y-109896110D01*
X80835914Y-109963541D01*
X80806054Y-109918853D01*
X80324285Y-109596946D01*
X79756000Y-109483907D01*
X79187715Y-109596946D01*
X78705946Y-109918853D01*
X78478298Y-110259553D01*
X78411183Y-110116642D01*
X77982924Y-109726355D01*
X77572890Y-109556524D01*
X77343000Y-109677845D01*
X77089000Y-109677845D01*
X76859110Y-109556524D01*
X76449076Y-109726355D01*
X76020817Y-110116642D01*
X75953702Y-110259553D01*
X75726054Y-109918853D01*
X75244285Y-109596946D01*
X74676000Y-109483907D01*
X74107715Y-109596946D01*
X73625946Y-109918853D01*
X73406000Y-110248026D01*
X73186054Y-109918853D01*
X72704285Y-109596946D01*
X72136000Y-109483907D01*
X71567715Y-109596946D01*
X71085946Y-109918853D01*
X70866000Y-110248026D01*
X70646054Y-109918853D01*
X70164285Y-109596946D01*
X69596000Y-109483907D01*
X69027715Y-109596946D01*
X68545946Y-109918853D01*
X68224039Y-110400622D01*
X68111000Y-110968907D01*
X58915184Y-110968907D01*
X58972486Y-110846892D01*
X58851819Y-110617000D01*
X57658000Y-110617000D01*
X57404000Y-110617000D01*
X57384000Y-110617000D01*
X57384000Y-110363000D01*
X57404000Y-110363000D01*
X57404000Y-109169845D01*
X57658000Y-109169845D01*
X57658000Y-110363000D01*
X58851819Y-110363000D01*
X58972486Y-110133108D01*
X58726183Y-109608642D01*
X58297924Y-109218355D01*
X57887890Y-109048524D01*
X57658000Y-109169845D01*
X57404000Y-109169845D01*
X57174110Y-109048524D01*
X56764076Y-109218355D01*
X56461063Y-109494501D01*
X56444162Y-109404683D01*
X56305090Y-109188559D01*
X56092890Y-109043569D01*
X55841000Y-108992560D01*
X54141000Y-108992560D01*
X53905683Y-109036838D01*
X53689559Y-109175910D01*
X53544569Y-109388110D01*
X53493560Y-109640000D01*
X39470000Y-109640000D01*
X39470000Y-107246167D01*
X53547838Y-107246167D01*
X53689883Y-107589943D01*
X53952673Y-107853192D01*
X54296201Y-107995838D01*
X54668167Y-107996162D01*
X54740760Y-107966167D01*
X71994838Y-107966167D01*
X72136883Y-108309943D01*
X72399673Y-108573192D01*
X72743201Y-108715838D01*
X73115167Y-108716162D01*
X73458943Y-108574117D01*
X73722192Y-108311327D01*
X73760045Y-108220167D01*
X78344838Y-108220167D01*
X78486883Y-108563943D01*
X78749673Y-108827192D01*
X79093201Y-108969838D01*
X79465167Y-108970162D01*
X79665147Y-108887532D01*
X105757873Y-108887532D01*
X105856536Y-109154387D01*
X106466261Y-109380908D01*
X107116260Y-109356856D01*
X107605064Y-109154387D01*
X107703727Y-108887532D01*
X106730800Y-107914605D01*
X105757873Y-108887532D01*
X79665147Y-108887532D01*
X79808943Y-108828117D01*
X80072192Y-108565327D01*
X80214838Y-108221799D01*
X80215162Y-107849833D01*
X80073117Y-107506057D01*
X79810327Y-107242808D01*
X79466799Y-107100162D01*
X79094833Y-107099838D01*
X78751057Y-107241883D01*
X78487808Y-107504673D01*
X78345162Y-107848201D01*
X78344838Y-108220167D01*
X73760045Y-108220167D01*
X73864838Y-107967799D01*
X73865048Y-107727219D01*
X73966943Y-107685117D01*
X74230192Y-107422327D01*
X74372838Y-107078799D01*
X74372950Y-106950167D01*
X95489838Y-106950167D01*
X95631883Y-107293943D01*
X95894673Y-107557192D01*
X96238201Y-107699838D01*
X96610167Y-107700162D01*
X96953943Y-107558117D01*
X97041752Y-107470461D01*
X105084892Y-107470461D01*
X105108944Y-108120460D01*
X105311413Y-108609264D01*
X105578268Y-108707927D01*
X106551195Y-107735000D01*
X106910405Y-107735000D01*
X107883332Y-108707927D01*
X108150187Y-108609264D01*
X108153195Y-108601167D01*
X117079838Y-108601167D01*
X117221883Y-108944943D01*
X117484673Y-109208192D01*
X117828201Y-109350838D01*
X118200167Y-109351162D01*
X118223078Y-109341695D01*
X118222838Y-109617167D01*
X118364883Y-109960943D01*
X118627673Y-110224192D01*
X118971201Y-110366838D01*
X119343167Y-110367162D01*
X119686943Y-110225117D01*
X119950192Y-109962327D01*
X120092838Y-109618799D01*
X120093162Y-109246833D01*
X119951117Y-108903057D01*
X119688327Y-108639808D01*
X119344799Y-108497162D01*
X118972833Y-108496838D01*
X118949922Y-108506305D01*
X118950162Y-108230833D01*
X118808117Y-107887057D01*
X118545327Y-107623808D01*
X118201799Y-107481162D01*
X117829833Y-107480838D01*
X117486057Y-107622883D01*
X117222808Y-107885673D01*
X117080162Y-108229201D01*
X117079838Y-108601167D01*
X108153195Y-108601167D01*
X108376708Y-107999539D01*
X108352656Y-107349540D01*
X108150187Y-106860736D01*
X107883332Y-106762073D01*
X106910405Y-107735000D01*
X106551195Y-107735000D01*
X105578268Y-106762073D01*
X105311413Y-106860736D01*
X105084892Y-107470461D01*
X97041752Y-107470461D01*
X97217192Y-107295327D01*
X97359838Y-106951799D01*
X97360159Y-106582468D01*
X105757873Y-106582468D01*
X106730800Y-107555395D01*
X107703727Y-106582468D01*
X107605064Y-106315613D01*
X106995339Y-106089092D01*
X106345340Y-106113144D01*
X105856536Y-106315613D01*
X105757873Y-106582468D01*
X97360159Y-106582468D01*
X97360162Y-106579833D01*
X97218117Y-106236057D01*
X96955327Y-105972808D01*
X96611799Y-105830162D01*
X96239833Y-105829838D01*
X95896057Y-105971883D01*
X95632808Y-106234673D01*
X95490162Y-106578201D01*
X95489838Y-106950167D01*
X74372950Y-106950167D01*
X74373162Y-106706833D01*
X74231117Y-106363057D01*
X73968327Y-106099808D01*
X73624799Y-105957162D01*
X73252833Y-105956838D01*
X72909057Y-106098883D01*
X72645808Y-106361673D01*
X72503162Y-106705201D01*
X72502952Y-106945781D01*
X72401057Y-106987883D01*
X72137808Y-107250673D01*
X71995162Y-107594201D01*
X71994838Y-107966167D01*
X54740760Y-107966167D01*
X55011943Y-107854117D01*
X55275192Y-107591327D01*
X55417838Y-107247799D01*
X55418162Y-106875833D01*
X55276117Y-106532057D01*
X55013327Y-106268808D01*
X54669799Y-106126162D01*
X54297833Y-106125838D01*
X53954057Y-106267883D01*
X53690808Y-106530673D01*
X53548162Y-106874201D01*
X53547838Y-107246167D01*
X39470000Y-107246167D01*
X39470000Y-105934167D01*
X75804838Y-105934167D01*
X75946883Y-106277943D01*
X76209673Y-106541192D01*
X76553201Y-106683838D01*
X76925167Y-106684162D01*
X77268943Y-106542117D01*
X77511199Y-106300283D01*
X77823201Y-106429838D01*
X78195167Y-106430162D01*
X78538943Y-106288117D01*
X78669274Y-106158013D01*
X78712201Y-106175838D01*
X79084167Y-106176162D01*
X79362476Y-106061167D01*
X82281838Y-106061167D01*
X82423883Y-106404943D01*
X82686673Y-106668192D01*
X83030201Y-106810838D01*
X83402167Y-106811162D01*
X83745943Y-106669117D01*
X84009192Y-106406327D01*
X84151838Y-106062799D01*
X84152162Y-105690833D01*
X84010117Y-105347057D01*
X83962311Y-105299167D01*
X116952838Y-105299167D01*
X117094883Y-105642943D01*
X117357673Y-105906192D01*
X117701201Y-106048838D01*
X118073167Y-106049162D01*
X118222902Y-105987293D01*
X118222838Y-106061167D01*
X118364883Y-106404943D01*
X118627673Y-106668192D01*
X118971201Y-106810838D01*
X119343167Y-106811162D01*
X119686943Y-106669117D01*
X119950192Y-106406327D01*
X120092838Y-106062799D01*
X120092839Y-106061167D01*
X202550838Y-106061167D01*
X202692883Y-106404943D01*
X202955673Y-106668192D01*
X203299201Y-106810838D01*
X203671167Y-106811162D01*
X204014943Y-106669117D01*
X204278192Y-106406327D01*
X204420838Y-106062799D01*
X204421162Y-105690833D01*
X204279117Y-105347057D01*
X204016327Y-105083808D01*
X203672799Y-104941162D01*
X203300833Y-104940838D01*
X202957057Y-105082883D01*
X202693808Y-105345673D01*
X202551162Y-105689201D01*
X202550838Y-106061167D01*
X120092839Y-106061167D01*
X120093162Y-105690833D01*
X119951117Y-105347057D01*
X119688327Y-105083808D01*
X119641032Y-105064169D01*
X119823192Y-104882327D01*
X119965838Y-104538799D01*
X119965839Y-104537167D01*
X199756838Y-104537167D01*
X199898883Y-104880943D01*
X200161673Y-105144192D01*
X200505201Y-105286838D01*
X200772849Y-105287071D01*
X200772838Y-105299167D01*
X200914883Y-105642943D01*
X201177673Y-105906192D01*
X201521201Y-106048838D01*
X201893167Y-106049162D01*
X202236943Y-105907117D01*
X202500192Y-105644327D01*
X202642838Y-105300799D01*
X202643162Y-104928833D01*
X202501117Y-104585057D01*
X202238327Y-104321808D01*
X201894799Y-104179162D01*
X201627151Y-104178929D01*
X201627162Y-104166833D01*
X201485117Y-103823057D01*
X201222327Y-103559808D01*
X200878799Y-103417162D01*
X200506833Y-103416838D01*
X200163057Y-103558883D01*
X199899808Y-103821673D01*
X199757162Y-104165201D01*
X199756838Y-104537167D01*
X119965839Y-104537167D01*
X119966162Y-104166833D01*
X119824117Y-103823057D01*
X119561327Y-103559808D01*
X119217799Y-103417162D01*
X118845833Y-103416838D01*
X118502057Y-103558883D01*
X118238808Y-103821673D01*
X118096162Y-104165201D01*
X118096142Y-104188024D01*
X118074799Y-104179162D01*
X117702833Y-104178838D01*
X117359057Y-104320883D01*
X117095808Y-104583673D01*
X116953162Y-104927201D01*
X116952838Y-105299167D01*
X83962311Y-105299167D01*
X83747327Y-105083808D01*
X83403799Y-104941162D01*
X83031833Y-104940838D01*
X82688057Y-105082883D01*
X82424808Y-105345673D01*
X82282162Y-105689201D01*
X82281838Y-106061167D01*
X79362476Y-106061167D01*
X79427943Y-106034117D01*
X79691192Y-105771327D01*
X79833838Y-105427799D01*
X79834162Y-105055833D01*
X79692117Y-104712057D01*
X79429327Y-104448808D01*
X79085799Y-104306162D01*
X78713833Y-104305838D01*
X78370057Y-104447883D01*
X78239726Y-104577987D01*
X78196799Y-104560162D01*
X77824833Y-104559838D01*
X77481057Y-104701883D01*
X77238801Y-104943717D01*
X76926799Y-104814162D01*
X76554833Y-104813838D01*
X76211057Y-104955883D01*
X75947808Y-105218673D01*
X75805162Y-105562201D01*
X75804838Y-105934167D01*
X39470000Y-105934167D01*
X39470000Y-103817167D01*
X59516838Y-103817167D01*
X59658883Y-104160943D01*
X59921673Y-104424192D01*
X60265201Y-104566838D01*
X60637167Y-104567162D01*
X60980943Y-104425117D01*
X61244192Y-104162327D01*
X61246749Y-104156167D01*
X99757038Y-104156167D01*
X99899083Y-104499943D01*
X100161873Y-104763192D01*
X100505401Y-104905838D01*
X100877367Y-104906162D01*
X101221143Y-104764117D01*
X101484392Y-104501327D01*
X101627038Y-104157799D01*
X101627362Y-103785833D01*
X101485317Y-103442057D01*
X101222527Y-103178808D01*
X100878999Y-103036162D01*
X100507033Y-103035838D01*
X100163257Y-103177883D01*
X99900008Y-103440673D01*
X99757362Y-103784201D01*
X99757038Y-104156167D01*
X61246749Y-104156167D01*
X61386838Y-103818799D01*
X61387162Y-103446833D01*
X61365401Y-103394167D01*
X67676838Y-103394167D01*
X67818883Y-103737943D01*
X68081673Y-104001192D01*
X68425201Y-104143838D01*
X68797167Y-104144162D01*
X69140943Y-104002117D01*
X69404192Y-103739327D01*
X69546838Y-103395799D01*
X69547162Y-103023833D01*
X69405117Y-102680057D01*
X69142327Y-102416808D01*
X68798799Y-102274162D01*
X68426833Y-102273838D01*
X68083057Y-102415883D01*
X67819808Y-102678673D01*
X67677162Y-103022201D01*
X67676838Y-103394167D01*
X61365401Y-103394167D01*
X61245117Y-103103057D01*
X60982327Y-102839808D01*
X60638799Y-102697162D01*
X60266833Y-102696838D01*
X59923057Y-102838883D01*
X59659808Y-103101673D01*
X59517162Y-103445201D01*
X59516838Y-103817167D01*
X39470000Y-103817167D01*
X39470000Y-101987893D01*
X78813715Y-101987893D01*
X78955760Y-102331669D01*
X79218550Y-102594918D01*
X79562078Y-102737564D01*
X79934044Y-102737888D01*
X80277820Y-102595843D01*
X80541069Y-102333053D01*
X80680541Y-101997167D01*
X94600838Y-101997167D01*
X94742883Y-102340943D01*
X95005673Y-102604192D01*
X95349201Y-102746838D01*
X95721167Y-102747162D01*
X95870902Y-102685293D01*
X95870838Y-102759167D01*
X96012883Y-103102943D01*
X96275673Y-103366192D01*
X96619201Y-103508838D01*
X96991167Y-103509162D01*
X97334943Y-103367117D01*
X97598192Y-103104327D01*
X97740838Y-102760799D01*
X97741162Y-102388833D01*
X97631805Y-102124167D01*
X120940638Y-102124167D01*
X121082683Y-102467943D01*
X121345473Y-102731192D01*
X121689001Y-102873838D01*
X122060967Y-102874162D01*
X122277803Y-102784567D01*
X125004638Y-102784567D01*
X125146683Y-103128343D01*
X125409473Y-103391592D01*
X125753001Y-103534238D01*
X126124967Y-103534562D01*
X126468743Y-103392517D01*
X126731992Y-103129727D01*
X126762952Y-103055167D01*
X235030838Y-103055167D01*
X235172883Y-103398943D01*
X235435673Y-103662192D01*
X235779201Y-103804838D01*
X236151167Y-103805162D01*
X236494943Y-103663117D01*
X236758192Y-103400327D01*
X236900838Y-103056799D01*
X236901162Y-102684833D01*
X236759117Y-102341057D01*
X236496327Y-102077808D01*
X236152799Y-101935162D01*
X235780833Y-101934838D01*
X235437057Y-102076883D01*
X235173808Y-102339673D01*
X235031162Y-102683201D01*
X235030838Y-103055167D01*
X126762952Y-103055167D01*
X126874638Y-102786199D01*
X126874962Y-102414233D01*
X126755110Y-102124167D01*
X148321838Y-102124167D01*
X148463883Y-102467943D01*
X148726673Y-102731192D01*
X149070201Y-102873838D01*
X149442167Y-102874162D01*
X149785943Y-102732117D01*
X150049192Y-102469327D01*
X150191838Y-102125799D01*
X150192162Y-101753833D01*
X150050117Y-101410057D01*
X149787327Y-101146808D01*
X149443799Y-101004162D01*
X149071833Y-101003838D01*
X148728057Y-101145883D01*
X148464808Y-101408673D01*
X148322162Y-101752201D01*
X148321838Y-102124167D01*
X126755110Y-102124167D01*
X126732917Y-102070457D01*
X126470127Y-101807208D01*
X126126599Y-101664562D01*
X125754633Y-101664238D01*
X125410857Y-101806283D01*
X125147608Y-102069073D01*
X125004962Y-102412601D01*
X125004638Y-102784567D01*
X122277803Y-102784567D01*
X122404743Y-102732117D01*
X122667992Y-102469327D01*
X122810638Y-102125799D01*
X122810962Y-101753833D01*
X122668917Y-101410057D01*
X122406127Y-101146808D01*
X122062599Y-101004162D01*
X121690633Y-101003838D01*
X121346857Y-101145883D01*
X121083608Y-101408673D01*
X120940962Y-101752201D01*
X120940638Y-102124167D01*
X97631805Y-102124167D01*
X97599117Y-102045057D01*
X97336327Y-101781808D01*
X96992799Y-101639162D01*
X96620833Y-101638838D01*
X96471098Y-101700707D01*
X96471162Y-101626833D01*
X96329117Y-101283057D01*
X96066327Y-101019808D01*
X95722799Y-100877162D01*
X95350833Y-100876838D01*
X95007057Y-101018883D01*
X94743808Y-101281673D01*
X94601162Y-101625201D01*
X94600838Y-101997167D01*
X80680541Y-101997167D01*
X80683715Y-101989525D01*
X80684039Y-101617559D01*
X80541994Y-101273783D01*
X80279204Y-101010534D01*
X79935676Y-100867888D01*
X79563710Y-100867564D01*
X79219934Y-101009609D01*
X78956685Y-101272399D01*
X78814039Y-101615927D01*
X78813715Y-101987893D01*
X39470000Y-101987893D01*
X39470000Y-100727167D01*
X63612838Y-100727167D01*
X63754883Y-101070943D01*
X64017673Y-101334192D01*
X64361201Y-101476838D01*
X64733167Y-101477162D01*
X65076943Y-101335117D01*
X65340192Y-101072327D01*
X65482838Y-100728799D01*
X65483162Y-100356833D01*
X65341117Y-100013057D01*
X65078327Y-99749808D01*
X64734799Y-99607162D01*
X64362833Y-99606838D01*
X64019057Y-99748883D01*
X63755808Y-100011673D01*
X63613162Y-100355201D01*
X63612838Y-100727167D01*
X39470000Y-100727167D01*
X39470000Y-99499167D01*
X78820838Y-99499167D01*
X78962883Y-99842943D01*
X79225673Y-100106192D01*
X79569201Y-100248838D01*
X79941167Y-100249162D01*
X80284943Y-100107117D01*
X80427140Y-99965167D01*
X95362838Y-99965167D01*
X95504883Y-100308943D01*
X95767673Y-100572192D01*
X96111201Y-100714838D01*
X96483167Y-100715162D01*
X96826943Y-100573117D01*
X97030085Y-100370329D01*
X97349201Y-100502838D01*
X97721167Y-100503162D01*
X98064943Y-100361117D01*
X98328192Y-100098327D01*
X98470838Y-99754799D01*
X98471162Y-99382833D01*
X98396926Y-99203167D01*
X132319838Y-99203167D01*
X132461883Y-99546943D01*
X132724673Y-99810192D01*
X132955000Y-99905833D01*
X132954838Y-100092167D01*
X133096883Y-100435943D01*
X133359673Y-100699192D01*
X133703201Y-100841838D01*
X134075167Y-100842162D01*
X134418943Y-100700117D01*
X134682192Y-100437327D01*
X134824838Y-100093799D01*
X134825162Y-99721833D01*
X134683117Y-99378057D01*
X134420327Y-99114808D01*
X134190000Y-99019167D01*
X134190162Y-98832833D01*
X134048117Y-98489057D01*
X133873532Y-98314167D01*
X149464838Y-98314167D01*
X149606883Y-98657943D01*
X149869673Y-98921192D01*
X150213201Y-99063838D01*
X150585167Y-99064162D01*
X150928943Y-98922117D01*
X151192192Y-98659327D01*
X151334838Y-98315799D01*
X151335162Y-97943833D01*
X151278280Y-97806167D01*
X188453838Y-97806167D01*
X188595883Y-98149943D01*
X188858673Y-98413192D01*
X189202201Y-98555838D01*
X189574167Y-98556162D01*
X189917943Y-98414117D01*
X190181192Y-98151327D01*
X190219045Y-98060167D01*
X191882838Y-98060167D01*
X192024883Y-98403943D01*
X192287673Y-98667192D01*
X192631201Y-98809838D01*
X193003167Y-98810162D01*
X193346943Y-98668117D01*
X193610192Y-98405327D01*
X193752838Y-98061799D01*
X193753162Y-97689833D01*
X193713634Y-97594167D01*
X235030838Y-97594167D01*
X235172883Y-97937943D01*
X235435673Y-98201192D01*
X235779201Y-98343838D01*
X236151167Y-98344162D01*
X236494943Y-98202117D01*
X236758192Y-97939327D01*
X236900838Y-97595799D01*
X236901162Y-97223833D01*
X236759117Y-96880057D01*
X236496327Y-96616808D01*
X236152799Y-96474162D01*
X235780833Y-96473838D01*
X235437057Y-96615883D01*
X235173808Y-96878673D01*
X235031162Y-97222201D01*
X235030838Y-97594167D01*
X193713634Y-97594167D01*
X193611117Y-97346057D01*
X193348327Y-97082808D01*
X193004799Y-96940162D01*
X192632833Y-96939838D01*
X192289057Y-97081883D01*
X192025808Y-97344673D01*
X191883162Y-97688201D01*
X191882838Y-98060167D01*
X190219045Y-98060167D01*
X190323838Y-97807799D01*
X190324162Y-97435833D01*
X190209745Y-97158923D01*
X190552943Y-97017117D01*
X190816192Y-96754327D01*
X190958838Y-96410799D01*
X190959162Y-96038833D01*
X190817117Y-95695057D01*
X190554327Y-95431808D01*
X190210799Y-95289162D01*
X189838833Y-95288838D01*
X189495057Y-95430883D01*
X189231808Y-95693673D01*
X189089162Y-96037201D01*
X189088838Y-96409167D01*
X189203255Y-96686077D01*
X188860057Y-96827883D01*
X188596808Y-97090673D01*
X188454162Y-97434201D01*
X188453838Y-97806167D01*
X151278280Y-97806167D01*
X151193117Y-97600057D01*
X150930327Y-97336808D01*
X150586799Y-97194162D01*
X150214833Y-97193838D01*
X149871057Y-97335883D01*
X149607808Y-97598673D01*
X149465162Y-97942201D01*
X149464838Y-98314167D01*
X133873532Y-98314167D01*
X133785327Y-98225808D01*
X133441799Y-98083162D01*
X133069833Y-98082838D01*
X132726057Y-98224883D01*
X132462808Y-98487673D01*
X132320162Y-98831201D01*
X132319838Y-99203167D01*
X98396926Y-99203167D01*
X98329117Y-99039057D01*
X98066327Y-98775808D01*
X97722799Y-98633162D01*
X97350833Y-98632838D01*
X97007057Y-98774883D01*
X96803915Y-98977671D01*
X96484799Y-98845162D01*
X96112833Y-98844838D01*
X95769057Y-98986883D01*
X95505808Y-99249673D01*
X95363162Y-99593201D01*
X95362838Y-99965167D01*
X80427140Y-99965167D01*
X80548192Y-99844327D01*
X80690838Y-99500799D01*
X80691162Y-99128833D01*
X80549117Y-98785057D01*
X80286327Y-98521808D01*
X79942799Y-98379162D01*
X79570833Y-98378838D01*
X79227057Y-98520883D01*
X78963808Y-98783673D01*
X78821162Y-99127201D01*
X78820838Y-99499167D01*
X39470000Y-99499167D01*
X39470000Y-96663167D01*
X65898838Y-96663167D01*
X66040883Y-97006943D01*
X66303673Y-97270192D01*
X66647201Y-97412838D01*
X67019167Y-97413162D01*
X67362943Y-97271117D01*
X67626192Y-97008327D01*
X67768838Y-96664799D01*
X67768995Y-96484108D01*
X68007192Y-96246327D01*
X68045045Y-96155167D01*
X101458838Y-96155167D01*
X101600883Y-96498943D01*
X101863673Y-96762192D01*
X102207201Y-96904838D01*
X102579167Y-96905162D01*
X102595656Y-96898349D01*
X102595516Y-97058795D01*
X102843906Y-97659943D01*
X103303437Y-98120278D01*
X103904152Y-98369716D01*
X104554595Y-98370284D01*
X105155743Y-98121894D01*
X105616078Y-97662363D01*
X105865516Y-97061648D01*
X105865518Y-97058795D01*
X107595516Y-97058795D01*
X107843906Y-97659943D01*
X108303437Y-98120278D01*
X108904152Y-98369716D01*
X109554595Y-98370284D01*
X110155743Y-98121894D01*
X110616078Y-97662363D01*
X110865516Y-97061648D01*
X110866084Y-96411205D01*
X110865242Y-96409167D01*
X116571838Y-96409167D01*
X116713883Y-96752943D01*
X116881230Y-96920583D01*
X116826162Y-97053201D01*
X116825838Y-97425167D01*
X116967883Y-97768943D01*
X117230673Y-98032192D01*
X117574201Y-98174838D01*
X117946167Y-98175162D01*
X118289943Y-98033117D01*
X118553192Y-97770327D01*
X118695838Y-97426799D01*
X118696162Y-97054833D01*
X118639280Y-96917167D01*
X130287838Y-96917167D01*
X130429883Y-97260943D01*
X130692673Y-97524192D01*
X131036201Y-97666838D01*
X131408167Y-97667162D01*
X131751943Y-97525117D01*
X132015192Y-97262327D01*
X132157838Y-96918799D01*
X132157839Y-96917167D01*
X136891838Y-96917167D01*
X137033883Y-97260943D01*
X137296673Y-97524192D01*
X137640201Y-97666838D01*
X138012167Y-97667162D01*
X138355943Y-97525117D01*
X138619192Y-97262327D01*
X138761838Y-96918799D01*
X138762012Y-96718667D01*
X156195838Y-96718667D01*
X156337883Y-97062443D01*
X156600673Y-97325692D01*
X156944201Y-97468338D01*
X157316167Y-97468662D01*
X157659943Y-97326617D01*
X157923192Y-97063827D01*
X158041870Y-96778020D01*
X158205167Y-96778162D01*
X158548943Y-96636117D01*
X158812192Y-96373327D01*
X158954838Y-96029799D01*
X158955162Y-95657833D01*
X158813117Y-95314057D01*
X158765311Y-95266167D01*
X158862838Y-95266167D01*
X159004883Y-95609943D01*
X159267673Y-95873192D01*
X159611201Y-96015838D01*
X159983167Y-96016162D01*
X160326943Y-95874117D01*
X160590192Y-95611327D01*
X160732838Y-95267799D01*
X160733162Y-94895833D01*
X160591117Y-94552057D01*
X160328327Y-94288808D01*
X159984799Y-94146162D01*
X159612833Y-94145838D01*
X159269057Y-94287883D01*
X159005808Y-94550673D01*
X158863162Y-94894201D01*
X158862838Y-95266167D01*
X158765311Y-95266167D01*
X158550327Y-95050808D01*
X158206799Y-94908162D01*
X157834833Y-94907838D01*
X157491057Y-95049883D01*
X157227808Y-95312673D01*
X157109130Y-95598480D01*
X156945833Y-95598338D01*
X156602057Y-95740383D01*
X156338808Y-96003173D01*
X156196162Y-96346701D01*
X156195838Y-96718667D01*
X138762012Y-96718667D01*
X138762162Y-96546833D01*
X138620117Y-96203057D01*
X138357327Y-95939808D01*
X138013799Y-95797162D01*
X137641833Y-95796838D01*
X137298057Y-95938883D01*
X137034808Y-96201673D01*
X136892162Y-96545201D01*
X136891838Y-96917167D01*
X132157839Y-96917167D01*
X132158162Y-96546833D01*
X132016117Y-96203057D01*
X131753327Y-95939808D01*
X131409799Y-95797162D01*
X131037833Y-95796838D01*
X130694057Y-95938883D01*
X130430808Y-96201673D01*
X130288162Y-96545201D01*
X130287838Y-96917167D01*
X118639280Y-96917167D01*
X118554117Y-96711057D01*
X118386770Y-96543417D01*
X118441838Y-96410799D01*
X118442162Y-96038833D01*
X118300117Y-95695057D01*
X118037327Y-95431808D01*
X117693799Y-95289162D01*
X117321833Y-95288838D01*
X116978057Y-95430883D01*
X116714808Y-95693673D01*
X116572162Y-96037201D01*
X116571838Y-96409167D01*
X110865242Y-96409167D01*
X110617694Y-95810057D01*
X110158163Y-95349722D01*
X109557448Y-95100284D01*
X108907005Y-95099716D01*
X108305857Y-95348106D01*
X107845522Y-95807637D01*
X107596084Y-96408352D01*
X107595516Y-97058795D01*
X105865518Y-97058795D01*
X105866084Y-96411205D01*
X105617694Y-95810057D01*
X105158163Y-95349722D01*
X104557448Y-95100284D01*
X103907005Y-95099716D01*
X103305857Y-95348106D01*
X103194600Y-95459168D01*
X103187117Y-95441057D01*
X102924327Y-95177808D01*
X102580799Y-95035162D01*
X102208833Y-95034838D01*
X101865057Y-95176883D01*
X101601808Y-95439673D01*
X101459162Y-95783201D01*
X101458838Y-96155167D01*
X68045045Y-96155167D01*
X68149838Y-95902799D01*
X68149937Y-95789265D01*
X68251943Y-95747117D01*
X68515192Y-95484327D01*
X68657838Y-95140799D01*
X68658162Y-94768833D01*
X68516117Y-94425057D01*
X68253327Y-94161808D01*
X67909799Y-94019162D01*
X67537833Y-94018838D01*
X67194057Y-94160883D01*
X66930808Y-94423673D01*
X66788162Y-94767201D01*
X66788063Y-94880735D01*
X66686057Y-94922883D01*
X66422808Y-95185673D01*
X66280162Y-95529201D01*
X66280005Y-95709892D01*
X66041808Y-95947673D01*
X65899162Y-96291201D01*
X65898838Y-96663167D01*
X39470000Y-96663167D01*
X39470000Y-94504167D01*
X53833838Y-94504167D01*
X53975883Y-94847943D01*
X54238673Y-95111192D01*
X54582201Y-95253838D01*
X54954167Y-95254162D01*
X55297943Y-95112117D01*
X55561192Y-94849327D01*
X55703838Y-94505799D01*
X55704162Y-94133833D01*
X55562117Y-93790057D01*
X55299327Y-93526808D01*
X54955799Y-93384162D01*
X54583833Y-93383838D01*
X54240057Y-93525883D01*
X53976808Y-93788673D01*
X53834162Y-94132201D01*
X53833838Y-94504167D01*
X39470000Y-94504167D01*
X39470000Y-93234167D01*
X55865838Y-93234167D01*
X56007883Y-93577943D01*
X56270673Y-93841192D01*
X56614201Y-93983838D01*
X56986167Y-93984162D01*
X57329943Y-93842117D01*
X57499565Y-93672791D01*
X57667673Y-93841192D01*
X58011201Y-93983838D01*
X58383167Y-93984162D01*
X58726943Y-93842117D01*
X58990192Y-93579327D01*
X59028045Y-93488167D01*
X68438838Y-93488167D01*
X68580883Y-93831943D01*
X68843673Y-94095192D01*
X69187201Y-94237838D01*
X69559167Y-94238162D01*
X69902943Y-94096117D01*
X70166192Y-93833327D01*
X70308838Y-93489799D01*
X70308839Y-93488167D01*
X71359838Y-93488167D01*
X71501883Y-93831943D01*
X71764673Y-94095192D01*
X72108201Y-94237838D01*
X72141106Y-94237867D01*
X72020057Y-94287883D01*
X71756808Y-94550673D01*
X71614162Y-94894201D01*
X71613838Y-95266167D01*
X71755883Y-95609943D01*
X72018673Y-95873192D01*
X72362201Y-96015838D01*
X72734167Y-96016162D01*
X73077943Y-95874117D01*
X73341192Y-95611327D01*
X73483838Y-95267799D01*
X73483904Y-95192259D01*
X73632201Y-95253838D01*
X74004167Y-95254162D01*
X74347943Y-95112117D01*
X74611192Y-94849327D01*
X74753838Y-94505799D01*
X74754162Y-94133833D01*
X74612117Y-93790057D01*
X74349327Y-93526808D01*
X74005799Y-93384162D01*
X73633833Y-93383838D01*
X73290057Y-93525883D01*
X73161612Y-93654104D01*
X73229838Y-93489799D01*
X73230162Y-93117833D01*
X73088117Y-92774057D01*
X73040311Y-92726167D01*
X75945738Y-92726167D01*
X76087783Y-93069943D01*
X76350573Y-93333192D01*
X76694101Y-93475838D01*
X77066067Y-93476162D01*
X77214586Y-93414795D01*
X105095516Y-93414795D01*
X105343906Y-94015943D01*
X105803437Y-94476278D01*
X106404152Y-94725716D01*
X107054595Y-94726284D01*
X107655743Y-94477894D01*
X108116078Y-94018363D01*
X108365516Y-93417648D01*
X108365528Y-93403167D01*
X128223838Y-93403167D01*
X128365883Y-93746943D01*
X128628673Y-94010192D01*
X128972201Y-94152838D01*
X129344167Y-94153162D01*
X129687943Y-94011117D01*
X129830982Y-93868327D01*
X129930673Y-93968192D01*
X130274201Y-94110838D01*
X130646167Y-94111162D01*
X130989943Y-93969117D01*
X131253192Y-93706327D01*
X131395838Y-93362799D01*
X131396162Y-92990833D01*
X131254117Y-92647057D01*
X131141564Y-92534307D01*
X188523478Y-92534307D01*
X188665523Y-92878083D01*
X188928313Y-93141332D01*
X189271841Y-93283978D01*
X189643807Y-93284302D01*
X189987583Y-93142257D01*
X190250832Y-92879467D01*
X190393478Y-92535939D01*
X190393802Y-92163973D01*
X190251757Y-91820197D01*
X190183846Y-91752167D01*
X235030838Y-91752167D01*
X235172883Y-92095943D01*
X235435673Y-92359192D01*
X235779201Y-92501838D01*
X236151167Y-92502162D01*
X236494943Y-92360117D01*
X236758192Y-92097327D01*
X236900838Y-91753799D01*
X236901162Y-91381833D01*
X236759117Y-91038057D01*
X236496327Y-90774808D01*
X236152799Y-90632162D01*
X235780833Y-90631838D01*
X235437057Y-90773883D01*
X235173808Y-91036673D01*
X235031162Y-91380201D01*
X235030838Y-91752167D01*
X190183846Y-91752167D01*
X189988967Y-91556948D01*
X189645439Y-91414302D01*
X189273473Y-91413978D01*
X188929697Y-91556023D01*
X188666448Y-91818813D01*
X188523802Y-92162341D01*
X188523478Y-92534307D01*
X131141564Y-92534307D01*
X130991327Y-92383808D01*
X130647799Y-92241162D01*
X130275833Y-92240838D01*
X129932057Y-92382883D01*
X129789018Y-92525673D01*
X129689327Y-92425808D01*
X129345799Y-92283162D01*
X128973833Y-92282838D01*
X128630057Y-92424883D01*
X128366808Y-92687673D01*
X128224162Y-93031201D01*
X128223838Y-93403167D01*
X108365528Y-93403167D01*
X108366084Y-92767205D01*
X108117694Y-92166057D01*
X107658163Y-91705722D01*
X107057448Y-91456284D01*
X106407005Y-91455716D01*
X105805857Y-91704106D01*
X105345522Y-92163637D01*
X105096084Y-92764352D01*
X105095516Y-93414795D01*
X77214586Y-93414795D01*
X77409843Y-93334117D01*
X77673092Y-93071327D01*
X77815738Y-92727799D01*
X77815813Y-92641167D01*
X88091838Y-92641167D01*
X88233883Y-92984943D01*
X88496673Y-93248192D01*
X88840201Y-93390838D01*
X89212167Y-93391162D01*
X89555943Y-93249117D01*
X89819192Y-92986327D01*
X89961838Y-92642799D01*
X89962162Y-92270833D01*
X89957755Y-92260167D01*
X90885838Y-92260167D01*
X91027883Y-92603943D01*
X91290673Y-92867192D01*
X91634201Y-93009838D01*
X92006167Y-93010162D01*
X92349943Y-92868117D01*
X92613192Y-92605327D01*
X92755838Y-92261799D01*
X92756162Y-91889833D01*
X92687598Y-91723895D01*
X92814673Y-91851192D01*
X93158201Y-91993838D01*
X93530167Y-91994162D01*
X93873943Y-91852117D01*
X94137192Y-91589327D01*
X94279838Y-91245799D01*
X94280162Y-90873833D01*
X94138117Y-90530057D01*
X94090311Y-90482167D01*
X95584838Y-90482167D01*
X95726883Y-90825943D01*
X95989673Y-91089192D01*
X96333201Y-91231838D01*
X96705167Y-91232162D01*
X97048943Y-91090117D01*
X97312192Y-90827327D01*
X97454838Y-90483799D01*
X97455162Y-90111833D01*
X97313117Y-89768057D01*
X97265311Y-89720167D01*
X141050838Y-89720167D01*
X141192883Y-90063943D01*
X141455673Y-90327192D01*
X141799201Y-90469838D01*
X142171167Y-90470162D01*
X142514943Y-90328117D01*
X142778192Y-90065327D01*
X142920838Y-89721799D01*
X142921097Y-89424167D01*
X160132838Y-89424167D01*
X160274883Y-89767943D01*
X160537673Y-90031192D01*
X160881201Y-90173838D01*
X161253167Y-90174162D01*
X161596943Y-90032117D01*
X161860192Y-89769327D01*
X162002838Y-89425799D01*
X162003162Y-89053833D01*
X161861117Y-88710057D01*
X161813311Y-88662167D01*
X162672838Y-88662167D01*
X162814883Y-89005943D01*
X163077673Y-89269192D01*
X163421201Y-89411838D01*
X163793167Y-89412162D01*
X164136943Y-89270117D01*
X164400192Y-89007327D01*
X164542838Y-88663799D01*
X164543060Y-88408167D01*
X193660838Y-88408167D01*
X193802883Y-88751943D01*
X194065673Y-89015192D01*
X194409201Y-89157838D01*
X194781167Y-89158162D01*
X195124943Y-89016117D01*
X195388192Y-88753327D01*
X195530838Y-88409799D01*
X195531162Y-88037833D01*
X195389117Y-87694057D01*
X195126327Y-87430808D01*
X194782799Y-87288162D01*
X194410833Y-87287838D01*
X194067057Y-87429883D01*
X193803808Y-87692673D01*
X193661162Y-88036201D01*
X193660838Y-88408167D01*
X164543060Y-88408167D01*
X164543162Y-88291833D01*
X164401117Y-87948057D01*
X164138327Y-87684808D01*
X163794799Y-87542162D01*
X163422833Y-87541838D01*
X163079057Y-87683883D01*
X162815808Y-87946673D01*
X162673162Y-88290201D01*
X162672838Y-88662167D01*
X161813311Y-88662167D01*
X161598327Y-88446808D01*
X161254799Y-88304162D01*
X160882833Y-88303838D01*
X160539057Y-88445883D01*
X160275808Y-88708673D01*
X160133162Y-89052201D01*
X160132838Y-89424167D01*
X142921097Y-89424167D01*
X142921162Y-89349833D01*
X142779117Y-89006057D01*
X142516327Y-88742808D01*
X142172799Y-88600162D01*
X141800833Y-88599838D01*
X141457057Y-88741883D01*
X141193808Y-89004673D01*
X141051162Y-89348201D01*
X141050838Y-89720167D01*
X97265311Y-89720167D01*
X97050327Y-89504808D01*
X96706799Y-89362162D01*
X96334833Y-89361838D01*
X95991057Y-89503883D01*
X95727808Y-89766673D01*
X95585162Y-90110201D01*
X95584838Y-90482167D01*
X94090311Y-90482167D01*
X93875327Y-90266808D01*
X93531799Y-90124162D01*
X93159833Y-90123838D01*
X92816057Y-90265883D01*
X92552808Y-90528673D01*
X92410162Y-90872201D01*
X92409838Y-91244167D01*
X92478402Y-91410105D01*
X92351327Y-91282808D01*
X92007799Y-91140162D01*
X91635833Y-91139838D01*
X91292057Y-91281883D01*
X91028808Y-91544673D01*
X90886162Y-91888201D01*
X90885838Y-92260167D01*
X89957755Y-92260167D01*
X89820117Y-91927057D01*
X89557327Y-91663808D01*
X89213799Y-91521162D01*
X88841833Y-91520838D01*
X88498057Y-91662883D01*
X88234808Y-91925673D01*
X88092162Y-92269201D01*
X88091838Y-92641167D01*
X77815813Y-92641167D01*
X77816062Y-92355833D01*
X77674017Y-92012057D01*
X77411227Y-91748808D01*
X77067699Y-91606162D01*
X76695733Y-91605838D01*
X76351957Y-91747883D01*
X76088708Y-92010673D01*
X75946062Y-92354201D01*
X75945738Y-92726167D01*
X73040311Y-92726167D01*
X72825327Y-92510808D01*
X72481799Y-92368162D01*
X72109833Y-92367838D01*
X71766057Y-92509883D01*
X71502808Y-92772673D01*
X71360162Y-93116201D01*
X71359838Y-93488167D01*
X70308839Y-93488167D01*
X70309162Y-93117833D01*
X70167117Y-92774057D01*
X69904327Y-92510808D01*
X69560799Y-92368162D01*
X69188833Y-92367838D01*
X68845057Y-92509883D01*
X68581808Y-92772673D01*
X68439162Y-93116201D01*
X68438838Y-93488167D01*
X59028045Y-93488167D01*
X59132838Y-93235799D01*
X59133162Y-92863833D01*
X59123787Y-92841143D01*
X59145167Y-92841162D01*
X59488943Y-92699117D01*
X59752192Y-92436327D01*
X59894838Y-92092799D01*
X59895162Y-91720833D01*
X59785805Y-91456167D01*
X83501038Y-91456167D01*
X83643083Y-91799943D01*
X83905873Y-92063192D01*
X84249401Y-92205838D01*
X84621367Y-92206162D01*
X84965143Y-92064117D01*
X85228392Y-91801327D01*
X85371038Y-91457799D01*
X85371362Y-91085833D01*
X85229317Y-90742057D01*
X84966527Y-90478808D01*
X84622999Y-90336162D01*
X84251033Y-90335838D01*
X83907257Y-90477883D01*
X83644008Y-90740673D01*
X83501362Y-91084201D01*
X83501038Y-91456167D01*
X59785805Y-91456167D01*
X59753117Y-91377057D01*
X59490327Y-91113808D01*
X59146799Y-90971162D01*
X58774833Y-90970838D01*
X58431057Y-91112883D01*
X58167808Y-91375673D01*
X58025162Y-91719201D01*
X58024838Y-92091167D01*
X58034213Y-92113857D01*
X58012833Y-92113838D01*
X57669057Y-92255883D01*
X57499435Y-92425209D01*
X57331327Y-92256808D01*
X56987799Y-92114162D01*
X56615833Y-92113838D01*
X56272057Y-92255883D01*
X56008808Y-92518673D01*
X55866162Y-92862201D01*
X55865838Y-93234167D01*
X39470000Y-93234167D01*
X39470000Y-90186167D01*
X44054838Y-90186167D01*
X44196883Y-90529943D01*
X44459673Y-90793192D01*
X44803201Y-90935838D01*
X45175167Y-90936162D01*
X45518943Y-90794117D01*
X45782192Y-90531327D01*
X45924838Y-90187799D01*
X45925162Y-89815833D01*
X45783117Y-89472057D01*
X45520327Y-89208808D01*
X45176799Y-89066162D01*
X44804833Y-89065838D01*
X44461057Y-89207883D01*
X44197808Y-89470673D01*
X44055162Y-89814201D01*
X44054838Y-90186167D01*
X39470000Y-90186167D01*
X39470000Y-88281167D01*
X73264838Y-88281167D01*
X73406883Y-88624943D01*
X73669673Y-88888192D01*
X74013201Y-89030838D01*
X74385167Y-89031162D01*
X74728943Y-88889117D01*
X74992192Y-88626327D01*
X75134838Y-88282799D01*
X75135134Y-87942167D01*
X88472838Y-87942167D01*
X88614883Y-88285943D01*
X88877673Y-88549192D01*
X89221201Y-88691838D01*
X89593167Y-88692162D01*
X89936943Y-88550117D01*
X90200192Y-88287327D01*
X90342838Y-87943799D01*
X90343162Y-87571833D01*
X90216451Y-87265167D01*
X94854838Y-87265167D01*
X94996883Y-87608943D01*
X95259673Y-87872192D01*
X95603201Y-88014838D01*
X95975167Y-88015162D01*
X96318943Y-87873117D01*
X96582192Y-87610327D01*
X96724838Y-87266799D01*
X96725162Y-86894833D01*
X96583117Y-86551057D01*
X96320327Y-86287808D01*
X95976799Y-86145162D01*
X95604833Y-86144838D01*
X95261057Y-86286883D01*
X94997808Y-86549673D01*
X94855162Y-86893201D01*
X94854838Y-87265167D01*
X90216451Y-87265167D01*
X90201117Y-87228057D01*
X89938327Y-86964808D01*
X89594799Y-86822162D01*
X89222833Y-86821838D01*
X88879057Y-86963883D01*
X88615808Y-87226673D01*
X88473162Y-87570201D01*
X88472838Y-87942167D01*
X75135134Y-87942167D01*
X75135162Y-87910833D01*
X74993117Y-87567057D01*
X74730327Y-87303808D01*
X74386799Y-87161162D01*
X74014833Y-87160838D01*
X73671057Y-87302883D01*
X73407808Y-87565673D01*
X73265162Y-87909201D01*
X73264838Y-88281167D01*
X39470000Y-88281167D01*
X39470000Y-87392167D01*
X59548838Y-87392167D01*
X59690883Y-87735943D01*
X59953673Y-87999192D01*
X60297201Y-88141838D01*
X60669167Y-88142162D01*
X61012943Y-88000117D01*
X61276192Y-87737327D01*
X61418838Y-87393799D01*
X61419162Y-87021833D01*
X61362280Y-86884167D01*
X67295838Y-86884167D01*
X67437883Y-87227943D01*
X67700673Y-87491192D01*
X68044201Y-87633838D01*
X68416167Y-87634162D01*
X68759943Y-87492117D01*
X69023192Y-87229327D01*
X69165838Y-86885799D01*
X69166162Y-86513833D01*
X69024117Y-86170057D01*
X68761327Y-85906808D01*
X68417799Y-85764162D01*
X68045833Y-85763838D01*
X67702057Y-85905883D01*
X67438808Y-86168673D01*
X67296162Y-86512201D01*
X67295838Y-86884167D01*
X61362280Y-86884167D01*
X61277117Y-86678057D01*
X61014327Y-86414808D01*
X60670799Y-86272162D01*
X60298833Y-86271838D01*
X59955057Y-86413883D01*
X59691808Y-86676673D01*
X59549162Y-87020201D01*
X59548838Y-87392167D01*
X39470000Y-87392167D01*
X39470000Y-85995167D01*
X55992838Y-85995167D01*
X56134883Y-86338943D01*
X56397673Y-86602192D01*
X56741201Y-86744838D01*
X57113167Y-86745162D01*
X57456943Y-86603117D01*
X57720192Y-86340327D01*
X57862838Y-85996799D01*
X57863162Y-85624833D01*
X57721117Y-85281057D01*
X57673311Y-85233167D01*
X68819838Y-85233167D01*
X68961883Y-85576943D01*
X69224673Y-85840192D01*
X69568201Y-85982838D01*
X69940167Y-85983162D01*
X70283943Y-85841117D01*
X70547192Y-85578327D01*
X70689838Y-85234799D01*
X70690162Y-84862833D01*
X70548117Y-84519057D01*
X70288681Y-84259167D01*
X92663838Y-84259167D01*
X92805883Y-84602943D01*
X93068673Y-84866192D01*
X93412201Y-85008838D01*
X93755803Y-85009137D01*
X93737057Y-85016883D01*
X93473808Y-85279673D01*
X93331162Y-85623201D01*
X93330838Y-85995167D01*
X93472883Y-86338943D01*
X93735673Y-86602192D01*
X94079201Y-86744838D01*
X94451167Y-86745162D01*
X94794943Y-86603117D01*
X95058192Y-86340327D01*
X95200838Y-85996799D01*
X95200891Y-85935163D01*
X96358804Y-85935163D01*
X96500849Y-86278939D01*
X96763639Y-86542188D01*
X97107167Y-86684834D01*
X97479133Y-86685158D01*
X97482050Y-86683953D01*
X97395162Y-86893201D01*
X97394838Y-87265167D01*
X97536883Y-87608943D01*
X97799673Y-87872192D01*
X98143201Y-88014838D01*
X98515167Y-88015162D01*
X98858943Y-87873117D01*
X99122192Y-87610327D01*
X99264838Y-87266799D01*
X99264839Y-87265167D01*
X99426838Y-87265167D01*
X99568883Y-87608943D01*
X99831673Y-87872192D01*
X100175201Y-88014838D01*
X100547167Y-88015162D01*
X100890943Y-87873117D01*
X101154192Y-87610327D01*
X101296838Y-87266799D01*
X101296839Y-87265167D01*
X197216838Y-87265167D01*
X197358883Y-87608943D01*
X197621673Y-87872192D01*
X197965201Y-88014838D01*
X198337167Y-88015162D01*
X198680943Y-87873117D01*
X198866216Y-87688167D01*
X207979838Y-87688167D01*
X208121883Y-88031943D01*
X208384673Y-88295192D01*
X208728201Y-88437838D01*
X209100167Y-88438162D01*
X209443943Y-88296117D01*
X209707192Y-88033327D01*
X209849838Y-87689799D01*
X209850162Y-87317833D01*
X209708117Y-86974057D01*
X209445327Y-86710808D01*
X209101799Y-86568162D01*
X208729833Y-86567838D01*
X208386057Y-86709883D01*
X208122808Y-86972673D01*
X207980162Y-87316201D01*
X207979838Y-87688167D01*
X198866216Y-87688167D01*
X198944192Y-87610327D01*
X199086838Y-87266799D01*
X199087162Y-86894833D01*
X198945117Y-86551057D01*
X198682327Y-86287808D01*
X198338799Y-86145162D01*
X197966833Y-86144838D01*
X197623057Y-86286883D01*
X197359808Y-86549673D01*
X197217162Y-86893201D01*
X197216838Y-87265167D01*
X101296839Y-87265167D01*
X101297162Y-86894833D01*
X101155117Y-86551057D01*
X100892327Y-86287808D01*
X100548799Y-86145162D01*
X100176833Y-86144838D01*
X99833057Y-86286883D01*
X99569808Y-86549673D01*
X99427162Y-86893201D01*
X99426838Y-87265167D01*
X99264839Y-87265167D01*
X99265162Y-86894833D01*
X99123117Y-86551057D01*
X98860327Y-86287808D01*
X98516799Y-86145162D01*
X98144833Y-86144838D01*
X98141916Y-86146043D01*
X98228804Y-85936795D01*
X98229128Y-85564829D01*
X98109443Y-85275167D01*
X226775838Y-85275167D01*
X226917883Y-85618943D01*
X227180673Y-85882192D01*
X227524201Y-86024838D01*
X227896167Y-86025162D01*
X228239943Y-85883117D01*
X228503192Y-85620327D01*
X228645838Y-85276799D01*
X228646162Y-84904833D01*
X228504117Y-84561057D01*
X228241327Y-84297808D01*
X227897799Y-84155162D01*
X227525833Y-84154838D01*
X227182057Y-84296883D01*
X226918808Y-84559673D01*
X226776162Y-84903201D01*
X226775838Y-85275167D01*
X98109443Y-85275167D01*
X98087083Y-85221053D01*
X97830475Y-84963997D01*
X98064943Y-84867117D01*
X98328192Y-84604327D01*
X98470838Y-84260799D01*
X98471097Y-83963167D01*
X117587838Y-83963167D01*
X117729883Y-84306943D01*
X117992673Y-84570192D01*
X118336201Y-84712838D01*
X118708167Y-84713162D01*
X119051943Y-84571117D01*
X119315192Y-84308327D01*
X119457838Y-83964799D01*
X119457839Y-83963167D01*
X168895838Y-83963167D01*
X169037883Y-84306943D01*
X169300673Y-84570192D01*
X169644201Y-84712838D01*
X170016167Y-84713162D01*
X170359943Y-84571117D01*
X170623192Y-84308327D01*
X170765838Y-83964799D01*
X170766162Y-83592833D01*
X170624117Y-83249057D01*
X170361327Y-82985808D01*
X170017799Y-82843162D01*
X169645833Y-82842838D01*
X169302057Y-82984883D01*
X169038808Y-83247673D01*
X168896162Y-83591201D01*
X168895838Y-83963167D01*
X119457839Y-83963167D01*
X119458162Y-83592833D01*
X119316117Y-83249057D01*
X119053327Y-82985808D01*
X118709799Y-82843162D01*
X118337833Y-82842838D01*
X117994057Y-82984883D01*
X117730808Y-83247673D01*
X117588162Y-83591201D01*
X117587838Y-83963167D01*
X98471097Y-83963167D01*
X98471162Y-83888833D01*
X98329117Y-83545057D01*
X98066327Y-83281808D01*
X97722799Y-83139162D01*
X97350833Y-83138838D01*
X97007057Y-83280883D01*
X96743808Y-83543673D01*
X96601162Y-83887201D01*
X96600838Y-84259167D01*
X96742883Y-84602943D01*
X96999491Y-84859999D01*
X96765023Y-84956879D01*
X96501774Y-85219669D01*
X96359128Y-85563197D01*
X96358804Y-85935163D01*
X95200891Y-85935163D01*
X95201162Y-85624833D01*
X95059117Y-85281057D01*
X94796327Y-85017808D01*
X94452799Y-84875162D01*
X94109197Y-84874863D01*
X94127943Y-84867117D01*
X94391192Y-84604327D01*
X94533838Y-84260799D01*
X94534162Y-83888833D01*
X94392117Y-83545057D01*
X94129327Y-83281808D01*
X93785799Y-83139162D01*
X93413833Y-83138838D01*
X93070057Y-83280883D01*
X92806808Y-83543673D01*
X92664162Y-83887201D01*
X92663838Y-84259167D01*
X70288681Y-84259167D01*
X70285327Y-84255808D01*
X69941799Y-84113162D01*
X69569833Y-84112838D01*
X69226057Y-84254883D01*
X68962808Y-84517673D01*
X68820162Y-84861201D01*
X68819838Y-85233167D01*
X57673311Y-85233167D01*
X57458327Y-85017808D01*
X57114799Y-84875162D01*
X56742833Y-84874838D01*
X56399057Y-85016883D01*
X56135808Y-85279673D01*
X55993162Y-85623201D01*
X55992838Y-85995167D01*
X39470000Y-85995167D01*
X39470000Y-82312167D01*
X53579838Y-82312167D01*
X53721883Y-82655943D01*
X53984673Y-82919192D01*
X54328201Y-83061838D01*
X54700167Y-83062162D01*
X55043943Y-82920117D01*
X55307192Y-82657327D01*
X55407900Y-82414795D01*
X102595516Y-82414795D01*
X102843906Y-83015943D01*
X103303437Y-83476278D01*
X103904152Y-83725716D01*
X104554595Y-83726284D01*
X105155743Y-83477894D01*
X105616078Y-83018363D01*
X105865516Y-82417648D01*
X105865518Y-82414795D01*
X107595516Y-82414795D01*
X107843906Y-83015943D01*
X108303437Y-83476278D01*
X108904152Y-83725716D01*
X109554595Y-83726284D01*
X110155743Y-83477894D01*
X110616078Y-83018363D01*
X110751110Y-82693167D01*
X213218838Y-82693167D01*
X213360883Y-83036943D01*
X213623673Y-83300192D01*
X213967201Y-83442838D01*
X214339167Y-83443162D01*
X214682943Y-83301117D01*
X214946192Y-83038327D01*
X215088838Y-82694799D01*
X215089162Y-82322833D01*
X214947117Y-81979057D01*
X214684327Y-81715808D01*
X214340799Y-81573162D01*
X213968833Y-81572838D01*
X213625057Y-81714883D01*
X213361808Y-81977673D01*
X213219162Y-82321201D01*
X213218838Y-82693167D01*
X110751110Y-82693167D01*
X110865516Y-82417648D01*
X110866084Y-81767205D01*
X110617694Y-81166057D01*
X110494021Y-81042167D01*
X139304838Y-81042167D01*
X139446883Y-81385943D01*
X139709673Y-81649192D01*
X140053201Y-81791838D01*
X140425167Y-81792162D01*
X140768943Y-81650117D01*
X141032192Y-81387327D01*
X141092061Y-81243147D01*
X141291201Y-81325838D01*
X141663167Y-81326162D01*
X142006943Y-81184117D01*
X142270192Y-80921327D01*
X142305566Y-80836136D01*
X142466201Y-80902838D01*
X142838167Y-80903162D01*
X143181943Y-80761117D01*
X143445192Y-80498327D01*
X143535780Y-80280167D01*
X146924838Y-80280167D01*
X147066883Y-80623943D01*
X147329673Y-80887192D01*
X147673201Y-81029838D01*
X148045167Y-81030162D01*
X148388943Y-80888117D01*
X148652192Y-80625327D01*
X148794838Y-80281799D01*
X148795162Y-79909833D01*
X148653117Y-79566057D01*
X148390327Y-79302808D01*
X148046799Y-79160162D01*
X147674833Y-79159838D01*
X147331057Y-79301883D01*
X147067808Y-79564673D01*
X146925162Y-79908201D01*
X146924838Y-80280167D01*
X143535780Y-80280167D01*
X143587838Y-80154799D01*
X143588162Y-79782833D01*
X143446117Y-79439057D01*
X143183327Y-79175808D01*
X142839799Y-79033162D01*
X142467833Y-79032838D01*
X142124057Y-79174883D01*
X141860808Y-79437673D01*
X141825434Y-79522864D01*
X141664799Y-79456162D01*
X141292833Y-79455838D01*
X140949057Y-79597883D01*
X140685808Y-79860673D01*
X140625939Y-80004853D01*
X140426799Y-79922162D01*
X140054833Y-79921838D01*
X139711057Y-80063883D01*
X139447808Y-80326673D01*
X139305162Y-80670201D01*
X139304838Y-81042167D01*
X110494021Y-81042167D01*
X110158163Y-80705722D01*
X109557448Y-80456284D01*
X108907005Y-80455716D01*
X108305857Y-80704106D01*
X107845522Y-81163637D01*
X107596084Y-81764352D01*
X107595516Y-82414795D01*
X105865518Y-82414795D01*
X105866084Y-81767205D01*
X105617694Y-81166057D01*
X105158163Y-80705722D01*
X104557448Y-80456284D01*
X103907005Y-80455716D01*
X103305857Y-80704106D01*
X102845522Y-81163637D01*
X102596084Y-81764352D01*
X102595516Y-82414795D01*
X55407900Y-82414795D01*
X55449838Y-82313799D01*
X55450162Y-81941833D01*
X55308117Y-81598057D01*
X55133532Y-81423167D01*
X71740838Y-81423167D01*
X71882883Y-81766943D01*
X72145673Y-82030192D01*
X72489201Y-82172838D01*
X72861167Y-82173162D01*
X73204943Y-82031117D01*
X73468192Y-81768327D01*
X73610838Y-81424799D01*
X73611162Y-81052833D01*
X73469117Y-80709057D01*
X73206327Y-80445808D01*
X72862799Y-80303162D01*
X72490833Y-80302838D01*
X72147057Y-80444883D01*
X71883808Y-80707673D01*
X71741162Y-81051201D01*
X71740838Y-81423167D01*
X55133532Y-81423167D01*
X55045327Y-81334808D01*
X54701799Y-81192162D01*
X54329833Y-81191838D01*
X53986057Y-81333883D01*
X53722808Y-81596673D01*
X53580162Y-81940201D01*
X53579838Y-82312167D01*
X39470000Y-82312167D01*
X39470000Y-79137167D01*
X61326838Y-79137167D01*
X61468883Y-79480943D01*
X61731673Y-79744192D01*
X62075201Y-79886838D01*
X62447167Y-79887162D01*
X62790943Y-79745117D01*
X62896954Y-79639290D01*
X63001673Y-79744192D01*
X63345201Y-79886838D01*
X63717167Y-79887162D01*
X64060943Y-79745117D01*
X64166954Y-79639290D01*
X64271673Y-79744192D01*
X64615201Y-79886838D01*
X64987167Y-79887162D01*
X65330943Y-79745117D01*
X65594192Y-79482327D01*
X65736838Y-79138799D01*
X65737162Y-78766833D01*
X65595117Y-78423057D01*
X65589238Y-78417167D01*
X172165838Y-78417167D01*
X172307883Y-78760943D01*
X172570673Y-79024192D01*
X172914201Y-79166838D01*
X173286167Y-79167162D01*
X173358760Y-79137167D01*
X223632838Y-79137167D01*
X223774883Y-79480943D01*
X224037673Y-79744192D01*
X224381201Y-79886838D01*
X224753167Y-79887162D01*
X225096943Y-79745117D01*
X225360192Y-79482327D01*
X225380605Y-79433167D01*
X229442838Y-79433167D01*
X229584883Y-79776943D01*
X229847673Y-80040192D01*
X230191201Y-80182838D01*
X230563167Y-80183162D01*
X230906943Y-80041117D01*
X231170192Y-79778327D01*
X231312838Y-79434799D01*
X231313017Y-79229754D01*
X231366201Y-79251838D01*
X231738167Y-79252162D01*
X232081943Y-79110117D01*
X232345192Y-78847327D01*
X232487838Y-78503799D01*
X232488162Y-78131833D01*
X232346117Y-77788057D01*
X232083327Y-77524808D01*
X231739799Y-77382162D01*
X231367833Y-77381838D01*
X231024057Y-77523883D01*
X230760808Y-77786673D01*
X230618162Y-78130201D01*
X230617983Y-78335246D01*
X230564799Y-78313162D01*
X230192833Y-78312838D01*
X229849057Y-78454883D01*
X229585808Y-78717673D01*
X229443162Y-79061201D01*
X229442838Y-79433167D01*
X225380605Y-79433167D01*
X225502838Y-79138799D01*
X225503162Y-78766833D01*
X225361117Y-78423057D01*
X225098327Y-78159808D01*
X224754799Y-78017162D01*
X224382833Y-78016838D01*
X224039057Y-78158883D01*
X223775808Y-78421673D01*
X223633162Y-78765201D01*
X223632838Y-79137167D01*
X173358760Y-79137167D01*
X173629943Y-79025117D01*
X173893192Y-78762327D01*
X174035838Y-78418799D01*
X174036162Y-78046833D01*
X173894117Y-77703057D01*
X173631327Y-77439808D01*
X173287799Y-77297162D01*
X172915833Y-77296838D01*
X172572057Y-77438883D01*
X172308808Y-77701673D01*
X172166162Y-78045201D01*
X172165838Y-78417167D01*
X65589238Y-78417167D01*
X65332327Y-78159808D01*
X64988799Y-78017162D01*
X64616833Y-78016838D01*
X64273057Y-78158883D01*
X64167046Y-78264710D01*
X64062327Y-78159808D01*
X63718799Y-78017162D01*
X63346833Y-78016838D01*
X63003057Y-78158883D01*
X62897046Y-78264710D01*
X62792327Y-78159808D01*
X62448799Y-78017162D01*
X62076833Y-78016838D01*
X61733057Y-78158883D01*
X61469808Y-78421673D01*
X61327162Y-78765201D01*
X61326838Y-79137167D01*
X39470000Y-79137167D01*
X39470000Y-67400000D01*
X47045560Y-67400000D01*
X47045560Y-70900000D01*
X47089838Y-71135317D01*
X47228910Y-71351441D01*
X47441110Y-71496431D01*
X47693000Y-71547440D01*
X51193000Y-71547440D01*
X51428317Y-71503162D01*
X51644441Y-71364090D01*
X51745560Y-71216097D01*
X51745560Y-73900000D01*
X51789838Y-74135317D01*
X51928910Y-74351441D01*
X52141110Y-74496431D01*
X52393000Y-74547440D01*
X55893000Y-74547440D01*
X56128317Y-74503162D01*
X56344441Y-74364090D01*
X56380601Y-74311167D01*
X75550838Y-74311167D01*
X75692883Y-74654943D01*
X75955673Y-74918192D01*
X76299201Y-75060838D01*
X76671167Y-75061162D01*
X77014943Y-74919117D01*
X77278192Y-74656327D01*
X77420838Y-74312799D01*
X77421162Y-73940833D01*
X77279117Y-73597057D01*
X77016327Y-73333808D01*
X76672799Y-73191162D01*
X76300833Y-73190838D01*
X75957057Y-73332883D01*
X75693808Y-73595673D01*
X75551162Y-73939201D01*
X75550838Y-74311167D01*
X56380601Y-74311167D01*
X56489431Y-74151890D01*
X56540440Y-73900000D01*
X56540440Y-73295167D01*
X70089838Y-73295167D01*
X70231883Y-73638943D01*
X70494673Y-73902192D01*
X70838201Y-74044838D01*
X71210167Y-74045162D01*
X71553943Y-73903117D01*
X71817192Y-73640327D01*
X71959838Y-73296799D01*
X71960162Y-72924833D01*
X71818117Y-72581057D01*
X71770311Y-72533167D01*
X104633838Y-72533167D01*
X104775883Y-72876943D01*
X104881710Y-72982954D01*
X104776808Y-73087673D01*
X104634162Y-73431201D01*
X104633838Y-73803167D01*
X104775883Y-74146943D01*
X104853539Y-74224734D01*
X104761162Y-74447201D01*
X104760838Y-74819167D01*
X104902883Y-75162943D01*
X105165673Y-75426192D01*
X105509201Y-75568838D01*
X105881167Y-75569162D01*
X106224943Y-75427117D01*
X106488192Y-75164327D01*
X106526045Y-75073167D01*
X110475838Y-75073167D01*
X110617883Y-75416943D01*
X110850709Y-75650176D01*
X110618808Y-75881673D01*
X110476162Y-76225201D01*
X110475838Y-76597167D01*
X110617883Y-76940943D01*
X110880673Y-77204192D01*
X111224201Y-77346838D01*
X111596167Y-77347162D01*
X111874476Y-77232167D01*
X194295838Y-77232167D01*
X194437883Y-77575943D01*
X194700673Y-77839192D01*
X195044201Y-77981838D01*
X195416167Y-77982162D01*
X195759943Y-77840117D01*
X196023192Y-77577327D01*
X196165838Y-77233799D01*
X196166162Y-76861833D01*
X196024117Y-76518057D01*
X195976311Y-76470167D01*
X204201838Y-76470167D01*
X204343883Y-76813943D01*
X204606673Y-77077192D01*
X204950201Y-77219838D01*
X205322167Y-77220162D01*
X205600476Y-77105167D01*
X213091838Y-77105167D01*
X213233883Y-77448943D01*
X213496673Y-77712192D01*
X213840201Y-77854838D01*
X214212167Y-77855162D01*
X214555943Y-77713117D01*
X214819192Y-77450327D01*
X214961838Y-77106799D01*
X214962162Y-76734833D01*
X214820117Y-76391057D01*
X214557327Y-76127808D01*
X214213799Y-75985162D01*
X213841833Y-75984838D01*
X213498057Y-76126883D01*
X213234808Y-76389673D01*
X213092162Y-76733201D01*
X213091838Y-77105167D01*
X205600476Y-77105167D01*
X205665943Y-77078117D01*
X205929192Y-76815327D01*
X206071838Y-76471799D01*
X206072162Y-76099833D01*
X205930117Y-75756057D01*
X205667327Y-75492808D01*
X205323799Y-75350162D01*
X204951833Y-75349838D01*
X204608057Y-75491883D01*
X204344808Y-75754673D01*
X204202162Y-76098201D01*
X204201838Y-76470167D01*
X195976311Y-76470167D01*
X195761327Y-76254808D01*
X195417799Y-76112162D01*
X195045833Y-76111838D01*
X194702057Y-76253883D01*
X194438808Y-76516673D01*
X194296162Y-76860201D01*
X194295838Y-77232167D01*
X111874476Y-77232167D01*
X111939943Y-77205117D01*
X112203192Y-76942327D01*
X112345838Y-76598799D01*
X112346024Y-76385167D01*
X168228838Y-76385167D01*
X168370883Y-76728943D01*
X168633673Y-76992192D01*
X168977201Y-77134838D01*
X169349167Y-77135162D01*
X169692943Y-76993117D01*
X169956192Y-76730327D01*
X170098838Y-76386799D01*
X170099162Y-76014833D01*
X169957117Y-75671057D01*
X169694327Y-75407808D01*
X169500123Y-75327167D01*
X222108838Y-75327167D01*
X222250883Y-75670943D01*
X222513673Y-75934192D01*
X222857201Y-76076838D01*
X223229167Y-76077162D01*
X223572943Y-75935117D01*
X223836192Y-75672327D01*
X223978838Y-75328799D01*
X223979162Y-74956833D01*
X223837117Y-74613057D01*
X223574327Y-74349808D01*
X223230799Y-74207162D01*
X222858833Y-74206838D01*
X222515057Y-74348883D01*
X222251808Y-74611673D01*
X222109162Y-74955201D01*
X222108838Y-75327167D01*
X169500123Y-75327167D01*
X169350799Y-75265162D01*
X168978833Y-75264838D01*
X168635057Y-75406883D01*
X168371808Y-75669673D01*
X168229162Y-76013201D01*
X168228838Y-76385167D01*
X112346024Y-76385167D01*
X112346162Y-76226833D01*
X112204117Y-75883057D01*
X111971291Y-75649824D01*
X112203192Y-75418327D01*
X112293780Y-75200167D01*
X116267038Y-75200167D01*
X116409083Y-75543943D01*
X116671873Y-75807192D01*
X117015401Y-75949838D01*
X117387367Y-75950162D01*
X117731143Y-75808117D01*
X117994392Y-75545327D01*
X118137038Y-75201799D01*
X118137039Y-75200167D01*
X121550238Y-75200167D01*
X121692283Y-75543943D01*
X121955073Y-75807192D01*
X122298601Y-75949838D01*
X122670567Y-75950162D01*
X123014343Y-75808117D01*
X123277592Y-75545327D01*
X123420238Y-75201799D01*
X123420239Y-75200167D01*
X126782638Y-75200167D01*
X126924683Y-75543943D01*
X127187473Y-75807192D01*
X127531001Y-75949838D01*
X127902967Y-75950162D01*
X128246743Y-75808117D01*
X128509992Y-75545327D01*
X128652638Y-75201799D01*
X128652639Y-75200167D01*
X131862638Y-75200167D01*
X132004683Y-75543943D01*
X132267473Y-75807192D01*
X132611001Y-75949838D01*
X132982967Y-75950162D01*
X133326743Y-75808117D01*
X133589992Y-75545327D01*
X133732638Y-75201799D01*
X133732639Y-75200167D01*
X136790238Y-75200167D01*
X136932283Y-75543943D01*
X137195073Y-75807192D01*
X137538601Y-75949838D01*
X137910567Y-75950162D01*
X138254343Y-75808117D01*
X138517592Y-75545327D01*
X138660238Y-75201799D01*
X138660239Y-75200167D01*
X141971838Y-75200167D01*
X142113883Y-75543943D01*
X142376673Y-75807192D01*
X142720201Y-75949838D01*
X143092167Y-75950162D01*
X143435943Y-75808117D01*
X143699192Y-75545327D01*
X143841838Y-75201799D01*
X143842162Y-74829833D01*
X143802634Y-74734167D01*
X162640838Y-74734167D01*
X162782883Y-75077943D01*
X163045673Y-75341192D01*
X163389201Y-75483838D01*
X163761167Y-75484162D01*
X164104943Y-75342117D01*
X164368192Y-75079327D01*
X164510838Y-74735799D01*
X164511162Y-74363833D01*
X164369117Y-74020057D01*
X164106327Y-73756808D01*
X163762799Y-73614162D01*
X163390833Y-73613838D01*
X163047057Y-73755883D01*
X162783808Y-74018673D01*
X162641162Y-74362201D01*
X162640838Y-74734167D01*
X143802634Y-74734167D01*
X143700117Y-74486057D01*
X143437327Y-74222808D01*
X143093799Y-74080162D01*
X142721833Y-74079838D01*
X142378057Y-74221883D01*
X142114808Y-74484673D01*
X141972162Y-74828201D01*
X141971838Y-75200167D01*
X138660239Y-75200167D01*
X138660562Y-74829833D01*
X138518517Y-74486057D01*
X138255727Y-74222808D01*
X137912199Y-74080162D01*
X137540233Y-74079838D01*
X137196457Y-74221883D01*
X136933208Y-74484673D01*
X136790562Y-74828201D01*
X136790238Y-75200167D01*
X133732639Y-75200167D01*
X133732962Y-74829833D01*
X133590917Y-74486057D01*
X133328127Y-74222808D01*
X132984599Y-74080162D01*
X132612633Y-74079838D01*
X132268857Y-74221883D01*
X132005608Y-74484673D01*
X131862962Y-74828201D01*
X131862638Y-75200167D01*
X128652639Y-75200167D01*
X128652962Y-74829833D01*
X128510917Y-74486057D01*
X128248127Y-74222808D01*
X127904599Y-74080162D01*
X127532633Y-74079838D01*
X127188857Y-74221883D01*
X126925608Y-74484673D01*
X126782962Y-74828201D01*
X126782638Y-75200167D01*
X123420239Y-75200167D01*
X123420562Y-74829833D01*
X123278517Y-74486057D01*
X123015727Y-74222808D01*
X122672199Y-74080162D01*
X122300233Y-74079838D01*
X121956457Y-74221883D01*
X121693208Y-74484673D01*
X121550562Y-74828201D01*
X121550238Y-75200167D01*
X118137039Y-75200167D01*
X118137362Y-74829833D01*
X117995317Y-74486057D01*
X117732527Y-74222808D01*
X117388999Y-74080162D01*
X117017033Y-74079838D01*
X116673257Y-74221883D01*
X116410008Y-74484673D01*
X116267362Y-74828201D01*
X116267038Y-75200167D01*
X112293780Y-75200167D01*
X112345838Y-75074799D01*
X112346162Y-74702833D01*
X112253591Y-74478794D01*
X112330192Y-74402327D01*
X112472838Y-74058799D01*
X112473162Y-73686833D01*
X112363805Y-73422167D01*
X151496838Y-73422167D01*
X151638883Y-73765943D01*
X151901673Y-74029192D01*
X152245201Y-74171838D01*
X152617167Y-74172162D01*
X152960943Y-74030117D01*
X153224192Y-73767327D01*
X153366838Y-73423799D01*
X153367162Y-73051833D01*
X153225117Y-72708057D01*
X152962327Y-72444808D01*
X152664568Y-72321167D01*
X209630838Y-72321167D01*
X209772883Y-72664943D01*
X210035673Y-72928192D01*
X210379201Y-73070838D01*
X210751167Y-73071162D01*
X211094943Y-72929117D01*
X211358192Y-72666327D01*
X211500838Y-72322799D01*
X211500839Y-72321167D01*
X218520838Y-72321167D01*
X218662883Y-72664943D01*
X218925673Y-72928192D01*
X219269201Y-73070838D01*
X219641167Y-73071162D01*
X219984943Y-72929117D01*
X220248192Y-72666327D01*
X220390838Y-72322799D01*
X220390950Y-72194167D01*
X227537838Y-72194167D01*
X227679883Y-72537943D01*
X227942673Y-72801192D01*
X228286201Y-72943838D01*
X228658167Y-72944162D01*
X229001943Y-72802117D01*
X229265192Y-72539327D01*
X229407838Y-72195799D01*
X229408162Y-71823833D01*
X229266117Y-71480057D01*
X229003327Y-71216808D01*
X228659799Y-71074162D01*
X228287833Y-71073838D01*
X227944057Y-71215883D01*
X227680808Y-71478673D01*
X227538162Y-71822201D01*
X227537838Y-72194167D01*
X220390950Y-72194167D01*
X220391162Y-71950833D01*
X220249117Y-71607057D01*
X219986327Y-71343808D01*
X219642799Y-71201162D01*
X219270833Y-71200838D01*
X218927057Y-71342883D01*
X218663808Y-71605673D01*
X218521162Y-71949201D01*
X218520838Y-72321167D01*
X211500839Y-72321167D01*
X211501162Y-71950833D01*
X211359117Y-71607057D01*
X211096327Y-71343808D01*
X210752799Y-71201162D01*
X210380833Y-71200838D01*
X210037057Y-71342883D01*
X209773808Y-71605673D01*
X209631162Y-71949201D01*
X209630838Y-72321167D01*
X152664568Y-72321167D01*
X152618799Y-72302162D01*
X152246833Y-72301838D01*
X151903057Y-72443883D01*
X151639808Y-72706673D01*
X151497162Y-73050201D01*
X151496838Y-73422167D01*
X112363805Y-73422167D01*
X112331117Y-73343057D01*
X112225180Y-73236935D01*
X112457192Y-73005327D01*
X112599838Y-72661799D01*
X112600162Y-72289833D01*
X112458117Y-71946057D01*
X112195327Y-71682808D01*
X111851799Y-71540162D01*
X111479833Y-71539838D01*
X111136057Y-71681883D01*
X110872808Y-71944673D01*
X110730162Y-72288201D01*
X110729838Y-72660167D01*
X110871883Y-73003943D01*
X110977820Y-73110065D01*
X110745808Y-73341673D01*
X110603162Y-73685201D01*
X110602838Y-74057167D01*
X110695409Y-74281206D01*
X110618808Y-74357673D01*
X110476162Y-74701201D01*
X110475838Y-75073167D01*
X106526045Y-75073167D01*
X106630838Y-74820799D01*
X106631162Y-74448833D01*
X106489117Y-74105057D01*
X106411461Y-74027266D01*
X106503838Y-73804799D01*
X106504162Y-73432833D01*
X106362117Y-73089057D01*
X106256290Y-72983046D01*
X106361192Y-72878327D01*
X106503838Y-72534799D01*
X106504162Y-72162833D01*
X106362117Y-71819057D01*
X106099327Y-71555808D01*
X105755799Y-71413162D01*
X105383833Y-71412838D01*
X105040057Y-71554883D01*
X104776808Y-71817673D01*
X104634162Y-72161201D01*
X104633838Y-72533167D01*
X71770311Y-72533167D01*
X71555327Y-72317808D01*
X71211799Y-72175162D01*
X70839833Y-72174838D01*
X70496057Y-72316883D01*
X70232808Y-72579673D01*
X70090162Y-72923201D01*
X70089838Y-73295167D01*
X56540440Y-73295167D01*
X56540440Y-71305167D01*
X90885838Y-71305167D01*
X91027883Y-71648943D01*
X91290673Y-71912192D01*
X91634201Y-72054838D01*
X92006167Y-72055162D01*
X92349943Y-71913117D01*
X92613192Y-71650327D01*
X92755838Y-71306799D01*
X92756162Y-70934833D01*
X92614117Y-70591057D01*
X92351327Y-70327808D01*
X92007799Y-70185162D01*
X91635833Y-70184838D01*
X91292057Y-70326883D01*
X91028808Y-70589673D01*
X90886162Y-70933201D01*
X90885838Y-71305167D01*
X56540440Y-71305167D01*
X56540440Y-70501167D01*
X62088838Y-70501167D01*
X62230883Y-70844943D01*
X62493673Y-71108192D01*
X62837201Y-71250838D01*
X63209167Y-71251162D01*
X63552943Y-71109117D01*
X63816192Y-70846327D01*
X63958838Y-70502799D01*
X63959162Y-70130833D01*
X63817117Y-69787057D01*
X63554327Y-69523808D01*
X63210799Y-69381162D01*
X62838833Y-69380838D01*
X62495057Y-69522883D01*
X62231808Y-69785673D01*
X62089162Y-70129201D01*
X62088838Y-70501167D01*
X56540440Y-70501167D01*
X56540440Y-70400000D01*
X56496162Y-70164683D01*
X56357090Y-69948559D01*
X56144890Y-69803569D01*
X55893000Y-69752560D01*
X52393000Y-69752560D01*
X52157683Y-69796838D01*
X51941559Y-69935910D01*
X51840440Y-70083903D01*
X51840440Y-69053367D01*
X154519438Y-69053367D01*
X154661483Y-69397143D01*
X154924273Y-69660392D01*
X155267801Y-69803038D01*
X155639767Y-69803362D01*
X155983543Y-69661317D01*
X156246792Y-69398527D01*
X156389438Y-69054999D01*
X156389762Y-68683033D01*
X156363305Y-68619000D01*
X170079560Y-68619000D01*
X170079560Y-70319000D01*
X170123838Y-70554317D01*
X170262910Y-70770441D01*
X170475110Y-70915431D01*
X170727000Y-70966440D01*
X172427000Y-70966440D01*
X172662317Y-70922162D01*
X172878441Y-70783090D01*
X173023431Y-70570890D01*
X173045301Y-70462893D01*
X173350076Y-70740645D01*
X173760110Y-70910476D01*
X173990000Y-70789155D01*
X173990000Y-69596000D01*
X174244000Y-69596000D01*
X174244000Y-70789155D01*
X174473890Y-70910476D01*
X174883924Y-70740645D01*
X175312183Y-70350358D01*
X175558486Y-69825892D01*
X175437819Y-69596000D01*
X174244000Y-69596000D01*
X173990000Y-69596000D01*
X173970000Y-69596000D01*
X173970000Y-69342000D01*
X173990000Y-69342000D01*
X173990000Y-68148845D01*
X174244000Y-68148845D01*
X174244000Y-69342000D01*
X175437819Y-69342000D01*
X175558486Y-69112108D01*
X175312183Y-68587642D01*
X174883924Y-68197355D01*
X174473890Y-68027524D01*
X174244000Y-68148845D01*
X173990000Y-68148845D01*
X173760110Y-68027524D01*
X173350076Y-68197355D01*
X173047063Y-68473501D01*
X173030162Y-68383683D01*
X172891090Y-68167559D01*
X172678890Y-68022569D01*
X172427000Y-67971560D01*
X170727000Y-67971560D01*
X170491683Y-68015838D01*
X170275559Y-68154910D01*
X170130569Y-68367110D01*
X170079560Y-68619000D01*
X156363305Y-68619000D01*
X156247717Y-68339257D01*
X155984927Y-68076008D01*
X155641399Y-67933362D01*
X155269433Y-67933038D01*
X154925657Y-68075083D01*
X154662408Y-68337873D01*
X154519762Y-68681401D01*
X154519438Y-69053367D01*
X51840440Y-69053367D01*
X51840440Y-67400000D01*
X51796162Y-67164683D01*
X51657090Y-66948559D01*
X51444890Y-66803569D01*
X51193000Y-66752560D01*
X47693000Y-66752560D01*
X47457683Y-66796838D01*
X47241559Y-66935910D01*
X47096569Y-67148110D01*
X47045560Y-67400000D01*
X39470000Y-67400000D01*
X39470000Y-66264907D01*
X83605000Y-66264907D01*
X83605000Y-66323093D01*
X83718039Y-66891378D01*
X84039946Y-67373147D01*
X84521715Y-67695054D01*
X85090000Y-67808093D01*
X85658285Y-67695054D01*
X86140054Y-67373147D01*
X86169403Y-67329223D01*
X86241673Y-67503698D01*
X86420301Y-67682327D01*
X86653690Y-67779000D01*
X87344250Y-67779000D01*
X87503000Y-67620250D01*
X87503000Y-66421000D01*
X87757000Y-66421000D01*
X87757000Y-67620250D01*
X87915750Y-67779000D01*
X88606310Y-67779000D01*
X88839699Y-67682327D01*
X89018327Y-67503698D01*
X89115000Y-67270309D01*
X89115000Y-66579750D01*
X88956250Y-66421000D01*
X87757000Y-66421000D01*
X87503000Y-66421000D01*
X87483000Y-66421000D01*
X87483000Y-66264907D01*
X118149000Y-66264907D01*
X118149000Y-66323093D01*
X118262039Y-66891378D01*
X118583946Y-67373147D01*
X119065715Y-67695054D01*
X119634000Y-67808093D01*
X120202285Y-67695054D01*
X120684054Y-67373147D01*
X120904000Y-67043974D01*
X121123946Y-67373147D01*
X121605715Y-67695054D01*
X122174000Y-67808093D01*
X122742285Y-67695054D01*
X123224054Y-67373147D01*
X123444000Y-67043974D01*
X123663946Y-67373147D01*
X124145715Y-67695054D01*
X124714000Y-67808093D01*
X125282285Y-67695054D01*
X125764054Y-67373147D01*
X125984000Y-67043974D01*
X126203946Y-67373147D01*
X126685715Y-67695054D01*
X127254000Y-67808093D01*
X127822285Y-67695054D01*
X128304054Y-67373147D01*
X128524000Y-67043974D01*
X128743946Y-67373147D01*
X129225715Y-67695054D01*
X129794000Y-67808093D01*
X130362285Y-67695054D01*
X130844054Y-67373147D01*
X130871850Y-67331548D01*
X130880838Y-67379317D01*
X131019910Y-67595441D01*
X131232110Y-67740431D01*
X131484000Y-67791440D01*
X133184000Y-67791440D01*
X133419317Y-67747162D01*
X133635441Y-67608090D01*
X133780431Y-67395890D01*
X133831440Y-67144000D01*
X133831440Y-65444000D01*
X159919560Y-65444000D01*
X159919560Y-67144000D01*
X159963838Y-67379317D01*
X160102910Y-67595441D01*
X160315110Y-67740431D01*
X160567000Y-67791440D01*
X162267000Y-67791440D01*
X162502317Y-67747162D01*
X162718441Y-67608090D01*
X162863431Y-67395890D01*
X162877086Y-67328459D01*
X162906946Y-67373147D01*
X163388715Y-67695054D01*
X163957000Y-67808093D01*
X164525285Y-67695054D01*
X165007054Y-67373147D01*
X165227000Y-67043974D01*
X165446946Y-67373147D01*
X165928715Y-67695054D01*
X166497000Y-67808093D01*
X167065285Y-67695054D01*
X167547054Y-67373147D01*
X167767000Y-67043974D01*
X167986946Y-67373147D01*
X168468715Y-67695054D01*
X169037000Y-67808093D01*
X169605285Y-67695054D01*
X170087054Y-67373147D01*
X170307000Y-67043974D01*
X170526946Y-67373147D01*
X171008715Y-67695054D01*
X171577000Y-67808093D01*
X172145285Y-67695054D01*
X172627054Y-67373147D01*
X172854702Y-67032447D01*
X172921817Y-67175358D01*
X173350076Y-67565645D01*
X173760110Y-67735476D01*
X173990000Y-67614155D01*
X173990000Y-66421000D01*
X174244000Y-66421000D01*
X174244000Y-67614155D01*
X174473890Y-67735476D01*
X174883924Y-67565645D01*
X175312183Y-67175358D01*
X175558486Y-66650892D01*
X175437819Y-66421000D01*
X174244000Y-66421000D01*
X173990000Y-66421000D01*
X173970000Y-66421000D01*
X173970000Y-66264907D01*
X203556500Y-66264907D01*
X203556500Y-66323093D01*
X203669539Y-66891378D01*
X203991446Y-67373147D01*
X204473215Y-67695054D01*
X205041500Y-67808093D01*
X205609785Y-67695054D01*
X206091554Y-67373147D01*
X206120903Y-67329223D01*
X206193173Y-67503698D01*
X206371801Y-67682327D01*
X206605190Y-67779000D01*
X207295750Y-67779000D01*
X207454500Y-67620250D01*
X207454500Y-66421000D01*
X207708500Y-66421000D01*
X207708500Y-67620250D01*
X207867250Y-67779000D01*
X208557810Y-67779000D01*
X208791199Y-67682327D01*
X208969827Y-67503698D01*
X209066500Y-67270309D01*
X209066500Y-66579750D01*
X208907750Y-66421000D01*
X207708500Y-66421000D01*
X207454500Y-66421000D01*
X207434500Y-66421000D01*
X207434500Y-66264907D01*
X212446500Y-66264907D01*
X212446500Y-66323093D01*
X212559539Y-66891378D01*
X212881446Y-67373147D01*
X213363215Y-67695054D01*
X213931500Y-67808093D01*
X214499785Y-67695054D01*
X214981554Y-67373147D01*
X215010903Y-67329223D01*
X215083173Y-67503698D01*
X215261801Y-67682327D01*
X215495190Y-67779000D01*
X216185750Y-67779000D01*
X216344500Y-67620250D01*
X216344500Y-66421000D01*
X216598500Y-66421000D01*
X216598500Y-67620250D01*
X216757250Y-67779000D01*
X217447810Y-67779000D01*
X217681199Y-67682327D01*
X217859827Y-67503698D01*
X217956500Y-67270309D01*
X217956500Y-66579750D01*
X217797750Y-66421000D01*
X216598500Y-66421000D01*
X216344500Y-66421000D01*
X216324500Y-66421000D01*
X216324500Y-66264907D01*
X221463500Y-66264907D01*
X221463500Y-66323093D01*
X221576539Y-66891378D01*
X221898446Y-67373147D01*
X222380215Y-67695054D01*
X222948500Y-67808093D01*
X223516785Y-67695054D01*
X223998554Y-67373147D01*
X224027903Y-67329223D01*
X224100173Y-67503698D01*
X224278801Y-67682327D01*
X224512190Y-67779000D01*
X225202750Y-67779000D01*
X225361500Y-67620250D01*
X225361500Y-66421000D01*
X225615500Y-66421000D01*
X225615500Y-67620250D01*
X225774250Y-67779000D01*
X226464810Y-67779000D01*
X226698199Y-67682327D01*
X226876827Y-67503698D01*
X226973500Y-67270309D01*
X226973500Y-66579750D01*
X226814750Y-66421000D01*
X225615500Y-66421000D01*
X225361500Y-66421000D01*
X225341500Y-66421000D01*
X225341500Y-66167000D01*
X225361500Y-66167000D01*
X225361500Y-64967750D01*
X225615500Y-64967750D01*
X225615500Y-66167000D01*
X226814750Y-66167000D01*
X226973500Y-66008250D01*
X226973500Y-65317691D01*
X226876827Y-65084302D01*
X226698199Y-64905673D01*
X226464810Y-64809000D01*
X225774250Y-64809000D01*
X225615500Y-64967750D01*
X225361500Y-64967750D01*
X225202750Y-64809000D01*
X224512190Y-64809000D01*
X224278801Y-64905673D01*
X224100173Y-65084302D01*
X224027903Y-65258777D01*
X223998554Y-65214853D01*
X223516785Y-64892946D01*
X222948500Y-64779907D01*
X222380215Y-64892946D01*
X221898446Y-65214853D01*
X221576539Y-65696622D01*
X221463500Y-66264907D01*
X216324500Y-66264907D01*
X216324500Y-66167000D01*
X216344500Y-66167000D01*
X216344500Y-64967750D01*
X216598500Y-64967750D01*
X216598500Y-66167000D01*
X217797750Y-66167000D01*
X217956500Y-66008250D01*
X217956500Y-65317691D01*
X217859827Y-65084302D01*
X217681199Y-64905673D01*
X217447810Y-64809000D01*
X216757250Y-64809000D01*
X216598500Y-64967750D01*
X216344500Y-64967750D01*
X216185750Y-64809000D01*
X215495190Y-64809000D01*
X215261801Y-64905673D01*
X215083173Y-65084302D01*
X215010903Y-65258777D01*
X214981554Y-65214853D01*
X214499785Y-64892946D01*
X213931500Y-64779907D01*
X213363215Y-64892946D01*
X212881446Y-65214853D01*
X212559539Y-65696622D01*
X212446500Y-66264907D01*
X207434500Y-66264907D01*
X207434500Y-66167000D01*
X207454500Y-66167000D01*
X207454500Y-64967750D01*
X207708500Y-64967750D01*
X207708500Y-66167000D01*
X208907750Y-66167000D01*
X209066500Y-66008250D01*
X209066500Y-65317691D01*
X208969827Y-65084302D01*
X208791199Y-64905673D01*
X208557810Y-64809000D01*
X207867250Y-64809000D01*
X207708500Y-64967750D01*
X207454500Y-64967750D01*
X207295750Y-64809000D01*
X206605190Y-64809000D01*
X206371801Y-64905673D01*
X206193173Y-65084302D01*
X206120903Y-65258777D01*
X206091554Y-65214853D01*
X205609785Y-64892946D01*
X205041500Y-64779907D01*
X204473215Y-64892946D01*
X203991446Y-65214853D01*
X203669539Y-65696622D01*
X203556500Y-66264907D01*
X173970000Y-66264907D01*
X173970000Y-66167000D01*
X173990000Y-66167000D01*
X173990000Y-64973845D01*
X174244000Y-64973845D01*
X174244000Y-66167000D01*
X175437819Y-66167000D01*
X175558486Y-65937108D01*
X175312183Y-65412642D01*
X174883924Y-65022355D01*
X174473890Y-64852524D01*
X174244000Y-64973845D01*
X173990000Y-64973845D01*
X173760110Y-64852524D01*
X173350076Y-65022355D01*
X172921817Y-65412642D01*
X172854702Y-65555553D01*
X172627054Y-65214853D01*
X172145285Y-64892946D01*
X171577000Y-64779907D01*
X171008715Y-64892946D01*
X170526946Y-65214853D01*
X170307000Y-65544026D01*
X170087054Y-65214853D01*
X169605285Y-64892946D01*
X169037000Y-64779907D01*
X168468715Y-64892946D01*
X167986946Y-65214853D01*
X167767000Y-65544026D01*
X167547054Y-65214853D01*
X167065285Y-64892946D01*
X166497000Y-64779907D01*
X165928715Y-64892946D01*
X165446946Y-65214853D01*
X165227000Y-65544026D01*
X165007054Y-65214853D01*
X164525285Y-64892946D01*
X163957000Y-64779907D01*
X163388715Y-64892946D01*
X162906946Y-65214853D01*
X162879150Y-65256452D01*
X162870162Y-65208683D01*
X162731090Y-64992559D01*
X162518890Y-64847569D01*
X162267000Y-64796560D01*
X160567000Y-64796560D01*
X160331683Y-64840838D01*
X160115559Y-64979910D01*
X159970569Y-65192110D01*
X159919560Y-65444000D01*
X133831440Y-65444000D01*
X133787162Y-65208683D01*
X133648090Y-64992559D01*
X133435890Y-64847569D01*
X133184000Y-64796560D01*
X131484000Y-64796560D01*
X131248683Y-64840838D01*
X131032559Y-64979910D01*
X130887569Y-65192110D01*
X130873914Y-65259541D01*
X130844054Y-65214853D01*
X130362285Y-64892946D01*
X129794000Y-64779907D01*
X129225715Y-64892946D01*
X128743946Y-65214853D01*
X128524000Y-65544026D01*
X128304054Y-65214853D01*
X127822285Y-64892946D01*
X127254000Y-64779907D01*
X126685715Y-64892946D01*
X126203946Y-65214853D01*
X125984000Y-65544026D01*
X125764054Y-65214853D01*
X125282285Y-64892946D01*
X124714000Y-64779907D01*
X124145715Y-64892946D01*
X123663946Y-65214853D01*
X123444000Y-65544026D01*
X123224054Y-65214853D01*
X122742285Y-64892946D01*
X122174000Y-64779907D01*
X121605715Y-64892946D01*
X121123946Y-65214853D01*
X120904000Y-65544026D01*
X120684054Y-65214853D01*
X120202285Y-64892946D01*
X119634000Y-64779907D01*
X119065715Y-64892946D01*
X118583946Y-65214853D01*
X118262039Y-65696622D01*
X118149000Y-66264907D01*
X87483000Y-66264907D01*
X87483000Y-66167000D01*
X87503000Y-66167000D01*
X87503000Y-64967750D01*
X87757000Y-64967750D01*
X87757000Y-66167000D01*
X88956250Y-66167000D01*
X89115000Y-66008250D01*
X89115000Y-65317691D01*
X89018327Y-65084302D01*
X88839699Y-64905673D01*
X88606310Y-64809000D01*
X87915750Y-64809000D01*
X87757000Y-64967750D01*
X87503000Y-64967750D01*
X87344250Y-64809000D01*
X86653690Y-64809000D01*
X86420301Y-64905673D01*
X86241673Y-65084302D01*
X86169403Y-65258777D01*
X86140054Y-65214853D01*
X85658285Y-64892946D01*
X85090000Y-64779907D01*
X84521715Y-64892946D01*
X84039946Y-65214853D01*
X83718039Y-65696622D01*
X83605000Y-66264907D01*
X39470000Y-66264907D01*
X39470000Y-64337000D01*
X238050000Y-64337000D01*
X238050000Y-112917000D01*
M02*
