G04 #@! TF.FileFunction,Soldermask,Bot*
%FSLAX46Y46*%
G04 Gerber Fmt 4.6, Leading zero omitted, Abs format (unit mm)*
G04 Created by KiCad (PCBNEW 4.0.5) date Sunday, August 20, 2017 'PMt' 09:04:34 PM*
%MOMM*%
%LPD*%
G01*
G04 APERTURE LIST*
%ADD10C,0.100000*%
%ADD11C,6.400000*%
%ADD12C,1.000000*%
%ADD13C,2.400000*%
%ADD14R,3.900000X3.900000*%
%ADD15R,2.100000X2.100000*%
%ADD16O,2.100000X2.100000*%
%ADD17C,0.254000*%
G04 APERTURE END LIST*
D10*
D11*
X233760000Y-68627000D03*
D12*
X231510000Y-68627000D03*
X232169010Y-67036010D03*
X233760000Y-66377000D03*
X235350990Y-67036010D03*
X236010000Y-68627000D03*
X235350990Y-70217990D03*
X233760000Y-70877000D03*
X232169010Y-70217990D03*
D13*
X106730800Y-93091000D03*
X104230800Y-82091000D03*
X109230800Y-82091000D03*
X106730800Y-107735000D03*
X104230800Y-96735000D03*
X109230800Y-96735000D03*
D14*
X54143000Y-72150000D03*
X54143000Y-66150000D03*
X49443000Y-69150000D03*
D15*
X82296000Y-110998000D03*
D16*
X79756000Y-110998000D03*
X77216000Y-110998000D03*
X74676000Y-110998000D03*
X72136000Y-110998000D03*
X69596000Y-110998000D03*
D15*
X87630000Y-66294000D03*
D16*
X85090000Y-66294000D03*
D15*
X225488500Y-66294000D03*
D16*
X222948500Y-66294000D03*
D15*
X216471500Y-66294000D03*
D16*
X213931500Y-66294000D03*
D15*
X207581500Y-66294000D03*
D16*
X205041500Y-66294000D03*
D15*
X151384000Y-110998000D03*
D16*
X148844000Y-110998000D03*
X146304000Y-110998000D03*
X143764000Y-110998000D03*
X141224000Y-110998000D03*
X138684000Y-110998000D03*
X136144000Y-110998000D03*
X133604000Y-110998000D03*
X131064000Y-110998000D03*
X128524000Y-110998000D03*
X125984000Y-110998000D03*
D15*
X132334000Y-66294000D03*
D16*
X129794000Y-66294000D03*
X127254000Y-66294000D03*
X124714000Y-66294000D03*
X122174000Y-66294000D03*
X119634000Y-66294000D03*
D15*
X161417000Y-66294000D03*
D16*
X163957000Y-66294000D03*
X166497000Y-66294000D03*
X169037000Y-66294000D03*
X171577000Y-66294000D03*
X174117000Y-66294000D03*
D15*
X54991000Y-110490000D03*
D16*
X57531000Y-110490000D03*
D15*
X171577000Y-69469000D03*
D16*
X174117000Y-69469000D03*
D11*
X43760000Y-68627000D03*
D12*
X41510000Y-68627000D03*
X42169010Y-67036010D03*
X43760000Y-66377000D03*
X45350990Y-67036010D03*
X46010000Y-68627000D03*
X45350990Y-70217990D03*
X43760000Y-70877000D03*
X42169010Y-70217990D03*
D11*
X43760000Y-108627000D03*
D12*
X41510000Y-108627000D03*
X42169010Y-107036010D03*
X43760000Y-106377000D03*
X45350990Y-107036010D03*
X46010000Y-108627000D03*
X45350990Y-110217990D03*
X43760000Y-110877000D03*
X42169010Y-110217990D03*
D11*
X233760000Y-108627000D03*
D12*
X231510000Y-108627000D03*
X232169010Y-107036010D03*
X233760000Y-106377000D03*
X235350990Y-107036010D03*
X236010000Y-108627000D03*
X235350990Y-110217990D03*
X233760000Y-110877000D03*
X232169010Y-110217990D03*
D17*
G36*
X216186000Y-113496000D02*
X211995000Y-113496000D01*
X211995000Y-111337000D01*
X216186000Y-111337000D01*
X216186000Y-113496000D01*
X216186000Y-113496000D01*
G37*
X216186000Y-113496000D02*
X211995000Y-113496000D01*
X211995000Y-111337000D01*
X216186000Y-111337000D01*
X216186000Y-113496000D01*
M02*
