M48
; DRILL file {KiCad 7.0.1} date Fri Aug 11 20:35:30 2023
; FORMAT={-:-/ absolute / inch / decimal}
; #@! TF.CreationDate,2023-08-11T20:35:30-05:00
; #@! TF.GenerationSoftware,Kicad,Pcbnew,7.0.1
; #@! TF.FileFunction,Plated,1,4,PTH
FMAT,2
INCH
; #@! TA.AperFunction,Plated,PTH,ViaDrill
T1C0.0059
; #@! TA.AperFunction,Plated,PTH,ComponentDrill
T2C0.0354
; #@! TA.AperFunction,Plated,PTH,ComponentDrill
T3C0.0394
; #@! TA.AperFunction,Plated,PTH,ComponentDrill
T4C0.0433
; #@! TA.AperFunction,Plated,PTH,ComponentDrill
T5C0.0600
%
G90
G05
T1
X1.668Y-4.061
X1.668Y-4.245
X1.7352Y-4.1255
X1.7352Y-4.153
X1.746Y-4.05
X1.755Y-4.233
X1.761Y-4.334
X1.772Y-3.957
X1.792Y-4.315
X1.809Y-3.884
X1.875Y-4.315
X1.878Y-4.052
X1.879Y-4.224
X1.889Y-4.024
X1.922Y-4.123
X1.922Y-4.155
X1.9632Y-4.2525
X1.969Y-4.123
X1.969Y-4.155
X1.973Y-3.936
X1.973Y-4.352
X1.988Y-3.995
X1.988Y-4.312
X2.0Y-4.057
X2.028Y-4.083
X2.041Y-3.157
X2.049Y-4.318
X2.06Y-3.605
X2.079Y-3.157
X2.106Y-4.381
X2.111Y-3.53
X2.114Y-2.769
X2.132Y-3.157
X2.135Y-2.916
X2.154Y-3.608
X2.165Y-4.286
X2.165Y-4.345
X2.17Y-2.798
X2.17Y-3.157
X2.171Y-2.965
X2.177Y-3.531
X2.177Y-3.582
X2.188Y-3.557
X2.2Y-3.666
X2.228Y-2.88
X2.228Y-2.931
X2.231Y-3.975
X2.231Y-4.279
X2.253Y-2.752
X2.271Y-3.2979
X2.2719Y-3.2306
X2.272Y-3.365
X2.277Y-3.876
X2.277Y-4.328
X2.277Y-4.386
X2.279Y-3.01
X2.2954Y-2.786
X2.303Y-2.879
X2.303Y-2.931
X2.3254Y-2.786
X2.328Y-3.439
X2.329Y-3.666
X2.336Y-4.328
X2.3365Y-3.0205
X2.337Y-4.386
X2.346Y-3.08
X2.381Y-3.975
X2.381Y-4.279
X2.399Y-3.708
X2.399Y-3.738
X2.399Y-3.768
X2.399Y-3.798
X2.405Y-3.147
X2.425Y-2.806
X2.429Y-2.978
X2.429Y-3.708
X2.429Y-3.738
X2.429Y-3.768
X2.429Y-3.798
X2.438Y-3.562
X2.449Y-3.432
X2.45Y-3.503
X2.4554Y-2.784
X2.477Y-3.37
X2.478Y-4.132
X2.492Y-3.021
X2.497Y-3.562
X2.513Y-3.459
X2.531Y-3.409
X2.553Y-3.02
X2.556Y-3.485
X2.558Y-3.409
X2.594Y-3.485
X2.61Y-2.839
X2.61Y-2.869
X2.61Y-2.899
X2.61Y-2.929
X2.61Y-2.988
X2.614Y-3.071
X2.646Y-3.485
X2.648Y-2.839
X2.648Y-2.869
X2.648Y-2.899
X2.648Y-2.929
X2.648Y-2.988
X2.656Y-3.094
X2.656Y-3.14
X2.68Y-3.245
X2.68Y-3.283
X2.68Y-3.334
X2.68Y-3.372
X2.684Y-3.485
X2.686Y-3.094
X2.686Y-3.14
X2.701Y-2.839
X2.701Y-2.869
X2.701Y-2.899
X2.701Y-2.929
X2.701Y-2.988
X2.739Y-2.839
X2.739Y-2.869
X2.739Y-2.899
X2.739Y-2.929
X2.739Y-2.988
X2.757Y-3.464
X2.77Y-3.432
X2.816Y-3.478
X2.816Y-3.508
X2.8381Y-3.493
X2.862Y-3.478
X2.862Y-3.508
X2.862Y-3.684
X2.901Y-3.564
X2.984Y-3.523
X2.9845Y-3.4629
X3.028Y-3.483
X3.033Y-3.248
X3.033Y-3.573
X3.347Y-4.5672
X3.352Y-4.218
X3.352Y-4.268
X3.352Y-4.318
X3.402Y-4.218
X3.402Y-4.268
X3.402Y-4.318
X3.412Y-4.5602
X3.452Y-4.218
X3.452Y-4.268
X3.452Y-4.318
X3.502Y-4.218
X3.502Y-4.268
X3.502Y-4.318
X3.695Y-3.304
X3.695Y-3.48
X3.695Y-3.894
X3.719Y-3.369
X3.719Y-3.497
X3.72Y-3.914
X3.766Y-4.439
X3.767Y-4.379
X3.797Y-3.766
X3.808Y-4.439
X3.854Y-3.765
X3.905Y-3.496
X3.952Y-3.153
X3.957Y-3.302
X3.965Y-3.739
X4.006Y-3.423
X4.006Y-3.457
X4.021Y-3.785
X4.021Y-3.845
X4.044Y-3.518
X4.055Y-3.206
X4.055Y-3.284
X4.064Y-3.536
X4.077Y-3.8
X4.113Y-3.206
X4.129Y-4.444
X4.165Y-3.57
X4.249Y-4.232
X4.278Y-4.144
X4.306Y-3.776
X4.306Y-3.836
X4.306Y-4.352
X4.325Y-3.624
X4.33Y-3.74
X4.331Y-3.256
X4.34Y-3.457
X4.355Y-3.853
X4.358Y-4.196
X4.381Y-3.678
X4.381Y-3.735
X4.381Y-3.794
X4.381Y-3.971
X4.381Y-4.031
X4.411Y-3.853
X4.411Y-3.913
X4.438Y-3.579
X4.438Y-3.642
X4.44Y-4.15
X4.452Y-3.194
X4.476Y-4.361
X4.489Y-3.874
X4.491Y-3.569
X4.532Y-3.377
X4.566Y-4.546
X4.588Y-3.933
X4.592Y-3.021
X4.592Y-3.051
X4.592Y-3.081
X4.61Y-3.899
X4.63Y-3.021
X4.63Y-3.051
X4.63Y-3.081
X4.63Y-3.919
X4.6395Y-4.5885
X4.649Y-3.536
X4.649Y-3.938
X4.668Y-3.316
X4.669Y-3.957
X4.689Y-3.977
X4.709Y-3.999
X4.718Y-4.23
X4.728Y-3.316
X4.728Y-3.692
X4.728Y-4.018
X4.743Y-4.365
X4.747Y-3.67
X4.751Y-4.462
X4.768Y-3.651
X4.778Y-4.23
X4.787Y-3.632
X4.788Y-4.484
X4.795Y-4.412
X4.8055Y-3.714
X4.813Y-2.92
X4.813Y-2.953
X4.824Y-3.517
X4.824Y-3.856
X4.837Y-4.374
X4.842Y-3.021
X4.842Y-3.051
X4.842Y-3.081
X4.846Y-3.316
X4.846Y-3.71
X4.846Y-3.74
X4.8555Y-4.183
X4.862Y-4.251
X4.868Y-2.958
X4.88Y-3.021
X4.88Y-3.051
X4.88Y-3.081
X4.904Y-4.23
X4.905Y-3.215
X4.905Y-3.316
X4.905Y-3.612
X4.905Y-4.037
X4.925Y-3.591
X4.945Y-3.571
X4.96Y-3.211
X4.963Y-4.23
X4.964Y-3.552
X4.964Y-4.037
X4.983Y-4.494
X4.983Y-4.613
X5.009Y-4.633
X5.027Y-3.211
X5.032Y-3.021
X5.032Y-3.051
X5.032Y-3.081
X5.037Y-4.655
X5.043Y-3.524
X5.053Y-3.856
X5.07Y-3.021
X5.07Y-3.051
X5.07Y-3.081
X5.088Y-3.856
X5.112Y-2.842
X5.112Y-4.039
X5.139Y-3.519
X5.253Y-3.823
X5.268Y-4.039
X5.288Y-4.061
X5.302Y-4.107
X5.309Y-3.735
X5.309Y-3.794
X5.34Y-3.735
X5.341Y-4.204
X5.369Y-2.788
X5.416Y-3.552
X5.416Y-3.591
X5.416Y-3.632
X5.416Y-3.67
X5.4384Y-4.1263
X5.4435Y-3.5565
X5.444Y-3.612
X5.444Y-3.651
X5.444Y-3.691
X5.5044Y-4.0693
X5.5044Y-4.2349
X5.5044Y-4.4009
X5.5044Y-4.5669
X5.509Y-4.185
X5.53Y-4.317
X5.543Y-4.349
X5.543Y-4.517
X5.563Y-4.298
X5.5694Y-4.0623
X5.5694Y-4.2279
X5.5694Y-4.3939
X5.5694Y-4.5599
X5.618Y-4.298
X5.645Y-4.317
X5.817Y-3.899
X5.85Y-3.88
X5.859Y-3.937
X5.885Y-3.918
X5.886Y-3.976
X5.886Y-4.019
X5.917Y-4.0
X5.928Y-3.947
X6.065Y-2.802
X6.0718Y-4.069
X6.0718Y-4.235
X6.0718Y-4.4
X6.0718Y-4.5661
X6.089Y-2.821
X6.109Y-2.861
X6.1214Y-4.1804
X6.1234Y-4.5104
X6.1244Y-4.3434
X6.1284Y-4.0124
X6.1368Y-4.062
X6.1368Y-4.228
X6.1368Y-4.393
X6.1368Y-4.5591
X6.165Y-3.001
X6.174Y-3.051
X6.195Y-2.831
X6.265Y-3.301
X6.28Y-2.8613
X6.343Y-2.803
X6.343Y-2.862
X6.364Y-3.21
X6.381Y-3.001
X6.665Y-3.407
X6.724Y-3.4
X6.753Y-3.401
X6.78Y-2.733
X6.781Y-3.401
X6.7961Y-2.7529
X6.816Y-2.772
X6.841Y-2.792
X6.855Y-3.418
X6.882Y-3.418
X6.999Y-3.123
X6.999Y-3.183
X6.999Y-3.213
X6.999Y-3.243
X6.999Y-3.273
X6.999Y-3.303
X6.999Y-3.334
X6.999Y-3.364
X6.999Y-3.424
X7.006Y-2.934
X7.037Y-3.123
X7.037Y-3.183
X7.037Y-3.213
X7.037Y-3.243
X7.037Y-3.273
X7.037Y-3.303
X7.037Y-3.334
X7.037Y-3.364
X7.037Y-3.424
X7.085Y-3.123
X7.085Y-3.183
X7.085Y-3.213
X7.085Y-3.243
X7.085Y-3.273
X7.085Y-3.303
X7.085Y-3.334
X7.085Y-3.364
X7.085Y-3.424
X7.123Y-3.123
X7.123Y-3.183
X7.123Y-3.213
X7.123Y-3.243
X7.123Y-3.273
X7.123Y-3.303
X7.123Y-3.334
X7.123Y-3.364
X7.123Y-3.424
X7.1436Y-2.7827
X7.1495Y-2.858
X7.176Y-2.98
X7.217Y-3.078
X7.217Y-3.107
X7.239Y-2.827
X7.257Y-2.91
X7.257Y-2.956
X7.287Y-2.91
X7.287Y-2.956
X7.291Y-3.045
X7.319Y-3.442
X7.331Y-2.795
X7.34Y-3.53
X7.378Y-3.364
X7.412Y-3.473
X7.484Y-2.966
X7.498Y-3.463
X7.499Y-2.8
X7.527Y-3.16
X7.527Y-3.21
X7.527Y-3.26
X7.527Y-3.31
X7.527Y-3.36
X7.558Y-3.443
X7.558Y-3.503
X7.577Y-3.16
X7.577Y-3.21
X7.577Y-3.26
X7.577Y-3.31
X7.577Y-3.36
X7.594Y-2.935
X7.605Y-3.042
X7.605Y-3.08
X7.627Y-3.16
X7.627Y-3.21
X7.627Y-3.26
X7.627Y-3.31
X7.627Y-3.36
X7.6392Y-3.3952
X7.647Y-2.785
X7.6516Y-2.8734
X7.677Y-3.16
X7.677Y-3.21
X7.677Y-3.26
X7.677Y-3.31
X7.677Y-3.36
X7.7002Y-3.3952
X7.717Y-3.043
X7.717Y-3.081
X7.727Y-3.16
X7.727Y-3.21
X7.727Y-3.26
X7.727Y-3.31
X7.727Y-3.36
X7.757Y-3.043
X7.757Y-3.081
X7.758Y-3.505
X7.766Y-3.285
X7.782Y-3.407
X7.784Y-3.505
X7.797Y-3.043
X7.797Y-3.081
X7.837Y-3.043
X7.837Y-3.081
X7.9Y-3.4656
X7.934Y-2.977
X7.941Y-3.043
X7.941Y-3.081
X7.966Y-2.977
X7.992Y-2.826
X8.001Y-3.338
X8.015Y-3.264
X8.041Y-3.396
X8.055Y-3.264
X8.066Y-3.541
X8.066Y-4.091
X8.095Y-3.264
X8.0975Y-3.436
X8.135Y-3.264
X8.149Y-2.976
X8.175Y-3.264
X8.177Y-2.883
X8.1825Y-3.436
X8.2375Y-3.092
X8.3005Y-3.092
X8.343Y-3.043
X8.5Y-4.531
X8.501Y-4.572
X8.508Y-2.763
X8.523Y-4.506
X8.53Y-4.0983
X8.53Y-4.1373
X8.53Y-4.1763
X8.536Y-4.0563
X8.545Y-4.48
X8.548Y-2.763
X8.549Y-4.556
X8.552Y-4.0783
X8.552Y-4.1173
X8.552Y-4.1573
X8.561Y-3.5612
X8.561Y-3.6012
X8.561Y-3.6402
X8.562Y-3.974
X8.5624Y-3.6786
X8.564Y-3.2662
X8.564Y-3.3062
X8.564Y-3.3452
X8.564Y-3.3852
X8.564Y-3.935
X8.565Y-3.856
X8.565Y-3.896
X8.582Y-2.984
X8.5834Y-3.2472
X8.5834Y-3.2862
X8.5834Y-3.3262
X8.5834Y-3.3652
X8.5834Y-3.5422
X8.5834Y-3.5812
X8.5834Y-3.6212
X8.5834Y-3.6602
X8.584Y-3.837
X8.584Y-3.876
X8.584Y-3.916
X8.584Y-3.955
X8.588Y-2.763
X8.613Y-3.493
X8.614Y-3.786
X8.617Y-4.295
X8.619Y-3.758
X8.62Y-3.165
X8.62Y-3.196
X8.623Y-3.463
X8.628Y-2.763
X8.63Y-4.237
X8.668Y-2.763
X8.6804Y-3.867
X8.6804Y-3.907
X8.6804Y-3.947
X8.6808Y-4.108
X8.6808Y-4.188
X8.681Y-4.148
X8.6817Y-3.571
X8.6817Y-3.611
X8.6817Y-3.651
X8.6819Y-3.316
X8.682Y-3.276
X8.682Y-3.356
X8.732Y-3.224
X8.732Y-4.238
X8.738Y-3.758
X8.74Y-3.165
X8.741Y-4.3
X8.744Y-3.463
X8.744Y-3.811
X8.75Y-3.518
X8.767Y-4.599
X8.77Y-2.763
X8.809Y-4.0978
X8.809Y-4.1372
X8.809Y-4.1765
X8.809Y-4.2163
X8.81Y-2.763
X8.811Y-4.477
X8.82Y-3.772
X8.823Y-4.561
X8.825Y-3.7011
X8.828Y-4.0783
X8.828Y-4.1573
X8.828Y-4.1963
X8.828Y-4.1173
X8.84Y-3.286
X8.84Y-3.325
X8.84Y-3.365
X8.85Y-2.763
X8.85Y-4.466
X8.85Y-4.572
X8.854Y-2.98
X8.865Y-3.557
X8.865Y-3.623
X8.8651Y-3.4961
X8.8755Y-3.842
X8.89Y-2.763
X8.93Y-2.763
X8.934Y-3.817
X8.952Y-4.104
X8.964Y-4.142
X8.97Y-4.184
X8.97Y-4.224
X8.97Y-4.263
X8.97Y-4.302
X8.971Y-3.436
X8.971Y-3.712
X8.971Y-3.83
X9.105Y-3.87
X9.105Y-3.908
X9.105Y-3.948
X9.105Y-3.987
X9.105Y-4.027
X9.105Y-4.066
X9.105Y-4.106
X9.106Y-3.318
X9.106Y-3.357
X9.106Y-3.397
X9.106Y-3.436
X9.106Y-3.476
X9.106Y-3.515
X9.106Y-3.554
X9.106Y-3.594
X9.106Y-3.634
X9.106Y-3.672
X9.106Y-3.712
X9.106Y-3.751
X9.106Y-3.791
X9.106Y-3.83
X9.109Y-4.184
X9.109Y-4.224
X9.109Y-4.263
X9.109Y-4.302
X9.118Y-3.082
X9.118Y-3.121
X9.118Y-3.161
X9.118Y-3.2
X9.118Y-3.239
X9.118Y-3.2789
T2
X3.986Y-4.0608
X3.986Y-4.2183
T3
X2.6765Y-4.123
X2.6765Y-4.223
X2.6765Y-4.323
X3.7622Y-2.827
X4.2686Y-2.8272
X4.3686Y-2.8272
X4.4686Y-2.8272
X4.5686Y-2.8272
X4.6686Y-2.8272
X4.7686Y-2.8272
X4.8686Y-2.8272
X4.9686Y-2.8272
X6.541Y-3.055
X6.541Y-3.155
X6.541Y-3.255
T4
X5.555Y-2.7924
X5.555Y-2.9696
X5.811Y-2.7924
X5.811Y-2.9696
T5
X9.1021Y-3.0152
X9.1021Y-4.3692
T3
G00X1.6498Y-3.1196
M15
G01X1.6498Y-3.1984
M16
G05
G00X1.7285Y-3.344
M15
G01X1.8073Y-3.344
M16
G05
G00X1.886Y-3.1196
M15
G01X1.886Y-3.1984
M16
G05
T0
M30
