%TF.GenerationSoftware,KiCad,Pcbnew,7.0.1*%
%TF.CreationDate,2023-08-11T20:35:27-05:00*%
%TF.ProjectId,Nixie_Clock_Core,4e697869-655f-4436-9c6f-636b5f436f72,B*%
%TF.SameCoordinates,Original*%
%TF.FileFunction,Soldermask,Bot*%
%TF.FilePolarity,Negative*%
%FSLAX46Y46*%
G04 Gerber Fmt 4.6, Leading zero omitted, Abs format (unit mm)*
G04 Created by KiCad (PCBNEW 7.0.1) date 2023-08-11 20:35:27*
%MOMM*%
%LPD*%
G01*
G04 APERTURE LIST*
G04 Aperture macros list*
%AMRoundRect*
0 Rectangle with rounded corners*
0 $1 Rounding radius*
0 $2 $3 $4 $5 $6 $7 $8 $9 X,Y pos of 4 corners*
0 Add a 4 corners polygon primitive as box body*
4,1,4,$2,$3,$4,$5,$6,$7,$8,$9,$2,$3,0*
0 Add four circle primitives for the rounded corners*
1,1,$1+$1,$2,$3*
1,1,$1+$1,$4,$5*
1,1,$1+$1,$6,$7*
1,1,$1+$1,$8,$9*
0 Add four rect primitives between the rounded corners*
20,1,$1+$1,$2,$3,$4,$5,0*
20,1,$1+$1,$4,$5,$6,$7,0*
20,1,$1+$1,$6,$7,$8,$9,0*
20,1,$1+$1,$8,$9,$2,$3,0*%
G04 Aperture macros list end*
%ADD10C,0.900000*%
%ADD11R,1.700000X1.700000*%
%ADD12O,1.700000X1.700000*%
%ADD13C,3.000000*%
%ADD14C,1.700000*%
%ADD15C,2.000000*%
%ADD16R,3.500000X3.500000*%
%ADD17R,1.600000X1.600000*%
%ADD18C,1.600000*%
%ADD19C,1.524000*%
%ADD20R,0.500000X0.900000*%
%ADD21R,0.900000X0.500000*%
%ADD22R,0.750000X0.800000*%
%ADD23R,0.800000X0.750000*%
%ADD24R,1.000000X1.600000*%
%ADD25R,0.400000X0.650000*%
%ADD26RoundRect,0.125000X0.537500X0.125000X-0.537500X0.125000X-0.537500X-0.125000X0.537500X-0.125000X0*%
%ADD27R,0.650000X0.400000*%
%ADD28RoundRect,0.150000X0.512500X0.150000X-0.512500X0.150000X-0.512500X-0.150000X0.512500X-0.150000X0*%
%ADD29RoundRect,0.112500X-0.112500X0.187500X-0.112500X-0.187500X0.112500X-0.187500X0.112500X0.187500X0*%
%ADD30R,0.800000X0.300000*%
%ADD31R,0.250000X0.700000*%
%ADD32R,1.190000X0.830000*%
%ADD33R,0.700000X1.300000*%
%ADD34R,1.600000X1.000000*%
%ADD35R,0.750000X0.300000*%
%ADD36R,1.300000X1.500000*%
%ADD37R,1.100000X1.100000*%
%ADD38R,0.600000X0.700000*%
%ADD39RoundRect,0.125000X-0.125000X0.537500X-0.125000X-0.537500X0.125000X-0.537500X0.125000X0.537500X0*%
%ADD40R,1.250000X1.000000*%
%ADD41R,2.000000X1.500000*%
%ADD42R,2.000000X3.800000*%
G04 APERTURE END LIST*
D10*
%TO.C,J1301*%
X39773200Y-103337000D03*
X39773200Y-107737000D03*
%TD*%
D11*
%TO.C,TP201*%
X95561000Y-71805800D03*
%TD*%
%TO.C,J2102*%
X67984357Y-104724200D03*
D12*
X67984357Y-107264200D03*
X67984357Y-109804200D03*
%TD*%
D13*
%TO.C,H2003*%
X101693266Y-71776800D03*
%TD*%
D11*
%TO.C,J801*%
X126202200Y-71812000D03*
D12*
X123662200Y-71812000D03*
X121122200Y-71812000D03*
X118582200Y-71812000D03*
X116042200Y-71812000D03*
X113502200Y-71812000D03*
X110962200Y-71812000D03*
D14*
X108422200Y-71812000D03*
%TD*%
D15*
%TO.C,SW801*%
X147598200Y-75427400D03*
X141098200Y-75427400D03*
X147598200Y-70927400D03*
X141098200Y-70927400D03*
%TD*%
D16*
%TO.C,J201*%
X47904400Y-80238600D03*
X41904400Y-80238600D03*
X44904400Y-84938600D03*
%TD*%
D17*
%TO.C,BZ2101*%
X101244400Y-107145462D03*
D18*
X101244400Y-103145462D03*
%TD*%
D13*
%TO.C,H2005*%
X168359534Y-71764200D03*
%TD*%
%TO.C,H2008*%
X232026600Y-115776800D03*
%TD*%
%TO.C,H2006*%
X168359534Y-115776800D03*
%TD*%
%TO.C,H2004*%
X101693266Y-115776800D03*
%TD*%
%TO.C,H2007*%
X232026200Y-71764200D03*
%TD*%
D19*
%TO.C,J1901*%
X231194201Y-76587002D03*
X231194201Y-110978602D03*
%TD*%
D13*
%TO.C,H2002*%
X38026600Y-71776800D03*
%TD*%
%TO.C,H2001*%
X38026600Y-115776800D03*
%TD*%
D11*
%TO.C,J2101*%
X166141400Y-77597000D03*
D12*
X166141400Y-80137000D03*
X166141400Y-82677000D03*
%TD*%
D20*
%TO.C,R1309*%
X45437600Y-104368600D03*
X46937600Y-104368600D03*
%TD*%
D21*
%TO.C,L1301*%
X45040200Y-101334200D03*
X45040200Y-99834200D03*
%TD*%
D20*
%TO.C,R708*%
X137986200Y-95910400D03*
X136486200Y-95910400D03*
%TD*%
D22*
%TO.C,C302*%
X66409000Y-78828200D03*
X66409000Y-80328200D03*
%TD*%
%TO.C,C705*%
X207712076Y-70993000D03*
X207712076Y-72493000D03*
%TD*%
D21*
%TO.C,R203*%
X55143400Y-76897800D03*
X55143400Y-78397800D03*
%TD*%
D22*
%TO.C,C701*%
X191231400Y-88944800D03*
X191231400Y-87444800D03*
%TD*%
D21*
%TO.C,R2107*%
X100711000Y-96939800D03*
X100711000Y-95439800D03*
%TD*%
D20*
%TO.C,R1701*%
X221247400Y-81163800D03*
X219747400Y-81163800D03*
%TD*%
D21*
%TO.C,R201*%
X55143400Y-74332400D03*
X55143400Y-75832400D03*
%TD*%
D23*
%TO.C,C1303*%
X46855600Y-109601200D03*
X48355600Y-109601200D03*
%TD*%
D21*
%TO.C,R210*%
X61075000Y-74789600D03*
X61075000Y-76289600D03*
%TD*%
D22*
%TO.C,C1305*%
X48727600Y-102197600D03*
X48727600Y-100697600D03*
%TD*%
D24*
%TO.C,C612*%
X196165600Y-77749400D03*
X193165600Y-77749400D03*
%TD*%
D23*
%TO.C,C1604*%
X154989000Y-111770400D03*
X153489000Y-111770400D03*
%TD*%
D25*
%TO.C,U1303*%
X51451400Y-108651200D03*
X52101400Y-108651200D03*
X52751400Y-108651200D03*
X52751400Y-110551200D03*
X52101400Y-110551200D03*
X51451400Y-110551200D03*
%TD*%
D22*
%TO.C,C503*%
X75062990Y-89472200D03*
X75062990Y-87972200D03*
%TD*%
D23*
%TO.C,C1603*%
X154989000Y-107579400D03*
X153489000Y-107579400D03*
%TD*%
D26*
%TO.C,U501*%
X58664600Y-89687000D03*
X58664600Y-90337000D03*
X58664600Y-90987000D03*
X58664600Y-91637000D03*
X56389600Y-91637000D03*
X56389600Y-90987000D03*
X56389600Y-90337000D03*
X56389600Y-89687000D03*
%TD*%
D20*
%TO.C,R707*%
X137986200Y-97383600D03*
X136486200Y-97383600D03*
%TD*%
D22*
%TO.C,C1205*%
X103007200Y-82190200D03*
X103007200Y-80690200D03*
%TD*%
D20*
%TO.C,R608*%
X199632000Y-75550600D03*
X198132000Y-75550600D03*
%TD*%
%TO.C,R1703*%
X221247400Y-96155200D03*
X219747400Y-96155200D03*
%TD*%
D27*
%TO.C,U704*%
X206274476Y-71093000D03*
X206274476Y-71743000D03*
X206274476Y-72393000D03*
X204374476Y-72393000D03*
X204374476Y-71093000D03*
%TD*%
D26*
%TO.C,U703*%
X195961500Y-88362800D03*
X195961500Y-89012800D03*
X195961500Y-89662800D03*
X195961500Y-90312800D03*
X193686500Y-90312800D03*
X193686500Y-89662800D03*
X193686500Y-89012800D03*
X193686500Y-88362800D03*
%TD*%
D28*
%TO.C,U603*%
X197403300Y-72035200D03*
X197403300Y-72985200D03*
X197403300Y-73935200D03*
X195128300Y-73935200D03*
X195128300Y-72985200D03*
X195128300Y-72035200D03*
%TD*%
D21*
%TO.C,R202*%
X55143400Y-71716200D03*
X55143400Y-73216200D03*
%TD*%
D24*
%TO.C,C611*%
X201702800Y-77749400D03*
X198702800Y-77749400D03*
%TD*%
D22*
%TO.C,C709*%
X202987676Y-70993000D03*
X202987676Y-72493000D03*
%TD*%
D23*
%TO.C,C1602*%
X154989000Y-103363000D03*
X153489000Y-103363000D03*
%TD*%
D29*
%TO.C,D401*%
X57706500Y-82709000D03*
X57706500Y-84809000D03*
%TD*%
D22*
%TO.C,C710*%
X202987676Y-74091800D03*
X202987676Y-75591800D03*
%TD*%
%TO.C,C2102*%
X102133400Y-96939800D03*
X102133400Y-95439800D03*
%TD*%
%TO.C,C703*%
X197256400Y-85763800D03*
X197256400Y-84263800D03*
%TD*%
D21*
%TO.C,R615*%
X209042000Y-82461800D03*
X209042000Y-80961800D03*
%TD*%
D30*
%TO.C,RN1802*%
X221218400Y-107083800D03*
X221218400Y-106583800D03*
X221218400Y-106083800D03*
X221218400Y-105583800D03*
X221218400Y-105083800D03*
X221218400Y-104583800D03*
X221218400Y-104083800D03*
X221218400Y-103583800D03*
X223018400Y-103583800D03*
X223018400Y-104083800D03*
X223018400Y-104583800D03*
X223018400Y-105083800D03*
X223018400Y-105583800D03*
X223018400Y-106083800D03*
X223018400Y-106583800D03*
X223018400Y-107083800D03*
%TD*%
%TO.C,RN1702*%
X220514200Y-89977400D03*
X220514200Y-90477400D03*
X220514200Y-90977400D03*
X220514200Y-91477400D03*
X220514200Y-91977400D03*
X220514200Y-92477400D03*
X220514200Y-92977400D03*
X220514200Y-93477400D03*
X218714200Y-93477400D03*
X218714200Y-92977400D03*
X218714200Y-92477400D03*
X218714200Y-91977400D03*
X218714200Y-91477400D03*
X218714200Y-90977400D03*
X218714200Y-90477400D03*
X218714200Y-89977400D03*
%TD*%
D21*
%TO.C,L1302*%
X44710000Y-109308400D03*
X44710000Y-110808400D03*
%TD*%
D20*
%TO.C,R1602*%
X154989000Y-101915200D03*
X153489000Y-101915200D03*
%TD*%
%TO.C,R1802*%
X219742800Y-108381800D03*
X221242800Y-108381800D03*
%TD*%
D31*
%TO.C,U1302*%
X48288400Y-103730600D03*
X48738400Y-103730600D03*
X49188400Y-103730600D03*
X49638400Y-103730600D03*
X50088400Y-103730600D03*
X50538400Y-103730600D03*
X50538400Y-106530600D03*
X50088400Y-106530600D03*
X49638400Y-106530600D03*
X49188400Y-106530600D03*
X48738400Y-106530600D03*
X48288400Y-106530600D03*
D32*
X50008400Y-104715600D03*
X48818400Y-104715600D03*
X50008400Y-105545600D03*
X48818400Y-105545600D03*
%TD*%
D23*
%TO.C,C1312*%
X59328400Y-107289800D03*
X57828400Y-107289800D03*
%TD*%
%TO.C,C1601*%
X155014400Y-115997200D03*
X153514400Y-115997200D03*
%TD*%
D20*
%TO.C,R1308*%
X45437600Y-105867200D03*
X46937600Y-105867200D03*
%TD*%
D33*
%TO.C,R611*%
X185201600Y-78536800D03*
X183301600Y-78536800D03*
%TD*%
D21*
%TO.C,R1201*%
X100391000Y-82190200D03*
X100391000Y-80690200D03*
%TD*%
D23*
%TO.C,C1505*%
X140587200Y-116001800D03*
X139087200Y-116001800D03*
%TD*%
%TO.C,C1309*%
X45427200Y-102920800D03*
X46927200Y-102920800D03*
%TD*%
D21*
%TO.C,R2104*%
X103555800Y-95439800D03*
X103555800Y-96939800D03*
%TD*%
D34*
%TO.C,C205*%
X66802000Y-72896600D03*
X66802000Y-75896600D03*
%TD*%
D27*
%TO.C,D801*%
X120812600Y-74178400D03*
X120812600Y-74828400D03*
X120812600Y-75478400D03*
X118912600Y-75478400D03*
X118912600Y-74828400D03*
X118912600Y-74178400D03*
%TD*%
D35*
%TO.C,U302*%
X57245800Y-72018800D03*
X57245800Y-71518800D03*
X57245800Y-71018800D03*
X57245800Y-70518800D03*
X60145800Y-70518800D03*
X60145800Y-71018800D03*
X60145800Y-71518800D03*
X60145800Y-72018800D03*
D36*
X58695800Y-71268800D03*
%TD*%
D23*
%TO.C,C502*%
X58281000Y-93116400D03*
X56781000Y-93116400D03*
%TD*%
D21*
%TO.C,R706*%
X209143600Y-74091800D03*
X209143600Y-75591800D03*
%TD*%
D23*
%TO.C,C1502*%
X140587200Y-107578700D03*
X139087200Y-107578700D03*
%TD*%
%TO.C,C702*%
X200189400Y-89596200D03*
X201689400Y-89596200D03*
%TD*%
D21*
%TO.C,R701*%
X204216000Y-88507000D03*
X204216000Y-87007000D03*
%TD*%
%TO.C,R705*%
X210947000Y-75591800D03*
X210947000Y-74091800D03*
%TD*%
%TO.C,R704*%
X209159876Y-70993000D03*
X209159876Y-72493000D03*
%TD*%
D23*
%TO.C,C1308*%
X45427200Y-107289600D03*
X46927200Y-107289600D03*
%TD*%
D20*
%TO.C,R1806*%
X222338200Y-108388400D03*
X223838200Y-108388400D03*
%TD*%
D22*
%TO.C,C1307*%
X46513400Y-101334200D03*
X46513400Y-99834200D03*
%TD*%
D20*
%TO.C,R1601*%
X155004200Y-114564400D03*
X153504200Y-114564400D03*
%TD*%
D37*
%TO.C,D2101*%
X103759000Y-106450462D03*
X103759000Y-103650462D03*
%TD*%
D22*
%TO.C,C1202*%
X98348800Y-84416200D03*
X98348800Y-85916200D03*
%TD*%
%TO.C,C706*%
X207695800Y-74091800D03*
X207695800Y-75591800D03*
%TD*%
%TO.C,C1802*%
X217978200Y-114026000D03*
X217978200Y-115526000D03*
%TD*%
D20*
%TO.C,R610*%
X194399600Y-75550600D03*
X192899600Y-75550600D03*
%TD*%
D27*
%TO.C,U701*%
X201889400Y-86726000D03*
X201889400Y-87376000D03*
X201889400Y-88026000D03*
X199989400Y-88026000D03*
X199989400Y-86726000D03*
%TD*%
D24*
%TO.C,C1903*%
X228116000Y-107772200D03*
X231116000Y-107772200D03*
%TD*%
D35*
%TO.C,U502*%
X70717390Y-89472200D03*
X70717390Y-88972200D03*
X70717390Y-88472200D03*
X70717390Y-87972200D03*
X73617390Y-87972200D03*
X73617390Y-88472200D03*
X73617390Y-88972200D03*
X73617390Y-89472200D03*
D36*
X72167390Y-88722200D03*
%TD*%
D23*
%TO.C,C301*%
X62585600Y-76708000D03*
X64085600Y-76708000D03*
%TD*%
D35*
%TO.C,U702*%
X186814800Y-88964200D03*
X186814800Y-88464200D03*
X186814800Y-87964200D03*
X186814800Y-87464200D03*
X189714800Y-87464200D03*
X189714800Y-87964200D03*
X189714800Y-88464200D03*
X189714800Y-88964200D03*
D36*
X188264800Y-88214200D03*
%TD*%
D21*
%TO.C,R703*%
X210963276Y-72493000D03*
X210963276Y-70993000D03*
%TD*%
D22*
%TO.C,C1101*%
X112732600Y-91706400D03*
X112732600Y-93206400D03*
%TD*%
D21*
%TO.C,R702*%
X198678800Y-85332000D03*
X198678800Y-83832000D03*
%TD*%
D20*
%TO.C,R1702*%
X221238800Y-88684800D03*
X219738800Y-88684800D03*
%TD*%
D21*
%TO.C,R211*%
X61075000Y-77431200D03*
X61075000Y-78931200D03*
%TD*%
D23*
%TO.C,C1504*%
X140587200Y-111793250D03*
X139087200Y-111793250D03*
%TD*%
D21*
%TO.C,R617*%
X211124800Y-82449800D03*
X211124800Y-80949800D03*
%TD*%
D23*
%TO.C,C605*%
X207010000Y-87274400D03*
X208510000Y-87274400D03*
%TD*%
D21*
%TO.C,R401*%
X59763900Y-84837800D03*
X59763900Y-86337800D03*
%TD*%
D23*
%TO.C,C1503*%
X85789200Y-116027200D03*
X84289200Y-116027200D03*
%TD*%
D20*
%TO.C,R1605*%
X153489000Y-106131600D03*
X154989000Y-106131600D03*
%TD*%
D22*
%TO.C,C1302*%
X50099200Y-102197600D03*
X50099200Y-100697600D03*
%TD*%
D20*
%TO.C,R1606*%
X154989000Y-110322600D03*
X153489000Y-110322600D03*
%TD*%
D22*
%TO.C,C303*%
X61595000Y-71997000D03*
X61595000Y-70497000D03*
%TD*%
D38*
%TO.C,D701*%
X200239400Y-91236800D03*
X201639400Y-91236800D03*
%TD*%
D34*
%TO.C,C206*%
X69037200Y-72896600D03*
X69037200Y-75896600D03*
%TD*%
D21*
%TO.C,R612*%
X193370200Y-73278000D03*
X193370200Y-71778000D03*
%TD*%
%TO.C,R1203*%
X104455000Y-82190200D03*
X104455000Y-80690200D03*
%TD*%
D39*
%TO.C,U301*%
X63021000Y-78440700D03*
X63671000Y-78440700D03*
X64321000Y-78440700D03*
X64971000Y-78440700D03*
X64971000Y-80715700D03*
X64321000Y-80715700D03*
X63671000Y-80715700D03*
X63021000Y-80715700D03*
%TD*%
D23*
%TO.C,C1313*%
X59328400Y-108686800D03*
X57828400Y-108686800D03*
%TD*%
D40*
%TO.C,C1803*%
X219578400Y-113776000D03*
X219578400Y-115776000D03*
%TD*%
D22*
%TO.C,C1301*%
X49866200Y-108012800D03*
X49866200Y-109512800D03*
%TD*%
D40*
%TO.C,C1805*%
X221407200Y-113776000D03*
X221407200Y-115776000D03*
%TD*%
D22*
%TO.C,C1804*%
X223007400Y-114026000D03*
X223007400Y-115526000D03*
%TD*%
D27*
%TO.C,U705*%
X206258200Y-74191800D03*
X206258200Y-74841800D03*
X206258200Y-75491800D03*
X204358200Y-75491800D03*
X204358200Y-74191800D03*
%TD*%
D22*
%TO.C,C1203*%
X99847400Y-84416200D03*
X99847400Y-85916200D03*
%TD*%
%TO.C,C1204*%
X99847400Y-88798400D03*
X99847400Y-87298400D03*
%TD*%
%TO.C,C1306*%
X54285800Y-110351200D03*
X54285800Y-108851200D03*
%TD*%
D21*
%TO.C,R207*%
X59601800Y-77431200D03*
X59601800Y-78931200D03*
%TD*%
D22*
%TO.C,C1304*%
X51470800Y-102197600D03*
X51470800Y-100697600D03*
%TD*%
D20*
%TO.C,R1501*%
X139087200Y-104817950D03*
X140587200Y-104817950D03*
%TD*%
D41*
%TO.C,Q601*%
X185241800Y-85434200D03*
X185241800Y-83134200D03*
D42*
X191541800Y-83134200D03*
D41*
X185241800Y-80834200D03*
%TD*%
D20*
%TO.C,R609*%
X197015800Y-75550600D03*
X195515800Y-75550600D03*
%TD*%
D23*
%TO.C,C1310*%
X59328400Y-102362200D03*
X57828400Y-102362200D03*
%TD*%
D30*
%TO.C,RN1801*%
X219818000Y-103101200D03*
X219818000Y-103601200D03*
X219818000Y-104101200D03*
X219818000Y-104601200D03*
X219818000Y-105101200D03*
X219818000Y-105601200D03*
X219818000Y-106101200D03*
X219818000Y-106601200D03*
X218018000Y-106601200D03*
X218018000Y-106101200D03*
X218018000Y-105601200D03*
X218018000Y-105101200D03*
X218018000Y-104601200D03*
X218018000Y-104101200D03*
X218018000Y-103601200D03*
X218018000Y-103101200D03*
%TD*%
D22*
%TO.C,C501*%
X60375800Y-89267600D03*
X60375800Y-90767600D03*
%TD*%
D20*
%TO.C,R2111*%
X97086200Y-95619723D03*
X98586200Y-95619723D03*
%TD*%
D30*
%TO.C,RN1703*%
X220483000Y-97453200D03*
X220483000Y-97953200D03*
X220483000Y-98453200D03*
X220483000Y-98953200D03*
X220483000Y-99453200D03*
X220483000Y-99953200D03*
X220483000Y-100453200D03*
X220483000Y-100953200D03*
X218683000Y-100953200D03*
X218683000Y-100453200D03*
X218683000Y-99953200D03*
X218683000Y-99453200D03*
X218683000Y-98953200D03*
X218683000Y-98453200D03*
X218683000Y-97953200D03*
X218683000Y-97453200D03*
%TD*%
D23*
%TO.C,C704*%
X194074000Y-86874000D03*
X195574000Y-86874000D03*
%TD*%
D30*
%TO.C,RN1701*%
X220519400Y-82473800D03*
X220519400Y-82973800D03*
X220519400Y-83473800D03*
X220519400Y-83973800D03*
X220519400Y-84473800D03*
X220519400Y-84973800D03*
X220519400Y-85473800D03*
X220519400Y-85973800D03*
X218719400Y-85973800D03*
X218719400Y-85473800D03*
X218719400Y-84973800D03*
X218719400Y-84473800D03*
X218719400Y-83973800D03*
X218719400Y-83473800D03*
X218719400Y-82973800D03*
X218719400Y-82473800D03*
%TD*%
D23*
%TO.C,C1311*%
X59328400Y-100965200D03*
X57828400Y-100965200D03*
%TD*%
%TO.C,C1501*%
X140587200Y-103370150D03*
X139087200Y-103370150D03*
%TD*%
G36*
X47786200Y-116475613D02*
G01*
X47831587Y-116521000D01*
X47848200Y-116583000D01*
X47848200Y-118646400D01*
X47831587Y-118708400D01*
X47786200Y-118753787D01*
X47724200Y-118770400D01*
X43628800Y-118770400D01*
X43566800Y-118753787D01*
X43521413Y-118708400D01*
X43504800Y-118646400D01*
X43504800Y-116583000D01*
X43521413Y-116521000D01*
X43566800Y-116475613D01*
X43628800Y-116459000D01*
X47724200Y-116459000D01*
X47786200Y-116475613D01*
G37*
M02*
