G04 #@! TF.FileFunction,Copper,L1,Top,Signal*
%FSLAX46Y46*%
G04 Gerber Fmt 4.6, Leading zero omitted, Abs format (unit mm)*
G04 Created by KiCad (PCBNEW 4.0.5) date Tuesday, October 10, 2017 'PMt' 05:41:59 PM*
%MOMM*%
%LPD*%
G01*
G04 APERTURE LIST*
%ADD10C,0.100000*%
%ADD11C,6.000000*%
%ADD12R,1.700000X1.700000*%
%ADD13O,1.700000X1.700000*%
%ADD14R,1.800000X1.800000*%
%ADD15C,1.800000*%
%ADD16C,1.408000*%
%ADD17C,0.889000*%
%ADD18C,0.254000*%
G04 APERTURE END LIST*
D10*
D11*
X257886200Y-67208400D03*
X67868800Y-67259200D03*
X67868800Y-107264200D03*
D12*
X150190200Y-64897000D03*
D13*
X152730200Y-64897000D03*
X155270200Y-64897000D03*
X157810200Y-64897000D03*
X160350200Y-64897000D03*
X162890200Y-64897000D03*
X165430200Y-64897000D03*
X167970200Y-64897000D03*
X170510200Y-64897000D03*
X173050200Y-64897000D03*
X175590200Y-64897000D03*
D12*
X169291000Y-109601000D03*
D13*
X171831000Y-109601000D03*
X174371000Y-109601000D03*
X176911000Y-109601000D03*
X179451000Y-109601000D03*
X181991000Y-109601000D03*
D12*
X140144500Y-109601000D03*
D13*
X137604500Y-109601000D03*
X135064500Y-109601000D03*
X132524500Y-109601000D03*
X129984500Y-109601000D03*
X127444500Y-109601000D03*
D14*
X132283200Y-88773000D03*
D15*
X132283200Y-91313000D03*
D14*
X193243200Y-88773000D03*
D15*
X193243200Y-91313000D03*
D16*
X230805200Y-85451000D03*
X233532200Y-84054000D03*
X228803200Y-91567000D03*
X229033200Y-88143000D03*
X239622200Y-85703000D03*
X241242200Y-88234000D03*
X235153200Y-96774000D03*
X240385200Y-94270000D03*
X241546200Y-91604000D03*
X230073200Y-94234000D03*
X238257200Y-96049000D03*
X236975200Y-84084000D03*
X232175200Y-96022000D03*
X207945200Y-85451000D03*
X210672200Y-84054000D03*
X205943200Y-91567000D03*
X206173200Y-88143000D03*
X216762200Y-85703000D03*
X218382200Y-88234000D03*
X212293200Y-96774000D03*
X217525200Y-94270000D03*
X218686200Y-91604000D03*
X207213200Y-94234000D03*
X215397200Y-96049000D03*
X214115200Y-84084000D03*
X209315200Y-96022000D03*
X169845200Y-85451000D03*
X172572200Y-84054000D03*
X167843200Y-91567000D03*
X168073200Y-88143000D03*
X178662200Y-85703000D03*
X180282200Y-88234000D03*
X174193200Y-96774000D03*
X179425200Y-94270000D03*
X180586200Y-91604000D03*
X169113200Y-94234000D03*
X177297200Y-96049000D03*
X176015200Y-84084000D03*
X171215200Y-96022000D03*
X146985200Y-85451000D03*
X149712200Y-84054000D03*
X144983200Y-91567000D03*
X145213200Y-88143000D03*
X155802200Y-85703000D03*
X157422200Y-88234000D03*
X151333200Y-96774000D03*
X156565200Y-94270000D03*
X157726200Y-91604000D03*
X146253200Y-94234000D03*
X154437200Y-96049000D03*
X153155200Y-84084000D03*
X148355200Y-96022000D03*
X108885200Y-85451000D03*
X111612200Y-84054000D03*
X106883200Y-91567000D03*
X107113200Y-88143000D03*
X117702200Y-85703000D03*
X119322200Y-88234000D03*
X113233200Y-96774000D03*
X118465200Y-94270000D03*
X119626200Y-91604000D03*
X108153200Y-94234000D03*
X116337200Y-96049000D03*
X115055200Y-84084000D03*
X110255200Y-96022000D03*
X86025200Y-85451000D03*
X88752200Y-84054000D03*
X84023200Y-91567000D03*
X84253200Y-88143000D03*
X94842200Y-85703000D03*
X96462200Y-88234000D03*
X90373200Y-96774000D03*
X95605200Y-94270000D03*
X96766200Y-91604000D03*
X85293200Y-94234000D03*
X93477200Y-96049000D03*
X92195200Y-84084000D03*
X87395200Y-96022000D03*
D11*
X257886200Y-107213400D03*
D17*
X150190200Y-67945000D03*
X208102200Y-67945000D03*
X169113200Y-67945000D03*
X145872200Y-67945000D03*
X108788200Y-67945000D03*
X231216200Y-67945000D03*
X85928200Y-67945000D03*
X152730200Y-69215000D03*
X238836200Y-69215000D03*
X216230200Y-69215000D03*
X177495200Y-69215000D03*
X156540200Y-69215000D03*
X117551200Y-69215000D03*
X94691200Y-69215000D03*
X155270200Y-70485000D03*
X241503200Y-70485000D03*
X218897200Y-70485000D03*
X180670200Y-70485000D03*
X159080200Y-70485000D03*
X120218200Y-70485000D03*
X96469200Y-70485000D03*
X157810200Y-71755000D03*
X243789200Y-71755000D03*
X221564200Y-71755000D03*
X183337200Y-71755000D03*
X161620200Y-71755000D03*
X122504200Y-71755000D03*
X98247200Y-71755000D03*
X160350200Y-73025000D03*
X240106200Y-73025000D03*
X217500200Y-73025000D03*
X179019200Y-73025000D03*
X157683200Y-73025000D03*
X118821200Y-73025000D03*
X95580200Y-73025000D03*
X162890200Y-74295000D03*
X237058200Y-74295000D03*
X214452200Y-74295000D03*
X176479200Y-74295000D03*
X154762200Y-74295000D03*
X115900200Y-74295000D03*
X93294200Y-74295000D03*
X165430200Y-75565000D03*
X233629200Y-75565000D03*
X210007200Y-75565000D03*
X171780200Y-75565000D03*
X149809200Y-75565000D03*
X111709200Y-75565000D03*
X88722200Y-75565000D03*
X229692200Y-76835000D03*
X206324200Y-76835000D03*
X144094200Y-76835000D03*
X106883200Y-76835000D03*
X83896200Y-76835000D03*
X167970200Y-76835000D03*
X170510200Y-78105000D03*
X227533200Y-78105000D03*
X204292200Y-78105000D03*
X166319200Y-78105000D03*
X141681200Y-78105000D03*
X104851200Y-78105000D03*
X82118200Y-78105000D03*
X173050200Y-79375000D03*
X200863200Y-79375000D03*
X163906200Y-79375000D03*
X139014200Y-79375000D03*
X102438200Y-79375000D03*
X225882200Y-79375000D03*
X80340200Y-79375000D03*
X113360200Y-80391000D03*
X151460200Y-80391000D03*
X174320200Y-80391000D03*
X212420200Y-80391000D03*
X235153200Y-80391000D03*
X90627200Y-80391000D03*
X175590200Y-80391000D03*
X171831000Y-101600000D03*
X176911000Y-102616000D03*
X179451000Y-104140000D03*
X181991000Y-106045000D03*
X173228000Y-100203000D03*
X172847000Y-98806000D03*
X129921000Y-102235000D03*
D18*
X150190200Y-64897000D02*
X150190200Y-67945000D01*
X108788200Y-83312000D02*
X108788200Y-67945000D01*
X111455200Y-85979000D02*
X108788200Y-83312000D01*
X111455200Y-90932000D02*
X111455200Y-85979000D01*
X108153200Y-94234000D02*
X111455200Y-90932000D01*
X208102200Y-83693000D02*
X208102200Y-67945000D01*
X169113200Y-74676000D02*
X169113200Y-67945000D01*
X169113200Y-82677000D02*
X169113200Y-74676000D01*
X145872200Y-75057000D02*
X145872200Y-67945000D01*
X145872200Y-82296000D02*
X145872200Y-75057000D01*
X231216200Y-83693000D02*
X231216200Y-67945000D01*
X232867200Y-85344000D02*
X231216200Y-83693000D01*
X232867200Y-91440000D02*
X232867200Y-85344000D01*
X230073200Y-94234000D02*
X232867200Y-91440000D01*
X210134200Y-85725000D02*
X208102200Y-83693000D01*
X210134200Y-91313000D02*
X210134200Y-85725000D01*
X207213200Y-94234000D02*
X210134200Y-91313000D01*
X172288200Y-85852000D02*
X169113200Y-82677000D01*
X172288200Y-91059000D02*
X172288200Y-85852000D01*
X169113200Y-94234000D02*
X172288200Y-91059000D01*
X149174200Y-85598000D02*
X145872200Y-82296000D01*
X149174200Y-91313000D02*
X149174200Y-85598000D01*
X146253200Y-94234000D02*
X149174200Y-91313000D01*
X85928200Y-83312000D02*
X85928200Y-67945000D01*
X88595200Y-85979000D02*
X85928200Y-83312000D01*
X88595200Y-90932000D02*
X88595200Y-85979000D01*
X87579200Y-91948000D02*
X88595200Y-90932000D01*
X85293200Y-94234000D02*
X87579200Y-91948000D01*
X152730200Y-64897000D02*
X152730200Y-69215000D01*
X238963200Y-84201000D02*
X238963200Y-69342000D01*
X238963200Y-69342000D02*
X238836200Y-69215000D01*
X237820200Y-85344000D02*
X238963200Y-84201000D01*
X237820200Y-91705000D02*
X237820200Y-85344000D01*
X240385200Y-94270000D02*
X237820200Y-91705000D01*
X216230200Y-84074000D02*
X216230200Y-69215000D01*
X214706200Y-85598000D02*
X216230200Y-84074000D01*
X214706200Y-91451000D02*
X214706200Y-85598000D01*
X217525200Y-94270000D02*
X214706200Y-91451000D01*
X177495200Y-84963000D02*
X177495200Y-69215000D01*
X176225200Y-86233000D02*
X177495200Y-84963000D01*
X176225200Y-91070000D02*
X176225200Y-86233000D01*
X179425200Y-94270000D02*
X176225200Y-91070000D01*
X153873200Y-85344000D02*
X156540200Y-82677000D01*
X156540200Y-82677000D02*
X156540200Y-69215000D01*
X153873200Y-91578000D02*
X153873200Y-85344000D01*
X156565200Y-94270000D02*
X153873200Y-91578000D01*
X115519200Y-85725000D02*
X117551200Y-83693000D01*
X117551200Y-83693000D02*
X117551200Y-69215000D01*
X115519200Y-91324000D02*
X115519200Y-85725000D01*
X118465200Y-94270000D02*
X115519200Y-91324000D01*
X94691200Y-78232000D02*
X94691200Y-69215000D01*
X94691200Y-83566000D02*
X94691200Y-78232000D01*
X92659200Y-85598000D02*
X94691200Y-83566000D01*
X92659200Y-91324000D02*
X92659200Y-85598000D01*
X93548200Y-92213000D02*
X92659200Y-91324000D01*
X95605200Y-94270000D02*
X93548200Y-92213000D01*
X155270200Y-64897000D02*
X155270200Y-70485000D01*
X241249200Y-86106000D02*
X241503200Y-85852000D01*
X241503200Y-85852000D02*
X241503200Y-70485000D01*
X239598200Y-87757000D02*
X241249200Y-86106000D01*
X239598200Y-89656000D02*
X239598200Y-87757000D01*
X241546200Y-91604000D02*
X239598200Y-89656000D01*
X216484200Y-88011000D02*
X218897200Y-85598000D01*
X218897200Y-85598000D02*
X218897200Y-70485000D01*
X216484200Y-89402000D02*
X216484200Y-88011000D01*
X218686200Y-91604000D02*
X216484200Y-89402000D01*
X180670200Y-85852000D02*
X180670200Y-70485000D01*
X178130200Y-88392000D02*
X180670200Y-85852000D01*
X178130200Y-89148000D02*
X178130200Y-88392000D01*
X180586200Y-91604000D02*
X178130200Y-89148000D01*
X159080200Y-84582000D02*
X159080200Y-70485000D01*
X158064200Y-85598000D02*
X159080200Y-84582000D01*
X155524200Y-88138000D02*
X158064200Y-85598000D01*
X155524200Y-89402000D02*
X155524200Y-88138000D01*
X157726200Y-91604000D02*
X155524200Y-89402000D01*
X120218200Y-85217000D02*
X120218200Y-70485000D01*
X117424200Y-88011000D02*
X120218200Y-85217000D01*
X117424200Y-89402000D02*
X117424200Y-88011000D01*
X119626200Y-91604000D02*
X117424200Y-89402000D01*
X96469200Y-73279000D02*
X96469200Y-70485000D01*
X96469200Y-85979000D02*
X96469200Y-73279000D01*
X94310200Y-88138000D02*
X96469200Y-85979000D01*
X94310200Y-89148000D02*
X94310200Y-88138000D01*
X96766200Y-91604000D02*
X94310200Y-89148000D01*
X157810200Y-64897000D02*
X157810200Y-71755000D01*
X243789200Y-85687000D02*
X243789200Y-71755000D01*
X241242200Y-88234000D02*
X243789200Y-85687000D01*
X221564200Y-85052000D02*
X221564200Y-71755000D01*
X218382200Y-88234000D02*
X221564200Y-85052000D01*
X183337200Y-85179000D02*
X183337200Y-71755000D01*
X180282200Y-88234000D02*
X183337200Y-85179000D01*
X161620200Y-84036000D02*
X161620200Y-71755000D01*
X157422200Y-88234000D02*
X161620200Y-84036000D01*
X122504200Y-85052000D02*
X122504200Y-71755000D01*
X119322200Y-88234000D02*
X122504200Y-85052000D01*
X98247200Y-86449000D02*
X98247200Y-71755000D01*
X96462200Y-88234000D02*
X98247200Y-86449000D01*
X160350200Y-64897000D02*
X160350200Y-73025000D01*
X240106200Y-84455000D02*
X240106200Y-73025000D01*
X239852200Y-84709000D02*
X240106200Y-84455000D01*
X239852200Y-85473000D02*
X239852200Y-84709000D01*
X239622200Y-85703000D02*
X239852200Y-85473000D01*
X216762200Y-85703000D02*
X217466199Y-84999001D01*
X217466199Y-84999001D02*
X217466199Y-73059001D01*
X217466199Y-73059001D02*
X217500200Y-73025000D01*
X179019200Y-84201000D02*
X179019200Y-73025000D01*
X178662200Y-84558000D02*
X179019200Y-84201000D01*
X178662200Y-85703000D02*
X178662200Y-84558000D01*
X157683200Y-83822000D02*
X157683200Y-73025000D01*
X155802200Y-85703000D02*
X157683200Y-83822000D01*
X118821200Y-84584000D02*
X118821200Y-73025000D01*
X117702200Y-85703000D02*
X118821200Y-84584000D01*
X95580200Y-84965000D02*
X95580200Y-73025000D01*
X94842200Y-85703000D02*
X95580200Y-84965000D01*
X162890200Y-64897000D02*
X162890200Y-74295000D01*
X236975200Y-84084000D02*
X236975200Y-74378000D01*
X236975200Y-74378000D02*
X237058200Y-74295000D01*
X214115200Y-81490000D02*
X214452200Y-81153000D01*
X214452200Y-81153000D02*
X214452200Y-74295000D01*
X214115200Y-84084000D02*
X214115200Y-81490000D01*
X176606200Y-82497394D02*
X176606200Y-74422000D01*
X176606200Y-74422000D02*
X176479200Y-74295000D01*
X176015200Y-84084000D02*
X176015200Y-83088394D01*
X176015200Y-83088394D02*
X176606200Y-82497394D01*
X154762200Y-82477000D02*
X154762200Y-74295000D01*
X153155200Y-84084000D02*
X154762200Y-82477000D01*
X115900200Y-83239000D02*
X115900200Y-74295000D01*
X115055200Y-84084000D02*
X115900200Y-83239000D01*
X93294200Y-82985000D02*
X93294200Y-74295000D01*
X92195200Y-84084000D02*
X93294200Y-82985000D01*
X88752200Y-84054000D02*
X88752200Y-75595000D01*
X88752200Y-75595000D02*
X88722200Y-75565000D01*
X165430200Y-64897000D02*
X165430200Y-75565000D01*
X233532200Y-84054000D02*
X233532200Y-75662000D01*
X233532200Y-75662000D02*
X233629200Y-75565000D01*
X210672200Y-84054000D02*
X210672200Y-76230000D01*
X210672200Y-76230000D02*
X210007200Y-75565000D01*
X171780200Y-82266394D02*
X171780200Y-75565000D01*
X172572200Y-84054000D02*
X172572200Y-83058394D01*
X172572200Y-83058394D02*
X171780200Y-82266394D01*
X149712200Y-84054000D02*
X149712200Y-75662000D01*
X149712200Y-75662000D02*
X149809200Y-75565000D01*
X111612200Y-84054000D02*
X111612200Y-75662000D01*
X111612200Y-75662000D02*
X111709200Y-75565000D01*
X167970200Y-64897000D02*
X167970200Y-66099081D01*
X167970200Y-66099081D02*
X167970200Y-76835000D01*
X230805200Y-85451000D02*
X229692200Y-84338000D01*
X229692200Y-84338000D02*
X229692200Y-76835000D01*
X207945200Y-85451000D02*
X206324200Y-83830000D01*
X206324200Y-83830000D02*
X206324200Y-76835000D01*
X169845200Y-85451000D02*
X167970200Y-83576000D01*
X167970200Y-83576000D02*
X167970200Y-76835000D01*
X144094200Y-82560000D02*
X144094200Y-76835000D01*
X146985200Y-85451000D02*
X144094200Y-82560000D01*
X106883200Y-83449000D02*
X106883200Y-76835000D01*
X108885200Y-85451000D02*
X106883200Y-83449000D01*
X83896200Y-83322000D02*
X83896200Y-76835000D01*
X86025200Y-85451000D02*
X83896200Y-83322000D01*
X170510200Y-78105000D02*
X170510200Y-64897000D01*
X229033200Y-88143000D02*
X227533200Y-86643000D01*
X227533200Y-86643000D02*
X227533200Y-78105000D01*
X206173200Y-88143000D02*
X204292200Y-86262000D01*
X204292200Y-86262000D02*
X204292200Y-78105000D01*
X168073200Y-88143000D02*
X166319200Y-86389000D01*
X166319200Y-86389000D02*
X166319200Y-78105000D01*
X145213200Y-88143000D02*
X141681200Y-84611000D01*
X141681200Y-84611000D02*
X141681200Y-78105000D01*
X107113200Y-88143000D02*
X104851200Y-85881000D01*
X104851200Y-85881000D02*
X104851200Y-78105000D01*
X84253200Y-88143000D02*
X82118200Y-86008000D01*
X82118200Y-86008000D02*
X82118200Y-78105000D01*
X80340200Y-87884000D02*
X80340200Y-79375000D01*
X173050200Y-64897000D02*
X173050200Y-79375000D01*
X205943200Y-91567000D02*
X200863200Y-86487000D01*
X200863200Y-86487000D02*
X200863200Y-84438802D01*
X200863200Y-84438802D02*
X200863200Y-79375000D01*
X163906200Y-85581802D02*
X163906200Y-79375000D01*
X167843200Y-91567000D02*
X163906200Y-87630000D01*
X163906200Y-87630000D02*
X163906200Y-85581802D01*
X144983200Y-91567000D02*
X139014200Y-85598000D01*
X139014200Y-85598000D02*
X139014200Y-79375000D01*
X106883200Y-91567000D02*
X102438200Y-87122000D01*
X102438200Y-87122000D02*
X102438200Y-85073802D01*
X102438200Y-85073802D02*
X102438200Y-79375000D01*
X225882200Y-79375000D02*
X225882200Y-88646000D01*
X225882200Y-88646000D02*
X228803200Y-91567000D01*
X84023200Y-91567000D02*
X80340200Y-87884000D01*
X113360200Y-93072000D02*
X113360200Y-80391000D01*
X116337200Y-96049000D02*
X113360200Y-93072000D01*
X151460200Y-81915000D02*
X151460200Y-80391000D01*
X151460200Y-93072000D02*
X151460200Y-81915000D01*
X154437200Y-96049000D02*
X151460200Y-93072000D01*
X174320200Y-93072000D02*
X174320200Y-80391000D01*
X177297200Y-96049000D02*
X174320200Y-93072000D01*
X212420200Y-93072000D02*
X212420200Y-80391000D01*
X215397200Y-96049000D02*
X212420200Y-93072000D01*
X235153200Y-80391000D02*
X235153200Y-92945000D01*
X235153200Y-92945000D02*
X238257200Y-96049000D01*
X90627200Y-93199000D02*
X90627200Y-80391000D01*
X93477200Y-96049000D02*
X90627200Y-93199000D01*
X175590200Y-64897000D02*
X175590200Y-80391000D01*
X171831000Y-101600000D02*
X171831000Y-102616000D01*
X171831000Y-102616000D02*
X171831000Y-109601000D01*
X174371000Y-109601000D02*
X174371000Y-96951800D01*
X174371000Y-96951800D02*
X174193200Y-96774000D01*
X176911000Y-109601000D02*
X176911000Y-102616000D01*
X179451000Y-109601000D02*
X179451000Y-104140000D01*
X181991000Y-109601000D02*
X181991000Y-106045000D01*
X140144500Y-109601000D02*
X141248500Y-109601000D01*
X141248500Y-109601000D02*
X150646500Y-100203000D01*
X150646500Y-100203000D02*
X173228000Y-100203000D01*
X172847000Y-98806000D02*
X148399500Y-98806000D01*
X148399500Y-98806000D02*
X137604500Y-109601000D01*
X135064500Y-89598500D02*
X134239000Y-88773000D01*
X134239000Y-88773000D02*
X132283200Y-88773000D01*
X135064500Y-109601000D02*
X135064500Y-89598500D01*
X132524500Y-109601000D02*
X132524500Y-91554300D01*
X132524500Y-91554300D02*
X132283200Y-91313000D01*
X67868800Y-107264200D02*
X70868799Y-104264201D01*
X70868799Y-104264201D02*
X70868799Y-67526117D01*
X70868799Y-67526117D02*
X68771681Y-65428999D01*
X68771681Y-65428999D02*
X67868800Y-65428999D01*
X68771681Y-105433999D02*
X67868800Y-105433999D01*
X257886200Y-67208400D02*
X257886200Y-105383199D01*
X129984500Y-109601000D02*
X129984500Y-102298500D01*
X129984500Y-102298500D02*
X129921000Y-102235000D01*
M02*
