G04 #@! TF.FileFunction,Copper,L2,Bot,Signal*
%FSLAX46Y46*%
G04 Gerber Fmt 4.6, Leading zero omitted, Abs format (unit mm)*
G04 Created by KiCad (PCBNEW 4.0.5) date Tuesday, October 10, 2017 'PMt' 05:41:59 PM*
%MOMM*%
%LPD*%
G01*
G04 APERTURE LIST*
%ADD10C,0.100000*%
%ADD11C,6.000000*%
%ADD12R,1.700000X1.700000*%
%ADD13O,1.700000X1.700000*%
%ADD14R,1.800000X1.800000*%
%ADD15C,1.800000*%
%ADD16C,1.408000*%
%ADD17C,0.889000*%
%ADD18C,0.254000*%
G04 APERTURE END LIST*
D10*
D11*
X257886200Y-67208400D03*
X67868800Y-67259200D03*
X67868800Y-107264200D03*
D12*
X150190200Y-64897000D03*
D13*
X152730200Y-64897000D03*
X155270200Y-64897000D03*
X157810200Y-64897000D03*
X160350200Y-64897000D03*
X162890200Y-64897000D03*
X165430200Y-64897000D03*
X167970200Y-64897000D03*
X170510200Y-64897000D03*
X173050200Y-64897000D03*
X175590200Y-64897000D03*
D12*
X169291000Y-109601000D03*
D13*
X171831000Y-109601000D03*
X174371000Y-109601000D03*
X176911000Y-109601000D03*
X179451000Y-109601000D03*
X181991000Y-109601000D03*
D12*
X140144500Y-109601000D03*
D13*
X137604500Y-109601000D03*
X135064500Y-109601000D03*
X132524500Y-109601000D03*
X129984500Y-109601000D03*
X127444500Y-109601000D03*
D14*
X132283200Y-88773000D03*
D15*
X132283200Y-91313000D03*
D14*
X193243200Y-88773000D03*
D15*
X193243200Y-91313000D03*
D16*
X230805200Y-85451000D03*
X233532200Y-84054000D03*
X228803200Y-91567000D03*
X229033200Y-88143000D03*
X239622200Y-85703000D03*
X241242200Y-88234000D03*
X235153200Y-96774000D03*
X240385200Y-94270000D03*
X241546200Y-91604000D03*
X230073200Y-94234000D03*
X238257200Y-96049000D03*
X236975200Y-84084000D03*
X232175200Y-96022000D03*
X207945200Y-85451000D03*
X210672200Y-84054000D03*
X205943200Y-91567000D03*
X206173200Y-88143000D03*
X216762200Y-85703000D03*
X218382200Y-88234000D03*
X212293200Y-96774000D03*
X217525200Y-94270000D03*
X218686200Y-91604000D03*
X207213200Y-94234000D03*
X215397200Y-96049000D03*
X214115200Y-84084000D03*
X209315200Y-96022000D03*
X169845200Y-85451000D03*
X172572200Y-84054000D03*
X167843200Y-91567000D03*
X168073200Y-88143000D03*
X178662200Y-85703000D03*
X180282200Y-88234000D03*
X174193200Y-96774000D03*
X179425200Y-94270000D03*
X180586200Y-91604000D03*
X169113200Y-94234000D03*
X177297200Y-96049000D03*
X176015200Y-84084000D03*
X171215200Y-96022000D03*
X146985200Y-85451000D03*
X149712200Y-84054000D03*
X144983200Y-91567000D03*
X145213200Y-88143000D03*
X155802200Y-85703000D03*
X157422200Y-88234000D03*
X151333200Y-96774000D03*
X156565200Y-94270000D03*
X157726200Y-91604000D03*
X146253200Y-94234000D03*
X154437200Y-96049000D03*
X153155200Y-84084000D03*
X148355200Y-96022000D03*
X108885200Y-85451000D03*
X111612200Y-84054000D03*
X106883200Y-91567000D03*
X107113200Y-88143000D03*
X117702200Y-85703000D03*
X119322200Y-88234000D03*
X113233200Y-96774000D03*
X118465200Y-94270000D03*
X119626200Y-91604000D03*
X108153200Y-94234000D03*
X116337200Y-96049000D03*
X115055200Y-84084000D03*
X110255200Y-96022000D03*
X86025200Y-85451000D03*
X88752200Y-84054000D03*
X84023200Y-91567000D03*
X84253200Y-88143000D03*
X94842200Y-85703000D03*
X96462200Y-88234000D03*
X90373200Y-96774000D03*
X95605200Y-94270000D03*
X96766200Y-91604000D03*
X85293200Y-94234000D03*
X93477200Y-96049000D03*
X92195200Y-84084000D03*
X87395200Y-96022000D03*
D11*
X257886200Y-107213400D03*
D17*
X150190200Y-67945000D03*
X208102200Y-67945000D03*
X169113200Y-67945000D03*
X145872200Y-67945000D03*
X108788200Y-67945000D03*
X231216200Y-67945000D03*
X85928200Y-67945000D03*
X152730200Y-69215000D03*
X238836200Y-69215000D03*
X216230200Y-69215000D03*
X177495200Y-69215000D03*
X156540200Y-69215000D03*
X117551200Y-69215000D03*
X94691200Y-69215000D03*
X155270200Y-70485000D03*
X241503200Y-70485000D03*
X218897200Y-70485000D03*
X180670200Y-70485000D03*
X159080200Y-70485000D03*
X120218200Y-70485000D03*
X96469200Y-70485000D03*
X157810200Y-71755000D03*
X243789200Y-71755000D03*
X221564200Y-71755000D03*
X183337200Y-71755000D03*
X161620200Y-71755000D03*
X122504200Y-71755000D03*
X98247200Y-71755000D03*
X160350200Y-73025000D03*
X240106200Y-73025000D03*
X217500200Y-73025000D03*
X179019200Y-73025000D03*
X157683200Y-73025000D03*
X118821200Y-73025000D03*
X95580200Y-73025000D03*
X162890200Y-74295000D03*
X237058200Y-74295000D03*
X214452200Y-74295000D03*
X176479200Y-74295000D03*
X154762200Y-74295000D03*
X115900200Y-74295000D03*
X93294200Y-74295000D03*
X165430200Y-75565000D03*
X233629200Y-75565000D03*
X210007200Y-75565000D03*
X171780200Y-75565000D03*
X149809200Y-75565000D03*
X111709200Y-75565000D03*
X88722200Y-75565000D03*
X229692200Y-76835000D03*
X206324200Y-76835000D03*
X144094200Y-76835000D03*
X106883200Y-76835000D03*
X83896200Y-76835000D03*
X167970200Y-76835000D03*
X170510200Y-78105000D03*
X227533200Y-78105000D03*
X204292200Y-78105000D03*
X166319200Y-78105000D03*
X141681200Y-78105000D03*
X104851200Y-78105000D03*
X82118200Y-78105000D03*
X173050200Y-79375000D03*
X200863200Y-79375000D03*
X163906200Y-79375000D03*
X139014200Y-79375000D03*
X102438200Y-79375000D03*
X225882200Y-79375000D03*
X80340200Y-79375000D03*
X113360200Y-80391000D03*
X151460200Y-80391000D03*
X174320200Y-80391000D03*
X212420200Y-80391000D03*
X235153200Y-80391000D03*
X90627200Y-80391000D03*
X175590200Y-80391000D03*
X171831000Y-101600000D03*
X176911000Y-102616000D03*
X179451000Y-104140000D03*
X181991000Y-106045000D03*
X173228000Y-100203000D03*
X172847000Y-98806000D03*
X129921000Y-102235000D03*
D18*
X208102200Y-67945000D02*
X231216200Y-67945000D01*
X169113200Y-67945000D02*
X208102200Y-67945000D01*
X150190200Y-67945000D02*
X169113200Y-67945000D01*
X145872200Y-67945000D02*
X150190200Y-67945000D01*
X108788200Y-67945000D02*
X145872200Y-67945000D01*
X85928200Y-67945000D02*
X108788200Y-67945000D01*
X207594200Y-67945000D02*
X208102200Y-67945000D01*
X169113200Y-67945000D02*
X169494200Y-67945000D01*
X111328200Y-67945000D02*
X145872200Y-67945000D01*
X145872200Y-67945000D02*
X146380200Y-67945000D01*
X169494200Y-67945000D02*
X207594200Y-67945000D01*
X207975200Y-67945000D02*
X207594200Y-67945000D01*
X169373583Y-67945000D02*
X169494200Y-67945000D01*
X146380200Y-67945000D02*
X150190200Y-67945000D01*
X146209936Y-67945000D02*
X146380200Y-67945000D01*
X85928200Y-67945000D02*
X109423200Y-67945000D01*
X109423200Y-67945000D02*
X111328200Y-67945000D01*
X109252936Y-67945000D02*
X109423200Y-67945000D01*
X177495200Y-69215000D02*
X216230200Y-69215000D01*
X216230200Y-69215000D02*
X238836200Y-69215000D01*
X156540200Y-69215000D02*
X177495200Y-69215000D01*
X156540200Y-69215000D02*
X152730200Y-69215000D01*
X94691200Y-69215000D02*
X117551200Y-69215000D01*
X117551200Y-69215000D02*
X152101583Y-69215000D01*
X152101583Y-69215000D02*
X152730200Y-69215000D01*
X241503200Y-70485000D02*
X240614200Y-70485000D01*
X180670200Y-70485000D02*
X218897200Y-70485000D01*
X218897200Y-70485000D02*
X240614200Y-70485000D01*
X159080200Y-70485000D02*
X180670200Y-70485000D01*
X159080200Y-70485000D02*
X155270200Y-70485000D01*
X96469200Y-70485000D02*
X120218200Y-70485000D01*
X120218200Y-70485000D02*
X155270200Y-70485000D01*
X243789200Y-71755000D02*
X243154200Y-71755000D01*
X183337200Y-71755000D02*
X221564200Y-71755000D01*
X221564200Y-71755000D02*
X243154200Y-71755000D01*
X161620200Y-71755000D02*
X183337200Y-71755000D01*
X157810200Y-71755000D02*
X161620200Y-71755000D01*
X98247200Y-71755000D02*
X122504200Y-71755000D01*
X122504200Y-71755000D02*
X157810200Y-71755000D01*
X217500200Y-73025000D02*
X240106200Y-73025000D01*
X179019200Y-73025000D02*
X217500200Y-73025000D01*
X160350200Y-73025000D02*
X179019200Y-73025000D01*
X118821200Y-73025000D02*
X157683200Y-73025000D01*
X157683200Y-73025000D02*
X160350200Y-73025000D01*
X95580200Y-73025000D02*
X118821200Y-73025000D01*
X176479200Y-74295000D02*
X214452200Y-74295000D01*
X214452200Y-74295000D02*
X237058200Y-74295000D01*
X162890200Y-74295000D02*
X176479200Y-74295000D01*
X115900200Y-74295000D02*
X154762200Y-74295000D01*
X154762200Y-74295000D02*
X162890200Y-74295000D01*
X93294200Y-74295000D02*
X115900200Y-74295000D01*
X88722200Y-75565000D02*
X111709200Y-75565000D01*
X210007200Y-75565000D02*
X233629200Y-75565000D01*
X165430200Y-75565000D02*
X171780200Y-75565000D01*
X171780200Y-75565000D02*
X233629200Y-75565000D01*
X165430200Y-75565000D02*
X149809200Y-75565000D01*
X149809200Y-75565000D02*
X89103200Y-75565000D01*
X89103200Y-75565000D02*
X88722200Y-75565000D01*
X167970200Y-76835000D02*
X206324200Y-76835000D01*
X206324200Y-76835000D02*
X229692200Y-76835000D01*
X106883200Y-76835000D02*
X144094200Y-76835000D01*
X144094200Y-76835000D02*
X167970200Y-76835000D01*
X83896200Y-76835000D02*
X106883200Y-76835000D01*
X204292200Y-78105000D02*
X227533200Y-78105000D01*
X170510200Y-78105000D02*
X204292200Y-78105000D01*
X166319200Y-78105000D02*
X170510200Y-78105000D01*
X141681200Y-78105000D02*
X166319200Y-78105000D01*
X104851200Y-78105000D02*
X141681200Y-78105000D01*
X82118200Y-78105000D02*
X104851200Y-78105000D01*
X82118200Y-78105000D02*
X166319200Y-78105000D01*
X170510200Y-78105000D02*
X227533200Y-78105000D01*
X173050200Y-79375000D02*
X200863200Y-79375000D01*
X200863200Y-79375000D02*
X225882200Y-79375000D01*
X139014200Y-79375000D02*
X163906200Y-79375000D01*
X163906200Y-79375000D02*
X173050200Y-79375000D01*
X102438200Y-79375000D02*
X139014200Y-79375000D01*
X80340200Y-79375000D02*
X102438200Y-79375000D01*
X90627200Y-80391000D02*
X113360200Y-80391000D01*
X151460200Y-80391000D02*
X113360200Y-80391000D01*
X174320200Y-80391000D02*
X151460200Y-80391000D01*
X175590200Y-80391000D02*
X174320200Y-80391000D01*
X212420200Y-80391000D02*
X175590200Y-80391000D01*
X235153200Y-80391000D02*
X212420200Y-80391000D01*
X235153200Y-96774000D02*
X235153200Y-100126800D01*
X235153200Y-100126800D02*
X227965000Y-107315000D01*
X170473000Y-107315000D02*
X227965000Y-107315000D01*
X169291000Y-109601000D02*
X169291000Y-108497000D01*
X169291000Y-108497000D02*
X170473000Y-107315000D01*
X210566000Y-101473000D02*
X171958000Y-101473000D01*
X171958000Y-101473000D02*
X171831000Y-101600000D01*
X212293200Y-99745800D02*
X210566000Y-101473000D01*
X212293200Y-96774000D02*
X212293200Y-99745800D01*
X151333200Y-96774000D02*
X151333200Y-98755200D01*
X151333200Y-98755200D02*
X155194000Y-102616000D01*
X176911000Y-102616000D02*
X155194000Y-102616000D01*
X116332000Y-104140000D02*
X179451000Y-104140000D01*
X113233200Y-101041200D02*
X116332000Y-104140000D01*
X113233200Y-96774000D02*
X113233200Y-101041200D01*
X95123000Y-106045000D02*
X181991000Y-106045000D01*
X90373200Y-101295200D02*
X95123000Y-106045000D01*
X90373200Y-96774000D02*
X90373200Y-101295200D01*
X196723000Y-90551000D02*
X194945000Y-88773000D01*
X194945000Y-88773000D02*
X193243200Y-88773000D01*
X196723000Y-96393000D02*
X196723000Y-90551000D01*
X192913000Y-100203000D02*
X196723000Y-96393000D01*
X173228000Y-100203000D02*
X192913000Y-100203000D01*
X193243200Y-91313000D02*
X185750200Y-98806000D01*
X185750200Y-98806000D02*
X172847000Y-98806000D01*
X132524500Y-91554300D02*
X132283200Y-91313000D01*
X132537200Y-91567000D02*
X132283200Y-91313000D01*
X127444500Y-109601000D02*
X70205600Y-109601000D01*
X70205600Y-109601000D02*
X67868800Y-107264200D01*
X108966000Y-87884000D02*
X117475000Y-87884000D01*
X94361000Y-88265000D02*
X97282000Y-85344000D01*
X67868800Y-67259200D02*
X70868799Y-70259199D01*
X259767201Y-66356319D02*
X259767201Y-68162081D01*
X70868799Y-70259199D02*
X70868799Y-72265799D01*
X70868799Y-72265799D02*
X86868000Y-88265000D01*
X86868000Y-88265000D02*
X94361000Y-88265000D01*
X219202000Y-85217000D02*
X228219000Y-85217000D01*
X97282000Y-85344000D02*
X106426000Y-85344000D01*
X181102000Y-85471000D02*
X205867000Y-85471000D01*
X106426000Y-85344000D02*
X108966000Y-87884000D01*
X208407000Y-88011000D02*
X216408000Y-88011000D01*
X117475000Y-87884000D02*
X120777000Y-84582000D01*
X120777000Y-84582000D02*
X143637000Y-84582000D01*
X157607000Y-85725000D02*
X167894000Y-85725000D01*
X143637000Y-84582000D02*
X147447000Y-88392000D01*
X230632000Y-87630000D02*
X239649000Y-87630000D01*
X147447000Y-88392000D02*
X154940000Y-88392000D01*
X256983319Y-65378199D02*
X258789081Y-65378199D01*
X167894000Y-85725000D02*
X170307000Y-88138000D01*
X170307000Y-88138000D02*
X178435000Y-88138000D01*
X154940000Y-88392000D02*
X157607000Y-85725000D01*
X254254000Y-73025000D02*
X254254000Y-68107518D01*
X178435000Y-88138000D02*
X181102000Y-85471000D01*
X205867000Y-85471000D02*
X208407000Y-88011000D01*
X216408000Y-88011000D02*
X219202000Y-85217000D01*
X228219000Y-85217000D02*
X230632000Y-87630000D01*
X239649000Y-87630000D02*
X254254000Y-73025000D01*
X254254000Y-68107518D02*
X256983319Y-65378199D01*
X258789081Y-65378199D02*
X259767201Y-66356319D01*
X172593000Y-92583000D02*
X179578000Y-92583000D01*
X157099000Y-96520000D02*
X168656000Y-96520000D01*
X190627000Y-86487000D02*
X197739000Y-86487000D01*
X129921000Y-102235000D02*
X134239000Y-97917000D01*
X179578000Y-92583000D02*
X181102000Y-94107000D01*
X134239000Y-97917000D02*
X144526000Y-97917000D01*
X247015000Y-89916000D02*
X257886200Y-100787200D01*
X144526000Y-97917000D02*
X150114000Y-92329000D01*
X188595000Y-88519000D02*
X190627000Y-86487000D01*
X152908000Y-92329000D02*
X157099000Y-96520000D01*
X150114000Y-92329000D02*
X152908000Y-92329000D01*
X168656000Y-96520000D02*
X172593000Y-92583000D01*
X181102000Y-94107000D02*
X186055000Y-94107000D01*
X186055000Y-94107000D02*
X188595000Y-91567000D01*
X257886200Y-105383199D02*
X256983319Y-105383199D01*
X197739000Y-86487000D02*
X201168000Y-89916000D01*
X188595000Y-91567000D02*
X188595000Y-88519000D01*
X201168000Y-89916000D02*
X247015000Y-89916000D01*
X257886200Y-100787200D02*
X257886200Y-105383199D01*
M02*
