G04 #@! TF.FileFunction,Soldermask,Bot*
%FSLAX46Y46*%
G04 Gerber Fmt 4.6, Leading zero omitted, Abs format (unit mm)*
G04 Created by KiCad (PCBNEW 4.0.5) date Tuesday, October 10, 2017 'PMt' 05:41:59 PM*
%MOMM*%
%LPD*%
G01*
G04 APERTURE LIST*
%ADD10C,0.100000*%
%ADD11C,3.400000*%
%ADD12R,2.100000X2.100000*%
%ADD13O,2.100000X2.100000*%
%ADD14R,2.200000X2.200000*%
%ADD15C,2.200000*%
%ADD16C,1.808000*%
G04 APERTURE END LIST*
D10*
D11*
X257886200Y-67208400D03*
X67868800Y-67259200D03*
X67868800Y-107264200D03*
D12*
X150190200Y-64897000D03*
D13*
X152730200Y-64897000D03*
X155270200Y-64897000D03*
X157810200Y-64897000D03*
X160350200Y-64897000D03*
X162890200Y-64897000D03*
X165430200Y-64897000D03*
X167970200Y-64897000D03*
X170510200Y-64897000D03*
X173050200Y-64897000D03*
X175590200Y-64897000D03*
D12*
X169291000Y-109601000D03*
D13*
X171831000Y-109601000D03*
X174371000Y-109601000D03*
X176911000Y-109601000D03*
X179451000Y-109601000D03*
X181991000Y-109601000D03*
D12*
X140144500Y-109601000D03*
D13*
X137604500Y-109601000D03*
X135064500Y-109601000D03*
X132524500Y-109601000D03*
X129984500Y-109601000D03*
X127444500Y-109601000D03*
D14*
X132283200Y-88773000D03*
D15*
X132283200Y-91313000D03*
D14*
X193243200Y-88773000D03*
D15*
X193243200Y-91313000D03*
D16*
X230805200Y-85451000D03*
X233532200Y-84054000D03*
X228803200Y-91567000D03*
X229033200Y-88143000D03*
X239622200Y-85703000D03*
X241242200Y-88234000D03*
X235153200Y-96774000D03*
X240385200Y-94270000D03*
X241546200Y-91604000D03*
X230073200Y-94234000D03*
X238257200Y-96049000D03*
X236975200Y-84084000D03*
X232175200Y-96022000D03*
X207945200Y-85451000D03*
X210672200Y-84054000D03*
X205943200Y-91567000D03*
X206173200Y-88143000D03*
X216762200Y-85703000D03*
X218382200Y-88234000D03*
X212293200Y-96774000D03*
X217525200Y-94270000D03*
X218686200Y-91604000D03*
X207213200Y-94234000D03*
X215397200Y-96049000D03*
X214115200Y-84084000D03*
X209315200Y-96022000D03*
X169845200Y-85451000D03*
X172572200Y-84054000D03*
X167843200Y-91567000D03*
X168073200Y-88143000D03*
X178662200Y-85703000D03*
X180282200Y-88234000D03*
X174193200Y-96774000D03*
X179425200Y-94270000D03*
X180586200Y-91604000D03*
X169113200Y-94234000D03*
X177297200Y-96049000D03*
X176015200Y-84084000D03*
X171215200Y-96022000D03*
X146985200Y-85451000D03*
X149712200Y-84054000D03*
X144983200Y-91567000D03*
X145213200Y-88143000D03*
X155802200Y-85703000D03*
X157422200Y-88234000D03*
X151333200Y-96774000D03*
X156565200Y-94270000D03*
X157726200Y-91604000D03*
X146253200Y-94234000D03*
X154437200Y-96049000D03*
X153155200Y-84084000D03*
X148355200Y-96022000D03*
X108885200Y-85451000D03*
X111612200Y-84054000D03*
X106883200Y-91567000D03*
X107113200Y-88143000D03*
X117702200Y-85703000D03*
X119322200Y-88234000D03*
X113233200Y-96774000D03*
X118465200Y-94270000D03*
X119626200Y-91604000D03*
X108153200Y-94234000D03*
X116337200Y-96049000D03*
X115055200Y-84084000D03*
X110255200Y-96022000D03*
X86025200Y-85451000D03*
X88752200Y-84054000D03*
X84023200Y-91567000D03*
X84253200Y-88143000D03*
X94842200Y-85703000D03*
X96462200Y-88234000D03*
X90373200Y-96774000D03*
X95605200Y-94270000D03*
X96766200Y-91604000D03*
X85293200Y-94234000D03*
X93477200Y-96049000D03*
X92195200Y-84084000D03*
X87395200Y-96022000D03*
D11*
X257886200Y-107264200D03*
M02*
