M48
;DRILL file {KiCad 4.0.5} date Tuesday, October 10, 2017 'PMt' 05:42:01 PM
;FORMAT={-:-/ absolute / metric / decimal}
FMAT,2
METRIC,TZ
T1C0.508
T2C0.900
T3C1.000
%
G90
G05
M71
T1
X80.34Y-79.375
X82.118Y-78.105
X83.896Y-76.835
X85.928Y-67.945
X88.722Y-75.565
X90.627Y-80.391
X93.294Y-74.295
X94.691Y-69.215
X95.58Y-73.025
X96.469Y-70.485
X98.247Y-71.755
X102.438Y-79.375
X104.851Y-78.105
X106.883Y-76.835
X108.788Y-67.945
X111.709Y-75.565
X113.36Y-80.391
X115.9Y-74.295
X117.551Y-69.215
X118.821Y-73.025
X120.218Y-70.485
X122.504Y-71.755
X129.921Y-102.235
X139.014Y-79.375
X141.681Y-78.105
X144.094Y-76.835
X145.872Y-67.945
X149.809Y-75.565
X150.19Y-67.945
X151.46Y-80.391
X152.73Y-69.215
X154.762Y-74.295
X155.27Y-70.485
X156.54Y-69.215
X157.683Y-73.025
X157.81Y-71.755
X159.08Y-70.485
X160.35Y-73.025
X161.62Y-71.755
X162.89Y-74.295
X163.906Y-79.375
X165.43Y-75.565
X166.319Y-78.105
X167.97Y-76.835
X169.113Y-67.945
X170.51Y-78.105
X171.78Y-75.565
X171.831Y-101.6
X172.847Y-98.806
X173.05Y-79.375
X173.228Y-100.203
X174.32Y-80.391
X175.59Y-80.391
X176.479Y-74.295
X176.911Y-102.616
X177.495Y-69.215
X179.019Y-73.025
X179.451Y-104.14
X180.67Y-70.485
X181.991Y-106.045
X183.337Y-71.755
X200.863Y-79.375
X204.292Y-78.105
X206.324Y-76.835
X208.102Y-67.945
X210.007Y-75.565
X212.42Y-80.391
X214.452Y-74.295
X216.23Y-69.215
X217.5Y-73.025
X218.897Y-70.485
X221.564Y-71.755
X225.882Y-79.375
X227.533Y-78.105
X229.692Y-76.835
X231.216Y-67.945
X233.629Y-75.565
X235.153Y-80.391
X237.058Y-74.295
X238.836Y-69.215
X240.106Y-73.025
X241.503Y-70.485
X243.789Y-71.755
T2
X84.023Y-91.567
X84.253Y-88.143
X85.293Y-94.234
X86.025Y-85.451
X87.395Y-96.022
X88.752Y-84.054
X90.373Y-96.774
X92.195Y-84.084
X93.477Y-96.049
X94.842Y-85.703
X95.605Y-94.27
X96.462Y-88.234
X96.766Y-91.604
X106.883Y-91.567
X107.113Y-88.143
X108.153Y-94.234
X108.885Y-85.451
X110.255Y-96.022
X111.612Y-84.054
X113.233Y-96.774
X115.055Y-84.084
X116.337Y-96.049
X117.702Y-85.703
X118.465Y-94.27
X119.322Y-88.234
X119.626Y-91.604
X132.283Y-88.773
X132.283Y-91.313
X144.983Y-91.567
X145.213Y-88.143
X146.253Y-94.234
X146.985Y-85.451
X148.355Y-96.022
X149.712Y-84.054
X151.333Y-96.774
X153.155Y-84.084
X154.437Y-96.049
X155.802Y-85.703
X156.565Y-94.27
X157.422Y-88.234
X157.726Y-91.604
X167.843Y-91.567
X168.073Y-88.143
X169.113Y-94.234
X169.845Y-85.451
X171.215Y-96.022
X172.572Y-84.054
X174.193Y-96.774
X176.015Y-84.084
X177.297Y-96.049
X178.662Y-85.703
X179.425Y-94.27
X180.282Y-88.234
X180.586Y-91.604
X193.243Y-88.773
X193.243Y-91.313
X205.943Y-91.567
X206.173Y-88.143
X207.213Y-94.234
X207.945Y-85.451
X209.315Y-96.022
X210.672Y-84.054
X212.293Y-96.774
X214.115Y-84.084
X215.397Y-96.049
X216.762Y-85.703
X217.525Y-94.27
X218.382Y-88.234
X218.686Y-91.604
X228.803Y-91.567
X229.033Y-88.143
X230.073Y-94.234
X230.805Y-85.451
X232.175Y-96.022
X233.532Y-84.054
X235.153Y-96.774
X236.975Y-84.084
X238.257Y-96.049
X239.622Y-85.703
X240.385Y-94.27
X241.242Y-88.234
X241.546Y-91.604
T3
X127.444Y-109.601
X129.984Y-109.601
X132.524Y-109.601
X135.064Y-109.601
X137.605Y-109.601
X140.144Y-109.601
X150.19Y-64.897
X152.73Y-64.897
X155.27Y-64.897
X157.81Y-64.897
X160.35Y-64.897
X162.89Y-64.897
X165.43Y-64.897
X167.97Y-64.897
X169.291Y-109.601
X170.51Y-64.897
X171.831Y-109.601
X173.05Y-64.897
X174.371Y-109.601
X175.59Y-64.897
X176.911Y-109.601
X179.451Y-109.601
X181.991Y-109.601
T0
M30
